<svg width="32" height="32" viewBox="0 0 32 32" fill="none" xmlns="http://www.w3.org/2000/svg">
<path d="M23.6361 8.42627C22.212 7.75997 20.6893 7.27573 19.0973 7C18.9018 7.35348 18.6734 7.82891 18.5159 8.20712C16.8236 7.95262 15.1469 7.95262 13.4857 8.20712C13.3283 7.82891 13.0947 7.35348 12.8974 7C11.3037 7.27573 9.77928 7.76175 8.35518 8.4298C5.48276 12.7704 4.70409 17.0032 5.09342 21.1759C6.99856 22.5986 8.84487 23.4628 10.66 24.0284C11.1082 23.4116 11.5079 22.7559 11.8522 22.0649C11.1964 21.8157 10.5683 21.5082 9.97482 21.1512C10.1323 21.0345 10.2863 20.9125 10.4351 20.7871C14.055 22.4802 17.9882 22.4802 21.5648 20.7871C21.7154 20.9125 21.8694 21.0345 22.0251 21.1512C21.4299 21.5099 20.8 21.8174 20.1442 22.0666C20.4885 22.7559 20.8865 23.4134 21.3364 24.0301C23.1533 23.4646 25.0014 22.6004 26.9065 21.1759C27.3633 16.3387 26.1261 12.1448 23.6361 8.42627ZM12.3454 18.6097C11.2587 18.6097 10.3676 17.5952 10.3676 16.3599C10.3676 15.1245 11.2397 14.1083 12.3454 14.1083C13.4511 14.1083 14.3423 15.1227 14.3232 16.3599C14.325 17.5952 13.4511 18.6097 12.3454 18.6097ZM19.6545 18.6097C18.5678 18.6097 17.6767 17.5952 17.6767 16.3599C17.6767 15.1245 18.5488 14.1083 19.6545 14.1083C20.7602 14.1083 21.6514 15.1227 21.6323 16.3599C21.6323 17.5952 20.7602 18.6097 19.6545 18.6097Z" fill="white"/>
</svg>
