<svg width="91" height="89" viewBox="0 0 91 89" fill="none" xmlns="http://www.w3.org/2000/svg">
<g clip-path="url(#clip0_666_1649)">
<path d="M45.5006 0.000855574C36.637 0.110223 28.0039 2.81314 20.6876 7.76942C13.3713 12.7257 7.69863 19.7141 4.38306 27.8553C1.06749 35.9964 0.257233 44.9267 2.05418 53.5228C3.85113 62.1189 8.1749 69.9967 14.4818 76.1652C20.7887 82.3337 28.7969 86.5175 37.4988 88.1899C46.2008 89.8623 55.208 88.9487 63.3869 85.5641C71.5659 82.1796 78.5514 76.4753 83.4647 69.1689C88.3781 61.8624 90.9997 53.2801 90.9998 44.5017C90.9246 32.6257 86.0887 21.2654 77.5561 12.92C69.0235 4.57466 57.4929 -0.0725065 45.5006 0.000855574Z" fill="#00EDBE"/>
<path d="M63.4816 28.046C63.3598 25.8207 63.908 23.6098 65.0565 21.6934H28.3792C28.0505 21.6922 27.7248 21.7552 27.4207 21.8787C27.1165 22.0021 26.8399 22.1837 26.6067 22.4131C26.3734 22.6424 26.188 22.9151 26.0612 23.2153C25.9343 23.5156 25.8684 23.8377 25.8672 24.1633V31.9272C25.8684 32.2527 25.9343 32.5748 26.0612 32.8751C26.188 33.1754 26.3734 33.448 26.6067 33.6773C26.8399 33.9067 27.1165 34.0883 27.4207 34.2118C27.7248 34.3353 28.0505 34.3982 28.3792 34.3971H65.0565C63.908 32.4807 63.3598 30.2697 63.4816 28.0445" fill="#141BEB"/>
<path d="M20.1512 44.626C20.2708 46.8514 19.7206 49.0618 18.5703 50.9771H55.2476C55.5763 50.9783 55.902 50.9154 56.2061 50.7919C56.5103 50.6684 56.7868 50.4868 57.0201 50.2574C57.2534 50.0281 57.4387 49.7555 57.5656 49.4552C57.6925 49.1549 57.7584 48.8328 57.7596 48.5073V40.7433C57.7584 40.4178 57.6925 40.0957 57.5656 39.7954C57.4387 39.4951 57.2534 39.2225 57.0201 38.9932C56.7868 38.7638 56.5103 38.5822 56.2061 38.4587C55.902 38.3352 55.5763 38.2723 55.2476 38.2735H18.5703C19.7188 40.1899 20.2669 42.4008 20.1452 44.626" fill="#141BEB"/>
<path d="M63.4816 61.2061C63.3598 58.9809 63.908 56.7699 65.0565 54.8535H28.3792C28.0505 54.8524 27.7248 54.9153 27.4207 55.0388C27.1165 55.1623 26.8399 55.3439 26.6067 55.5733C26.3734 55.8026 26.188 56.0752 26.0612 56.3755C25.9343 56.6758 25.8684 56.9979 25.8672 57.3234V65.0873C25.8684 65.4128 25.9343 65.735 26.0612 66.0353C26.188 66.3356 26.3734 66.6082 26.6067 66.8375C26.8399 67.0669 27.1165 67.2485 27.4207 67.372C27.7248 67.4954 28.0505 67.5584 28.3792 67.5572H65.0565C63.908 65.6408 63.3598 63.4299 63.4816 61.2046" fill="#141BEB"/>
</g>
<defs>
<clipPath id="clip0_666_1649">
<rect width="91" height="89" fill="white"/>
</clipPath>
</defs>
</svg>
