<svg width="32" height="32" viewBox="0 0 32 32" fill="none" xmlns="http://www.w3.org/2000/svg">
<path d="M24.6586 11.1053C23.7643 9.53477 22.5514 8.29135 21.0194 7.37479C19.4871 6.45818 17.8144 6 15.9999 6C14.1857 6 12.5124 6.45833 10.9805 7.37479C9.4483 8.2913 8.23539 9.53477 7.34116 11.1053C6.44707 12.6759 6 14.3909 6 16.2504C6 18.484 6.63574 20.4926 7.90753 22.2766C9.17919 24.0607 10.822 25.2952 12.8358 25.9803C13.0702 26.0249 13.2437 25.9936 13.3565 25.887C13.4694 25.7804 13.5258 25.6467 13.5258 25.4868C13.5258 25.4601 13.5235 25.2199 13.5192 24.766C13.5151 24.3702 13.5129 23.9743 13.5126 23.5783L13.2132 23.6315C13.0222 23.6673 12.7813 23.6825 12.4905 23.6782C12.1998 23.674 11.898 23.6428 11.5856 23.5847C11.273 23.5272 10.9823 23.3937 10.7132 23.1846C10.4442 22.9755 10.2532 22.7018 10.1404 22.3639L10.0102 22.0568C9.92337 21.8523 9.78674 21.6251 9.60008 21.3761C9.41342 21.1269 9.22466 20.958 9.03371 20.869L8.94254 20.8021C8.8818 20.7577 8.82543 20.704 8.7733 20.6418C8.72122 20.5796 8.68223 20.5173 8.65619 20.455C8.6301 20.3926 8.65172 20.3414 8.72127 20.3012C8.79081 20.261 8.9165 20.2416 9.09888 20.2416L9.35919 20.2814C9.53281 20.3171 9.74757 20.4236 10.0037 20.6017C10.2598 20.7796 10.4702 21.0109 10.6352 21.2956C10.8349 21.6605 11.0756 21.9385 11.3578 22.1299C11.6399 22.3212 11.9242 22.4167 12.2106 22.4167C12.497 22.4167 12.7444 22.3945 12.9528 22.3502C13.161 22.3057 13.3563 22.2388 13.5387 22.1499C13.6168 21.5535 13.8295 21.0953 14.1766 20.775C13.6819 20.7217 13.2371 20.6414 12.842 20.5347C12.4472 20.4278 12.0391 20.2544 11.6182 20.0139C11.197 19.7738 10.8477 19.4756 10.57 19.1198C10.2922 18.7639 10.0643 18.2966 9.88648 17.7183C9.70857 17.1399 9.6196 16.4726 9.6196 15.7163C9.6196 14.6394 9.96255 13.723 10.6483 12.9666C10.3271 12.1571 10.3574 11.2495 10.7394 10.244C10.9911 10.1638 11.3645 10.224 11.8592 10.4241C12.354 10.6243 12.7163 10.7959 12.9464 10.9381C13.1765 11.0802 13.3609 11.2007 13.4998 11.2984C14.3073 11.0671 15.1405 10.9515 15.9998 10.9515C16.8591 10.9515 17.6925 11.0671 18.5 11.2984L18.9948 10.9782C19.3332 10.7646 19.7327 10.5688 20.1925 10.3908C20.6526 10.213 21.0044 10.164 21.2475 10.2441C21.638 11.2497 21.6728 12.1572 21.3515 12.9668C22.0372 13.7232 22.3803 14.6398 22.3803 15.7164C22.3803 16.4727 22.291 17.1421 22.1133 17.725C21.9355 18.308 21.7056 18.7749 21.4236 19.1265C21.1412 19.4781 20.7896 19.774 20.3687 20.0141C19.9476 20.2544 19.5395 20.4278 19.1446 20.5347C18.7496 20.6415 18.3048 20.7219 17.8101 20.7752C18.2613 21.1755 18.4869 21.8073 18.4869 22.6704V25.4864C18.4869 25.6464 18.5412 25.7799 18.6498 25.8867C18.7583 25.9932 18.9297 26.0246 19.1641 25.9799C21.1782 25.2949 22.8209 24.0603 24.0926 22.2762C25.364 20.4922 26 18.4837 26 16.25C25.9995 14.3908 25.5522 12.6759 24.6586 11.1053Z" fill="white"/>
</svg>
