<svg width="32" height="32" viewBox="0 0 32 32" fill="none" xmlns="http://www.w3.org/2000/svg">
<path fill-rule="evenodd" clip-rule="evenodd" d="M6.28873 9.17157C5 10.3431 5 12.2288 5 16C5 19.7712 5 21.6569 6.28873 22.8284C7.57746 24 9.65164 24 13.8 24H18.2C22.3484 24 24.4225 24 25.7113 22.8284C27 21.6569 27 19.7712 27 16C27 12.2288 27 10.3431 25.7113 9.17157C24.4225 8 22.3484 8 18.2 8H13.8C9.65164 8 7.57746 8 6.28873 9.17157ZM23.2338 11.5199C23.5255 11.8381 23.4782 12.311 23.1282 12.5762L20.712 14.4066C19.737 15.1452 18.9468 15.7439 18.2493 16.1517C17.5228 16.5765 16.8152 16.8449 16 16.8449C15.1848 16.8449 14.4772 16.5765 13.7507 16.1517C13.0532 15.7439 12.263 15.1452 11.288 14.4066L8.87185 12.5762C8.52182 12.311 8.47453 11.8381 8.76622 11.5199C9.05791 11.2017 9.57812 11.1587 9.92815 11.4238L12.3029 13.2229C13.3292 14.0004 14.0417 14.5384 14.6432 14.8901C15.2255 15.2306 15.6204 15.3449 16 15.3449C16.3796 15.3449 16.7745 15.2306 17.3568 14.8901C17.9583 14.5384 18.6708 14.0004 19.6971 13.2229L22.0718 11.4238C22.4219 11.1587 22.9421 11.2017 23.2338 11.5199Z" fill="white"/>
</svg>
