<svg width="136" height="51" viewBox="0 0 136 51" fill="none" xmlns="http://www.w3.org/2000/svg">
<g clip-path="url(#clip0_75_12)">
<path d="M60.5571 16.0956C60.6536 16.1921 60.7139 16.3127 60.7139 16.4575C60.7139 16.5057 60.7139 16.5419 60.7019 16.5902L58.3256 25.4681C58.2653 25.6852 58.0723 25.83 57.8551 25.83H48.6636C48.3861 25.83 48.169 25.6008 48.169 25.3475C48.169 25.2992 48.169 25.263 48.1811 25.2148L50.0387 18.2668H51.064C51.0519 18.2668 42.4514 15.9629 42.4514 15.9629H60.2314C60.3641 15.9629 60.4727 16.0112 60.5571 16.0956ZM52.8975 22.8747H54.936L55.9975 18.9303H51.9084L53.8142 19.4128L52.8975 22.8747ZM71.9535 15.9629L69.3118 25.83H65.2226L64.6798 21.1377H62.6413L64.5471 21.6323L63.4253 25.83H59.3362L61.9779 15.9629H65.6207C65.874 15.9629 66.0911 16.1559 66.1153 16.4092L66.6098 20.6552L67.8643 15.9629H71.9535ZM77.1753 15.9629L75.4504 22.3801H73.4118L75.3177 22.8747H80.4321L79.636 25.83H70.4444L73.0861 15.9629H77.1753ZM88.5791 19.654L89.5682 15.9629H93.6453L91.1001 25.4681C91.0519 25.6852 90.8468 25.83 90.6297 25.83H80.7988L81.4864 23.2366H87.6141L87.8794 22.2474H82.4031C82.1257 22.2474 81.9085 22.0183 81.9085 21.7529C81.9085 21.7167 81.9085 21.6684 81.9206 21.6323L83.4405 15.9629H87.5176L86.7335 18.9303H84.6829L86.6008 19.4248L86.5285 19.654H88.5791Z" fill="white"/>
<path d="M50.3736 29.2783H51.2876L43.6106 27.2246H60.029L59.3194 29.8589H52.0402L53.739 30.2997L53.6208 30.7406H58.1796L57.4592 33.4178L56.083 32.5039H53.1584L51.7391 37.7832V37.7724L48.4275 36.5359L50.3736 29.2783ZM61.2976 27.2246H69.4906C69.7379 27.2246 69.9315 27.4289 69.9315 27.6655C69.9315 27.7085 69.9207 27.7407 69.91 27.7837L67.7918 35.6973C67.7381 35.8908 67.566 36.0198 67.3725 36.0198H59.1794C58.9321 36.0198 58.7386 35.8155 58.7386 35.5897C58.7386 35.5467 58.7386 35.5145 58.7493 35.4715L60.8675 27.5579C60.9212 27.3644 61.0933 27.2246 61.2976 27.2246ZM64.7705 33.3856L65.7167 29.8696H62.0717L63.7813 30.3105L62.9534 33.3856H64.7705ZM77.3788 36.0198H69.1857C68.9492 36.0198 68.7556 35.8155 68.7556 35.579C68.7556 35.5467 68.7556 35.5037 68.7664 35.4715L70.9706 27.2246H74.6155L73.078 32.9447H71.2609L72.9597 33.3856H74.7876L76.4326 27.2246H80.0776L77.8089 35.6973C77.7551 35.8908 77.5831 36.0198 77.3788 36.0198ZM89.9774 27.2246L87.6227 36.0198H83.9777L83.4939 31.8373H81.6768L83.3756 32.2781L82.3757 36.0198H78.7307L81.0854 27.2246H84.3325C84.5583 27.2246 84.7519 27.3967 84.7734 27.6225L85.2142 31.4072L86.3324 27.2246H89.9774ZM88.6323 36.0198L90.987 27.2246H99.5239C99.7609 27.2246 99.9539 27.4289 99.9539 27.6655C99.9539 27.7085 99.9539 27.7407 99.9439 27.7837L97.8249 35.6973C97.7719 35.8908 97.5999 36.0198 97.3949 36.0198H88.6323ZM95.7399 29.8696H92.1052L93.804 30.3105L92.9761 33.3856H94.8039L95.7399 29.8696ZM108.529 33.3856L107.83 36.0198H98.7229L101.078 27.2246H110.185L109.475 29.8696H102.196L103.895 30.3105L103.776 30.7513H108.325L107.862 32.5039H103.303L103.067 33.3856H108.529ZM113.178 33.3856L112.469 36.0198H108.835L111.189 27.2246H119.716C119.963 27.2246 120.156 27.4289 120.156 27.6655C120.156 27.7085 120.156 27.7407 120.146 27.7837L119.35 30.7513L118.2 31.6222L118.877 32.5039L117.931 36.0198H114.297L114.995 33.3856H113.178ZM115.942 29.8696H112.297L114.006 30.2997L113.888 30.7406H115.705L115.942 29.8696ZM129.29 31.2997L128.118 35.6973C128.064 35.8908 127.892 36.0198 127.688 36.0198H118.925L119.635 33.3856H125.097L125.333 32.5039H120.441C120.194 32.5039 120 32.2996 120 32.0631C120 32.0308 120 31.9878 120.011 31.9555L121.194 27.5579C121.248 27.3644 121.42 27.2246 121.613 27.2246H130.387L129.677 29.8696H122.398L124.097 30.3105L123.979 30.7513H128.871C129.107 30.7513 129.301 30.9449 129.301 31.1814C129.301 31.2244 129.301 31.2567 129.29 31.2997Z" fill="#BDEFFC"/>
<path d="M50.3736 29.2783H51.2876L43.6106 27.2246H60.029L59.3194 29.8589H52.0402L53.739 30.2997L53.6208 30.7406H58.1796L57.4592 33.4178L56.083 32.5039H53.1584L51.7391 37.7832V37.7724L48.4275 36.5359L50.3736 29.2783ZM61.2976 27.2246H69.4906C69.7379 27.2246 69.9315 27.4289 69.9315 27.6655C69.9315 27.7085 69.9207 27.7407 69.91 27.7837L67.7918 35.6973C67.7381 35.8908 67.566 36.0198 67.3725 36.0198H59.1794C58.9321 36.0198 58.7386 35.8155 58.7386 35.5897C58.7386 35.5467 58.7386 35.5145 58.7493 35.4715L60.8675 27.5579C60.9212 27.3644 61.0933 27.2246 61.2976 27.2246ZM64.7705 33.3856L65.7167 29.8696H62.0717L63.7813 30.3105L62.9534 33.3856H64.7705ZM77.3788 36.0198H69.1857C68.9492 36.0198 68.7556 35.8155 68.7556 35.579C68.7556 35.5467 68.7556 35.5037 68.7664 35.4715L70.9706 27.2246H74.6155L73.078 32.9447H71.2609L72.9597 33.3856H74.7876L76.4326 27.2246H80.0776L77.8089 35.6973C77.7551 35.8908 77.5831 36.0198 77.3788 36.0198ZM89.9774 27.2246L87.6227 36.0198H83.9777L83.4939 31.8373H81.6768L83.3756 32.2781L82.3757 36.0198H78.7307L81.0854 27.2246H84.3325C84.5583 27.2246 84.7519 27.3967 84.7734 27.6225L85.2142 31.4072L86.3324 27.2246H89.9774ZM88.6323 36.0198L90.987 27.2246H99.5239C99.7609 27.2246 99.9539 27.4289 99.9539 27.6655C99.9539 27.7085 99.9539 27.7407 99.9439 27.7837L97.8249 35.6973C97.7719 35.8908 97.5999 36.0198 97.3949 36.0198H88.6323ZM95.7399 29.8696H92.1052L93.804 30.3105L92.9761 33.3856H94.8039L95.7399 29.8696ZM108.529 33.3856L107.83 36.0198H98.7229L101.078 27.2246H110.185L109.475 29.8696H102.196L103.895 30.3105L103.776 30.7513H108.325L107.862 32.5039H103.303L103.067 33.3856H108.529ZM113.178 33.3856L112.469 36.0198H108.835L111.189 27.2246H119.716C119.963 27.2246 120.156 27.4289 120.156 27.6655C120.156 27.7085 120.156 27.7407 120.146 27.7837L119.35 30.7513L118.2 31.6222L118.877 32.5039L117.931 36.0198H114.297L114.995 33.3856H113.178ZM115.942 29.8696H112.297L114.006 30.2997L113.888 30.7406H115.705L115.942 29.8696ZM129.29 31.2997L128.118 35.6973C128.064 35.8908 127.892 36.0198 127.688 36.0198H118.925L119.635 33.3856H125.097L125.333 32.5039H120.441C120.194 32.5039 120 32.2996 120 32.0631C120 32.0308 120 31.9878 120.011 31.9555L121.194 27.5579C121.248 27.3644 121.42 27.2246 121.613 27.2246H130.387L129.677 29.8696H122.398L124.097 30.3105L123.979 30.7513H128.871C129.107 30.7513 129.301 30.9449 129.301 31.1814C129.301 31.2244 129.301 31.2567 129.29 31.2997Z" fill="url(#paint0_linear_75_12)"/>
<path d="M31.002 18.5312L18.709 11.4258L6.41602 18.5312V32.7421L18.709 39.8476L20.4785 38.9061L22.2565 32.0654L18.7005 33.8455L11.5884 29.7411V21.5323L18.7005 17.4279L25.8125 21.5323V23.4447H31.002V18.5312Z" fill="white"/>
<path d="M24.424 26.9916L19.9105 24.1289H40.9381L38.6181 27.4157H28.3047L23.6436 33.7772L28.3047 29.5574H35.7919L33.2188 32.6321H29.085L21.0073 39.8418L24.424 26.9916Z" fill="#BDEFFC"/>
<path d="M24.424 26.9916L19.9105 24.1289H40.9381L38.6181 27.4157H28.3047L23.6436 33.7772L28.3047 29.5574H35.7919L33.2188 32.6321H29.085L21.0073 39.8418L24.424 26.9916Z" fill="url(#paint1_linear_75_12)"/>
<g opacity="0.9" filter="url(#filter0_ddddddf_75_12)">
<path d="M30.8865 23.5157L30.85 18.6022C31.1679 18.9091 18.5283 11.4695 18.6082 11.5513H18.6716C18.4081 11.6867 18.1503 11.8313 17.8947 11.9801C17.3822 12.2764 16.8803 12.5906 16.3844 12.9141C16.2587 12.9978 16.1298 13.0694 16.0299 13.1877C15.8774 13.361 15.7656 13.5903 15.5678 13.7183C15.23 13.9281 14.5848 14.3103 14.2378 14.5205C11.7061 16.0304 9.1288 17.5286 6.5204 18.9021L6.6933 18.6022L6.6877 32.7207L6.5639 32.5058L18.9036 39.5516L18.751 39.5488L20.4157 38.3015L20.4956 38.4513L18.8989 39.8261L18.8259 39.8687L18.7469 39.8234L6.3157 32.9356L6.1928 32.8653L6.1918 32.7202L6.0014 18.6017L6 18.4127C8.2964 16.951 10.6797 15.5742 13.0487 14.2345C13.6897 13.8809 14.5405 13.3948 15.1824 13.0491C15.3922 12.9419 15.6464 12.9585 15.8728 12.9132C16.0249 12.8855 16.152 12.8102 16.2869 12.7427C16.8147 12.4742 17.3373 12.1964 17.8499 11.9002C18.1064 11.7528 18.361 11.6021 18.6096 11.4413L18.6392 11.4219L18.6725 11.4413C18.7062 11.4884 30.9844 18.5149 31.0173 18.5537V18.6013L30.9807 23.5148H30.8883L30.8865 23.5157Z" fill="white"/>
<path d="M30.8865 23.5157L30.85 18.6022C31.1679 18.9091 18.5283 11.4695 18.6082 11.5513H18.6716C18.4081 11.6867 18.1503 11.8313 17.8947 11.9801C17.3822 12.2764 16.8803 12.5906 16.3844 12.9141C16.2587 12.9978 16.1298 13.0694 16.0299 13.1877C15.8774 13.361 15.7656 13.5903 15.5678 13.7183C15.23 13.9281 14.5848 14.3103 14.2378 14.5205C11.7061 16.0304 9.1288 17.5286 6.5204 18.9021L6.6933 18.6022L6.6877 32.7207L6.5639 32.5058L18.9036 39.5516L18.751 39.5488L20.4157 38.3015L20.4956 38.4513L18.8989 39.8261L18.8259 39.8687L18.7469 39.8234L6.3157 32.9356L6.1928 32.8653L6.1918 32.7202L6.0014 18.6017L6 18.4127C8.2964 16.951 10.6797 15.5742 13.0487 14.2345C13.6897 13.8809 14.5405 13.3948 15.1824 13.0491C15.3922 12.9419 15.6464 12.9585 15.8728 12.9132C16.0249 12.8855 16.152 12.8102 16.2869 12.7427C16.8147 12.4742 17.3373 12.1964 17.8499 11.9002C18.1064 11.7528 18.361 11.6021 18.6096 11.4413L18.6392 11.4219L18.6725 11.4413C18.7062 11.4884 30.9844 18.5149 31.0173 18.5537V18.6013L30.9807 23.5148H30.8883L30.8865 23.5157Z" fill="url(#paint2_linear_75_12)"/>
</g>
</g>
<defs>
<filter id="filter0_ddddddf_75_12" x="-4.73698" y="0.684895" width="46.4913" height="49.9212" filterUnits="userSpaceOnUse" color-interpolation-filters="sRGB">
<feFlood flood-opacity="0" result="BackgroundImageFix"/>
<feColorMatrix in="SourceAlpha" type="matrix" values="0 0 0 0 0 0 0 0 0 0 0 0 0 0 0 0 0 0 127 0" result="hardAlpha"/>
<feOffset/>
<feGaussianBlur stdDeviation="0.223687"/>
<feColorMatrix type="matrix" values="0 0 0 0 0.168627 0 0 0 0 0.376471 0 0 0 0 0.921569 0 0 0 1 0"/>
<feBlend mode="normal" in2="BackgroundImageFix" result="effect1_dropShadow_75_12"/>
<feColorMatrix in="SourceAlpha" type="matrix" values="0 0 0 0 0 0 0 0 0 0 0 0 0 0 0 0 0 0 127 0" result="hardAlpha"/>
<feOffset/>
<feGaussianBlur stdDeviation="0.447374"/>
<feColorMatrix type="matrix" values="0 0 0 0 0.168627 0 0 0 0 0.376471 0 0 0 0 0.921569 0 0 0 1 0"/>
<feBlend mode="normal" in2="effect1_dropShadow_75_12" result="effect2_dropShadow_75_12"/>
<feColorMatrix in="SourceAlpha" type="matrix" values="0 0 0 0 0 0 0 0 0 0 0 0 0 0 0 0 0 0 127 0" result="hardAlpha"/>
<feOffset/>
<feGaussianBlur stdDeviation="1.56581"/>
<feColorMatrix type="matrix" values="0 0 0 0 0.168627 0 0 0 0 0.376471 0 0 0 0 0.921569 0 0 0 1 0"/>
<feBlend mode="normal" in2="effect2_dropShadow_75_12" result="effect3_dropShadow_75_12"/>
<feColorMatrix in="SourceAlpha" type="matrix" values="0 0 0 0 0 0 0 0 0 0 0 0 0 0 0 0 0 0 127 0" result="hardAlpha"/>
<feOffset/>
<feGaussianBlur stdDeviation="3.13162"/>
<feColorMatrix type="matrix" values="0 0 0 0 0.168627 0 0 0 0 0.376471 0 0 0 0 0.921569 0 0 0 1 0"/>
<feBlend mode="normal" in2="effect3_dropShadow_75_12" result="effect4_dropShadow_75_12"/>
<feColorMatrix in="SourceAlpha" type="matrix" values="0 0 0 0 0 0 0 0 0 0 0 0 0 0 0 0 0 0 127 0" result="hardAlpha"/>
<feOffset/>
<feGaussianBlur stdDeviation="5.36849"/>
<feColorMatrix type="matrix" values="0 0 0 0 0.168627 0 0 0 0 0.376471 0 0 0 0 0.921569 0 0 0 1 0"/>
<feBlend mode="normal" in2="effect4_dropShadow_75_12" result="effect5_dropShadow_75_12"/>
<feColorMatrix in="SourceAlpha" type="matrix" values="0 0 0 0 0 0 0 0 0 0 0 0 0 0 0 0 0 0 127 0" result="hardAlpha"/>
<feOffset/>
<feGaussianBlur stdDeviation="0.462143"/>
<feColorMatrix type="matrix" values="0 0 0 0 0 0 0 0 0 0.211632 0 0 0 0 0.766667 0 0 0 1 0"/>
<feBlend mode="normal" in2="effect5_dropShadow_75_12" result="effect6_dropShadow_75_12"/>
<feBlend mode="normal" in="SourceGraphic" in2="effect6_dropShadow_75_12" result="shape"/>
<feGaussianBlur stdDeviation="0.346608" result="effect7_foregroundBlur_75_12"/>
</filter>
<linearGradient id="paint0_linear_75_12" x1="47.9055" y1="31.0198" x2="130.906" y2="31.0198" gradientUnits="userSpaceOnUse">
<stop stop-color="#2A61EB"/>
<stop offset="1" stop-color="#9134EA"/>
</linearGradient>
<linearGradient id="paint1_linear_75_12" x1="19.9105" y1="31.9853" x2="40.9381" y2="31.9853" gradientUnits="userSpaceOnUse">
<stop stop-color="#2A61EB"/>
<stop offset="1" stop-color="#9134EA"/>
</linearGradient>
<linearGradient id="paint2_linear_75_12" x1="6" y1="25.6453" x2="31.0173" y2="25.6453" gradientUnits="userSpaceOnUse">
<stop stop-color="#2A61EB"/>
<stop offset="1" stop-color="#9134EA"/>
</linearGradient>
<clipPath id="clip0_75_12">
<rect width="136" height="51" fill="white"/>
</clipPath>
</defs>
</svg>
