<svg width="1920" height="1080" viewBox="0 0 1920 1080" fill="none" xmlns="http://www.w3.org/2000/svg">
<path d="M869.192 431.425C870.34 432.573 871.058 434.008 871.058 435.731C871.058 436.305 871.058 436.736 870.914 437.31L842.636 542.957C841.919 545.541 839.622 547.264 837.038 547.264H727.659C724.357 547.264 721.773 544.536 721.773 541.522C721.773 540.948 721.773 540.517 721.917 539.943L744.022 457.262H756.224C756.08 457.262 653.734 429.846 653.734 429.846H865.316C866.895 429.846 868.187 430.42 869.192 431.425ZM778.042 512.096H802.301L814.933 465.157H766.272L788.951 470.899L778.042 512.096ZM1004.81 429.846L973.372 547.264H924.711L918.252 491.426H893.993L916.673 497.311L903.323 547.264H854.662L886.098 429.846H929.448C932.463 429.846 935.046 432.142 935.334 435.157L941.219 485.684L956.147 429.846H1004.81ZM1066.95 429.846L1046.42 506.21H1022.16L1044.84 512.096H1105.7L1096.23 547.264H986.851L1018.29 429.846H1066.95ZM1202.65 473.77L1214.42 429.846H1262.94L1232.65 542.957C1232.08 545.541 1229.64 547.264 1227.06 547.264H1110.07L1118.25 516.402H1191.17L1194.33 504.631H1129.16C1125.86 504.631 1123.27 501.904 1123.27 498.746C1123.27 498.316 1123.27 497.741 1123.42 497.311L1141.5 429.846H1190.02L1180.69 465.157H1156.29L1179.11 471.042L1178.25 473.77H1202.65Z" fill="white"/>
<path d="M744.858 582.201H755.734L664.378 557.763H859.757L851.312 589.111H764.69L784.906 594.357L783.499 599.602H837.749L829.177 631.462L812.799 620.586H777.997L761.108 683.41V683.282L721.699 668.567L744.858 582.201ZM874.853 557.763H972.351C975.293 557.763 977.596 560.194 977.596 563.009C977.596 563.521 977.469 563.905 977.341 564.416L952.135 658.587C951.495 660.89 949.448 662.426 947.144 662.426H849.647C846.704 662.426 844.401 659.995 844.401 657.308C844.401 656.796 844.401 656.412 844.529 655.9L869.735 561.729C870.375 559.426 872.422 557.763 874.853 557.763ZM916.181 631.078L927.44 589.239H884.065L904.409 594.484L894.557 631.078H916.181ZM1066.22 662.426H968.722C965.907 662.426 963.604 659.995 963.604 657.18C963.604 656.796 963.604 656.284 963.732 655.9L989.962 557.763H1033.34L1015.04 625.832H993.416L1013.63 631.078H1035.38L1054.96 557.763H1098.34L1071.34 658.587C1070.7 660.89 1068.65 662.426 1066.22 662.426ZM1216.14 557.763L1188.12 662.426H1144.75L1138.99 612.653H1117.37L1137.58 617.899L1125.68 662.426H1082.31L1110.33 557.763H1148.97C1151.66 557.763 1153.96 559.81 1154.22 562.497L1159.46 607.535L1172.77 557.763H1216.14ZM1200.14 662.426L1228.16 557.763H1329.75C1332.56 557.763 1334.87 560.194 1334.87 563.009C1334.87 563.521 1334.87 563.905 1334.74 564.416L1309.53 658.587C1308.89 660.89 1306.85 662.426 1304.42 662.426H1200.14ZM1284.71 589.239H1241.46L1261.68 594.484L1251.83 631.078H1273.58L1284.71 589.239ZM1436.9 631.078L1428.59 662.426H1320.21L1348.23 557.763H1456.61L1448.16 589.239H1361.54L1381.76 594.484L1380.35 599.73H1434.47L1428.97 620.586H1374.72L1371.91 631.078H1436.9ZM1492.23 631.078L1483.79 662.426H1440.54L1468.56 557.763H1570.03C1572.97 557.763 1575.27 560.194 1575.27 563.009C1575.27 563.521 1575.27 563.905 1575.14 564.416L1565.68 599.73L1551.99 610.094L1560.05 620.586L1548.79 662.426H1505.54L1513.86 631.078H1492.23ZM1525.12 589.239H1481.74L1502.09 594.357L1500.68 599.602H1522.3L1525.12 589.239ZM1683.96 606.256L1670.02 658.587C1669.38 660.89 1667.33 662.426 1664.9 662.426H1560.62L1569.06 631.078H1634.06L1636.88 620.586H1578.66C1575.72 620.586 1573.41 618.155 1573.41 615.34C1573.41 614.956 1573.41 614.445 1573.54 614.061L1587.62 561.729C1588.26 559.426 1590.3 557.763 1592.61 557.763H1697.01L1688.57 589.239H1601.95L1622.16 594.484L1620.76 599.73H1678.97C1681.79 599.73 1684.09 602.034 1684.09 604.848C1684.09 605.36 1684.09 605.744 1683.96 606.256Z" fill="url(#paint0_linear_60_104)"/>
<path d="M518.186 455.057L371.899 370.502L225.612 455.057V624.167L371.899 708.722L392.956 697.518L414.114 616.114L371.797 637.296L287.164 588.454V490.77L371.797 441.927L456.431 490.77V513.528H518.186V455.057Z" fill="white"/>
<path d="M439.907 555.759L386.198 521.693H636.425L608.817 560.806H486.088L430.621 636.508L486.088 586.292H575.186L544.566 622.881H495.374L399.249 708.677L439.907 555.759Z" fill="url(#paint1_linear_60_104)"/>
<g opacity="0.9" filter="url(#filter0_ddddddf_60_104)">
<path d="M516.811 514.374L516.377 455.903C520.16 459.555 369.749 371.023 370.7 371.997H371.454C368.319 373.608 365.25 375.33 362.209 377.1C356.11 380.626 350.137 384.365 344.237 388.215C342.741 389.21 341.206 390.063 340.018 391.471C338.204 393.533 336.873 396.261 334.519 397.784C330.499 400.281 322.821 404.829 318.691 407.331C288.565 425.298 257.894 443.128 226.855 459.472L228.912 455.903L228.846 623.913L227.372 621.356L374.214 705.201L372.399 705.168L392.209 690.325L393.16 692.107L374.159 708.468L373.29 708.974L372.35 708.435L224.419 626.47L222.956 625.634L222.945 623.907L220.679 455.897L220.663 453.648C247.99 436.253 276.351 419.87 304.541 403.927C312.169 399.72 322.293 393.934 329.932 389.821C332.429 388.545 335.454 388.743 338.149 388.204C339.958 387.874 341.47 386.978 343.076 386.175C349.357 382.979 355.576 379.674 361.675 376.149C364.728 374.395 367.758 372.602 370.717 370.688L371.069 370.457L371.465 370.688C371.866 371.249 517.977 454.863 518.367 455.325V455.892L517.933 514.363H516.833L516.811 514.374Z" fill="white"/>
<path d="M516.811 514.374L516.377 455.903C520.16 459.555 369.749 371.023 370.7 371.997H371.454C368.319 373.608 365.25 375.33 362.209 377.1C356.11 380.626 350.137 384.365 344.237 388.215C342.741 389.21 341.206 390.063 340.018 391.471C338.204 393.533 336.873 396.261 334.519 397.784C330.499 400.281 322.821 404.829 318.691 407.331C288.565 425.298 257.894 443.128 226.855 459.472L228.912 455.903L228.846 623.913L227.372 621.356L374.214 705.201L372.399 705.168L392.209 690.325L393.16 692.107L374.159 708.468L373.29 708.974L372.35 708.435L224.419 626.47L222.956 625.634L222.945 623.907L220.679 455.897L220.663 453.648C247.99 436.253 276.351 419.87 304.541 403.927C312.169 399.72 322.293 393.934 329.932 389.821C332.429 388.545 335.454 388.743 338.149 388.204C339.958 387.874 341.47 386.978 343.076 386.175C349.357 382.979 355.576 379.674 361.675 376.149C364.728 374.395 367.758 372.602 370.717 370.688L371.069 370.457L371.465 370.688C371.866 371.249 517.977 454.863 518.367 455.325V455.892L517.933 514.363H516.833L516.811 514.374Z" fill="url(#paint2_linear_60_104)"/>
</g>
<defs>
<filter id="filter0_ddddddf_60_104" x="92.8925" y="242.687" width="553.245" height="594.056" filterUnits="userSpaceOnUse" color-interpolation-filters="sRGB">
<feFlood flood-opacity="0" result="BackgroundImageFix"/>
<feColorMatrix in="SourceAlpha" type="matrix" values="0 0 0 0 0 0 0 0 0 0 0 0 0 0 0 0 0 0 127 0" result="hardAlpha"/>
<feOffset/>
<feGaussianBlur stdDeviation="2.66188"/>
<feColorMatrix type="matrix" values="0 0 0 0 0.168627 0 0 0 0 0.376471 0 0 0 0 0.921569 0 0 0 1 0"/>
<feBlend mode="normal" in2="BackgroundImageFix" result="effect1_dropShadow_60_104"/>
<feColorMatrix in="SourceAlpha" type="matrix" values="0 0 0 0 0 0 0 0 0 0 0 0 0 0 0 0 0 0 127 0" result="hardAlpha"/>
<feOffset/>
<feGaussianBlur stdDeviation="5.32376"/>
<feColorMatrix type="matrix" values="0 0 0 0 0.168627 0 0 0 0 0.376471 0 0 0 0 0.921569 0 0 0 1 0"/>
<feBlend mode="normal" in2="effect1_dropShadow_60_104" result="effect2_dropShadow_60_104"/>
<feColorMatrix in="SourceAlpha" type="matrix" values="0 0 0 0 0 0 0 0 0 0 0 0 0 0 0 0 0 0 127 0" result="hardAlpha"/>
<feOffset/>
<feGaussianBlur stdDeviation="18.6331"/>
<feColorMatrix type="matrix" values="0 0 0 0 0.168627 0 0 0 0 0.376471 0 0 0 0 0.921569 0 0 0 1 0"/>
<feBlend mode="normal" in2="effect2_dropShadow_60_104" result="effect3_dropShadow_60_104"/>
<feColorMatrix in="SourceAlpha" type="matrix" values="0 0 0 0 0 0 0 0 0 0 0 0 0 0 0 0 0 0 127 0" result="hardAlpha"/>
<feOffset/>
<feGaussianBlur stdDeviation="37.2663"/>
<feColorMatrix type="matrix" values="0 0 0 0 0.168627 0 0 0 0 0.376471 0 0 0 0 0.921569 0 0 0 1 0"/>
<feBlend mode="normal" in2="effect3_dropShadow_60_104" result="effect4_dropShadow_60_104"/>
<feColorMatrix in="SourceAlpha" type="matrix" values="0 0 0 0 0 0 0 0 0 0 0 0 0 0 0 0 0 0 127 0" result="hardAlpha"/>
<feOffset/>
<feGaussianBlur stdDeviation="63.8851"/>
<feColorMatrix type="matrix" values="0 0 0 0 0.168627 0 0 0 0 0.376471 0 0 0 0 0.921569 0 0 0 1 0"/>
<feBlend mode="normal" in2="effect4_dropShadow_60_104" result="effect5_dropShadow_60_104"/>
<feColorMatrix in="SourceAlpha" type="matrix" values="0 0 0 0 0 0 0 0 0 0 0 0 0 0 0 0 0 0 127 0" result="hardAlpha"/>
<feOffset/>
<feGaussianBlur stdDeviation="5.49951"/>
<feColorMatrix type="matrix" values="0 0 0 0 0 0 0 0 0 0.211632 0 0 0 0 0.766667 0 0 0 1 0"/>
<feBlend mode="normal" in2="effect5_dropShadow_60_104" result="effect6_dropShadow_60_104"/>
<feBlend mode="normal" in="SourceGraphic" in2="effect6_dropShadow_60_104" result="shape"/>
<feGaussianBlur stdDeviation="4.12463" result="effect7_foregroundBlur_60_104"/>
</filter>
<linearGradient id="paint0_linear_60_104" x1="719.337" y1="606.426" x2="1699.34" y2="606.426" gradientUnits="userSpaceOnUse">
<stop stop-color="#2A61EB"/>
<stop offset="1" stop-color="#9134EA"/>
</linearGradient>
<linearGradient id="paint1_linear_60_104" x1="386.198" y1="615.185" x2="636.425" y2="615.185" gradientUnits="userSpaceOnUse">
<stop stop-color="#2A61EB"/>
<stop offset="1" stop-color="#9134EA"/>
</linearGradient>
<linearGradient id="paint2_linear_60_104" x1="220.663" y1="539.715" x2="518.367" y2="539.715" gradientUnits="userSpaceOnUse">
<stop stop-color="#2A61EB"/>
<stop offset="1" stop-color="#9134EA"/>
</linearGradient>
</defs>
</svg>
