<svg width="74" height="20" viewBox="0 0 74 20" fill="none" xmlns="http://www.w3.org/2000/svg">
<g clip-path="url(#clip0_1135_222)">
<path d="M7.31021 1.74717C10.1146 1.74717 12.5408 2.53834 14.6204 3.79103L13.423 6.13157C11.564 4.97778 9.65768 4.38441 7.31021 4.38441C4.96274 4.38441 3.05642 4.97778 1.19736 6.13157L0 3.79103C2.07963 2.53834 4.50585 1.74717 7.31021 1.74717ZM0 16.1861L1.19736 13.8455C3.05642 14.9993 4.99425 15.5926 7.2314 15.5926C10.2406 15.5926 12.3832 14.5213 12.3832 13.0048C12.3832 11.4885 10.2406 10.4006 7.21568 10.4006C4.99425 10.4006 3.05642 10.994 1.19736 12.1477L0 9.80723C2.0166 8.58748 4.50585 7.76335 7.19989 7.76335C11.69 7.76335 15.1403 10.038 15.1403 13.0048C15.1403 15.9717 11.7058 18.2299 7.21568 18.2299C4.50585 18.2299 2.0166 17.4057 0 16.1861ZM20.7963 12.5434L22.8128 11.7522C23.2382 13.1367 23.8212 13.829 25.1603 13.829C26.2789 13.829 27.0981 13.384 27.0981 12.5268C27.0981 11.6697 26.2789 11.2412 25.4912 11.0599L24.0732 10.7137C23.3958 10.549 21.1428 9.98852 21.1428 7.7469C21.1428 5.86785 22.6868 4.63164 24.9712 4.63164C26.8303 4.63164 28.201 5.47226 28.8469 7.00516L27.0509 7.86226C26.5783 6.88981 26.0899 6.37881 25.0658 6.37881C24.0417 6.37881 23.3485 6.84032 23.3485 7.59852C23.3485 8.27432 23.8212 8.71935 24.7349 8.95013L26.3104 9.34568C27.8386 9.70832 29.288 10.549 29.288 12.395C29.288 14.34 27.6653 15.6586 25.1918 15.6586C22.9074 15.6586 21.3004 14.5213 20.7963 12.5434ZM30.6587 4.87888H32.7856V6.90626H32.9116C33.5576 5.17557 34.818 4.63164 36.1256 4.63164C38.867 4.63164 40.8205 6.87329 40.8205 10.1534C40.8205 13.4334 38.8985 15.6586 36.3619 15.6586C34.8337 15.6586 33.5261 14.8674 32.9431 13.384H32.8329V19.5979H30.6587V4.87888ZM38.5203 10.1204C38.5203 7.91168 37.4333 6.54361 35.7318 6.54361C34.0303 6.54361 32.8644 7.96116 32.8644 10.1039C32.8644 12.2466 33.9672 13.7136 35.7318 13.7136C37.4963 13.7136 38.5203 12.3126 38.5203 10.1204ZM42.1754 4.87888H44.2866V6.90626H44.3811C45.1058 5.14261 46.4292 4.45034 48.3041 4.84592V6.95568C46.0353 6.27992 44.3181 7.61503 44.3181 10.3182V15.4114H42.1754V4.87888ZM49.1548 1.58234C49.139 0.65931 49.7535 0 50.6357 0C51.4707 0 52.1167 0.65931 52.1167 1.58234C52.1167 2.50537 51.4707 3.11523 50.6357 3.11523C49.8007 3.11523 49.1705 2.48889 49.1548 1.58234ZM49.5329 4.87888H51.7228V15.3948H49.5329V4.87888ZM53.8024 4.87888H55.9293V6.692H55.9923C56.528 5.62061 57.6623 4.63164 59.2693 4.63164C61.349 4.63164 62.7514 6.34585 62.7514 9.03252V15.4114H60.577V9.11497C60.577 7.56555 59.8995 6.62606 58.5288 6.62606C57.0637 6.62606 55.9766 7.82929 55.9766 9.4611V15.4114H53.8024V4.87888ZM64.2795 16.5652L66.2171 16.0047C66.5168 17.2904 67.4936 17.9992 68.9427 17.9992C70.802 17.9992 71.8417 16.8783 71.8417 14.9828V12.9719H71.6998C71.101 14.4388 69.7937 15.2301 68.3439 15.2301C65.8076 15.2301 63.9958 13.0543 63.9958 9.95555C63.9958 6.85684 65.7915 4.63164 68.5487 4.63164C69.8406 4.63164 71.101 5.17557 71.7473 6.90626H71.8892V4.87888H74V14.9828C74 18.0156 72.0624 19.9606 68.9427 19.9606C66.5168 19.9606 64.8308 18.6914 64.2795 16.5652ZM71.8102 9.92258C71.8102 7.96116 70.723 6.54361 68.9742 6.54361C67.3203 6.54361 66.296 7.91168 66.296 9.92258C66.296 11.9335 67.3203 13.2851 68.9742 13.2851C70.723 13.2851 71.8102 11.8675 71.8102 9.92258Z" fill="white"/>
</g>
<defs>
<clipPath id="clip0_1135_222">
<rect width="74" height="20" fill="white"/>
</clipPath>
</defs>
</svg>
