<svg width="32" height="32" viewBox="0 0 32 32" fill="none" xmlns="http://www.w3.org/2000/svg">
<path d="M6.30992 14.6857C12.2318 12.0172 16.1805 10.258 18.1564 9.40796C23.7976 6.98114 24.9699 6.55956 25.734 6.54555C25.902 6.54262 26.2777 6.58568 26.5211 6.7899C26.7266 6.96241 26.7831 7.19542 26.8102 7.3589C26.8372 7.52246 26.8709 7.89497 26.8441 8.186C26.5384 11.5082 25.2157 19.5702 24.5427 23.2911C24.2579 24.8656 23.6973 25.3935 23.1545 25.4451C21.9748 25.5574 21.079 24.6388 19.9365 23.8642C18.1486 22.6521 17.1386 21.8974 15.4031 20.7147C13.3976 19.3477 14.6977 18.5964 15.8407 17.3685C16.1398 17.0472 21.3374 12.1575 21.438 11.714C21.4505 11.6585 21.4623 11.4517 21.3435 11.3425C21.2247 11.2334 21.0494 11.2707 20.9229 11.3003C20.7436 11.3424 17.8874 13.295 12.3544 17.1579C11.5437 17.7337 10.8094 18.0142 10.1515 17.9995C9.42623 17.9833 8.03107 17.5754 6.99388 17.2267C5.72175 16.7989 4.71064 16.5729 4.79868 15.8465C4.84454 15.4682 5.34827 15.0812 6.30992 14.6857Z" fill="white"/>
</svg>
