<svg width="54" height="61" viewBox="0 0 54 61" fill="none" xmlns="http://www.w3.org/2000/svg">
<g clip-path="url(#clip0_825_8)">
<path d="M28.6197 3.59906C28.6197 4.57043 27.8321 5.35789 26.8608 5.35789C25.8894 5.35789 25.1021 4.57043 25.1021 3.59906C25.1021 2.62767 25.8894 1.84021 26.8608 1.84021C27.8321 1.84021 28.6197 2.62767 28.6197 3.59906Z" fill="#37D5C7"/>
<path d="M5.4337 43.8929C5.4337 44.8642 4.64624 45.6516 3.67485 45.6516C2.70347 45.6516 1.91602 44.8642 1.91602 43.8929C1.91602 42.9213 2.70347 42.134 3.67485 42.134C4.64624 42.134 5.4337 42.9213 5.4337 43.8929Z" fill="#37D5C7"/>
<path d="M50.2052 45.6516C51.1765 45.6516 51.964 44.8642 51.964 43.8929C51.964 42.9213 51.1765 42.134 50.2052 42.134C49.2338 42.134 48.4463 42.9213 48.4463 43.8929C48.4463 44.8642 49.2338 45.6516 50.2052 45.6516Z" fill="#37D5C7"/>
<path d="M22.3838 7.11703C22.3838 8.26502 21.4531 9.19566 20.3051 9.19566C19.1571 9.19566 18.2266 8.26502 18.2266 7.11703C18.2266 5.96903 19.1571 5.03839 20.3051 5.03839C21.4531 5.03839 22.3838 5.96903 22.3838 7.11703Z" fill="#37D5C7"/>
<path d="M26.3803 12.8733C27.5283 12.8733 28.459 11.9427 28.459 10.7947C28.459 9.64669 27.5283 8.71606 26.3803 8.71606C25.2323 8.71606 24.3018 9.64669 24.3018 10.7947C24.3018 11.9427 25.2323 12.8733 26.3803 12.8733Z" fill="#37D5C7"/>
<path d="M28.2997 20.069C28.2997 21.217 27.3691 22.1475 26.2211 22.1475C25.0731 22.1475 24.1426 21.217 24.1426 20.069C24.1426 18.921 25.0731 17.9902 26.2211 17.9902C27.3691 17.9902 28.2997 18.921 28.2997 20.069Z" fill="#37D5C7"/>
<path d="M26.9409 32.5402C28.0889 32.5402 29.0194 31.6096 29.0194 30.4616C29.0194 29.3136 28.0889 28.3831 26.9409 28.3831C25.7929 28.3831 24.8623 29.3136 24.8623 30.4616C24.8623 31.6096 25.7929 32.5402 26.9409 32.5402Z" fill="#37D5C7"/>
<path d="M12.1499 41.0143C12.1499 42.1623 11.2193 43.0931 10.0713 43.0931C8.9233 43.0931 7.99268 42.1623 7.99268 41.0143C7.99268 39.8665 8.9233 38.9358 10.0713 38.9358C11.2193 38.9358 12.1499 39.8665 12.1499 41.0143Z" fill="#37D5C7"/>
<path d="M3.51564 38.9358C4.66364 38.9358 5.59426 38.0053 5.59426 36.8573C5.59426 35.7093 4.66364 34.7786 3.51564 34.7786C2.36764 34.7786 1.43701 35.7093 1.43701 36.8573C1.43701 38.0053 2.36764 38.9358 3.51564 38.9358Z" fill="#37D5C7"/>
<path d="M12.1499 47.8902C12.1499 49.0382 11.2193 49.9689 10.0713 49.9689C8.9233 49.9689 7.99268 49.0382 7.99268 47.8902C7.99268 46.7422 8.9233 45.8116 10.0713 45.8116C11.2193 45.8116 12.1499 46.7422 12.1499 47.8902Z" fill="#37D5C7"/>
<path d="M44.2892 41.8144C45.437 41.8144 46.3677 40.8838 46.3677 39.7358C46.3677 38.5878 45.437 37.6571 44.2892 37.6571C43.1412 37.6571 42.2104 38.5878 42.2104 39.7358C42.2104 40.8838 43.1412 41.8144 44.2892 41.8144Z" fill="#37D5C7"/>
<path d="M46.0479 47.251C46.0479 48.399 45.1173 49.3296 43.9693 49.3296C42.8213 49.3296 41.8906 48.399 41.8906 47.251C41.8906 46.103 42.8213 45.1723 43.9693 45.1723C45.1173 45.1723 46.0479 46.103 46.0479 47.251Z" fill="#37D5C7"/>
<path d="M50.525 38.3769C51.673 38.3769 52.6036 37.4463 52.6036 36.2983C52.6036 35.1503 51.673 34.2196 50.525 34.2196C49.377 34.2196 48.4463 35.1503 48.4463 36.2983C48.4463 37.4463 49.377 38.3769 50.525 38.3769Z" fill="#37D5C7"/>
<path d="M38.3736 34.9385C38.3736 36.0864 37.4429 37.0171 36.2949 37.0171C35.1469 37.0171 34.2163 36.0864 34.2163 34.9385C34.2163 33.7905 35.1469 32.8598 36.2949 32.8598C37.4429 32.8598 38.3736 33.7905 38.3736 34.9385Z" fill="#37D5C7"/>
<path d="M32.6968 19.1096C34.154 19.1096 35.3351 17.9284 35.3351 16.4714C35.3351 15.0143 34.154 13.833 32.6968 13.833C31.2399 13.833 30.0586 15.0143 30.0586 16.4714C30.0586 17.9284 31.2399 19.1096 32.6968 19.1096Z" fill="#37D5C7"/>
<path d="M22.5426 16.4714C22.5426 17.9284 21.3615 19.1096 19.9044 19.1096C18.4472 19.1096 17.2661 17.9284 17.2661 16.4714C17.2661 15.0143 18.4472 13.833 19.9044 13.833C21.3615 13.833 22.5426 15.0143 22.5426 16.4714Z" fill="#37D5C7"/>
<path d="M11.671 14.7923C13.4372 14.7923 14.8689 13.3604 14.8689 11.5943C14.8689 9.82817 13.4372 8.39642 11.671 8.39642C9.90489 8.39642 8.47314 9.82817 8.47314 11.5943C8.47314 13.3604 9.90489 14.7923 11.671 14.7923Z" fill="#37D5C7"/>
<path d="M6.71414 27.7434C6.71414 29.5096 5.28239 30.9413 3.51625 30.9413C1.75011 30.9413 0.318359 29.5096 0.318359 27.7434C0.318359 25.9773 1.75011 24.5455 3.51625 24.5455C5.28239 24.5455 6.71414 25.9773 6.71414 27.7434Z" fill="#37D5C7"/>
<path d="M44.9276 21.9875C44.9276 21.7284 44.894 21.4774 44.8348 21.2344L47.6042 19.3508C48.263 20.0864 49.2191 20.5484 50.2841 20.5484C52.2716 20.5484 53.8817 18.9382 53.8817 16.9508C53.8817 14.9633 52.2716 13.3531 50.2841 13.3531C49.3279 13.3531 48.4596 13.7273 47.8153 14.3348L43.925 12.09C43.9506 11.9285 43.9666 11.7638 43.9666 11.5943C43.9666 9.82748 42.5356 8.39642 40.7687 8.39642C39.0018 8.39642 37.5708 9.82748 37.5708 11.5943C37.5708 13.3611 39.0018 14.7923 40.7687 14.7923C41.6577 14.7923 42.462 14.4292 43.0409 13.844L46.8079 16.0185C46.7279 16.316 46.6849 16.6294 46.6849 16.9508C46.6849 17.1619 46.7041 17.3665 46.7391 17.568L43.8082 19.5619C43.2487 19.0822 42.5228 18.7896 41.7281 18.7896C39.9612 18.7896 38.5302 20.2206 38.5302 21.9875C38.5302 23.7544 39.9612 25.1854 41.7281 25.1854C43.495 25.1854 44.9276 23.7544 44.9276 21.9875Z" fill="#37D5C7"/>
<path d="M54.0427 26.6247C54.0427 28.3908 52.611 29.8227 50.8447 29.8227C49.0787 29.8227 47.647 28.3908 47.647 26.6247C47.647 24.8585 49.0787 23.4268 50.8447 23.4268C52.611 23.4268 54.0427 24.8585 54.0427 26.6247Z" fill="#37D5C7"/>
<path d="M37.1983 49.0194V44.9661C38.1464 44.5665 38.8132 43.6279 38.8132 42.5341C38.8132 41.0775 37.6316 39.8959 36.1749 39.8959C35.5258 39.8959 34.9309 40.1325 34.4704 40.521L29.5744 38.6215C29.5344 37.1985 28.372 36.0569 26.9394 36.0569C26.1335 36.0569 25.414 36.4181 24.9295 36.9874L20.2335 35.6874C20.1023 35.1901 19.7952 34.7649 19.3796 34.4866L20.0943 28.9943C21.3863 28.8233 22.384 27.7199 22.384 26.3817C22.384 24.925 21.2024 23.7434 19.7458 23.7434C19.1925 23.7434 18.6808 23.9145 18.2572 24.2039L15.1568 22.4146C15.176 22.274 15.1887 22.1316 15.1887 21.9845C15.1887 20.2177 13.7577 18.7866 11.9909 18.7866C10.224 18.7866 8.79297 20.2177 8.79297 21.9845C8.79297 23.7514 10.224 25.1825 11.9909 25.1825C12.9022 25.1825 13.7225 24.7986 14.3061 24.1863L17.165 25.8364C17.1282 26.0122 17.109 26.1946 17.109 26.3801C17.109 27.2514 17.5328 28.0205 18.1836 28.5018L17.4304 34.2948C16.6789 34.6082 16.1512 35.3485 16.1512 36.2135C16.1512 37.3617 17.082 38.2922 18.23 38.2922C18.8471 38.2922 19.4004 38.022 19.7808 37.5935L24.314 38.8469C24.3954 40.2317 25.5404 41.3301 26.9442 41.3301C27.7213 41.3301 28.4168 40.9929 28.8997 40.4572L33.5527 42.2623C33.5447 42.3503 33.5399 42.4383 33.5399 42.5293C33.5399 43.6551 34.2466 44.6145 35.2412 44.9933V48.986C33.9332 49.3873 32.9802 50.6041 32.9802 52.0431C32.9802 53.81 34.4112 55.241 36.1781 55.241C37.945 55.241 39.376 53.81 39.376 52.0431C39.376 50.6361 38.4647 49.4433 37.2015 49.0146L37.1983 49.0194Z" fill="#37D5C7"/>
<path d="M30.1385 47.5701C30.1385 49.3363 28.7067 50.768 26.9406 50.768C25.1745 50.768 23.7427 49.3363 23.7427 47.5701C23.7427 45.804 25.1745 44.3723 26.9406 44.3723C28.7067 44.3723 30.1385 45.804 30.1385 47.5701Z" fill="#37D5C7"/>
<path d="M18.0656 56.3644C19.8317 56.3644 21.2634 54.9328 21.2634 53.1665C21.2634 51.4004 19.8317 49.9688 18.0656 49.9688C16.2994 49.9688 14.8677 51.4004 14.8677 53.1665C14.8677 54.9328 16.2994 56.3644 18.0656 56.3644Z" fill="#37D5C7"/>
<path d="M30.538 57.4039C30.538 59.3908 28.9273 61.0015 26.9404 61.0015C24.9535 61.0015 23.3428 59.3908 23.3428 57.4039C23.3428 55.417 24.9535 53.8063 26.9404 53.8063C28.9273 53.8063 30.538 55.417 30.538 57.4039Z" fill="#37D5C7"/>
<path d="M3.59617 20.5481C5.58308 20.5481 7.1938 18.9374 7.1938 16.9505C7.1938 14.9634 5.58308 13.3527 3.59617 13.3527C1.60926 13.3527 -0.00146484 14.9634 -0.00146484 16.9505C-0.00146484 18.9374 1.60926 20.5481 3.59617 20.5481Z" fill="#37D5C7"/>
<path d="M14.3893 32.6204C14.3893 34.0775 13.2081 35.2587 11.7511 35.2587C10.294 35.2587 9.11279 34.0775 9.11279 32.6204C9.11279 31.1633 10.294 29.9822 11.7511 29.9822C13.2081 29.9822 14.3893 31.1633 14.3893 32.6204Z" fill="#37D5C7"/>
<path d="M18.1455 46.2909C19.6027 46.2909 20.7838 45.1096 20.7838 43.6527C20.7838 42.1956 19.6027 41.0143 18.1455 41.0143C16.6886 41.0143 15.5073 42.1956 15.5073 43.6527C15.5073 45.1096 16.6886 46.2909 18.1455 46.2909Z" fill="#37D5C7"/>
<path d="M45.2483 31.5007C45.2483 32.9577 44.067 34.139 42.6099 34.139C41.153 34.139 39.9717 32.9577 39.9717 31.5007C39.9717 30.0436 41.153 28.8625 42.6099 28.8625C44.067 28.8625 45.2483 30.0436 45.2483 31.5007Z" fill="#37D5C7"/>
<path d="M33.9761 29.0229C35.4333 29.0229 36.6144 27.8417 36.6144 26.3847C36.6144 24.9276 35.4333 23.7465 33.9761 23.7465C32.519 23.7465 31.3379 24.9276 31.3379 26.3847C31.3379 27.8417 32.519 29.0229 33.9761 29.0229Z" fill="#37D5C7"/>
<path d="M35.1753 7.11703C35.1753 8.26502 34.2448 9.19566 33.0968 9.19566C31.9488 9.19566 31.0181 8.26502 31.0181 7.11703C31.0181 5.96903 31.9488 5.03839 33.0968 5.03839C34.2448 5.03839 35.1753 5.96903 35.1753 7.11703Z" fill="#37D5C7"/>
</g>
<defs>
<clipPath id="clip0_825_8">
<rect width="54" height="61" fill="white"/>
</clipPath>
</defs>
</svg>
