<svg width="275" height="82" viewBox="0 0 275 82" fill="none" xmlns="http://www.w3.org/2000/svg">
<g clip-path="url(#clip0_660_695)">
<mask id="mask0_660_695" style="mask-type:luminance" maskUnits="userSpaceOnUse" x="0" y="0" width="275" height="82">
<path d="M275 0H0V82H275V0Z" fill="white"/>
</mask>
<g mask="url(#mask0_660_695)">
<path d="M111.056 40.8679C111.056 34.5353 112.528 28.8547 115.471 23.8261C118.477 18.7973 122.516 14.8861 127.588 12.0923C132.722 9.2365 138.327 7.80859 144.401 7.80859C151.351 7.80859 157.519 9.51587 162.904 12.9305C168.225 16.2048 172.112 20.8411 174.566 26.8396C174.651 27.0466 174.496 27.2717 174.271 27.2717H162.071C161.949 27.2717 161.837 27.2024 161.782 27.0942C160.099 23.7687 157.78 21.2824 154.827 19.6354C151.821 17.9592 148.346 17.1211 144.401 17.1211C140.08 17.1211 136.229 18.0834 132.848 20.0079C129.466 21.9325 126.805 24.6953 124.864 28.2961C122.985 31.8967 122.046 36.0873 122.046 40.8679C122.046 45.6483 122.985 49.8389 124.864 53.4398C126.805 57.0406 129.466 59.8343 132.848 61.821C136.229 63.7455 140.08 64.7078 144.401 64.7078C148.346 64.7078 151.821 63.8696 154.827 62.1935C157.78 60.5463 160.099 58.0601 161.782 54.7348C161.837 54.6265 161.949 54.5572 162.071 54.5572H174.271C174.496 54.5572 174.651 54.7821 174.566 54.9892C172.112 60.9877 168.225 65.6242 162.904 68.8984C157.519 72.2508 151.351 73.9271 144.401 73.9271C138.264 73.9271 132.66 72.5302 127.588 69.7365C122.516 66.8806 118.477 62.9385 115.471 57.9096C112.528 52.8809 111.056 47.2004 111.056 40.8679Z" fill="white"/>
<path d="M197.981 64.4813C197.981 64.6567 198.125 64.7988 198.301 64.7988H219.733C219.909 64.7988 220.054 64.9409 220.054 65.1164V73.0488C220.054 73.2241 219.909 73.3664 219.733 73.3664H187.594C187.417 73.3664 187.273 73.2241 187.273 73.0488V8.96199C187.273 8.78668 187.417 8.64453 187.594 8.64453H197.661C197.838 8.64453 197.981 8.78668 197.981 8.96199V64.4813Z" fill="white"/>
<path d="M250.517 74.0203C246.133 74.0203 242.188 73.2752 238.681 71.7852C235.177 70.2332 232.421 68.0602 230.417 65.2664C228.469 62.5524 227.468 59.3989 227.413 55.8059C227.411 55.6306 227.555 55.4883 227.731 55.4883H238.578C238.743 55.4883 238.882 55.6142 238.899 55.7776C239.198 58.4412 240.284 60.6418 242.157 62.3796C244.161 64.1801 246.948 65.0803 250.517 65.0803C254.212 65.0803 257.092 64.2111 259.16 62.4727C261.225 60.6724 262.259 58.3753 262.259 55.5816C262.259 53.4086 261.602 51.6393 260.286 50.2733C259.033 48.9076 257.437 47.8523 255.496 47.1071C253.616 46.3621 250.986 45.5551 247.605 44.6859C243.348 43.5684 239.872 42.451 237.18 41.3335C234.55 40.1539 232.294 38.3534 230.417 35.9322C228.537 33.5109 227.599 30.2828 227.599 26.2473C227.599 22.5223 228.537 19.2629 230.417 16.4692C232.294 13.6754 234.924 11.5336 238.307 10.0436C241.688 8.5536 245.602 7.80859 250.047 7.80859C256.372 7.80859 261.537 9.39173 265.547 12.558C269.531 15.5968 271.774 19.7662 272.279 25.0661C272.296 25.2504 272.149 25.4091 271.963 25.4091H260.77C260.603 25.4091 260.464 25.2816 260.446 25.117C260.191 22.8829 259.073 20.9626 257.092 19.3561C255.026 17.6798 252.301 16.8417 248.921 16.8417C245.852 16.8417 243.348 17.6177 241.407 19.1698C239.465 20.7218 238.495 22.9569 238.495 25.8749C238.495 27.8615 239.089 29.5066 240.28 30.8104C241.531 32.0521 243.098 33.0453 244.975 33.7903C246.855 34.5353 249.421 35.3424 252.677 36.2116C256.999 37.3911 260.506 38.5707 263.198 39.7503C265.952 40.9298 268.27 42.7613 270.147 45.2447C272.089 47.6659 273.061 50.9252 273.061 55.0228C273.061 58.3132 272.153 61.4173 270.335 64.3353C268.582 67.2531 265.985 69.6124 262.54 71.4127C259.16 73.1511 255.15 74.0203 250.517 74.0203Z" fill="white"/>
<path fill-rule="evenodd" clip-rule="evenodd" d="M6.20301 0C2.77719 0 0 2.75346 0 6.15V63.2837C11.1864 56.3647 18.621 53.5808 31.6903 53.7561C42.5741 53.8998 48.9868 43.7556 53.343 36.8643C54.0596 35.7305 54.7207 34.6848 55.3368 33.7875C59.6448 27.5133 67.9556 22.3397 74.6706 18.1594L74.9195 18.0045C77.0763 16.6616 79.1909 15.3451 82.7068 12.9469V6.15C82.7068 2.75346 79.9297 0 76.5038 0H6.20301ZM82.7068 18.8986C82.7068 18.8986 73.0679 24.353 65.7647 32.203C62.0427 36.2036 60.3331 40.9309 58.6604 45.5569C57.0505 50.0087 55.4745 54.3666 52.1718 57.893C44.458 66.14 35.3772 64.9315 25.6927 63.6429C24.1365 63.4358 22.5649 63.2267 20.9806 63.0545C14.8262 62.4481 9.21161 64.9637 3.70638 67.43C2.46702 67.9854 1.2332 68.5381 0 69.0522V75.85C0 79.2466 2.77719 82 6.20301 82H76.5038C79.9297 82 82.7068 79.2466 82.7068 75.85V18.8986Z" fill="white"/>
</g>
</g>
<defs>
<clipPath id="clip0_660_695">
<rect width="275" height="82" fill="white"/>
</clipPath>
</defs>
</svg>
