<svg width="215" height="64" viewBox="0 0 215 64" fill="none" xmlns="http://www.w3.org/2000/svg">
<g clip-path="url(#clip0_924_125)">
<mask id="mask0_924_125" style="mask-type:luminance" maskUnits="userSpaceOnUse" x="0" y="0" width="215" height="64">
<path d="M214.634 0H0V64H214.634V0Z" fill="white"/>
</mask>
<g mask="url(#mask0_924_125)">
<path d="M86.6777 31.8962C86.6777 26.9536 87.8263 22.52 90.1233 18.5952C92.4691 14.6703 95.6215 11.6176 99.5802 9.43716C103.588 7.20821 107.962 6.09375 112.703 6.09375C118.127 6.09375 122.941 7.42626 127.145 10.0913C131.297 12.6469 134.331 16.2654 136.246 20.9472C136.312 21.1088 136.192 21.2845 136.016 21.2845H126.494C126.398 21.2845 126.311 21.2304 126.269 21.1459C124.955 18.5504 123.145 16.6099 120.84 15.3245C118.494 14.0162 115.781 13.362 112.703 13.362C109.33 13.362 106.325 14.1131 103.685 15.6152C101.046 17.1173 98.9693 19.2736 97.4543 22.084C95.988 24.8942 95.255 28.165 95.255 31.8962C95.255 35.6272 95.988 38.8979 97.4543 41.7083C98.9693 44.5187 101.046 46.6992 103.685 48.2498C106.325 49.7519 109.33 50.5029 112.703 50.5029C115.781 50.5029 118.494 49.8486 120.84 48.5405C123.145 47.2549 124.955 45.3144 126.269 42.719C126.311 42.6346 126.398 42.5805 126.494 42.5805H136.016C136.192 42.5805 136.312 42.756 136.246 42.9176C134.331 47.5994 131.297 51.2181 127.145 53.7736C122.941 56.3901 118.127 57.6984 112.703 57.6984C107.913 57.6984 103.539 56.6082 99.5802 54.4277C95.6215 52.1987 92.4691 49.1219 90.1233 45.197C87.8263 41.2722 86.6777 36.8386 86.6777 31.8962Z" fill="white"/>
<path d="M154.522 50.326C154.522 50.4629 154.634 50.5738 154.772 50.5738H171.499C171.636 50.5738 171.749 50.6847 171.749 50.8217V57.0129C171.749 57.1497 171.636 57.2607 171.499 57.2607H146.414C146.276 57.2607 146.164 57.1497 146.164 57.0129V6.99387C146.164 6.85704 146.276 6.74609 146.414 6.74609H154.272C154.41 6.74609 154.522 6.85704 154.522 6.99387V50.326Z" fill="white"/>
<path d="M195.525 57.7712C192.104 57.7712 189.025 57.1896 186.288 56.0267C183.552 54.8154 181.401 53.1194 179.837 50.9389C178.317 48.8206 177.536 46.3594 177.493 43.555C177.491 43.4182 177.604 43.3072 177.741 43.3072H186.207C186.336 43.3072 186.444 43.4054 186.457 43.533C186.691 45.6118 187.538 47.3294 189.001 48.6858C190.564 50.091 192.74 50.7936 195.525 50.7936C198.409 50.7936 200.657 50.1152 202.271 48.7584C203.883 47.3533 204.69 45.5605 204.69 43.38C204.69 41.684 204.177 40.303 203.15 39.237C202.172 38.171 200.926 37.3474 199.411 36.7658C197.944 36.1843 195.891 35.5544 193.253 34.876C189.93 34.0038 187.217 33.1317 185.116 32.2595C183.063 31.3389 181.303 29.9336 179.837 28.0438C178.37 26.1541 177.638 23.6346 177.638 20.485C177.638 17.5776 178.37 15.0337 179.837 12.8532C181.303 10.6728 183.355 9.00106 185.996 7.83813C188.634 6.67522 191.689 6.09375 195.159 6.09375C200.095 6.09375 204.127 7.32937 207.256 9.80057C210.365 12.1724 212.116 15.4265 212.51 19.563C212.523 19.7069 212.409 19.8307 212.263 19.8307H203.528C203.397 19.8307 203.289 19.7312 203.274 19.6027C203.076 17.859 202.203 16.3603 200.657 15.1064C199.045 13.7981 196.918 13.144 194.279 13.144C191.884 13.144 189.93 13.7497 188.415 14.961C186.899 16.1723 186.142 17.9168 186.142 20.1942C186.142 21.7448 186.606 23.0288 187.535 24.0464C188.512 25.0155 189.735 25.7907 191.2 26.3722C192.667 26.9536 194.67 27.5835 197.211 28.2619C200.584 29.1826 203.321 30.1032 205.422 31.0238C207.572 31.9445 209.381 33.3739 210.846 35.3122C212.362 37.2019 213.12 39.7458 213.12 42.9438C213.12 45.512 212.412 47.9347 210.993 50.2122C209.625 52.4894 207.598 54.3309 204.909 55.736C202.271 57.0928 199.142 57.7712 195.525 57.7712Z" fill="white"/>
<path fill-rule="evenodd" clip-rule="evenodd" d="M4.84137 0C2.16756 0 0 2.14904 0 4.8V49.3922C8.73085 43.992 14.5335 41.8192 24.7339 41.956C33.2286 42.0682 38.2336 34.1507 41.6335 28.7722C42.1929 27.8872 42.7088 27.071 43.1897 26.3707C46.552 21.4738 53.0385 17.4358 58.2795 14.1732L58.4738 14.0523C60.1571 13.0042 61.8075 11.9766 64.5516 10.1049V4.8C64.5516 2.14904 62.3841 0 59.7103 0H4.84137ZM64.5516 14.7501C64.5516 14.7501 57.0286 19.0072 51.3285 25.1341C48.4236 28.2565 47.0893 31.9461 45.7837 35.5566C44.5272 39.0312 43.2972 42.4325 40.7195 45.1848C34.6989 51.6214 27.6115 50.6782 20.0528 49.6725C18.8383 49.5109 17.6116 49.3477 16.3751 49.2133C11.5717 48.74 7.18955 50.7034 2.89278 52.6283C1.92548 53.0618 0.962494 53.4931 0 53.8944V59.2C0 61.851 2.16756 64 4.84137 64H59.7103C62.3841 64 64.5516 61.851 64.5516 59.2V14.7501Z" fill="white"/>
</g>
</g>
<defs>
<clipPath id="clip0_924_125">
<rect width="214.634" height="64" fill="white"/>
</clipPath>
</defs>
</svg>
