<svg width="354" height="52" viewBox="0 0 354 52" fill="none" xmlns="http://www.w3.org/2000/svg">
<g clip-path="url(#clip0_924_134)">
<path d="M190.639 9.8434V21.3215H190.744C192.683 18.829 195.45 17.5822 199.047 17.5822C200.652 17.5822 202.171 17.8387 203.6 18.3506C205.031 18.8625 206.302 19.6344 207.412 20.6675C208.52 21.6994 209.389 22.989 210.015 24.5374C210.643 26.0847 210.955 27.8724 210.955 29.8992C210.955 32.1838 210.527 34.3065 209.667 36.2675C208.807 38.2296 207.468 39.8 205.653 40.9822C203.837 42.1631 201.583 42.7559 198.891 42.7559C195.003 42.7559 192.236 41.5438 190.586 39.1217H190.482V42.1285H183.099V9.8434H190.639ZM162.313 16.9081C176.659 16.9081 175.432 31.9881 175.432 31.9881H155.793C156.588 34.9891 159.228 36.9616 162.865 36.9616C167.247 36.9616 169.609 34.3709 169.609 34.3709L173.778 38.5401C171.632 40.6259 168.749 42.5314 162.802 42.5314C153.605 42.5314 148.701 36.5745 148.701 30.2606C148.701 23.9466 152.38 16.9081 162.313 16.9081ZM340.944 16.8971C347.116 16.8971 351.039 19.2002 351.039 19.2002L348.505 24.5215C340.29 20.3523 336.57 23.2908 336.57 24.7595C336.57 26.2294 338.041 26.3484 343.763 27.3815C349.486 28.4146 352.143 30.7557 352.143 34.5286C352.143 38.3015 348.831 42.4719 340.74 42.4719C332.645 42.4719 328.968 39.9297 328.968 39.9297L331.42 34.6476C337.756 38.58 344.948 37.3077 344.948 34.9666C344.948 33.209 342.557 32.8365 339.983 32.5422L338.874 32.4171C338.382 32.3602 337.895 32.2994 337.428 32.2256C334.159 31.7091 329.295 30.0023 329.295 25.0773C329.295 20.1535 334.773 16.8971 340.944 16.8971ZM304.809 8.16137V27.6602L315.537 17.5722H324.305L313.672 27.5701L325.347 42.4721H316.642L308.658 32.2847L304.809 35.9028V42.4721H297.635V8.16137H304.809ZM279.099 16.7393C284.187 16.7393 288.642 19.218 291.105 22.9331L285.04 26.4228C283.904 24.3105 281.668 22.8741 279.099 22.8741C275.374 22.8741 272.354 25.8878 272.354 29.6052C272.354 33.3215 275.374 36.3364 279.099 36.3364C281.55 36.3364 283.689 35.0271 284.871 33.0742L290.961 36.4831C288.472 40.0815 284.093 42.4724 279.099 42.4724C271.345 42.4724 265.059 36.7108 265.059 29.6052C265.059 22.4986 271.345 16.7393 279.099 16.7393ZM245.762 16.7381C253.514 16.7381 259.802 22.4997 259.802 29.6041C259.802 36.7108 253.514 42.4712 245.762 42.4712C238.006 42.4712 231.723 36.7108 231.723 29.6041C231.723 22.4997 238.006 16.7381 245.762 16.7381ZM118.286 17.4534V42.2343H110.5V17.4534H118.286ZM103.508 9.94763V16.1426H86.0958V24.3632H101.484V30.4992H86.0958V42.2339H78.3081V9.94763H103.508ZM134.904 20.5501C134.904 20.5501 137.663 16.3207 143.364 16.9771V23.8862C143.364 23.8862 137.172 22.3377 134.904 28.5928V42.2329H127.486V17.4532H134.578L134.904 20.3721V20.5501ZM224.3 8.04142V42.054H216.453V8.04142H224.3ZM196.779 23.0271C192.476 23.0271 190.324 25.5902 190.324 30.7185C190.324 32.6622 190.878 34.2926 191.986 35.61C193.095 36.9262 194.766 37.5848 197.001 37.5848C198.492 37.5848 199.701 37.2046 200.631 36.4443C201.559 35.6828 202.218 34.7526 202.607 33.6513C202.998 32.5512 203.193 31.4523 203.193 30.3557C203.193 28.2479 202.682 26.5019 201.662 25.1118C200.641 23.7216 199.013 23.0271 196.779 23.0271ZM245.762 22.8741C242.035 22.8741 239.017 25.8867 239.017 29.6041C239.017 33.3227 242.035 36.3364 245.762 36.3364C249.486 36.3364 252.504 33.3227 252.504 29.6041C252.504 25.8867 249.486 22.8741 245.762 22.8741ZM162.435 22.308C158.641 22.308 156.532 24.5972 155.82 27.5797H168.535C168.473 26.8043 167.217 22.308 162.435 22.308ZM114.393 5.77734C116.919 5.77734 118.97 7.61814 118.97 9.88766C118.97 12.1572 116.919 13.998 114.393 13.998C111.866 13.998 109.815 12.1572 109.815 9.88766C109.815 7.61814 111.866 5.77734 114.393 5.77734Z" fill="white"/>
<path d="M52.2848 0C53.4577 0 54.4084 0.931248 54.4084 2.08V49.92C54.4084 51.0687 53.4577 52 52.2848 52H2.75789C1.58505 52 0.634277 51.0687 0.634277 49.92V2.08C0.634277 0.931248 1.58505 0 2.75789 0H52.2848ZM27.5212 14.4444L12.584 37.5556H42.4585L27.5212 14.4444Z" fill="white"/>
</g>
<defs>
<clipPath id="clip0_924_134">
<rect width="352.519" height="52" fill="white" transform="translate(0.634155)"/>
</clipPath>
</defs>
</svg>
