<svg width="522" height="77" viewBox="0 0 522 77" fill="none" xmlns="http://www.w3.org/2000/svg">
<path d="M281.353 14.5756V31.572H281.509C284.379 27.8812 288.477 26.0349 293.804 26.0349C296.18 26.0349 298.429 26.4148 300.545 27.1728C302.663 27.9308 304.546 29.0738 306.19 30.6036C307.83 32.1316 309.117 34.0412 310.044 36.3341C310.975 38.6252 311.437 41.2723 311.437 44.2736C311.437 47.6565 310.803 50.7998 309.529 53.7036C308.255 56.609 306.273 58.9344 303.585 60.6849C300.896 62.4336 297.558 63.3114 293.572 63.3114C287.816 63.3114 283.718 61.5165 281.274 57.93H281.12V62.3823H270.188V14.5756H281.353ZM239.409 25.0368C260.652 25.0368 258.834 47.3668 258.834 47.3668H229.755C230.931 51.8106 234.84 54.7314 240.226 54.7314C246.715 54.7314 250.212 50.8951 250.212 50.8951L256.385 57.0688C253.207 60.1574 248.939 62.979 240.133 62.979C226.515 62.979 219.253 54.1582 219.253 44.8087C219.253 35.4592 224.701 25.0368 239.409 25.0368ZM503.92 25.0205C513.059 25.0205 518.869 28.4308 518.869 28.4308L515.116 36.3105C502.952 30.1368 497.444 34.4881 497.444 36.6629C497.444 38.8395 499.622 39.0157 508.094 40.5455C516.568 42.0752 520.504 45.5419 520.504 51.1287C520.504 56.7155 515.599 62.8909 503.617 62.8909C491.631 62.8909 486.186 59.1264 486.186 59.1264L489.817 51.3049C499.199 57.1278 509.85 55.2439 509.85 51.7772C509.85 49.1746 506.309 48.6231 502.496 48.1873L500.855 48.002C500.127 47.9178 499.406 47.8277 498.714 47.7184C493.873 46.9536 486.671 44.4263 486.671 37.1335C486.671 29.8425 494.782 25.0205 503.92 25.0205ZM450.412 12.0849V40.9582L466.299 26.0202H479.281L463.536 40.8247L480.824 62.8912H467.934L456.112 47.806L450.412 53.1635V62.8912H439.79V12.0849H450.412ZM412.342 24.7868C419.876 24.7868 426.473 28.4571 430.12 33.9584L421.14 39.1259C419.457 35.998 416.146 33.8711 412.342 33.8711C406.826 33.8711 402.355 38.3337 402.355 43.8383C402.355 49.3412 406.826 53.8055 412.342 53.8055C415.971 53.8055 419.138 51.8668 420.888 48.9751L429.907 54.0228C426.222 59.3512 419.736 62.8915 412.342 62.8915C400.859 62.8915 391.552 54.3599 391.552 43.8383C391.552 33.315 400.859 24.7868 412.342 24.7868ZM362.978 24.7851C374.457 24.7851 383.768 33.3167 383.768 43.8366C383.768 54.3599 374.457 62.8898 362.978 62.8898C351.492 62.8898 342.188 54.3599 342.188 43.8366C342.188 33.3167 351.492 24.7851 362.978 24.7851ZM174.215 25.8443V62.5391H162.685V25.8443H174.215ZM152.332 14.7299V23.9032H126.549V36.076H149.334V45.162H126.549V62.5384H115.017V14.7299H152.332ZM198.822 30.4297C198.822 30.4297 202.908 24.167 211.35 25.1389V35.3697C211.35 35.3697 202.181 33.0768 198.822 42.339V62.537H187.837V25.8439H198.339L198.822 30.1662V30.4297ZM331.198 11.9073V62.2721H319.577V11.9073H331.198ZM290.445 34.0976C284.073 34.0976 280.886 37.8929 280.886 45.4868C280.886 48.3649 281.707 50.7793 283.348 52.7299C284.99 54.6789 287.464 55.6542 290.774 55.6542C292.981 55.6542 294.772 55.0913 296.148 53.9654C297.523 52.8377 298.498 51.4603 299.075 49.8296C299.654 48.2006 299.942 46.5734 299.942 44.9495C299.942 41.8284 299.186 39.243 297.675 37.1845C296.164 35.126 293.752 34.0976 290.445 34.0976ZM362.978 33.8711C357.459 33.8711 352.989 38.332 352.989 43.8366C352.989 49.343 357.459 53.8055 362.978 53.8055C368.492 53.8055 372.961 49.343 372.961 43.8366C372.961 38.332 368.492 33.8711 362.978 33.8711ZM239.589 33.0328C233.971 33.0328 230.848 36.4225 229.793 40.8389H248.623C248.531 39.6908 246.671 33.0328 239.589 33.0328ZM168.451 8.55469C172.191 8.55469 175.228 11.2805 175.228 14.6411C175.228 18.0017 172.191 20.7275 168.451 20.7275C164.708 20.7275 161.672 18.0017 161.672 14.6411C161.672 11.2805 164.708 8.55469 168.451 8.55469Z" fill="white"/>
<path d="M76.4825 0C78.2192 0 79.6271 1.37896 79.6271 3.08V73.92C79.6271 75.621 78.2192 77 76.4825 77H3.14458C1.40788 77 0 75.621 0 73.92V3.08C0 1.37896 1.40788 0 3.14458 0H76.4825ZM39.8134 21.3889L17.6947 55.6111H61.932L39.8134 21.3889Z" fill="white"/>
</svg>
