<svg width="273" height="50" viewBox="0 0 273 50" fill="none" xmlns="http://www.w3.org/2000/svg">
<path fill-rule="evenodd" clip-rule="evenodd" d="M32.3664 1.50903C32.152 1.45532 31.8935 1.45532 31.6791 1.50903L17.6358 5.79209L17.6285 5.79453C16.9707 6.01418 16.6486 6.67647 16.8087 7.31772L16.8123 7.33243L16.8175 7.34669C17.0322 7.93823 17.6853 8.33465 18.3552 8.11334L32.0433 3.94534L46.0249 8.23909C46.7012 8.46267 47.3546 8.05734 47.5657 7.42313C47.7905 6.74716 47.3879 6.09069 46.752 5.87832L32.3806 1.51256L32.3664 1.50903ZM11.0885 8.86142C11.0237 8.36309 11.2923 7.87476 11.7073 7.62532L11.7217 7.6167L11.7369 7.60976C11.8755 7.54666 12.0202 7.50994 12.1648 7.49823C12.2842 7.48138 12.4088 7.48234 12.5354 7.50347C13.0458 7.5887 13.4277 7.97294 13.5236 8.45L21.5574 24.1548H42.8481C42.8914 24.1548 42.9341 24.1571 42.9764 24.1617L50.5596 8.47525C50.6187 8.15281 50.811 7.87159 51.0962 7.70344C51.4424 7.46425 51.9076 7.42719 52.3086 7.60976C52.7096 7.7924 52.9379 8.157 52.9803 8.55023L53.2283 10.0001C53.2851 10.2538 53.527 11.9441 53.527 14.5048C53.527 17.0411 53.274 20.3793 52.346 24.1399C51.46 27.6904 49.8559 31.963 46.9418 36.1515C44.0278 40.3401 39.8064 44.4832 33.7339 47.7365L33.732 47.7376L32.6084 48.3629L32.6068 48.3639C32.2242 48.5821 31.8212 48.5821 31.4386 48.3639L31.437 48.3629L30.3134 47.7376L30.3115 47.7365C24.239 44.4832 20.0176 40.3401 17.1036 36.1515C14.1904 31.9643 12.5854 27.6921 11.7824 24.0949C10.8551 20.3354 10.6021 16.9562 10.6021 14.4628C10.6021 11.9022 10.8441 10.2119 10.9008 9.95812L11.0885 8.86142ZM22.8013 26.5865H41.6852L32.049 44.6643L22.8013 26.5865ZM13.0668 12.8771C13.0456 13.3512 13.0317 13.8826 13.0317 14.4628C13.0317 16.7957 13.2397 20.0011 14.1118 23.4958C14.9425 26.8664 16.4376 30.8183 19.1355 34.7271C21.4366 38.0251 24.6144 41.3252 29.0586 44.1364L13.0668 12.8771ZM35.092 44.0898C39.4808 41.2967 42.665 38.0399 44.9515 34.7276C47.6492 30.8192 49.1444 26.826 49.9754 23.4958C50.8476 20.0011 51.0557 16.7957 51.0557 14.4628C51.0557 13.945 51.0445 13.4661 51.0271 13.0321L45.1516 25.1857V25.2337L35.092 44.0898Z" fill="white"/>
<path fill-rule="evenodd" clip-rule="evenodd" d="M31.8012 2.35907L18.0335 6.55807L18.0317 6.55865C17.6189 6.69651 17.4064 7.10711 17.5086 7.53114C17.6522 7.91577 18.0668 8.14652 18.471 8.01299L18.4758 8.0114L32.0442 3.87989L45.9 8.13501L45.9044 8.13648C46.3076 8.26979 46.7252 8.04039 46.8683 7.61015C47.003 7.2053 46.7748 6.78752 46.349 6.64262L32.2584 2.36223L32.2551 2.36137C32.1171 2.32682 31.9409 2.32605 31.8012 2.35907ZM32.4664 1.52132L32.4907 1.5274L46.6137 5.81768L46.6193 5.81957C47.4388 6.09318 47.9984 6.96249 47.692 7.88308C47.4214 8.69652 46.5587 9.26233 45.6362 8.9602L32.043 4.78576L18.7385 8.83695C17.8318 9.13329 16.9698 8.59007 16.6899 7.81907L16.6772 7.78398L16.6682 7.74779C16.4605 6.91552 16.8802 6.02986 17.7563 5.7373L17.7689 5.7331L31.5698 1.52398L31.5804 1.52132C31.8603 1.45123 32.1865 1.45123 32.4664 1.52132ZM12.483 7.38977C12.6401 7.3689 12.8025 7.37102 12.9662 7.39836C13.6245 7.50826 14.127 7.9934 14.2762 8.6066L22.0163 23.7373H42.5062L49.8048 8.63961C49.8963 8.23311 50.1467 7.87702 50.5116 7.6569C50.9814 7.33924 51.5946 7.29843 52.116 7.53583C52.6573 7.7823 52.9647 8.27445 53.0251 8.79239L53.2649 10.1938C53.3336 10.5173 53.566 12.2 53.566 14.6979C53.566 17.2159 53.3147 20.5282 52.3941 24.2594C51.5146 27.7837 49.9211 32.0297 47.0244 36.1934C44.1274 40.3573 39.9334 44.4716 33.9093 47.6993L33.9063 47.7009L32.8142 48.3087L32.8126 48.3096C32.3035 48.6 31.7435 48.6003 31.2347 48.3098L31.2328 48.3088L30.1402 47.7007L30.1384 47.6997C24.1142 44.4722 19.9192 40.3573 17.0223 36.1934C14.1278 32.0329 12.5321 27.7878 11.7329 24.2104C10.8138 20.4821 10.5629 17.1315 10.5629 14.6567C10.5629 12.159 10.7953 10.4763 10.864 10.1526L11.0365 9.14445C10.9812 8.49432 11.3364 7.8876 11.8579 7.57414L11.8932 7.5529L11.9307 7.53583C12.1088 7.45473 12.2955 7.4064 12.483 7.38977ZM12.823 8.2526C12.7426 8.23917 12.665 8.23877 12.5916 8.24913L12.5788 8.25093L12.566 8.25196C12.4764 8.25923 12.3861 8.28155 12.2986 8.32036C12.0283 8.48663 11.8658 8.8032 11.9047 9.10271L11.9131 9.16723L11.7161 10.3186L11.7137 10.3293C11.6675 10.5358 11.4309 12.1603 11.4309 14.6567C11.4309 17.0763 11.6764 20.3576 12.5769 24.0081L12.578 24.0126L12.5791 24.0173C13.3568 27.5012 14.9119 31.6412 17.7353 35.6994C20.559 39.7581 24.6521 43.7773 30.549 46.9366L30.5569 46.9409L31.664 47.5572L31.6654 47.5579C31.9074 47.6962 32.1392 47.6962 32.3812 47.5579L32.3869 47.5547L33.4959 46.9375L33.4978 46.9366C39.3945 43.7773 43.4877 39.7581 46.3114 35.6994C49.1356 31.64 50.6915 27.4972 51.5516 24.0512C52.4523 20.4 52.698 17.159 52.698 14.6979C52.698 12.2015 52.4613 10.5769 52.4152 10.3705L52.4128 10.3598L52.1651 8.91261L52.1638 8.89923C52.1369 8.65039 51.9968 8.43358 51.7557 8.32379C51.4947 8.20493 51.2011 8.23393 50.9928 8.37783L50.9799 8.3867L50.9665 8.39461C50.7974 8.49433 50.682 8.66138 50.646 8.8573L50.6354 8.91485L43.0332 24.6404L42.7289 24.6076C42.7028 24.6048 42.6764 24.6034 42.6495 24.6034H21.4849L13.451 8.89833L13.4392 8.83983C13.3801 8.5459 13.1446 8.3063 12.823 8.2526ZM13.0561 11.4438L30.2219 44.9979L28.8815 44.15C24.4666 41.3573 21.3063 38.0765 19.0171 34.7956L19.0159 34.7938C16.3324 30.9059 14.8462 26.9763 14.0207 23.6273C13.154 20.1538 12.9478 16.9709 12.9478 14.6567C12.9478 14.0803 12.9616 13.5523 12.9828 13.0809L13.0561 11.4438ZM51.0418 11.5031L51.1115 13.235C51.1289 13.6664 51.14 14.1423 51.14 14.6567C51.14 16.971 50.9337 20.1544 50.0668 23.6281C49.2414 26.9356 47.7555 30.9059 45.0715 34.7943C42.7951 38.0923 39.6276 41.3301 35.2696 44.1037L33.877 44.99L44.4767 25.1215V25.0834L51.0418 11.5031ZM13.8162 14.8343C13.8267 17.0832 14.0398 20.1194 14.8631 23.4188C15.6686 26.6868 17.1175 30.5162 19.7301 34.3016C21.714 37.1448 24.3715 39.9913 27.9722 42.5053L13.8162 14.8343ZM45.3447 25.2813V25.3376L36.2334 42.416C39.7623 39.9331 42.4004 37.1372 44.3567 34.3029C46.9691 30.5182 48.4185 26.6491 49.2246 23.4188C50.0167 20.2447 50.244 17.3143 50.2695 15.094L45.3447 25.2813ZM22.2629 26.1243H42.2305L32.0412 45.2394L22.2629 26.1243ZM23.6804 26.9904L32.0571 43.3654L40.7857 26.9904H23.6804Z" fill="white"/>
<path d="M32.3607 1.94135L32.4664 1.52132M32.4664 1.52132C32.1865 1.45123 31.8603 1.45123 31.5804 1.52132L31.5698 1.52398L17.7689 5.7331L17.7563 5.7373C16.8802 6.02986 16.4605 6.91552 16.6682 7.74779L16.6772 7.78398L16.6899 7.81907C16.9698 8.59007 17.8318 9.13329 18.7385 8.83695L32.043 4.78576L45.6362 8.9602C46.5587 9.26233 47.4214 8.69652 47.692 7.88308C47.9984 6.96249 47.4388 6.09318 46.6193 5.81957L46.6137 5.81768L32.4907 1.5274L32.4664 1.52132ZM11.9307 7.53583L12.1109 7.9298M11.9307 7.53583C12.1088 7.45473 12.2955 7.4064 12.483 7.38977C12.6401 7.3689 12.8025 7.37102 12.9662 7.39836C13.6245 7.50826 14.127 7.9934 14.2762 8.6066L22.0163 23.7373H42.5062L49.8048 8.63961C49.8963 8.23311 50.1467 7.87702 50.5116 7.6569C50.9814 7.33924 51.5946 7.29843 52.116 7.53583C52.6573 7.7823 52.9647 8.27445 53.0251 8.79239L53.2649 10.1938C53.3336 10.5173 53.566 12.2 53.566 14.6979C53.566 17.2159 53.3147 20.5282 52.3941 24.2594C51.5146 27.7837 49.9211 32.0297 47.0244 36.1934C44.1274 40.3573 39.9334 44.4716 33.9093 47.6993L33.9063 47.7009L32.8142 48.3087L32.8126 48.3096C32.3035 48.6 31.7435 48.6003 31.2347 48.3098L31.2328 48.3088L30.1402 47.7007L30.1384 47.6997C24.1142 44.4722 19.9192 40.3573 17.0223 36.1934C14.1278 32.0329 12.5321 27.7878 11.7329 24.2104C10.8138 20.4821 10.5629 17.1315 10.5629 14.6567C10.5629 12.159 10.7953 10.4763 10.864 10.1526L11.0365 9.14445C10.9812 8.49432 11.3364 7.8876 11.8579 7.57414L11.8932 7.5529L11.9307 7.53583ZM12.1125 7.93349L12.1704 8.06014M18.0335 6.55807L31.8012 2.35907C31.9409 2.32605 32.1171 2.32682 32.2551 2.36137L32.2584 2.36223L46.349 6.64262C46.7748 6.78752 47.003 7.2053 46.8683 7.61015C46.7252 8.04039 46.3076 8.26979 45.9044 8.13648L45.9 8.13501L32.0442 3.87989L18.4758 8.0114L18.471 8.01299C18.0668 8.14652 17.6522 7.91577 17.5086 7.53114C17.4064 7.10711 17.6189 6.69651 18.0317 6.55865L18.0335 6.55807ZM12.5916 8.24913C12.665 8.23877 12.7426 8.23917 12.823 8.2526C13.1446 8.3063 13.3801 8.5459 13.4392 8.83983L13.451 8.89833L21.4849 24.6034H42.6495C42.6764 24.6034 42.7028 24.6048 42.7289 24.6076L43.0332 24.6404L50.6354 8.91485L50.646 8.8573C50.682 8.66138 50.7974 8.49433 50.9665 8.39461L50.9799 8.3867L50.9928 8.37783C51.2011 8.23393 51.4947 8.20493 51.7557 8.32379C51.9968 8.43358 52.1369 8.65039 52.1638 8.89923L52.1651 8.91261L52.4128 10.3598L52.4152 10.3705C52.4613 10.5769 52.698 12.2015 52.698 14.6979C52.698 17.159 52.4523 20.4 51.5516 24.0512C50.6915 27.4972 49.1356 31.64 46.3114 35.6994C43.4877 39.7581 39.3945 43.7773 33.4978 46.9366L33.4959 46.9375L32.3869 47.5547L32.3825 47.5573C32.1405 47.6956 31.9074 47.6962 31.6654 47.5579L31.664 47.5572L30.5569 46.9409L30.549 46.9366C24.6521 43.7773 20.559 39.7581 17.7353 35.6994C14.9119 31.6412 13.3568 27.5012 12.5791 24.0173L12.578 24.0126L12.5769 24.0081C11.6764 20.3576 11.4309 17.0763 11.4309 14.6567C11.4309 12.1603 11.6675 10.5358 11.7137 10.3293L11.7161 10.3186L11.9131 9.16723L11.9047 9.10271C11.8658 8.8032 12.0283 8.48663 12.2986 8.32036C12.3861 8.28155 12.4764 8.25923 12.566 8.25196L12.5788 8.25093L12.5916 8.24913ZM13.0561 11.4438L12.9828 13.0809C12.9616 13.5523 12.9478 14.0803 12.9478 14.6567C12.9478 16.9709 13.154 20.1538 14.0207 23.6273C14.8462 26.9763 16.3324 30.9059 19.0159 34.7938L19.0171 34.7956C21.3063 38.0765 24.4666 41.3573 28.8815 44.15L30.2219 44.9979L13.0561 11.4438ZM51.1115 13.235L51.0418 11.5031L44.4767 25.0834V25.1215L33.877 44.99L35.2696 44.1037C39.6276 41.3301 42.7951 38.0923 45.0715 34.7943C47.7555 30.9059 49.2414 26.9356 50.0668 23.6281C50.9337 20.1544 51.14 16.971 51.14 14.6567C51.14 14.1423 51.1289 13.6664 51.1115 13.235ZM14.8631 23.4188C14.0398 20.1194 13.8267 17.0832 13.8162 14.8343L27.9722 42.5053C24.3715 39.9913 21.714 37.1448 19.7301 34.3016C17.1175 30.5162 15.6686 26.6868 14.8631 23.4188ZM45.3447 25.3376V25.2813L50.2695 15.094C50.244 17.3143 50.0167 20.2447 49.2246 23.4188C48.4185 26.6491 46.9691 30.5182 44.3567 34.3029C42.4004 37.1372 39.7623 39.9331 36.2334 42.416L45.3447 25.3376ZM22.2629 26.1243H42.2305L32.0412 45.2394L22.2629 26.1243ZM32.0571 43.3654L23.6804 26.9904H40.7857L32.0571 43.3654Z" stroke="white" stroke-width="0.188542" stroke-miterlimit="10"/>
<path d="M95.4701 15.9069H76.0698C75.7284 15.9069 75.444 16.021 75.1595 16.3058C74.932 16.5339 74.7613 16.8758 74.7613 17.2177V32.7773C74.7613 33.1194 74.8751 33.4044 75.1595 33.6892C75.3871 33.9173 75.7284 34.0882 76.0698 34.0882H95.4701V36.71H76.0698C74.9889 36.71 74.0786 36.311 73.3389 35.5701C72.5993 34.8292 72.2011 33.9173 72.2011 32.8344V17.1608C72.2011 16.0779 72.5993 15.166 73.3389 14.4251C74.0786 13.6841 74.9889 13.2852 76.0698 13.2852H95.4701V15.9069Z" fill="white"/>
<path d="M94.6322 36.1202H94.8766V35.8762V34.9275V34.6836H94.6322H76.0703C75.543 34.6836 75.0568 34.4283 74.7392 34.1102C74.3511 33.7214 74.1679 33.2887 74.1679 32.78V17.2205C74.1679 16.6946 74.4216 16.2086 74.7392 15.8905C75.1274 15.5015 75.5604 15.3171 76.0703 15.3171H94.6322H94.8766V15.0731V14.1245V13.8805H94.6322H76.0703C75.1532 13.8805 74.3926 14.2124 73.7601 14.8461C73.1276 15.4796 72.7954 16.2427 72.7954 17.1636V32.8371C72.7954 33.758 73.1276 34.5211 73.7601 35.1546C74.3926 35.7883 75.1532 36.1202 76.0703 36.1202H94.6322ZM72.9186 14.0096C73.7654 13.1613 74.8254 12.6953 76.0703 12.6953H96.0644V16.5022H76.0703C76.0062 16.5022 75.9227 16.5064 75.8289 16.5465C75.7394 16.5846 75.6606 16.6468 75.5807 16.7268C75.5069 16.8008 75.4525 16.8862 75.4161 16.9669C75.3812 17.0446 75.3555 17.1346 75.3555 17.2205V32.78C75.3555 32.8464 75.3601 32.9303 75.4002 33.0244C75.4385 33.1143 75.5007 33.1936 75.5807 33.2739C75.6547 33.3478 75.7396 33.4021 75.8197 33.4383C75.8964 33.4728 75.9854 33.4984 76.0703 33.4984H96.0644V37.3053H76.0703C74.8254 37.3053 73.7654 36.8394 72.9186 35.9911C72.0718 35.1428 71.6078 34.0819 71.6078 32.8371V17.1636C71.6078 15.9187 72.0718 14.8578 72.9186 14.0096Z" fill="white" stroke="white" stroke-width="0.159353" stroke-miterlimit="10"/>
<path d="M131.881 13.2852V15.9069H113.221V23.6582H128.24V26.337H113.221V34.0882H131.881V36.71H110.604V13.3422H131.881V13.2852Z" fill="white"/>
<path d="M114.059 16.4999H113.815V16.7439V22.822V23.0661H114.059H128.834V26.9299H114.059H113.815V27.174V33.2521V33.4961H114.059H132.475V37.303H110.01V12.75H132.475V13.2856V16.4999H114.059ZM131.288 14.1792V13.9352H131.043H111.442H111.198V14.1792V35.8739V36.1179H111.442H131.043H131.288V35.8739V34.9252V34.6812H131.043H112.627V25.7448H127.402H127.647V25.5008V24.4952V24.2512H127.402H112.627V15.3148H131.043H131.288V15.0708V14.1792Z" fill="white" stroke="white" stroke-width="0.159353" stroke-miterlimit="10"/>
<path d="M170.341 17.1608V24.0002C170.341 25.083 169.943 25.995 169.204 26.736C168.464 27.4769 167.553 27.8758 166.473 27.8758H162.889L170.228 36.596H166.757L159.418 27.9327H150.884C150.713 27.9327 150.258 27.8758 149.632 27.8188V36.653H147.015V13.2852H166.473C167.553 13.2852 168.464 13.6841 169.204 14.4251C169.943 15.166 170.341 16.0779 170.341 17.1608ZM150.884 25.2541H166.415C166.757 25.2541 167.042 25.1401 167.269 24.9122C167.497 24.6841 167.611 24.3991 167.611 24.0572V17.2177C167.611 16.8758 167.497 16.5908 167.269 16.3058C167.042 16.0779 166.757 15.9069 166.415 15.9069H150.884C150.543 15.9069 150.258 16.021 149.974 16.3058C149.746 16.5339 149.575 16.8758 149.575 17.2177V24.0572C149.575 24.3991 149.689 24.6841 149.974 24.9122C150.201 25.1401 150.543 25.2541 150.884 25.2541Z" fill="white"/>
<path d="M164.499 28.8721L171.501 37.1914H166.482L159.215 28.6146L159.143 28.5281H159.029H150.884C150.789 28.5281 150.649 28.5168 150.494 28.5018L150.226 28.4761V28.7447V37.2483H146.421V12.6953H166.473C167.716 12.6953 168.778 13.1612 169.623 14.0096C170.471 14.8578 170.935 15.9187 170.935 17.1636V24.003C170.935 25.2477 170.471 26.3086 169.623 27.1568C168.778 28.0052 167.716 28.4712 166.473 28.4712H164.687H164.162L164.499 28.8721ZM147.609 35.8192V36.0631H147.853H148.794H149.038V35.8192V27.1724L149.686 27.2314C149.928 27.2536 150.147 27.2758 150.331 27.2944L150.488 27.3103C150.594 27.3209 150.682 27.3293 150.752 27.3352C150.787 27.338 150.816 27.34 150.839 27.3414L150.868 27.3427L150.877 27.3428L150.88 27.343H150.882H150.884H159.694L166.959 35.9197L167.033 36.0062H167.146H168.428H168.953L168.615 35.6052L161.614 27.2859H166.473C167.389 27.2859 168.15 26.954 168.782 26.3205C169.414 25.6868 169.747 24.9239 169.747 24.003V17.1636C169.747 16.2427 169.414 15.4796 168.782 14.8461C168.15 14.2124 167.389 13.8805 166.473 13.8805H147.853H147.609V14.1245V35.8192ZM149.582 25.3619L149.571 25.3515C149.152 25.0014 148.981 24.5475 148.981 24.0599V17.2205C148.981 16.6946 149.235 16.2086 149.552 15.8905C149.941 15.5015 150.374 15.3171 150.884 15.3171H166.415C166.971 15.3171 167.397 15.5975 167.69 15.8905L167.712 15.9137L167.733 15.9393C168.03 16.3115 168.204 16.7234 168.204 17.2205V24.0599C168.204 24.5478 168.035 24.9865 167.69 25.333C167.344 25.6796 166.904 25.8494 166.415 25.8494H150.884C150.436 25.8494 149.943 25.7056 149.582 25.3619ZM150.345 24.4528L150.371 24.4734L150.394 24.4966C150.484 24.5868 150.659 24.6642 150.884 24.6642H166.415C166.504 24.6642 166.586 24.6525 166.664 24.6212C166.744 24.5892 166.801 24.5428 166.848 24.4966C166.894 24.4502 166.941 24.3914 166.972 24.3112C167.005 24.233 167.016 24.1493 167.016 24.0599V17.2205C167.016 17.0519 166.972 16.903 166.838 16.7224L166.825 16.7039L166.807 16.6881C166.658 16.5515 166.529 16.5022 166.415 16.5022H150.884C150.819 16.5022 150.736 16.5064 150.642 16.5465C150.553 16.5846 150.474 16.6468 150.394 16.7268C150.32 16.8008 150.266 16.8862 150.229 16.9669C150.195 17.0446 150.169 17.1346 150.169 17.2205V24.0599C150.169 24.165 150.186 24.2361 150.209 24.2877C150.232 24.3371 150.27 24.3922 150.345 24.4528Z" fill="white"/>
<path d="M150.839 27.3414C150.816 27.34 150.787 27.338 150.752 27.3352C150.682 27.3293 150.594 27.3209 150.488 27.3103L150.331 27.2944C150.147 27.2758 149.928 27.2536 149.686 27.2314L149.038 27.1724V35.8191V36.0631H148.794H147.853H147.609V35.8191V14.1245V13.8805H147.853H166.473C167.389 13.8805 168.15 14.2124 168.782 14.8461C169.414 15.4796 169.747 16.2427 169.747 17.1636V24.003C169.747 24.9239 169.414 25.6868 168.782 26.3205C168.15 26.954 167.389 27.2859 166.473 27.2859H161.614L168.615 35.6052L168.953 36.0062H168.428H167.146H167.033L166.959 35.9197L159.694 27.343H150.884H150.882M150.839 27.3414L150.853 27.1021M150.839 27.3414L150.868 27.3427L150.877 27.3428L150.88 27.343H150.882M150.882 27.343L150.884 27.099M167.69 15.8905C167.397 15.5975 166.971 15.3171 166.415 15.3171H150.884C150.374 15.3171 149.941 15.5015 149.552 15.8905C149.235 16.2086 148.981 16.6946 148.981 17.2205V24.0599C148.981 24.5475 149.152 25.0014 149.571 25.3515L149.582 25.3619C149.943 25.7056 150.436 25.8494 150.884 25.8494H166.415C166.904 25.8494 167.344 25.6796 167.69 25.333C168.035 24.9865 168.204 24.5478 168.204 24.0599V17.2205C168.204 16.7234 168.03 16.3115 167.733 15.9393M167.69 15.8905L167.856 15.7241M167.69 15.8905L167.712 15.9137L167.733 15.9393M167.733 15.9393L167.924 15.7872M150.345 24.4528L150.496 24.265M150.345 24.4528L150.371 24.4734L150.394 24.4966C150.484 24.5868 150.659 24.6642 150.884 24.6642H166.415C166.504 24.6642 166.586 24.6525 166.664 24.6212C166.744 24.5892 166.801 24.5428 166.848 24.4966C166.894 24.4502 166.941 24.3914 166.972 24.3112C167.005 24.233 167.016 24.1493 167.016 24.0599V17.2205C167.016 17.0519 166.972 16.903 166.838 16.7224L166.825 16.7039L166.807 16.6881C166.658 16.5515 166.529 16.5022 166.415 16.5022H150.884C150.819 16.5022 150.736 16.5064 150.642 16.5465C150.553 16.5846 150.474 16.6468 150.394 16.7268C150.32 16.8008 150.266 16.8862 150.229 16.9669C150.195 17.0446 150.169 17.1346 150.169 17.2205V24.0599C150.169 24.165 150.186 24.2361 150.209 24.2877M150.345 24.4528C150.27 24.3922 150.232 24.3371 150.209 24.2877M150.209 24.2877L150.416 24.1952M164.499 28.8721L171.501 37.1914H166.482L159.215 28.6146L159.143 28.5281H159.029H150.884C150.789 28.5281 150.649 28.5168 150.494 28.5018L150.226 28.4761V28.7447V37.2483H146.421V12.6953H166.473C167.716 12.6953 168.778 13.1612 169.623 14.0096C170.471 14.8578 170.935 15.9187 170.935 17.1636V24.003C170.935 25.2477 170.471 26.3086 169.623 27.1568C168.778 28.0052 167.716 28.4712 166.473 28.4712H164.687H164.162L164.499 28.8721Z" stroke="white" stroke-width="0.159353" stroke-miterlimit="10"/>
<path d="M184.28 13.2852H207.605V15.9069H197.251V36.653H194.634V15.9069H184.28V13.2852Z" fill="white"/>
<path d="M198.089 16.5022H197.845V16.7462V37.2483H194.04V16.7462V16.5022H193.795H183.685V12.6953H208.199V16.5022H198.089ZM184.873 15.0731V15.3171H185.118H195.227V35.8192V36.0631H195.472H196.412H196.657V35.8192V15.3171H206.766H207.011V15.0731V14.1245V13.8805H206.766H185.118H184.873V14.1245V15.0731Z" fill="white" stroke="white" stroke-width="0.159353" stroke-miterlimit="10"/>
<path d="M221.714 36.653V13.2852H224.332V36.653H221.714Z" fill="white"/>
<path d="M222.308 35.8192V36.0631H222.553H223.493H223.738V35.8192V14.1245V13.8805H223.493H222.553H222.308V14.1245V35.8192ZM221.12 37.2483V12.6953H224.925V37.2483H221.12Z" fill="white" stroke="white" stroke-width="0.159353" stroke-miterlimit="10"/>
<path d="M259.377 13.2852H262.734L253.005 24.9691L262.792 36.653H259.377L250.674 26.28H243.164V36.653H240.489V13.2852H243.164V23.6582H250.674L259.377 13.2852Z" fill="white"/>
<path d="M259.1 12.6953H264L253.909 24.8143L253.779 24.9708L253.91 25.1268L264.061 37.2483H259.1L250.469 26.9627L250.395 26.8753H250.282H244.002H243.758V27.1193V37.2483H239.895V12.6953H243.758V22.8243V23.0684H244.002H250.282H250.395L250.469 22.9811L259.1 12.6953ZM241.083 35.8192V36.0631H241.328H242.325H242.57V35.8192V25.69H250.951L259.582 35.9758L259.654 36.0631H259.769H260.998H261.522L261.186 35.6627L252.233 24.973L261.136 14.2804L261.469 13.8805H260.948H259.769H259.654L259.582 13.9678L250.951 24.2536H242.57V14.1245V13.8805H242.325H241.328H241.083V14.1245V35.8192Z" fill="white" stroke="white" stroke-width="0.159353" stroke-miterlimit="10"/>
</svg>
