<svg width="534" height="98" viewBox="0 0 534 98" fill="none" xmlns="http://www.w3.org/2000/svg">
<path fill-rule="evenodd" clip-rule="evenodd" d="M62.5126 2.96176C62.0924 2.8565 61.5857 2.8565 61.1655 2.96176L33.6406 11.3566L33.6262 11.3613C32.337 11.7918 31.7058 13.0899 32.0194 14.3468L32.0266 14.3756L32.0367 14.4036C32.4576 15.563 33.7375 16.34 35.0506 15.9062L61.8792 7.73692L89.2832 16.1527C90.6087 16.5909 91.8895 15.7964 92.3031 14.5534C92.7439 13.2285 91.9548 11.9418 90.7084 11.5256L62.5403 2.96868L62.5126 2.96176ZM20.8079 17.3725C20.6809 16.3957 21.2074 15.4386 22.0208 14.9497L22.0489 14.9328L22.0788 14.9192C22.3504 14.7955 22.634 14.7235 22.9174 14.7006C23.1515 14.6676 23.3956 14.6694 23.6437 14.7109C24.6442 14.8779 25.3926 15.631 25.5807 16.5661L41.3269 47.3474H83.0566C83.1416 47.3474 83.2253 47.352 83.3082 47.361L98.1713 16.6155C98.2871 15.9836 98.664 15.4324 99.2229 15.1028C99.9014 14.634 100.813 14.5614 101.599 14.9192C102.385 15.2772 102.833 15.9918 102.916 16.7625L103.402 19.6042C103.513 20.1015 103.987 23.4146 103.987 28.4334C103.987 33.4046 103.491 39.9476 101.673 47.3183C99.9361 54.2772 96.792 62.6516 91.0804 70.8611C85.3688 79.0706 77.0949 87.1911 65.1928 93.5677L65.189 93.5697L62.9869 94.7953L62.9837 94.7973C62.2339 95.225 61.4439 95.225 60.6941 94.7973L60.6909 94.7953L58.4887 93.5697L58.485 93.5677C46.5829 87.1911 38.309 79.0706 32.5975 70.8611C26.8877 62.6542 23.7418 54.2806 22.1679 47.2301C20.3503 39.8614 19.8545 33.2383 19.8545 28.3512C19.8545 23.3324 20.3288 20.0193 20.4401 19.522L20.8079 17.3725ZM43.765 52.1137H80.7774L61.8905 87.5462L43.765 52.1137ZM24.6854 25.2432C24.6438 26.1725 24.6165 27.2139 24.6165 28.3512C24.6165 32.9236 25.0242 39.2062 26.7335 46.0558C28.3618 52.6622 31.2921 60.4079 36.58 68.0692C41.0901 74.5332 47.3186 81.0015 56.0292 86.5114L24.6854 25.2432ZM67.8548 86.42C76.4568 80.9456 82.6979 74.5623 87.1793 68.0701C92.4669 60.4097 95.3975 52.5829 97.0263 46.0558C98.7357 39.2062 99.1435 32.9236 99.1435 28.3512C99.1435 27.3363 99.1216 26.3977 99.0875 25.547L87.5716 49.368V49.4622L67.8548 86.42Z" fill="white"/>
<path fill-rule="evenodd" clip-rule="evenodd" d="M61.4048 4.62783L34.4201 12.8579L34.4167 12.859C33.6075 13.1292 33.191 13.934 33.3913 14.7651C33.6728 15.519 34.4854 15.9712 35.2776 15.7095L35.2871 15.7064L61.8811 7.60865L89.0385 15.9487L89.0471 15.9516C89.8374 16.2128 90.656 15.7632 90.9364 14.92C91.2005 14.1265 90.753 13.3076 89.9186 13.0236L62.301 4.63403L62.2944 4.63236C62.024 4.56462 61.6786 4.56312 61.4048 4.62783ZM62.7086 2.98584L62.7563 2.99777L90.4373 11.4067L90.4483 11.4104C92.0546 11.9467 93.1513 13.6505 92.5508 15.4549C92.0205 17.0492 90.3296 18.1582 88.5214 17.5661L61.8788 9.38415L35.802 17.3245C34.0249 17.9053 32.3353 16.8406 31.7867 15.3294L31.7618 15.2607L31.7441 15.1897C31.337 13.5585 32.1596 11.8226 33.8768 11.2492L33.9015 11.2409L60.9513 2.99106L60.9721 2.98584C61.5206 2.84847 62.1601 2.84847 62.7086 2.98584ZM23.5411 14.488C23.849 14.4471 24.1675 14.4513 24.4883 14.5048C25.7784 14.7202 26.7634 15.6711 27.0559 16.873L42.2265 46.5293H82.3867L96.6919 16.9377C96.8713 16.141 97.3621 15.443 98.0772 15.0116C98.9981 14.389 100.2 14.309 101.222 14.7743C102.283 15.2574 102.885 16.222 103.004 17.2371L103.474 19.9838C103.608 20.6179 104.064 23.9161 104.064 28.812C104.064 33.7472 103.571 40.2394 101.767 47.5525C100.043 54.4601 96.9198 62.7823 91.2423 70.9431C85.5642 79.1045 77.344 87.1684 65.5367 93.4946L65.5309 93.4978L63.3903 94.6891L63.3871 94.6908C62.3894 95.26 61.2918 95.2606 60.2944 94.6914L60.2907 94.6893L58.1492 93.4975L58.1457 93.4955C46.3384 87.1696 38.1162 79.1045 32.4382 70.9431C26.765 62.7886 23.6374 54.4681 22.0711 47.4565C20.2695 40.1489 19.7778 33.5817 19.7778 28.7313C19.7778 23.8356 20.2332 20.5375 20.3679 19.9032L20.7061 17.9272C20.5977 16.6529 21.2938 15.4637 22.3159 14.8494L22.3851 14.8078L22.4586 14.7743C22.8078 14.6153 23.1737 14.5206 23.5411 14.488ZM24.2075 16.1791C24.0499 16.1528 23.8978 16.1521 23.7541 16.1723L23.729 16.1759L23.7038 16.1779C23.5282 16.1921 23.3513 16.2359 23.1798 16.312C22.6499 16.6378 22.3314 17.2583 22.4078 17.8454L22.4242 17.9718L22.0381 20.2285L22.0334 20.2495C21.9429 20.6541 21.479 23.8383 21.479 28.7313C21.479 33.4736 21.9603 39.905 23.7251 47.0599L23.7274 47.0688L23.7294 47.0781C25.2538 53.9064 28.3018 62.0208 33.8356 69.9749C39.3701 77.9299 47.3927 85.8077 58.9505 91.9998L58.9661 92.0082L61.1359 93.2162L61.1387 93.2176C61.613 93.4886 62.0674 93.4886 62.5417 93.2176L62.5529 93.2113L64.7265 92.0015L64.7302 91.9998C76.2877 85.8077 84.3104 77.9299 89.8449 69.9749C95.3803 62.0184 98.4299 53.8986 100.116 47.1444C101.881 39.9881 102.363 33.6356 102.363 28.812C102.363 23.9189 101.899 20.7348 101.808 20.3302L101.804 20.3092L101.318 17.4728L101.315 17.4465C101.263 16.9588 100.988 16.5339 100.516 16.3187C100.004 16.0857 99.4288 16.1426 99.0203 16.4246L98.9952 16.442L98.9689 16.4575C98.6373 16.653 98.4111 16.9804 98.3407 17.3644L98.3199 17.4772L83.4196 48.2993L82.8231 48.235C82.772 48.2296 82.7203 48.2267 82.6674 48.2267H41.1849L25.4384 17.4448L25.4153 17.3301C25.2994 16.754 24.8379 16.2844 24.2075 16.1791ZM24.6645 22.4338L58.3095 88.2L55.6822 86.538C47.029 81.0645 40.8348 74.6339 36.3481 68.2034L36.3456 68.1999C31.086 60.5796 28.173 52.8776 26.5551 46.3137C24.8563 39.5055 24.4522 33.267 24.4522 28.7313C24.4522 27.6014 24.4793 26.5665 24.5207 25.6426L24.6645 22.4338ZM99.1165 22.5501L99.2531 25.9446C99.2872 26.7903 99.3089 27.723 99.3089 28.7313C99.3089 33.2673 98.9045 39.5067 97.2055 46.3151C95.5877 52.7978 92.6753 60.5796 87.4146 68.2008C82.9528 74.6651 76.7447 81.0111 68.203 86.4473L65.4734 88.1844L86.2488 49.2421V49.1675L99.1165 22.5501ZM26.1542 29.0792C26.1747 33.4872 26.5924 39.4381 28.2062 45.9049C29.7849 52.3101 32.6248 59.8158 37.7455 67.2352C41.634 72.808 46.8427 78.387 53.9 83.3144L26.1542 29.0792ZM87.9501 49.5554V49.6658L70.092 83.1395C77.0087 78.2729 82.1793 72.793 86.0137 67.2378C91.134 59.8198 93.9748 52.2363 95.5548 45.9049C97.1073 39.6837 97.5527 33.94 97.6027 29.5882L87.9501 49.5554ZM42.7098 51.2076H81.8462L61.8753 88.6733L42.7098 51.2076ZM45.488 52.9053L61.9065 85.0003L79.0144 52.9053H45.488Z" fill="white"/>
<path d="M62.5015 3.8091L62.7086 2.98584M62.7086 2.98584C62.1601 2.84847 61.5206 2.84847 60.9721 2.98584L60.9513 2.99106L33.9015 11.2409L33.8768 11.2492C32.1596 11.8226 31.337 13.5585 31.7441 15.1897L31.7618 15.2607L31.7867 15.3294C32.3353 16.8406 34.0249 17.9053 35.802 17.3245L61.8788 9.38415L88.5214 17.5661C90.3296 18.1582 92.0205 17.0492 92.5508 15.4549C93.1513 13.6505 92.0546 11.9467 90.4483 11.4104L90.4373 11.4067L62.7563 2.99777L62.7086 2.98584ZM22.4586 14.7743L22.8118 15.5465M22.4586 14.7743C22.8078 14.6153 23.1737 14.5206 23.5411 14.488C23.849 14.4471 24.1675 14.4513 24.4883 14.5048C25.7784 14.7202 26.7634 15.6711 27.0559 16.873L42.2265 46.5293H82.3867L96.6919 16.9377C96.8713 16.141 97.3621 15.443 98.0772 15.0116C98.9981 14.389 100.2 14.309 101.222 14.7743C102.283 15.2574 102.885 16.222 103.004 17.2371L103.474 19.9838C103.608 20.6179 104.064 23.9161 104.064 28.812C104.064 33.7472 103.571 40.2394 101.767 47.5525C100.043 54.4601 96.9198 62.7823 91.2423 70.9431C85.5642 79.1045 77.344 87.1684 65.5367 93.4946L65.5309 93.4978L63.3903 94.6891L63.3871 94.6908C62.3894 95.26 61.2918 95.2606 60.2944 94.6914L60.2907 94.6893L58.1492 93.4975L58.1457 93.4955C46.3384 87.1696 38.1162 79.1045 32.4382 70.9431C26.765 62.7886 23.6374 54.4681 22.0711 47.4565C20.2695 40.1489 19.7778 33.5817 19.7778 28.7313C19.7778 23.8356 20.2332 20.5375 20.3679 19.9032L20.7061 17.9272C20.5977 16.6529 21.2938 15.4637 22.3159 14.8494L22.3851 14.8078L22.4586 14.7743ZM22.8151 15.5537L22.9286 15.8019M34.4201 12.8579L61.4048 4.62783C61.6786 4.56312 62.024 4.56462 62.2944 4.63236L62.301 4.63403L89.9186 13.0236C90.753 13.3076 91.2005 14.1265 90.9364 14.92C90.656 15.7632 89.8374 16.2128 89.0471 15.9516L89.0385 15.9487L61.8811 7.60865L35.2871 15.7064L35.2776 15.7095C34.4854 15.9712 33.6728 15.519 33.3913 14.7651C33.191 13.934 33.6075 13.1292 34.4167 12.859L34.4201 12.8579ZM23.7541 16.1723C23.8978 16.1521 24.0499 16.1528 24.2075 16.1791C24.8379 16.2844 25.2994 16.754 25.4153 17.3301L25.4384 17.4448L41.1849 48.2267H82.6674C82.7203 48.2267 82.772 48.2296 82.8231 48.235L83.4196 48.2993L98.3199 17.4772L98.3407 17.3644C98.4111 16.9804 98.6373 16.653 98.9689 16.4575L98.9952 16.442L99.0203 16.4246C99.4288 16.1426 100.004 16.0857 100.516 16.3187C100.988 16.5339 101.263 16.9588 101.315 17.4465L101.318 17.4728L101.804 20.3092L101.808 20.3302C101.899 20.7348 102.363 23.9189 102.363 28.812C102.363 33.6356 101.881 39.9881 100.116 47.1444C98.4299 53.8986 95.3803 62.0184 89.8449 69.9749C84.3104 77.9299 76.2877 85.8077 64.7302 91.9998L64.7265 92.0015L62.5529 93.2113L62.5443 93.2165C62.07 93.4874 61.613 93.4886 61.1387 93.2176L61.1359 93.2162L58.9661 92.0082L58.9505 91.9998C47.3927 85.8077 39.3701 77.9299 33.8356 69.9749C28.3018 62.0208 25.2538 53.9064 23.7294 47.0781L23.7274 47.0688L23.7251 47.0599C21.9603 39.905 21.479 33.4736 21.479 28.7313C21.479 23.8383 21.9429 20.6541 22.0334 20.2495L22.0381 20.2285L22.4242 17.9718L22.4078 17.8454C22.3314 17.2583 22.6499 16.6378 23.1798 16.312C23.3513 16.2359 23.5282 16.1921 23.7038 16.1779L23.729 16.1759L23.7541 16.1723ZM24.6645 22.4338L24.5207 25.6426C24.4793 26.5665 24.4522 27.6014 24.4522 28.7313C24.4522 33.267 24.8563 39.5055 26.5551 46.3137C28.173 52.8776 31.086 60.5796 36.3456 68.1999L36.3481 68.2034C40.8348 74.6339 47.029 81.0645 55.6822 86.538L58.3095 88.2L24.6645 22.4338ZM99.2531 25.9446L99.1165 22.5501L86.2488 49.1675V49.2421L65.4734 88.1844L68.203 86.4473C76.7447 81.0111 82.9528 74.6651 87.4146 68.2008C92.6753 60.5796 95.5877 52.7978 97.2055 46.3151C98.9045 39.5067 99.3089 33.2673 99.3089 28.7313C99.3089 27.723 99.2872 26.7903 99.2531 25.9446ZM28.2062 45.9049C26.5924 39.4381 26.1747 33.4872 26.1542 29.0792L53.9 83.3144C46.8427 78.387 41.634 72.808 37.7455 67.2352C32.6248 59.8158 29.7849 52.3101 28.2062 45.9049ZM87.9501 49.6658V49.5554L97.6027 29.5882C97.5527 33.94 97.1073 39.6837 95.5548 45.9049C93.9748 52.2363 91.134 59.8198 86.0137 67.2378C82.1793 72.793 77.0087 78.2729 70.092 83.1395L87.9501 49.6658ZM42.7098 51.2076H81.8462L61.8753 88.6733L42.7098 51.2076ZM61.9065 85.0003L45.488 52.9053H79.0144L61.9065 85.0003Z" stroke="white" stroke-width="0.369543" stroke-miterlimit="10"/>
<path d="M186.196 31.1815H148.172C147.502 31.1815 146.945 31.4052 146.387 31.9635C145.941 32.4105 145.607 33.0807 145.607 33.7508V64.2476C145.607 64.918 145.83 65.4766 146.387 66.0349C146.833 66.482 147.502 66.8169 148.172 66.8169H186.196V71.9556H148.172C146.053 71.9556 144.269 71.1736 142.819 69.7215C141.369 68.2693 140.589 66.482 140.589 64.3594V33.6393C140.589 31.5167 141.369 29.7294 142.819 28.2772C144.269 26.825 146.053 26.043 148.172 26.043H186.196V31.1815Z" fill="white"/>
<path d="M184.553 70.7956H185.032V70.3174V68.458V67.9798H184.553H148.172C147.138 67.9798 146.185 67.4794 145.563 66.856C144.802 66.0939 144.443 65.2459 144.443 64.2489V33.7521C144.443 32.7214 144.94 31.7688 145.563 31.1453C146.324 30.3829 147.172 30.0215 148.172 30.0215H184.553H185.032V29.5433V27.684V27.2058H184.553H148.172C146.374 27.2058 144.884 27.8564 143.644 29.0983C142.404 30.34 141.753 31.8357 141.753 33.6406V64.3607C141.753 66.1656 142.404 67.6613 143.644 68.903C144.884 70.145 146.374 70.7956 148.172 70.7956H184.553ZM141.995 27.4588C143.654 25.7961 145.732 24.8828 148.172 24.8828H187.36V32.3444H148.172C148.046 32.3444 147.883 32.3525 147.699 32.4311C147.523 32.5058 147.369 32.6277 147.212 32.7845C147.068 32.9295 146.961 33.097 146.89 33.2552C146.821 33.4074 146.771 33.5838 146.771 33.7521V64.2489C146.771 64.3789 146.78 64.5434 146.858 64.7279C146.933 64.904 147.055 65.0594 147.212 65.2168C147.357 65.3617 147.524 65.4681 147.681 65.539C147.831 65.6067 148.005 65.6569 148.172 65.6569H187.36V73.1184H148.172C145.732 73.1184 143.654 72.2053 141.995 70.5425C140.335 68.8799 139.425 66.8006 139.425 64.3607V33.6406C139.425 31.2007 140.335 29.1213 141.995 27.4588Z" fill="white" stroke="white" stroke-width="0.312331" stroke-miterlimit="10"/>
<path d="M257.562 26.043V31.1815H220.987V46.3741H250.425V51.6246H220.987V66.8169H257.562V71.9556H215.857V26.1547H257.562V26.043Z" fill="white"/>
<path d="M222.63 32.342H222.151V32.8202V44.7333V45.2117H222.63H251.589V52.7848H222.63H222.151V53.2633V65.1764V65.6545H222.63H258.726V73.1161H214.693V24.9922H258.726V26.042V32.342H222.63ZM256.398 27.7934V27.3152H255.919H217.501H217.021V27.7934V70.315V70.7932H217.501H255.919H256.398V70.315V68.4556V67.9774H255.919H219.823V50.462H248.782H249.261V49.9838V48.0128V47.5346H248.782H219.823V30.0192H255.919H256.398V29.541V27.7934Z" fill="white" stroke="white" stroke-width="0.312331" stroke-miterlimit="10"/>
<path d="M332.943 33.6393V47.0445C332.943 49.1668 332.163 50.9542 330.713 52.4066C329.263 53.8587 327.478 54.6407 325.361 54.6407H318.336L332.721 71.7322H325.918L311.534 54.7522H294.806C294.472 54.7522 293.58 54.6407 292.353 54.5289V71.844H287.224V26.043H325.361C327.478 26.043 329.263 26.825 330.713 28.2772C332.163 29.7294 332.943 31.5167 332.943 33.6393ZM294.806 49.502H325.248C325.918 49.502 326.476 49.2787 326.921 48.8319C327.368 48.3848 327.591 47.8262 327.591 47.1561V33.7508C327.591 33.0807 327.368 32.5221 326.921 31.9635C326.476 31.5167 325.918 31.1815 325.248 31.1815H294.806C294.137 31.1815 293.58 31.4052 293.022 31.9635C292.576 32.4105 292.242 33.0807 292.242 33.7508V47.1561C292.242 47.8262 292.465 48.3848 293.022 48.8319C293.468 49.2787 294.137 49.502 294.806 49.502Z" fill="white"/>
<path d="M321.493 56.5893L335.216 72.8951H325.378L311.135 56.0846L310.994 55.9151H310.771H294.806C294.621 55.9151 294.347 55.8929 294.042 55.8635L293.517 55.8131V56.3397V73.0066H286.06V24.8828H325.361C327.799 24.8828 329.878 25.796 331.536 27.4588C333.197 29.1213 334.107 31.2007 334.107 33.6406V47.0458C334.107 49.4854 333.197 51.5648 331.536 53.2273C329.878 54.8901 327.799 55.8036 325.361 55.8036H321.86H320.832L321.493 56.5893ZM288.387 70.2055V70.6837H288.867H290.71H291.189V70.2055V53.2579L292.459 53.3735C292.934 53.417 293.363 53.4605 293.723 53.4971L294.03 53.5282C294.239 53.549 294.411 53.5654 294.549 53.5769C294.618 53.5824 294.674 53.5865 294.72 53.5891L294.776 53.5916L294.793 53.5919L294.799 53.5922H294.802H294.806H312.074L326.314 70.4027L326.458 70.5722H326.681H329.194H330.222L329.561 69.7861L315.838 53.4804H325.361C327.157 53.4804 328.648 52.8298 329.887 51.5881C331.126 50.3461 331.779 48.8508 331.779 47.0458V33.6406C331.779 31.8356 331.126 30.34 329.887 29.0983C328.648 27.8564 327.157 27.2058 325.361 27.2058H288.867H288.387V27.684V70.2055ZM292.255 49.7094L292.233 49.6889C291.412 49.0027 291.077 48.1132 291.077 47.1574V33.7521C291.077 32.7214 291.575 31.7688 292.197 31.1453C292.958 30.3829 293.807 30.0215 294.806 30.0215H325.248C326.337 30.0215 327.172 30.5712 327.747 31.1453L327.79 31.1909L327.83 31.241C328.414 31.9705 328.755 32.7779 328.755 33.7521V47.1574C328.755 48.1137 328.423 48.9735 327.747 49.6526C327.068 50.332 326.207 50.6649 325.248 50.6649H294.806C293.929 50.6649 292.964 50.383 292.255 49.7094ZM293.751 47.9275L293.801 47.9679L293.847 48.0134C294.023 48.1901 294.366 48.3417 294.806 48.3417H325.248C325.421 48.3417 325.583 48.319 325.736 48.2576C325.892 48.1947 326.005 48.1039 326.097 48.0134C326.187 47.9223 326.279 47.8071 326.34 47.65C326.404 47.4966 326.427 47.3326 326.427 47.1574V33.7521C326.427 33.4218 326.34 33.1298 326.077 32.7759L326.051 32.7396L326.016 32.7087C325.725 32.4409 325.471 32.3444 325.248 32.3444H294.806C294.68 32.3444 294.517 32.3525 294.333 32.4311C294.158 32.5058 294.003 32.6277 293.847 32.7845C293.702 32.9295 293.595 33.097 293.524 33.2552C293.456 33.4074 293.405 33.5838 293.405 33.7521V47.1574C293.405 47.3635 293.439 47.5027 293.485 47.6038C293.528 47.7007 293.603 47.8088 293.751 47.9275Z" fill="white"/>
<path d="M294.72 53.5891C294.674 53.5865 294.618 53.5824 294.549 53.5769C294.411 53.5654 294.239 53.549 294.03 53.5282L293.723 53.4971C293.363 53.4605 292.934 53.417 292.459 53.3735L291.189 53.2579V70.2055V70.6837H290.71H288.867H288.387V70.2055V27.684V27.2058H288.867H325.361C327.157 27.2058 328.648 27.8564 329.887 29.0983C331.126 30.34 331.779 31.8356 331.779 33.6406V47.0458C331.779 48.8508 331.126 50.3461 329.887 51.5881C328.648 52.8298 327.157 53.4804 325.361 53.4804H315.838L329.561 69.7861L330.222 70.5722H329.194H326.681H326.458L326.314 70.4027L312.074 53.5922H294.806H294.802M294.72 53.5891L294.746 53.1201M294.72 53.5891L294.776 53.5916L294.793 53.5919L294.799 53.5922H294.802M294.802 53.5922L294.806 53.114M327.747 31.1453C327.172 30.5712 326.337 30.0215 325.248 30.0215H294.806C293.807 30.0215 292.958 30.3829 292.197 31.1453C291.575 31.7688 291.077 32.7214 291.077 33.7521V47.1574C291.077 48.1132 291.412 49.0027 292.233 49.6889L292.255 49.7094C292.964 50.383 293.929 50.6649 294.806 50.6649H325.248C326.207 50.6649 327.068 50.332 327.747 49.6526C328.423 48.9735 328.755 48.1137 328.755 47.1574V33.7521C328.755 32.7779 328.414 31.9705 327.83 31.241M327.747 31.1453L328.073 30.8193M327.747 31.1453L327.79 31.1909L327.83 31.241M327.83 31.241L328.206 30.943M293.751 47.9275L294.047 47.5595M293.751 47.9275L293.801 47.9679L293.847 48.0134C294.023 48.1901 294.366 48.3417 294.806 48.3417H325.248C325.421 48.3417 325.583 48.319 325.736 48.2576C325.892 48.1947 326.005 48.1039 326.097 48.0134C326.187 47.9223 326.279 47.8071 326.34 47.65C326.404 47.4966 326.427 47.3326 326.427 47.1574V33.7521C326.427 33.4218 326.34 33.1298 326.077 32.7759L326.051 32.7396L326.016 32.7087C325.725 32.4409 325.471 32.3444 325.248 32.3444H294.806C294.68 32.3444 294.517 32.3525 294.333 32.4311C294.158 32.5058 294.003 32.6277 293.847 32.7845C293.702 32.9295 293.595 33.097 293.524 33.2552C293.456 33.4074 293.405 33.5838 293.405 33.7521V47.1574C293.405 47.3635 293.439 47.5027 293.485 47.6038M293.751 47.9275C293.603 47.8088 293.528 47.7007 293.485 47.6038M293.485 47.6038L293.89 47.4225M321.493 56.5893L335.216 72.8951H325.378L311.135 56.0846L310.994 55.9151H310.771H294.806C294.621 55.9151 294.347 55.8929 294.042 55.8635L293.517 55.8131V56.3397V73.0066H286.06V24.8828H325.361C327.799 24.8828 329.878 25.796 331.536 27.4588C333.197 29.1213 334.107 31.2007 334.107 33.6406V47.0458C334.107 49.4854 333.197 51.5648 331.536 53.2273C329.878 54.8901 327.799 55.8036 325.361 55.8036H321.86H320.832L321.493 56.5893Z" stroke="white" stroke-width="0.312331" stroke-miterlimit="10"/>
<path d="M360.262 26.043H405.98V31.1815H385.686V71.844H380.556V31.1815H360.262V26.043Z" fill="white"/>
<path d="M387.329 32.3444H386.85V32.8226V73.0066H379.392V32.8226V32.3444H378.912H359.098V24.8828H407.144V32.3444H387.329ZM361.426 29.5433V30.0215H361.905H381.72V70.2055V70.6837H382.199H384.042H384.522V70.2055V30.0215H404.336H404.816V29.5433V27.684V27.2058H404.336H361.905H361.426V27.684V29.5433Z" fill="white" stroke="white" stroke-width="0.312331" stroke-miterlimit="10"/>
<path d="M433.634 71.844V26.043H438.764V71.844H433.634Z" fill="white"/>
<path d="M434.798 70.2055V70.6837H435.277H437.12H437.6V70.2055V27.684V27.2058H437.12H435.277H434.798V27.684V70.2055ZM432.47 73.0066V24.8828H439.928V73.0066H432.47Z" fill="white" stroke="white" stroke-width="0.312331" stroke-miterlimit="10"/>
<path d="M507.454 26.043H514.034L494.964 48.9434L514.146 71.844H507.454L490.395 51.5128H475.675V71.844H470.433V26.043H475.675V46.3741H490.395L507.454 26.043Z" fill="white"/>
<path d="M506.911 24.8828H516.515L496.735 48.636L496.481 48.9427L496.738 49.2485L516.633 73.0066H506.911L489.993 52.8468L489.849 52.6756H489.626H477.319H476.839V53.1538V73.0066H469.269V24.8828H476.839V44.7356V45.2141H477.319H489.626H489.849L489.993 45.0429L506.911 24.8828ZM471.597 70.2055V70.6837H472.076H474.032H474.511V70.2055V50.3525H490.938L507.855 70.5125L507.997 70.6837H508.222H510.631H511.656L510.998 69.8988L493.451 48.947L510.9 27.9897L511.552 27.2058H510.533H508.222H507.997L507.855 27.377L490.938 47.537H474.511V27.684V27.2058H474.032H472.076H471.597V27.684V70.2055Z" fill="white" stroke="white" stroke-width="0.312331" stroke-miterlimit="10"/>
</svg>
