<svg width="488" height="61" viewBox="0 0 488 61" fill="none" xmlns="http://www.w3.org/2000/svg">
<g clip-path="url(#clip0_661_515)">
<mask id="mask0_661_515" style="mask-type:luminance" maskUnits="userSpaceOnUse" x="0" y="0" width="488" height="61">
<path d="M488 0H0V61H488V0Z" fill="white"/>
</mask>
<g mask="url(#mask0_661_515)">
<path d="M94.8921 41.7666L74.0367 5.59063C69.4647 -1.94936 58.315 -2.02957 53.9033 5.91146L32.0054 43.5313C27.9144 50.4295 32.9678 59.0924 41.1496 59.0924H85.0257C93.2878 59.0924 99.4642 50.1887 94.8921 41.7666Z" fill="#3156AA"/>
<path d="M64.8122 44.5744L63.5289 42.3284C62.3257 40.2428 59.6786 35.7509 59.6786 35.7509L42.0319 5.10982C37.4598 -1.70825 26.6312 -2.26974 22.0591 6.313L1.52464 41.8471C-2.72663 49.3068 2.32676 59.0125 11.5512 59.093H55.1867H73.7961H84.8655C73.5555 59.1732 69.9461 53.3174 64.8122 44.5744Z" fill="#1972E2"/>
<path d="M64.8123 44.5756L63.5289 42.3299C62.3258 40.2443 59.6787 35.7524 59.6787 35.7524L48.2885 15.6992L31.9251 43.6133C27.8345 50.5115 32.8878 59.1744 41.0696 59.1744H55.1066H73.7159H84.8656C73.4754 59.0942 69.9458 53.3189 64.8123 44.5756Z" fill="url(#paint0_linear_661_515)"/>
<path d="M481.647 56.2835C478.679 56.2835 476.352 55.6419 474.589 54.5189C472.741 53.3157 471.78 51.5508 471.78 49.1445V14.1719H476.433C478.118 14.1719 479.562 15.5355 479.562 17.3002V48.1017C479.562 48.1821 479.562 49.6258 480.764 50.829C481.485 51.5508 482.368 51.9519 483.57 51.9519H484.453C484.776 51.9519 485.095 52.2729 485.095 52.5936V56.3637L481.647 56.2835Z" fill="#326AD5"/>
<path d="M381.381 56.2852C376.568 56.2852 372.637 55.0019 369.669 52.435C368.147 51.1517 367.104 49.7077 366.462 48.1034C365.82 46.4994 365.498 44.173 365.498 41.0448C365.498 37.9969 365.82 35.5903 366.462 33.986C367.023 32.4621 368.065 31.0983 369.59 29.815C372.556 27.2483 376.486 25.9648 381.299 25.9648C386.113 25.9648 390.043 27.2483 393.011 29.815C394.536 31.0983 395.579 32.5423 396.14 33.986C396.782 35.6704 397.101 37.9969 397.101 41.0448C397.101 44.173 396.782 46.4994 396.14 48.1034C395.498 49.7077 394.455 51.1517 392.93 52.435C390.124 55.0019 386.194 56.2852 381.381 56.2852ZM381.381 30.3765C376.085 30.3765 373.439 33.986 373.439 41.125C373.439 48.3442 376.085 51.9537 381.381 51.9537C386.673 51.9537 389.322 48.3442 389.322 41.2052C389.322 33.986 386.595 30.3765 381.381 30.3765Z" fill="#326AD5"/>
<path d="M414.588 56.2835C410.417 56.2835 406.568 55.1605 403.28 52.9947C402.958 52.6738 402.316 52.2729 401.514 51.7916C401.354 51.7114 401.194 51.4706 401.194 51.2301V14.1719H405.926C407.611 14.1719 409.055 15.6157 409.055 17.3002V28.1288L410.498 27.3267C412.183 26.4444 414.428 26.0433 417.316 26.0433C422.37 26.0433 426.219 27.5674 428.787 30.5351C431.032 33.1822 432.156 36.7115 432.156 41.0431C432.156 45.3747 430.872 48.904 428.305 51.4706C425.336 54.6792 420.685 56.2835 414.588 56.2835ZM415.39 30.3748C413.627 30.3748 411.62 31.0164 409.374 32.3802L409.055 32.5406V49.9468L409.374 50.1873C411.14 51.3103 413.226 51.8718 415.39 51.8718C418.277 51.8718 420.526 50.6686 422.048 48.2623C423.332 46.337 424.055 43.8506 424.055 41.0431C424.055 33.9842 421.086 30.3748 415.39 30.3748Z" fill="#326AD5"/>
<path d="M450.685 56.2051C441.861 56.2051 436.327 50.4298 436.327 41.0448C436.327 31.7403 441.779 25.9648 450.523 25.9648C453.892 25.9648 456.78 26.8472 459.106 28.5317L459.588 28.8525V26.5263H465.764C466.165 26.5263 466.406 26.8472 466.406 27.168V55.6436H459.507V53.0766L459.025 53.4778C457.102 55.2424 454.052 56.2051 450.685 56.2051ZM452.289 31.0983C446.752 31.0983 443.464 35.3498 443.464 41.0448C443.464 46.7399 446.752 51.1517 452.289 51.1517C454.052 51.1517 457.102 50.9913 459.507 48.5847L459.588 48.5045V33.9058L459.507 33.8256C457.822 31.9006 455.336 31.0983 452.289 31.0983Z" fill="#326AD5"/>
<path d="M165.688 55.8845V14.0938H200.42V16.7408C200.42 18.8263 198.736 20.5107 196.651 20.5107H174.351V31.7404H196.651V38.1576H174.351V49.3871H196.651C198.736 49.3871 200.42 51.0716 200.42 53.1572V55.8043L165.688 55.8845Z" fill="white"/>
<path d="M250.313 14.0938H242.131C240.607 14.0938 239.243 14.7354 238.281 15.9386L228.415 28.3716L218.548 16.0189C217.586 14.8157 216.222 14.174 214.698 14.174H206.517L223.12 35.0292L206.517 55.8845H214.698C216.222 55.8845 217.586 55.2428 218.548 54.0397L228.415 41.6869L238.361 54.1199C239.324 55.2428 240.687 55.9647 242.211 55.9647H250.393L233.789 35.1094L250.313 14.0938Z" fill="white"/>
<path d="M138.497 51.4748L149.887 31.5821V55.8064H158.55V14.0156H153.176C151.491 14.0156 149.887 14.8979 149.085 16.422L135.449 41.2878L121.813 16.422C121.011 14.8979 119.406 14.0156 117.722 14.0156H112.348V55.8064H121.011V31.5821L132.401 51.4748H138.497Z" fill="white"/>
<path d="M272.933 56.3649C260.901 56.5252 251.115 47.06 251.035 35.0282C251.035 28.4508 253.04 22.9963 256.81 19.2264C260.581 15.5366 266.035 13.5312 272.532 13.5312C280.152 13.5312 286.168 16.1783 290.5 21.3119L287.773 23.6381C286.088 25.0819 283.601 25.1621 281.757 23.7985C279.35 21.9536 276.302 21.0712 272.853 21.0712C264.35 21.0712 259.297 26.2048 259.297 34.8679C259.297 43.6109 264.511 48.9853 272.853 48.9853C276.382 48.9853 279.35 48.0227 281.757 46.258C283.521 44.8943 286.008 44.9747 287.773 46.4184L290.5 48.7445C286.168 53.7979 280.393 56.3649 272.933 56.3649Z" fill="white"/>
<path d="M326.275 56.3645C312.799 56.3645 304.457 48.1829 304.457 35.0278C304.457 21.8731 312.799 13.6914 326.115 13.6914C332.532 13.6914 337.905 15.5363 342.077 19.3063L340.072 21.5522C339.189 22.5148 337.905 23.0763 336.621 23.0763C335.901 23.0763 335.178 22.9159 334.536 22.595C332.049 21.3116 329.162 20.6699 326.115 20.6699C317.45 20.6699 312.076 26.2046 312.076 35.1083C312.076 44.0918 317.691 49.6266 326.676 49.6266C331.007 49.6266 334.376 48.8246 336.863 47.0599L337.022 46.9797V38.3968H327.477V35.5893C327.477 33.504 329.162 31.8195 331.248 31.8195H343.038C343.361 31.8195 343.68 32.1402 343.68 32.4612V50.9904C339.59 54.5196 333.734 56.3645 326.275 56.3645Z" fill="#326AD5"/>
<path d="M359.162 56.2835C356.194 56.2835 353.867 55.6419 352.104 54.5189C350.259 53.3157 349.295 51.5508 349.295 49.1445V14.1719H353.948C355.633 14.1719 357.077 15.5355 357.077 17.3002V48.1017C357.077 48.1821 357.077 49.6258 358.279 50.829C359.003 51.5508 359.883 51.9519 361.085 51.9519H361.968C362.291 51.9519 362.61 52.2729 362.61 52.5936V56.3637L359.162 56.2835Z" fill="#326AD5"/>
</g>
</g>
<defs>
<linearGradient id="paint0_linear_661_515" x1="26.1016" y1="30.9299" x2="76.7944" y2="49.663" gradientUnits="userSpaceOnUse">
<stop stop-color="#264CA2" stop-opacity="0"/>
<stop offset="1" stop-color="#234588"/>
</linearGradient>
<clipPath id="clip0_661_515">
<rect width="488" height="61" fill="white"/>
</clipPath>
</defs>
</svg>
