<svg width="350" height="44" viewBox="0 0 350 44" fill="none" xmlns="http://www.w3.org/2000/svg">
<g clip-path="url(#clip0_924_161)">
<mask id="mask0_924_161" style="mask-type:luminance" maskUnits="userSpaceOnUse" x="0" y="0" width="351" height="44">
<path d="M350 0.121094H0.000244141V43.8711H350V0.121094Z" fill="white"/>
</mask>
<g mask="url(#mask0_924_161)">
<path d="M68.0582 30.0768L53.1005 4.13093C49.8214 -1.27685 41.8247 -1.33438 38.6605 4.36103L22.9551 31.3424C20.021 36.2899 23.6453 42.5031 29.5134 42.5031H60.982C66.9076 42.5031 71.3374 36.1172 68.0582 30.0768Z" fill="#3156AA"/>
<path d="M46.4844 32.0912L45.564 30.4804C44.7011 28.9845 42.8025 25.7629 42.8025 25.7629L30.1461 3.78667C26.8669 -1.10334 19.1005 -1.50604 15.8213 4.64961L1.09374 30.1352C-1.95533 35.4854 1.66903 42.4464 8.28493 42.5041H39.5809H52.9277H60.8669C52.7552 42.5616 50.1665 38.3618 46.4844 32.0912Z" fill="#1972E2"/>
<path d="M46.4844 32.0894L45.564 30.4788C44.7011 28.983 42.8025 25.7613 42.8025 25.7613L34.6334 11.3789L22.8973 31.3992C19.9635 36.3467 23.5877 42.5598 29.4559 42.5598H39.5234H52.8702H60.8669C52.6977 42.5023 50.1663 38.3603 46.4844 32.0894Z" fill="url(#paint0_linear_924_161)"/>
<path d="M345.444 40.4882C343.315 40.4882 341.646 40.028 340.382 39.2226C339.057 38.3596 338.367 37.0938 338.367 35.368V10.2852H341.704C342.913 10.2852 343.948 11.2632 343.948 12.5288V34.6201C343.948 34.6778 343.948 35.7132 344.811 36.5761C345.327 37.0938 345.961 37.3815 346.823 37.3815H347.457C347.688 37.3815 347.917 37.6117 347.917 37.8417V40.5457L345.444 40.4882Z" fill="#326AD5"/>
<path d="M273.532 40.4923C270.079 40.4923 267.261 39.5719 265.132 37.7308C264.04 36.8104 263.292 35.7748 262.832 34.6242C262.371 33.4737 262.14 31.8052 262.14 29.5617C262.14 27.3756 262.371 25.6496 262.832 24.4989C263.234 23.406 263.982 22.4279 265.075 21.5075C267.202 19.6666 270.021 18.7461 273.473 18.7461C276.925 18.7461 279.744 19.6666 281.873 21.5075C282.967 22.4279 283.715 23.4635 284.117 24.4989C284.577 25.7071 284.807 27.3756 284.807 29.5617C284.807 31.8052 284.577 33.4737 284.117 34.6242C283.657 35.7748 282.909 36.8104 281.815 37.7308C279.802 39.5719 276.984 40.4923 273.532 40.4923ZM273.532 21.9102C269.734 21.9102 267.836 24.4989 267.836 29.6192C267.836 34.7969 269.734 37.3856 273.532 37.3856C277.327 37.3856 279.227 34.7969 279.227 29.6767C279.227 24.4989 277.271 21.9102 273.532 21.9102Z" fill="#326AD5"/>
<path d="M297.348 40.4882C294.356 40.4882 291.596 39.6828 289.238 38.1294C289.006 37.8992 288.546 37.6117 287.971 37.2665C287.856 37.209 287.742 37.0363 287.742 36.8638V10.2852H291.135C292.344 10.2852 293.379 11.3207 293.379 12.5288V20.2953L294.415 19.72C295.623 19.0872 297.233 18.7995 299.304 18.7995C302.929 18.7995 305.69 19.8926 307.531 22.0211C309.142 23.9196 309.948 26.4509 309.948 29.5576C309.948 32.6642 309.027 35.1955 307.185 37.0363C305.056 39.3376 301.721 40.4882 297.348 40.4882ZM297.923 21.9061C296.658 21.9061 295.219 22.3663 293.608 23.3444L293.379 23.4594V35.9434L293.608 36.1159C294.875 36.9213 296.371 37.324 297.923 37.324C299.994 37.324 301.606 36.4611 302.698 34.7353C303.619 33.3544 304.138 31.5711 304.138 29.5576C304.138 24.4948 302.008 21.9061 297.923 21.9061Z" fill="#326AD5"/>
<path d="M323.238 40.4348C316.908 40.4348 312.94 36.2927 312.94 29.5617C312.94 22.8883 316.85 18.7461 323.121 18.7461C325.538 18.7461 327.608 19.3789 329.277 20.5871L329.623 20.8172V19.1488H334.052C334.34 19.1488 334.513 19.3789 334.513 19.609V40.0321H329.565V38.191L329.219 38.4787C327.84 39.7444 325.652 40.4348 323.238 40.4348ZM324.388 22.4279C320.417 22.4279 318.058 25.4771 318.058 29.5617C318.058 33.6462 320.417 36.8104 324.388 36.8104C325.652 36.8104 327.84 36.6954 329.565 34.9694L329.623 34.9119V24.4414L329.565 24.3839C328.356 23.0033 326.573 22.4279 324.388 22.4279Z" fill="#326AD5"/>
<path d="M118.834 40.2033V10.2305H143.744V12.1289C143.744 13.6247 142.536 14.8328 141.041 14.8328H125.047V22.8869H141.041V27.4894H125.047V35.5433H141.041C142.536 35.5433 143.744 36.7515 143.744 38.2473V40.1458L118.834 40.2033Z" fill="white"/>
<path d="M179.528 10.2305H173.66C172.567 10.2305 171.589 10.6907 170.898 11.5536L163.822 20.4707L156.746 11.6112C156.056 10.7482 155.078 10.288 153.985 10.288H148.117L160.025 25.2456L148.117 40.2033H153.985C155.078 40.2033 156.056 39.7431 156.746 38.8802L163.822 30.0206L170.956 38.9377C171.646 39.7431 172.624 40.2608 173.717 40.2608H179.585L167.677 25.3031L179.528 10.2305Z" fill="white"/>
<path d="M99.332 37.042L107.501 22.7747V40.1487H113.714V10.1758H109.86C108.652 10.1758 107.501 10.8086 106.926 11.9017L97.1459 29.7358L87.3659 11.9017C86.7905 10.8086 85.6399 10.1758 84.4318 10.1758H80.5774V40.1487H86.7905V22.7747L94.9597 37.042H99.332Z" fill="white"/>
<path d="M195.751 40.549C187.122 40.664 180.103 33.8754 180.046 25.246C180.046 20.5286 181.484 16.6166 184.188 13.9127C186.892 11.2664 190.804 9.82812 195.464 9.82812C200.929 9.82812 205.244 11.7266 208.35 15.4085L206.394 17.0769C205.186 18.1124 203.403 18.1699 202.079 17.1919C200.354 15.8687 198.167 15.2359 195.694 15.2359C189.595 15.2359 185.971 18.9178 185.971 25.131C185.971 31.4017 189.71 35.2563 195.694 35.2563C198.225 35.2563 200.354 34.5658 202.079 33.3002C203.345 32.3221 205.128 32.3798 206.394 33.4152L208.35 35.0835C205.244 38.7079 201.101 40.549 195.751 40.549Z" fill="white"/>
<path d="M234.008 40.5471C224.344 40.5471 218.361 34.6792 218.361 25.2442C218.361 15.8094 224.344 9.94141 233.894 9.94141C238.496 9.94141 242.35 11.2646 245.342 13.9685L243.904 15.5793C243.271 16.2697 242.35 16.6724 241.429 16.6724C240.913 16.6724 240.394 16.5573 239.934 16.3272C238.15 15.4067 236.079 14.9465 233.894 14.9465C227.679 14.9465 223.825 18.916 223.825 25.3019C223.825 31.745 227.852 35.7146 234.296 35.7146C237.402 35.7146 239.819 35.1394 241.602 33.8737L241.717 33.8162V27.6604H234.871V25.6469C234.871 24.1512 236.079 22.9431 237.575 22.9431H246.031C246.263 22.9431 246.492 23.1731 246.492 23.4033V36.6927C243.559 39.224 239.358 40.5471 234.008 40.5471Z" fill="#326AD5"/>
<path d="M257.596 40.4882C255.467 40.4882 253.798 40.028 252.534 39.2226C251.211 38.3596 250.519 37.0938 250.519 35.368V10.2852H253.857C255.065 10.2852 256.1 11.2632 256.1 12.5288V34.6201C256.1 34.6778 256.1 35.7132 256.963 36.5761C257.482 37.0938 258.113 37.3815 258.975 37.3815H259.609C259.84 37.3815 260.069 37.6117 260.069 37.8417V40.5457L257.596 40.4882Z" fill="#326AD5"/>
</g>
</g>
<defs>
<linearGradient id="paint0_linear_924_161" x1="18.7206" y1="22.3026" x2="55.0782" y2="35.7382" gradientUnits="userSpaceOnUse">
<stop stop-color="#264CA2" stop-opacity="0"/>
<stop offset="1" stop-color="#234588"/>
</linearGradient>
<clipPath id="clip0_924_161">
<rect width="350" height="43.75" fill="white" transform="translate(0 0.125)"/>
</clipPath>
</defs>
</svg>
