<svg width="420" height="110" viewBox="0 0 420 110" fill="none" xmlns="http://www.w3.org/2000/svg">
<g clip-path="url(#clip0_662_607)">
<path d="M15.9724 64.4824C15.9724 64.4824 15.0894 66.231 12.9224 67.9877C11.0763 69.3339 9.55087 69.8921 8.26691 70.6145C14.447 74.9899 24.8809 71.4108 24.8809 71.4108C25.1215 71.3287 26.5667 72.445 26.8072 72.5189C31.543 74.8339 33.71 75.8683 39.5685 76.5824C46.6316 77.5429 61.1588 77.8548 46.6316 69.022C43.742 67.2653 36.9203 63.4481 36.9203 63.4481C36.9203 63.4481 29.6968 59.5407 26.1648 57.078C26.245 53.9668 25.9243 49.1916 24.0781 45.5288C23.8375 45.9269 22.2327 49.6694 20.3063 52.6123C19.7441 52.1362 19.1828 51.6601 18.6206 51.1018C10.7546 43.777 7.06313 34.7783 7.94612 24.0287C7.94612 23.6306 8.34709 20.6844 8.10649 20.764C7.54428 20.6048 5.29715 28.8063 5.05656 29.523C4.97636 29.8415 4.33393 33.0265 4.09334 33.0265C3.29054 33.1062 0 32.4692 0 32.708C0.481181 33.5839 4.01315 36.132 4.01315 36.2116C4.09335 38.2023 3.77253 42.2641 5.85931 48.3157C9.31028 58.4324 15.9724 64.4824 15.9724 64.4824Z" fill="#FF0003"/>
<path d="M70.7899 76.6643C68.6229 76.1061 64.3691 82.2382 60.838 89.2486C56.1023 89.8068 53.4533 90.6031 50.2429 92.5896C49.8419 92.8277 55.2193 92.7538 59.072 94.3464C53.2929 103.179 44.3844 108.121 34.0308 108.597C46.7118 111.626 58.5098 107.883 67.1786 98.1635C69.4257 99.7561 71.0304 103.105 71.9936 105.97C72.1549 106.446 74.6426 99.124 70.6295 92.9098C70.6295 92.9098 71.6728 90.9232 71.9134 90.521C73.5992 86.9419 74.0804 77.5426 70.7899 76.6643Z" fill="#FF0003"/>
<path d="M13.4028 20.4437C11.1548 25.9379 12.0379 33.2644 14.5265 33.8218C16.934 34.2199 19.7433 31.0349 21.0273 28.8849C23.1141 25.9379 24.3981 21.7973 24.3981 21.7973C24.3981 21.7973 34.1903 22.2751 39.0865 17.6567C38.6045 17.4975 31.381 17.4179 26.9668 15.1087C32.8262 6.27008 41.2534 1.96941 51.8477 1.73053C45.3468 -0.897161 30.0971 -0.658298 19.101 11.3662C14.7671 8.26077 12.2792 2.20911 12.199 2.60724C10.834 10.4903 15.1681 16.9401 15.1681 16.9401C15.1681 16.9401 13.9642 19.09 13.4028 20.4437Z" fill="#FF0003"/>
<path d="M41.2544 10.2554C41.2544 12.4054 46.7929 14.4757 48.7193 14.8738C50.6449 15.2719 54.658 15.5904 54.658 15.5904C56.1032 20.2884 59.956 23.8725 60.357 24.0317C60.357 23.6336 59.5542 18.2181 60.2768 16.3867C70.3898 18.8551 75.9275 26.102 79.1379 34.5425C79.6199 32.3925 78.8171 14.9534 62.0427 9.22029C62.4437 8.02587 64.4503 5.63705 67.0183 4.12414C61.9617 3.4075 57.6278 6.43334 56.2636 7.54811C56.2636 7.54811 53.5344 7.07035 50.4845 6.9111C46.7929 6.67222 41.2544 7.7074 41.2544 10.2554Z" fill="#FF0003"/>
<path d="M45.4267 98.0802C46.9513 94.263 32.424 94.1809 30.739 93.9429C30.658 93.6227 28.9731 87.6548 25.6023 84.9459C25.6023 85.3399 25.7628 90.7578 24.6392 92.8264C15.8903 90.5197 8.42621 82.475 6.41961 75.3906C3.77064 90.9958 22.4713 100.395 22.4713 100.395C20.9468 103.736 17.4157 105.887 17.0941 106.289C17.5761 106.445 24.0769 107.479 29.374 102.702C29.2938 102.858 43.5805 102.382 45.4267 98.0802Z" fill="#FF0003"/>
<path d="M81.6245 74.5137C81.6245 74.5137 81.6245 72.0428 81.5443 70.5324C81.3839 65.5167 79.9395 60.813 77.6924 56.3555C75.9264 52.9324 73.7594 49.7473 71.0302 46.9604C70.6292 46.5623 69.8264 45.8456 69.8264 45.8456L67.9803 44.2522C71.4312 41.0672 74.3208 40.032 76.5679 39.5543C76.7292 39.5543 76.7292 39.3154 76.5679 39.3154C68.8633 36.6081 60.1144 39.6339 60.1144 39.6339C60.1144 39.6339 52.6503 35.2544 40.2098 34.06C36.8391 33.7415 35.3947 36.0507 39.9692 41.8634C44.0626 46.403 53.2124 49.5084 54.4964 50.0658C55.5398 53.1705 57.2256 57.3899 59.8738 59.7787C59.954 59.8608 59.954 59.7787 59.954 59.7048C59.8738 58.1861 59.954 55.0011 60.3558 52.9324C63.0841 54.5249 66.3755 57.3078 68.7029 59.6227C76.5679 67.1093 78.7349 75.8682 77.6113 86.6137C77.6113 86.9339 79.1367 84.463 80.0197 81.5161C80.5009 79.6855 80.9829 77.4608 80.9829 77.4608C80.9829 77.4608 83.3104 77.9369 86.1198 77.6988C82.8293 75.7861 81.6245 74.5137 81.6245 74.5137Z" fill="#FF0003"/>
<path d="M121.982 56.0921C120.41 54.7458 119.258 53.1861 118.42 51.3145C117.582 49.4412 117.058 47.3619 117.163 45.2826C117.268 42.7879 117.791 40.5008 119.049 38.4223C120.306 36.2387 122.087 34.5756 124.183 33.3287C126.383 32.0809 128.793 31.457 131.307 31.457H166.198C168.818 31.457 170.913 33.6406 170.913 36.1353C170.913 38.7343 168.713 40.8128 166.198 40.8128H131.307C129.945 40.8128 128.898 41.229 127.955 42.164C127.011 43.0998 126.593 44.139 126.593 45.4911C126.593 46.8423 127.116 47.8815 128.165 48.9216C128.898 49.5446 129.945 49.9608 131.203 50.0651C132.46 50.272 133.822 50.272 135.289 50.272C135.603 50.272 135.813 50.272 136.022 50.272H136.127C139.899 50.3787 143.567 50.3787 147.338 50.3787H148.491C150.272 50.3787 152.158 50.272 153.939 50.272C154.568 50.272 155.197 50.272 155.825 50.1652C157.292 50.0643 158.863 50.1652 160.54 50.3787C162.217 50.5839 163.893 51.0026 165.464 51.8317C169.551 53.9085 172.065 57.2414 173.114 61.8137C173.533 63.9973 173.428 66.0742 172.904 68.1511C172.38 70.3346 171.227 72.313 169.76 73.9712C168.399 75.4324 166.827 76.5734 165.045 77.4026C163.159 78.2317 161.064 78.6504 158.968 78.6504H123.554C120.934 78.6504 118.839 76.4667 118.839 73.9712C118.839 71.3772 121.039 69.2921 123.554 69.2921H159.178C160.435 69.2921 161.588 68.7749 162.636 67.7324C163.579 66.5914 163.998 65.2451 163.789 63.6854C163.474 62.2242 162.636 61.0832 161.378 60.4593C159.912 59.9421 158.13 59.7287 156.035 59.8354C155.406 59.8354 154.778 59.9421 154.148 59.9421C152.368 60.0406 150.482 60.0406 148.596 60.0406H147.443C143.672 60.1473 139.795 60.1473 136.022 59.9421C135.813 59.9421 135.499 59.9421 135.289 59.9421C133.298 60.0406 130.993 59.8354 128.688 59.4167C126.383 58.7928 124.078 57.7585 121.982 56.0921Z" fill="white"/>
<path d="M189.67 70.6448L186.735 76.0462C185.897 77.6059 184.325 78.5418 182.545 78.5418C178.982 78.5418 176.677 74.7 178.354 71.5806L197.842 35.714C199.309 33.0116 202.137 31.3477 205.177 31.3477C208.215 31.3477 211.044 33.0116 212.511 35.714L231.999 71.5806C233.675 74.7 231.37 78.5418 227.808 78.5418C226.027 78.5418 224.455 77.6059 223.617 76.0462L220.683 70.6448H189.67ZM205.177 42.0554L194.803 61.1798H215.654L205.177 42.0554Z" fill="white"/>
<path d="M247.192 31.3477C249.811 31.3477 251.907 33.5312 251.907 36.0259V69.085H288.369C290.988 69.085 293.084 71.2686 293.084 73.7641C293.084 76.3582 290.884 78.435 288.369 78.435H247.192C244.572 78.435 242.477 76.2515 242.477 73.7641V36.0259C242.477 33.427 244.572 31.3477 247.192 31.3477Z" fill="white"/>
<path d="M314.878 70.6448L311.944 76.0462C311.106 77.6059 309.534 78.5418 307.753 78.5418C304.191 78.5418 301.886 74.7 303.562 71.5806L323.05 35.714C324.517 33.0116 327.346 31.3477 330.385 31.3477C333.423 31.3477 336.252 33.0116 337.719 35.714L357.208 71.5806C358.884 74.7 356.578 78.5418 353.017 78.5418C351.235 78.5418 349.663 77.6059 348.825 76.0462L345.892 70.6448H314.878ZM330.385 42.0554L320.012 61.1798H340.862L330.385 42.0554Z" fill="white"/>
<path d="M414.312 36.8575C410.434 33.115 405.928 31.3477 400.899 31.3477H372.4C369.781 31.3477 367.685 33.5312 367.685 36.0259V40.7034V69.085V69.1836V73.8627C367.685 76.4649 369.885 78.5418 372.4 78.5418H400.899C405.928 78.5418 410.542 76.6701 414.312 73.0336C418.082 69.1836 419.868 64.7179 419.868 59.7268V50.2701C419.868 45.174 418.082 40.7034 414.312 36.8575ZM410.434 59.6201C410.434 61.9104 409.806 63.8888 408.442 65.4403C406.557 67.7306 403.622 68.9783 400.585 68.9783H377.22V40.6H400.585C403.622 40.6 406.557 41.8469 408.442 44.1339C409.806 45.7971 410.542 47.7721 410.542 50.0592V59.6201H410.434Z" fill="white"/>
<path d="M294.537 58.9328C292.287 57.6358 291.516 54.7873 292.816 52.5544L303.868 33.5589C305.168 31.3252 308.046 30.5593 310.297 31.849C312.546 33.1378 313.317 35.9929 312.017 38.2265L300.966 57.2171C299.666 59.4499 296.788 60.2216 294.537 58.9328Z" fill="#FF0003"/>
</g>
<defs>
<clipPath id="clip0_662_607">
<rect width="420" height="110" fill="white"/>
</clipPath>
</defs>
</svg>
