<svg width="453" height="96" viewBox="0 0 453 96" fill="none" xmlns="http://www.w3.org/2000/svg">
<g opacity="0.8">
<path d="M46.1106 5.17177C48.3067 4.03519 52.7866 2.46144 56.2125 1.58713C59.5506 0.712831 63.0646 0.0133894 63.9431 0.0133894C64.7334 -0.0740408 66.2269 0.27568 67.1931 0.800262C68.1593 1.23741 68.95 2.37401 68.95 3.16088C69.0378 4.03519 68.5108 5.17177 67.896 5.69636C67.2809 6.22094 64.9971 7.09525 62.801 7.70725C60.6049 8.31927 57.2668 9.63072 55.3341 10.5924C53.4017 11.5542 50.1513 13.7399 48.1311 15.3137C45.1444 17.6743 43.3873 20.3846 34.6908 38.3952L25.7307 45.1273C20.7236 48.7996 15.8044 52.8212 14.7502 54.0452C13.6961 55.2695 12.1149 57.8922 11.3243 59.8156C10.4459 62.0888 10.0067 65.149 10.2702 68.6462C10.4459 72.668 11.1486 74.9413 13.169 78.1762C14.6624 80.5367 17.122 83.0722 18.8789 84.0339C20.5479 84.908 23.359 85.87 25.028 86.1323C26.7849 86.4819 29.9472 86.2196 32.4069 85.5202C34.8666 84.8208 38.3804 82.8974 40.3128 81.1488C42.3333 79.4874 44.793 76.34 45.847 74.1543C46.989 72.0559 48.3067 67.7718 48.8337 64.6244C49.4487 61.477 50.6786 57.1928 51.7326 55.0072C52.7866 52.7339 56.652 48.1875 60.8683 44.0781C65.4363 39.7067 69.0378 35.2478 70.619 32.2752C72.3759 28.778 73.2543 25.543 73.6057 20.7344C74.1327 15.1388 74.572 13.7399 75.9777 13.0405C77.3831 12.3411 77.9979 12.5159 79.0522 14.1771C79.755 15.2262 80.6334 18.1114 80.8968 20.4721C81.2482 22.9201 80.9846 27.2042 80.3698 30.0895C79.755 32.9746 78.2615 37.3463 77.0317 39.7067C75.8018 42.1547 72.0245 46.7887 68.5108 50.1984C65.0848 53.6081 61.8348 56.9305 61.2197 57.6299C60.6927 58.3293 59.6384 62.0888 58.8481 65.9359C58.1452 69.7827 56.4762 75.0285 55.3341 77.564C54.1045 80.012 51.3812 83.9463 49.2729 86.3071C46.8132 88.9299 43.4753 91.2906 39.8736 92.9517C36.7991 94.3508 32.3192 95.662 29.8594 95.9243C27.1362 96.1866 23.6225 95.7495 20.6358 94.8751C18.0004 94.1757 13.8718 91.99 11.4121 90.1539C8.24974 87.7934 6.14149 85.1703 3.9454 80.8865C1.04654 75.2908 0.87085 74.3291 0.87085 66.8976C0.958695 60.6901 1.39791 57.9798 2.89126 54.5698C3.9454 52.1218 6.49286 48.5373 8.5133 46.5264C10.6216 44.6027 15.1016 40.8432 18.6154 38.2204C22.0413 35.6849 25.9064 32.1877 27.2241 30.5266C28.454 28.8655 30.3864 24.931 31.6163 21.7835C33.0217 18.024 35.13 14.6142 37.9411 11.6416C40.225 9.19358 43.9145 6.30836 46.1106 5.17177Z" fill="#F75425"/>
<path fill-rule="evenodd" clip-rule="evenodd" d="M413.738 1.67578C414.968 1.67578 416.549 2.28779 417.252 2.98725C418.218 3.94897 418.569 6.48444 418.569 22.6591H424.104C428.057 22.6591 429.99 23.0962 431.132 24.2328C432.01 25.0197 432.714 26.4186 432.623 27.2929C432.623 28.0797 431.833 29.5661 430.868 30.5278C429.461 31.9266 427.97 32.2765 418.569 32.2765V40.4074C418.569 44.779 418.921 49.8498 419.36 51.5112C419.886 53.1723 421.557 55.8826 423.139 57.4564C424.72 59.03 427.531 60.6913 429.374 61.1284C431.484 61.7403 433.856 61.653 436.138 61.1284C438.071 60.6913 440.882 59.2923 442.288 58.0683C443.78 56.8443 446.064 55.8826 447.558 55.8826C449.314 55.8826 450.487 56.4654 451.073 57.6312C451.512 58.5929 451.951 59.9917 451.951 60.6913C451.951 61.3907 450.634 63.2266 449.14 64.7129C447.558 66.1995 444.835 68.1229 443.166 68.997C441.498 69.8715 438.158 70.8332 435.699 71.183C432.623 71.6201 429.725 71.3578 426.211 70.3961C422.522 69.3469 420.063 67.8605 416.726 64.8004C413.738 62.0026 411.805 59.205 410.576 56.1449C409.082 52.0355 408.907 48.9757 408.82 28.5169C408.73 8.49533 408.907 5.34786 410.224 3.59925C411.015 2.55008 412.596 1.67578 413.738 1.67578ZM353.83 20.823C354.795 21.0853 355.85 21.7848 356.202 22.2219C356.64 22.7465 357.079 29.3911 357.254 37.0849C357.518 49.3252 357.783 51.4237 359.361 54.134C360.329 55.795 362.524 58.1558 364.195 59.205C366.654 60.9536 368.058 61.2159 372.012 60.9536C375 60.7786 377.81 59.9917 379.479 58.8552C380.886 57.806 382.816 55.4455 383.784 53.6094C385.101 50.7243 385.365 48.3635 385.278 38.3965C385.188 31.9266 385.54 25.5443 386.069 24.2328C386.508 22.8339 387.737 21.6099 388.702 21.3476C389.67 21.0853 391.251 21.0853 392.216 21.3476C393.359 21.6099 394.324 23.0088 394.94 25.1071C395.553 27.0306 395.731 33.1506 395.553 40.5821C395.292 50.462 394.853 53.6094 393.446 56.7567C392.481 58.9427 390.283 62.0901 388.528 63.7512C386.769 65.4126 383.697 67.6858 381.586 68.8222C378.776 70.221 376.142 70.7456 372.012 70.8332C368.148 70.9207 364.986 70.3961 362.349 69.2593C360.152 68.2976 356.815 66.0244 354.969 64.101C353.039 62.2649 350.667 58.9427 349.699 56.7567C348.205 53.4346 347.856 50.6367 347.592 39.2709C347.417 31.8391 347.592 24.9322 347.943 23.8831C348.205 22.9213 349.347 21.6973 350.315 21.1727C351.28 20.7356 352.862 20.5607 353.83 20.823ZM310.083 21.7848C313.771 21.7848 316.67 22.3968 319.745 23.8831C322.204 24.9322 325.718 27.6426 327.564 29.7409C329.497 31.8391 331.692 34.9868 332.395 36.6478C333.447 39.0086 333.712 43.2052 333.799 54.3963C333.799 68.1229 333.712 69.2593 332.043 70.3961C331.076 71.0955 329.32 71.6201 328.09 71.445C326.861 71.2702 325.454 70.3085 324.84 68.997C324.05 67.5107 323.698 62.9645 323.785 54.571C323.873 43.9921 323.698 41.8937 322.117 38.8335C320.974 36.5606 319.041 34.6369 316.582 33.2381C313.597 31.6643 311.838 31.2272 308.763 31.5771C306.568 31.7518 303.493 32.8011 301.999 33.85C300.421 34.8992 298.398 37.0849 297.607 38.6588C296.377 40.932 296.026 44.2544 295.851 55.7078C295.587 69.2593 295.5 69.9587 293.657 71.183C292.075 72.2319 291.107 72.3195 289.264 71.6201C287.858 71.183 286.541 69.8715 286.276 68.8222C286.012 67.6858 285.925 60.6913 286.102 53.2595C286.364 41.7189 286.628 39.0958 288.209 35.7737C289.264 33.5877 291.459 30.5278 293.04 28.8665C294.709 27.2054 298.049 24.9322 300.421 23.8831C303.493 22.3968 306.394 21.7848 310.083 21.7848ZM249.47 23.6208C250.875 23.5334 254.125 24.0579 256.497 24.7574C259.045 25.5443 262.559 27.4677 264.842 29.4786C267.038 31.402 269.762 34.812 270.991 37.1725C273.012 41.1068 273.187 42.5931 273.451 54.571C273.627 65.2375 273.451 68.0353 272.309 69.6964C271.519 70.8332 270.113 71.6201 268.795 71.6201C267.478 71.6201 265.984 70.7456 263.525 67.3359L260.011 68.9098C258.078 69.8715 254.74 70.8332 252.544 71.183C249.909 71.6201 246.922 71.3578 243.584 70.3961C239.983 69.4344 237.259 67.8606 234.448 65.325C232.164 63.2266 229.529 59.9917 228.563 58.0683C227.07 55.358 226.63 52.9975 226.63 47.5766C226.63 42.4183 227.07 39.7955 228.299 37.5223C229.178 35.8609 231.374 32.9758 233.131 31.1397C234.888 29.3038 237.523 27.118 238.928 26.4186C240.334 25.6317 242.793 24.67 244.199 24.3202C245.605 23.9705 248.064 23.7082 249.47 23.6208ZM238.753 38.3092C237.698 39.7955 236.469 42.5058 236.205 44.3417C235.854 46.0903 235.854 48.9757 236.205 50.6367C236.469 52.2978 237.435 54.6586 238.401 55.8826C239.28 57.1066 241.124 58.8552 242.354 59.8169C244.111 61.0409 246.132 61.5655 249.733 61.5655C253.51 61.5655 255.443 61.0409 257.639 59.6421C259.133 58.5053 261.329 55.9701 262.295 53.9592C263.613 51.2489 264.052 49.0629 263.876 46.1778C263.613 43.7298 262.734 41.1068 261.241 39.1834C260.011 37.5223 257.551 35.5114 255.794 34.7245C254.038 33.85 251.227 33.1506 249.733 33.1506C248.152 33.2381 245.517 33.7628 243.848 34.3746C242.179 34.9868 239.895 36.7354 238.753 38.3092ZM130.88 24.4076C135.097 24.4076 138.083 24.9322 140.543 26.1563C142.476 27.0306 145.55 29.3038 147.395 31.1397C149.24 32.9758 151.523 36.036 152.49 37.9594C153.632 40.2326 154.247 43.38 154.335 47.1395C154.335 51.2489 153.807 54.0464 152.49 57.1941C151.436 59.6421 149.327 62.877 147.746 64.4509C146.165 66.1119 143.354 68.2101 141.421 69.2593C138.698 70.7456 136.326 71.183 130.88 71.183C125.17 71.183 123.238 70.8332 120.515 69.2593C118.758 68.1229 117.088 67.5107 116.825 67.9481C116.561 68.2976 116.298 73.631 116.298 79.9258C116.298 89.5433 116.122 91.5542 114.805 92.8654C114.014 93.7399 112.609 94.4393 111.818 94.3518C110.939 94.3518 109.622 93.7399 108.919 93.0405C107.777 91.9037 107.601 87.7947 107.601 67.0736C107.601 42.8554 107.689 42.2435 109.71 37.9594C110.852 35.5986 113.136 32.3637 114.717 30.8774C116.386 29.3038 119.285 27.2929 121.217 26.2437C123.852 24.8448 126.312 24.4076 130.88 24.4076ZM121.305 37.3472C120.427 38.1341 119.109 40.0575 118.406 41.4566C117.616 42.8554 117.001 45.828 117.001 48.014C117.001 50.2869 117.703 53.1723 118.67 54.9209C119.548 56.582 121.305 58.6804 122.535 59.5546C123.765 60.5163 126.488 61.478 128.684 61.7403C130.88 62.0026 134.042 61.8278 135.712 61.3032C137.381 60.7786 139.84 59.1175 141.158 57.7187C142.563 56.2324 144.057 53.347 144.584 51.2489C145.286 48.7133 145.286 46.7024 144.672 44.5167C144.145 42.8554 142.915 40.4074 141.949 39.0086C140.894 37.6971 139.05 36.1232 137.644 35.4238C136.326 34.812 134.13 34.0251 132.637 33.7628C131.144 33.4129 128.42 33.7628 126.488 34.4621C124.555 35.2491 122.271 36.4731 121.305 37.3472ZM190.175 24.4951C193.337 24.4076 197.466 24.9322 199.399 25.4568C201.595 26.1563 204.669 28.2546 207.744 31.402C210.906 34.4621 213.014 37.5223 213.717 39.708C214.244 41.6314 214.771 44.6915 214.771 46.4401C214.771 48.3635 214.156 50.2869 213.366 51.0738C212.224 52.123 208.886 52.3854 194.918 52.3854C181.918 52.3854 177.877 52.6477 177.877 53.4346C177.789 54.0464 178.579 55.6203 179.634 56.9318C180.6 58.3306 182.708 59.9917 184.201 60.7786C185.783 61.5655 188.857 62.2649 191.053 62.2649C193.25 62.2649 196.939 61.3907 199.399 60.254C202.912 58.7677 204.23 58.5053 205.723 59.2923C206.865 59.8169 207.919 61.0409 208.183 62.0026C208.446 62.9645 208.271 64.5381 207.744 65.4998C207.217 66.4615 204.757 68.2101 202.209 69.4344C198.783 71.0955 196.236 71.6201 191.932 71.6201C188.769 71.6201 184.641 71.0955 182.708 70.4833C180.864 69.9587 177.174 67.4235 174.539 65.0627C171.552 62.2649 169.356 59.205 168.389 56.7567C167.599 54.571 166.896 50.462 166.896 47.5766C166.984 43.8171 167.599 41.0195 169.268 37.5223C170.498 34.8992 173.045 31.4895 174.89 29.9157C176.823 28.4294 179.721 26.5934 181.391 25.8065C183.147 25.1071 187.012 24.4951 190.175 24.4951ZM179.634 39.0086L176.559 42.3308C197.378 42.6806 203.615 42.5931 204.054 42.3308C204.406 42.0685 203.878 40.7572 202.824 39.4457C201.77 38.1342 199.838 36.3855 198.432 35.5986C197.027 34.812 194.479 33.9375 192.81 33.6752C191.053 33.4129 188.242 33.6752 186.222 34.4621C184.289 35.1615 181.303 37.1725 179.634 39.0086Z" fill="white"/>
</g>
</svg>
