<svg width="303" height="64" viewBox="0 0 303 64" fill="none" xmlns="http://www.w3.org/2000/svg">
<g opacity="0.8" clip-path="url(#clip0_924_194)">
<path d="M31.6349 3.44785C33.099 2.69013 36.0856 1.64096 38.3695 1.05809C40.595 0.475221 42.9376 0.00892626 43.5232 0.00892626C44.0501 -0.0493606 45.0458 0.183787 45.6899 0.533508C46.3341 0.824943 46.8612 1.58267 46.8612 2.10726C46.9197 2.69013 46.5684 3.44785 46.1585 3.79757C45.7485 4.14729 44.2259 4.73016 42.7619 5.13816C41.2978 5.54618 39.0724 6.42048 37.7839 7.06163C36.4956 7.7028 34.3287 9.15996 32.9819 10.2091C30.9908 11.7829 29.8194 13.5898 24.0217 25.5968L18.0484 30.0849C14.7103 32.5331 11.4308 35.2141 10.728 36.0301C10.0253 36.8463 8.97113 38.5948 8.44406 39.8771C7.85844 41.3926 7.56563 43.4327 7.74132 45.7641C7.85844 48.4454 8.32694 49.9608 9.67387 52.1175C10.6694 53.6911 12.3092 55.3815 13.4805 56.0226C14.5932 56.6054 16.4672 57.2467 17.5799 57.4215C18.7511 57.6546 20.8594 57.4797 22.4992 57.0135C24.139 56.5472 26.4814 55.2649 27.7697 54.0992C29.1167 52.9916 30.7565 50.8934 31.4592 49.4362C32.2206 48.0373 33.099 45.1812 33.4503 43.0829C33.8604 40.9847 34.6803 38.1286 35.3829 36.6714C36.0856 35.156 38.6625 32.125 41.4734 29.3854C44.5187 26.4712 46.9197 23.4985 47.9739 21.5168C49.1451 19.1853 49.7307 17.0287 49.965 13.8229C50.3164 10.0926 50.6092 9.15996 51.5463 8.69366C52.4833 8.22737 52.8931 8.34394 53.596 9.45139C54.0645 10.1508 54.6502 12.0743 54.8257 13.6481C55.06 15.2801 54.8843 18.1361 54.4744 20.0597C54.0645 21.9831 53.0689 24.8975 52.249 26.4712C51.4291 28.1032 48.9108 31.1925 46.5684 33.4656C44.2844 35.7387 42.1177 37.9537 41.7077 38.42C41.3563 38.8862 40.6535 41.3926 40.1266 43.9573C39.658 46.5218 38.5453 50.019 37.7839 51.7094C36.9642 53.3414 35.1486 55.9642 33.7431 57.5381C32.1033 59.2866 29.8781 60.8604 27.4769 61.9678C25.4272 62.9005 22.4406 63.7747 20.8008 63.9496C18.9854 64.1244 16.6429 63.833 14.6517 63.2501C12.8948 62.7838 10.1424 61.3267 8.50262 60.1026C6.39436 58.5289 4.98886 56.7802 3.5248 53.9243C1.59222 50.1939 1.4751 49.5527 1.4751 44.5984C1.53366 40.46 1.82647 38.6532 2.82204 36.3799C3.5248 34.7479 5.22311 32.3582 6.57006 31.0176C7.97557 29.7352 10.9623 27.2288 13.3048 25.4803C15.5887 23.7899 18.1655 21.4584 19.0439 20.3511C19.8639 19.2437 21.1522 16.6207 21.9721 14.5224C22.909 12.016 24.3145 9.74283 26.1886 7.76107C27.7112 6.12905 30.1709 4.20557 31.6349 3.44785Z" fill="#F75425"/>
<path fill-rule="evenodd" clip-rule="evenodd" d="M276.72 1.11719C277.54 1.11719 278.594 1.52519 279.063 1.9915C279.706 2.63265 279.941 4.32296 279.941 15.106H283.63C286.266 15.106 287.554 15.3975 288.316 16.1552C288.901 16.6798 289.37 17.6124 289.31 18.1952C289.31 18.7198 288.783 19.7108 288.14 20.3519C287.202 21.2844 286.208 21.5176 279.941 21.5176V26.9382C279.941 29.8527 280.175 33.2332 280.468 34.3408C280.819 35.4482 281.933 37.255 282.987 38.3043C284.041 39.3533 285.915 40.4609 287.144 40.7523C288.551 41.1602 290.132 41.102 291.653 40.7523C292.942 40.4609 294.816 39.5282 295.753 38.7122C296.748 37.8962 298.271 37.255 299.267 37.255C300.437 37.255 301.22 37.6436 301.61 38.4208C301.902 39.0619 302.195 39.9944 302.195 40.4609C302.195 40.9271 301.317 42.151 300.321 43.1419C299.267 44.133 297.451 45.4152 296.339 45.998C295.226 46.581 293 47.2221 291.36 47.4553C289.31 47.7467 287.378 47.5718 285.035 46.9307C282.576 46.2312 280.937 45.2404 278.712 43.2003C276.72 41.335 275.431 39.47 274.612 37.4299C273.616 34.6903 273.499 32.6504 273.441 19.0113C273.381 5.66356 273.499 3.56524 274.377 2.3995C274.904 1.70006 275.958 1.11719 276.72 1.11719ZM236.781 13.882C237.424 14.0569 238.128 14.5232 238.362 14.8146C238.655 15.1643 238.947 19.5941 239.064 24.7233C239.24 32.8835 239.416 34.2824 240.469 36.0893C241.114 37.1967 242.577 38.7705 243.691 39.47C245.331 40.6358 246.267 40.8106 248.902 40.6357C250.894 40.519 252.768 39.9944 253.881 39.2368C254.818 38.5373 256.105 36.9637 256.75 35.7396C257.628 33.8162 257.805 32.2423 257.747 25.5976C257.686 21.2844 257.921 17.0295 258.274 16.1552C258.566 15.2226 259.386 14.4066 260.029 14.2317C260.675 14.0569 261.729 14.0569 262.372 14.2317C263.134 14.4066 263.777 15.3392 264.188 16.7381C264.597 18.0204 264.715 22.1004 264.597 27.0548C264.422 33.6413 264.13 35.7396 263.192 37.8378C262.549 39.2951 261.084 41.3934 259.913 42.5008C258.741 43.6084 256.692 45.1238 255.286 45.8815C253.412 46.814 251.656 47.1637 248.902 47.2221C246.327 47.2805 244.218 46.9307 242.461 46.1729C240.996 45.5318 238.771 44.0163 237.541 42.734C236.254 41.5099 234.673 39.2951 234.027 37.8378C233.031 35.623 232.799 33.7578 232.622 26.1806C232.506 21.2261 232.622 16.6215 232.857 15.922C233.031 15.2809 233.793 14.4649 234.438 14.1151C235.082 13.8237 236.136 13.7071 236.781 13.882ZM207.616 14.5232C210.076 14.5232 212.008 14.9312 214.058 15.922C215.697 16.6215 218.04 18.4284 219.271 19.8273C220.559 21.2261 222.022 23.3245 222.491 24.4319C223.193 26.0057 223.369 28.8035 223.427 36.2642C223.427 45.4152 223.369 46.1729 222.257 46.9307C221.612 47.397 220.441 47.7467 219.621 47.63C218.802 47.5135 217.864 46.8724 217.455 45.998C216.928 45.0071 216.693 41.9764 216.751 36.3807C216.81 29.3281 216.693 27.9291 215.639 25.889C214.878 24.3737 213.589 23.0913 211.949 22.1588C209.959 21.1095 208.787 20.8182 206.737 21.0514C205.274 21.1679 203.223 21.8674 202.227 22.5667C201.175 23.2662 199.826 24.7233 199.299 25.7725C198.479 27.288 198.245 29.503 198.129 37.1385C197.952 46.1729 197.894 46.6391 196.666 47.4553C195.611 48.1546 194.966 48.213 193.738 47.7467C192.8 47.4553 191.922 46.581 191.745 45.8815C191.569 45.1238 191.511 40.4609 191.629 35.5063C191.804 27.8126 191.98 26.0639 193.034 23.8491C193.738 22.3918 195.201 20.3519 196.255 19.2443C197.367 18.1369 199.594 16.6215 201.175 15.922C203.223 14.9312 205.157 14.5232 207.616 14.5232ZM167.208 15.7472C168.145 15.6889 170.312 16.0386 171.893 16.5049C173.591 17.0295 175.934 18.3118 177.456 19.6524C178.92 20.9347 180.736 23.208 181.555 24.7816C182.902 27.4045 183.02 28.3954 183.195 36.3807C183.312 43.4917 183.195 45.3569 182.434 46.4643C181.907 47.2221 180.97 47.7467 180.091 47.7467C179.213 47.7467 178.218 47.1638 176.578 44.8906L174.235 45.9398C172.947 46.581 170.721 47.2221 169.257 47.4553C167.5 47.7467 165.509 47.5718 163.284 46.9307C160.883 46.2896 159.067 45.2404 157.193 43.55C155.671 42.151 153.914 39.9944 153.27 38.7122C152.274 36.9053 151.981 35.3317 151.981 31.7177C151.981 28.2789 152.274 26.5303 153.094 25.0149C153.68 23.9073 155.144 21.9839 156.315 20.7598C157.486 19.5359 159.243 18.0787 160.18 17.6124C161.117 17.0878 162.757 16.4466 163.694 16.2135C164.631 15.9803 166.271 15.8055 167.208 15.7472ZM160.063 25.5395C159.36 26.5303 158.54 28.3372 158.365 29.5611C158.13 30.7269 158.13 32.6504 158.365 33.7578C158.54 34.8652 159.185 36.439 159.829 37.255C160.414 38.071 161.644 39.2368 162.464 39.8779C163.635 40.6939 164.982 41.0437 167.383 41.0437C169.901 41.0437 171.19 40.6939 172.654 39.7614C173.65 39.0036 175.114 37.3134 175.758 35.9728C176.636 34.1659 176.929 32.7086 176.812 30.7852C176.636 29.1532 176.051 27.4045 175.055 26.1222C174.235 25.0149 172.595 23.6742 171.424 23.1496C170.253 22.5667 168.379 22.1004 167.383 22.1004C166.329 22.1588 164.572 22.5085 163.46 22.9164C162.347 23.3245 160.824 24.4902 160.063 25.5395ZM88.148 16.2718C90.9591 16.2718 92.9502 16.6215 94.5898 17.4375C95.8783 18.0204 97.9279 19.5359 99.1577 20.7598C100.388 21.9839 101.91 24.024 102.554 25.3062C103.316 26.8217 103.726 28.92 103.784 31.4263C103.784 34.1659 103.433 36.031 102.554 38.1294C101.852 39.7614 100.446 41.918 99.392 42.9672C98.3378 44.0746 96.4639 45.4734 95.1754 46.1729C93.36 47.1638 91.7788 47.4553 88.148 47.4553C84.3413 47.4553 83.053 47.2221 81.2377 46.1729C80.0662 45.4152 78.9535 45.0071 78.778 45.2987C78.6022 45.5317 78.4266 49.0873 78.4266 53.2838C78.4266 59.6955 78.3094 61.0361 77.431 61.9103C76.9039 62.4933 75.9669 62.9595 75.4398 62.9012C74.8542 62.9012 73.9758 62.4933 73.5072 62.027C72.746 61.2692 72.6288 58.5298 72.6288 44.7157C72.6288 28.5702 72.6875 28.1623 74.0343 25.3062C74.7957 23.7324 76.3182 21.5758 77.3724 20.5849C78.4851 19.5359 80.4178 18.1952 81.706 17.4958C83.4629 16.5632 85.1027 16.2718 88.148 16.2718ZM81.7646 24.8982C81.1789 25.4228 80.3005 26.705 79.8321 27.6377C79.305 28.5702 78.895 30.552 78.895 32.0093C78.895 33.5246 79.3636 35.4482 80.0077 36.6139C80.5933 37.7213 81.7646 39.1203 82.5845 39.703C83.4044 40.3442 85.2197 40.9853 86.684 41.1602C88.148 41.335 90.2562 41.2185 91.3689 40.8688C92.4816 40.519 94.1214 39.4117 94.9999 38.4791C95.9368 37.4883 96.9325 35.5647 97.2838 34.1659C97.7522 32.4756 97.7522 31.135 97.3423 29.6778C96.991 28.5702 96.1711 26.9382 95.5269 26.0057C94.8241 25.1314 93.5943 24.0822 92.6574 23.6159C91.7788 23.208 90.3147 22.6834 89.3193 22.5085C88.3236 22.2753 86.5082 22.5085 85.2197 22.9748C83.9315 23.4994 82.4089 24.3154 81.7646 24.8982ZM127.678 16.3301C129.786 16.2718 132.538 16.6215 133.827 16.9712C135.291 17.4375 137.341 18.8364 139.39 20.9347C141.499 22.9748 142.904 25.0149 143.373 26.472C143.724 27.7542 144.075 29.7943 144.075 30.9601C144.075 32.2423 143.665 33.5246 143.138 34.0492C142.377 34.7487 140.152 34.9236 130.84 34.9236C122.173 34.9236 119.479 35.0984 119.479 35.623C119.42 36.031 119.947 37.0802 120.65 37.9545C121.294 38.887 122.7 39.9944 123.695 40.519C124.75 41.0437 126.799 41.5099 128.263 41.5099C129.728 41.5099 132.187 40.9271 133.827 40.1693C136.169 39.1784 137.048 39.0036 138.043 39.5282C138.805 39.8779 139.508 40.6939 139.683 41.335C139.859 41.9764 139.742 43.0254 139.39 43.6665C139.039 44.3077 137.399 45.4734 135.701 46.2896C133.417 47.397 131.719 47.7467 128.849 47.7467C126.741 47.7467 123.988 47.397 122.7 46.9889C121.47 46.6391 119.011 44.949 117.254 43.3751C115.263 41.5099 113.799 39.47 113.154 37.8378C112.627 36.3807 112.159 33.6413 112.159 31.7177C112.217 29.2114 112.627 27.3463 113.74 25.0149C114.56 23.2662 116.258 20.993 117.488 19.9438C118.776 18.9529 120.709 17.7289 121.822 17.2044C122.993 16.7381 125.57 16.3301 127.678 16.3301ZM120.65 26.0057L118.601 28.2205C132.48 28.4537 136.638 28.3954 136.931 28.2205C137.165 28.0456 136.814 27.1715 136.111 26.2971C135.408 25.4228 134.12 24.257 133.183 23.7324C132.246 23.208 130.547 22.625 129.435 22.4502C128.263 22.2753 126.389 22.4502 125.042 22.9748C123.754 23.441 121.763 24.7816 120.65 26.0057Z" fill="white"/>
</g>
<defs>
<clipPath id="clip0_924_194">
<rect width="302" height="64" fill="white" transform="translate(0.894531)"/>
</clipPath>
</defs>
</svg>
