<svg width="572" height="152" viewBox="0 0 572 152" fill="none" xmlns="http://www.w3.org/2000/svg">
<g clip-path="url(#clip0_662_645)">
<path d="M113.305 9.0842C112.245 5.55727 110.522 2.28556 108.054 0C72.0556 35.9308 35.8356 72.0704 0 107.839C12.2596 107.839 27.5229 107.839 36.7671 107.792C59.109 85.633 83.5932 61.4084 105.865 39.2141C114.434 30.6752 116.751 20.5352 113.305 9.0842Z" fill="#02B14F"/>
<path d="M110.991 124.789C109.291 119.174 105.799 114.788 101.607 110.82C100.059 109.358 98.4287 107.769 98.4287 107.769C98.4287 107.769 100.117 106.098 101.654 104.567C104.692 101.539 107.638 98.4296 110.782 95.5059C118.675 88.1506 121.947 79.194 120.282 68.5665C119.479 63.4616 117.325 58.9024 114.065 55.4102C96.2166 73.1839 78.6135 90.7144 61.2659 107.99C75.633 122.352 90.3372 137.04 105.135 151.844C111.759 144.129 113.89 134.326 110.991 124.789Z" fill="#02B14F"/>
<path d="M105.134 151.843C105.367 151.635 104.808 152.284 105.134 151.843Z" fill="#02B14F"/>
<path d="M171.181 108.06H197.807V120.926H154.963V39.9922H171.169V108.06H171.181Z" fill="white"/>
<path d="M206.098 46.3124C204.2 44.5024 203.257 42.2399 203.257 39.5252C203.257 36.8104 204.2 34.5596 206.098 32.7381C207.984 30.9283 210.359 30.0117 213.223 30.0117C216.087 30.0117 218.451 30.9166 220.348 32.7381C222.235 34.5596 223.189 36.822 223.189 39.5252C223.189 42.2285 222.246 44.4907 220.348 46.3124C218.451 48.1337 216.087 49.0385 213.223 49.0385C210.359 49.0385 207.996 48.1337 206.098 46.3124ZM221.21 56.6959V120.935H205.004V56.6959H221.21Z" fill="white"/>
<path d="M252.926 70.0297V101.1C252.926 103.269 253.45 104.835 254.486 105.798C255.534 106.761 257.281 107.248 259.761 107.248H267.293V120.927H257.106C243.438 120.927 236.615 114.279 236.615 100.983V70.0297H228.978V56.6993H236.615V40.8164H252.938V56.6993H267.293V70.0297H252.938H252.926Z" fill="white"/>
<path d="M335.027 93.687H288.131C288.515 98.328 290.133 101.959 292.997 104.581C295.85 107.215 299.366 108.526 303.534 108.526C309.553 108.526 313.837 105.939 316.387 100.753H333.874C332.023 106.936 328.472 112.018 323.222 115.997C317.971 119.977 311.521 121.972 303.883 121.972C297.713 121.972 292.171 120.603 287.269 117.854C282.368 115.116 278.549 111.229 275.801 106.205C273.066 101.182 271.692 95.3811 271.692 88.8143C271.692 82.2479 273.042 76.3309 275.743 71.3073C278.444 66.2837 282.228 62.4202 287.095 59.7169C291.961 57.014 297.549 55.6562 303.883 55.6562C310.217 55.6562 315.444 56.9673 320.264 59.601C325.084 62.2344 328.833 65.9588 331.499 70.7852C334.165 75.6116 335.493 81.1687 335.493 87.422C335.493 89.7426 335.341 91.8307 335.027 93.687ZM318.704 82.7932C318.623 78.6162 317.121 75.2749 314.187 72.7692C311.253 70.2631 307.667 68.9984 303.417 68.9984C299.401 68.9984 296.025 70.2167 293.288 72.6529C290.552 75.0894 288.864 78.4654 288.247 82.7932H318.704Z" fill="white"/>
<path d="M373.574 70.0278H362.339V120.925H345.9V70.0278H338.612V56.6974H345.9V53.4487C345.9 45.5596 348.136 39.7703 352.618 36.0577C357.089 32.3451 363.853 30.6048 372.876 30.8369V44.5153C368.941 44.434 366.193 45.0956 364.656 46.4875C363.108 47.8798 362.339 50.3973 362.339 54.029V56.6974H373.574V70.0278Z" fill="white"/>
<path d="M397.197 35.1289V120.936H380.991V35.1289H397.197Z" fill="white"/>
<path d="M421.854 117.865C416.919 115.127 413.03 111.241 410.223 106.217C407.405 101.194 405.998 95.3925 405.998 88.8261C405.998 82.2593 407.439 76.4586 410.341 71.435C413.24 66.4114 417.186 62.5247 422.205 59.7751C427.223 57.0372 432.821 55.6562 438.991 55.6562C445.165 55.6562 450.763 57.0254 455.781 59.7751C460.799 62.5247 464.758 66.3996 467.644 71.435C470.543 76.4586 471.988 82.2593 471.988 88.8261C471.988 95.3925 470.497 101.194 467.53 106.217C464.559 111.241 460.544 115.127 455.491 117.865C450.439 120.615 444.78 121.984 438.526 121.984C432.276 121.984 426.792 120.615 421.854 117.865ZM446.805 105.695C449.39 104.268 451.449 102.122 452.997 99.2559C454.546 96.4018 455.316 92.9213 455.316 88.8261C455.316 82.7233 453.71 78.0246 450.507 74.7414C447.304 71.4582 443.38 69.8105 438.758 69.8105C434.137 69.8105 430.251 71.4582 427.128 74.7414C423.997 78.0246 422.437 82.7233 422.437 88.8261C422.437 94.9285 423.963 99.6272 427.013 102.91C430.064 106.194 433.904 107.841 438.526 107.841C441.462 107.841 444.219 107.134 446.805 105.695Z" fill="white"/>
<path d="M569.716 56.6992L550.958 120.939H533.474L521.771 76.0625L510.083 120.939H492.481L473.608 56.6992H490.044L501.396 105.624L513.667 56.6992H530.805L542.843 105.508L554.196 56.6992H569.716Z" fill="white"/>
</g>
<defs>
<clipPath id="clip0_662_645">
<rect width="572" height="152" fill="white"/>
</clipPath>
</defs>
</svg>
