<svg width="302" height="80" viewBox="0 0 302 80" fill="none" xmlns="http://www.w3.org/2000/svg">
<g clip-path="url(#clip0_924_197)">
<path d="M60.5287 4.78116C59.9711 2.92488 59.0642 1.20292 57.7652 0C38.8186 18.9109 19.7555 37.9318 0.894592 56.7572C7.34699 56.7572 15.3803 56.7572 20.2457 56.7328C32.0046 45.07 44.891 32.3202 56.6132 20.639C61.1232 16.1448 62.3424 10.808 60.5287 4.78116Z" fill="#02B14F"/>
<path d="M59.3108 65.6793C58.4163 62.7239 56.5781 60.4157 54.372 58.3273C53.5571 57.5579 52.6991 56.7215 52.6991 56.7215C52.6991 56.7215 53.5876 55.8421 54.3964 55.0361C55.9958 53.4423 57.546 51.8059 59.2006 50.2671C63.3552 46.3959 65.077 41.6819 64.2007 36.0885C63.778 33.4017 62.6443 31.0021 60.9287 29.1641C51.5348 38.5187 42.27 47.7453 33.1397 56.8375C40.7013 64.3969 48.4404 72.1273 56.2286 79.9189C59.7152 75.8583 60.8368 70.6985 59.3108 65.6793Z" fill="#02B14F"/>
<path d="M56.2284 79.9169C56.0568 80.1489 56.351 79.8071 56.2284 79.9169V79.9169Z" fill="#02B14F"/>
<path d="M90.99 56.8758H105.004V63.6476H82.4541V21.0508H90.9837V56.8758H90.99Z" fill="white"/>
<path d="M109.367 24.3723C108.368 23.4197 107.872 22.2289 107.872 20.8001C107.872 19.3712 108.368 18.1866 109.367 17.2279C110.36 16.2754 111.61 15.793 113.117 15.793C114.625 15.793 115.869 16.2692 116.867 17.2279C117.86 18.1866 118.362 19.3773 118.362 20.8001C118.362 22.2229 117.866 23.4135 116.867 24.3723C115.869 25.3309 114.625 25.8071 113.117 25.8071C111.61 25.8071 110.366 25.3309 109.367 24.3723ZM117.321 29.8373V63.6473H108.791V29.8373H117.321Z" fill="white"/>
<path d="M134.014 36.8598V53.2124C134.014 54.3542 134.29 55.1786 134.835 55.6854C135.386 56.1922 136.306 56.4486 137.611 56.4486H141.575V63.6478H136.214C129.02 63.6478 125.429 60.149 125.429 53.1512V36.8598H121.409V29.8438H125.429V21.4844H134.02V29.8438H141.575V36.8598H134.02H134.014Z" fill="white"/>
<path d="M177.225 49.3092H152.542C152.745 51.7518 153.596 53.663 155.104 55.043C156.605 56.429 158.455 57.119 160.649 57.119C163.817 57.119 166.072 55.7574 167.414 53.028H176.618C175.644 56.2826 173.775 58.957 171.011 61.0514C168.248 63.146 164.853 64.1962 160.833 64.1962C157.585 64.1962 154.669 63.4756 152.089 62.0284C149.509 60.5874 147.499 58.5418 146.053 55.8978C144.613 53.2538 143.89 50.2008 143.89 46.7446C143.89 43.2886 144.601 40.1744 146.023 37.5304C147.444 34.8864 149.436 32.853 151.997 31.4302C154.558 30.0076 157.5 29.293 160.833 29.293C164.166 29.293 166.918 29.983 169.455 31.3692C171.991 32.7552 173.965 34.7154 175.368 37.2556C176.771 39.7958 177.47 42.7206 177.47 46.0118C177.47 47.2332 177.39 48.3322 177.225 49.3092ZM168.633 43.5756C168.591 41.3772 167.8 39.6186 166.256 38.2998C164.712 36.9808 162.825 36.3152 160.588 36.3152C158.474 36.3152 156.697 36.9564 155.257 38.2386C153.817 39.521 152.928 41.2978 152.604 43.5756H168.633Z" fill="white"/>
<path d="M197.513 36.8563H191.599V63.6443H182.947V36.8563H179.111V29.8403H182.947V28.1305C182.947 23.9783 184.124 20.9313 186.483 18.9773C188.836 17.0233 192.396 16.1074 197.145 16.2295V23.4287C195.074 23.3859 193.628 23.7341 192.819 24.4667C192.004 25.1995 191.599 26.5245 191.599 28.4359V29.8403H197.513V36.8563Z" fill="white"/>
<path d="M209.946 18.4883V63.6497H201.416V18.4883H209.946Z" fill="white"/>
<path d="M222.923 62.0346C220.326 60.5936 218.279 58.548 216.801 55.904C215.318 53.26 214.578 50.2068 214.578 46.7508C214.578 43.2946 215.336 40.2416 216.864 37.5976C218.389 34.9536 220.466 32.908 223.108 31.4608C225.749 30.0198 228.695 29.293 231.942 29.293C235.192 29.293 238.138 30.0136 240.779 31.4608C243.421 32.908 245.504 34.9474 247.023 37.5976C248.548 40.2416 249.309 43.2946 249.309 46.7508C249.309 50.2068 248.524 53.26 246.963 55.904C245.399 58.548 243.286 60.5936 240.627 62.0346C237.967 63.4818 234.989 64.2022 231.698 64.2022C228.408 64.2022 225.522 63.4818 222.923 62.0346ZM236.055 55.6292C237.416 54.8782 238.499 53.7484 239.314 52.2402C240.129 50.738 240.534 48.9062 240.534 46.7508C240.534 43.5388 239.689 41.0658 238.004 39.3378C236.318 37.6098 234.252 36.7426 231.82 36.7426C229.387 36.7426 227.342 37.6098 225.699 39.3378C224.051 41.0658 223.23 43.5388 223.23 46.7508C223.23 49.9626 224.033 52.4356 225.638 54.1636C227.244 55.8918 229.265 56.7588 231.698 56.7588C233.243 56.7588 234.694 56.3864 236.055 55.6292Z" fill="white"/>
<path d="M300.745 29.8438L290.873 63.6539H281.67L275.511 40.035L269.359 63.6539H260.095L250.162 29.8438H258.812L264.787 55.5937L271.246 29.8438H280.265L286.602 55.5325L292.577 29.8438H300.745Z" fill="white"/>
</g>
<defs>
<clipPath id="clip0_924_197">
<rect width="301.053" height="80" fill="white" transform="translate(0.894531)"/>
</clipPath>
</defs>
</svg>
