<svg width="513" height="202" viewBox="0 0 513 202" fill="none" xmlns="http://www.w3.org/2000/svg">
<path d="M116.867 60.7469C110.478 55.4992 101.731 52.9062 90.5655 52.9062H62.7754V56.7957H90.0692C99.56 56.7957 108.12 58.7096 113.393 63.2782C118.666 67.8468 122.574 74.5144 122.574 82.7873C122.574 90.8132 119.1 96.6783 113.703 101.185C108.306 105.692 98.5055 107.668 88.7666 107.668H57.4407V111.557H89.0147C100.739 111.557 109.919 109.026 116.557 103.963C123.132 98.9008 126.482 91.7393 126.482 82.5403C126.482 73.1562 123.256 65.9329 116.867 60.7469Z" fill="white"/>
<path d="M114.51 66.304C110.54 63.2789 106.012 60.8711 93.1094 60.8711H71.6465V64.6371C71.6465 64.6371 81.2614 64.5136 92.6131 64.6371C103.593 64.7606 107.625 65.9953 111.347 68.7118C116.061 72.1691 119.038 76.4907 119.038 82.4793C119.038 88.2826 116.061 92.3573 111.285 95.8764C106.446 99.4572 99.0023 99.4572 95.9628 99.5806C94.8462 99.5806 80.0207 99.5806 80.0207 99.5806V103.347C80.0207 103.347 87.3404 103.47 91.9308 103.347C102.352 103.1 108.555 102.482 114.324 98.2224C119.721 94.2094 122.574 88.9617 122.574 82.2941C122.574 73.5273 118.108 69.1439 114.51 66.304Z" fill="white"/>
<path d="M112.587 71.3056C109.61 69.4535 107.004 68.2188 94.66 68.2188H79.2142V70.6883H94.2258C105.143 70.6883 109.237 72.6021 110.54 73.4047C113.021 74.8864 116.247 77.3559 116.247 82.2949C116.247 85.4436 114.386 89.4565 111.595 91C109.051 92.4199 104.399 93.7164 96.2728 93.7164H45.9033V96.1859H96.3969C106.26 96.1859 109.61 95.0746 113.083 93.1608C116.557 91.2469 118.914 87.2957 118.914 82.2949C118.914 76.6151 115.751 73.2812 112.587 71.3056Z" fill="white"/>
<path d="M122.388 98.6532C115.999 93.4055 107.252 90.8125 96.0865 90.8125H77.477V94.702H95.5282C105.019 94.702 113.579 96.6776 118.852 101.184C124.125 105.691 128.095 112.421 128.095 120.694C128.095 128.719 124.683 134.585 119.224 139.091C113.765 143.598 104.026 145.574 94.2875 145.574H62.9617V149.463H94.5357C106.26 149.463 115.44 146.932 122.078 141.87C128.715 136.807 132.003 129.646 132.003 120.447C131.941 111.124 128.777 103.901 122.388 98.6532Z" fill="white"/>
<path d="M120.031 104.21C116.061 101.247 111.533 98.7773 98.6301 98.7773H69.4753V102.543C69.4753 102.543 86.7821 102.42 98.1339 102.543C109.113 102.667 113.145 103.902 116.867 106.618C121.582 110.075 124.559 114.397 124.559 120.386C124.559 126.189 121.582 130.264 116.805 133.783C111.967 137.363 104.523 137.363 101.484 137.487C100.367 137.487 85.5415 137.487 85.5415 137.487V141.253C85.5415 141.253 92.9232 141.376 97.4515 141.253C107.873 141.006 114.076 140.389 119.845 136.129C125.242 132.116 128.095 126.868 128.095 120.2C128.095 111.495 123.691 107.05 120.031 104.21Z" fill="white"/>
<path d="M75.6782 117.052H103.034V114.953H75.6782V117.052Z" fill="white"/>
<path d="M86.9685 124.4H102.849V122.609H86.9685V124.4Z" fill="white"/>
<path d="M62.9617 117.052H71.0258V114.953H62.9617V117.052Z" fill="white"/>
<path d="M57.8755 124.521H82.502V122.422H57.8755V124.521Z" fill="white"/>
<path d="M63.9543 70.5021H73.5692V68.7734H63.9543V70.5021Z" fill="white"/>
<path d="M57.3174 84.5772H79.2145V82.6016H57.3174V84.5772Z" fill="white"/>
<path d="M57.8755 141.005H81.0132V138.535H57.8755V141.005Z" fill="white"/>
<path d="M52.1687 149.217H57.9376V145.574H52.1687V149.217Z" fill="white"/>
<path d="M66.5598 78.4053H102.91V76.4297H66.5598V78.4053Z" fill="white"/>
<path d="M84.7351 84.5772H102.228V82.6016H84.7351V84.5772Z" fill="white"/>
<path d="M118.108 109.58C115.131 107.789 112.525 106.555 100.181 106.555H80.5791V108.962H99.8088C110.726 108.962 114.882 110.815 116.123 111.555C118.542 112.975 121.83 115.321 121.83 120.137C121.83 123.224 119.969 127.052 117.178 128.533C114.634 129.892 109.982 131.126 101.856 131.126H51.4243V133.534H101.918C111.781 133.534 115.131 132.485 118.604 130.632C122.078 128.78 124.373 125.014 124.373 120.137C124.435 114.766 121.272 111.555 118.108 109.58Z" fill="white"/>
<path d="M169.842 104.209V126.25H181.938C187.149 126.25 191.243 125.262 194.096 123.286C196.888 121.496 198.501 118.409 198.439 115.075C198.439 107.852 192.298 104.209 180.077 104.209H169.842ZM169.842 77.9707V97.7268H178.961C183.861 97.7268 187.645 96.8007 190.437 94.8869C193.166 93.1582 194.779 90.0713 194.655 86.861C194.655 80.9342 189.816 77.909 180.077 77.909L169.842 77.9707ZM160.91 132.732V71.4883H182.559C189.134 71.4883 194.345 72.7848 198.191 75.3778C202.037 77.9707 203.959 81.3663 203.959 85.5027C204.022 88.8366 202.781 92.1087 200.486 94.5782C198.129 97.1712 194.965 98.9616 190.871 100.073V100.258C196.019 100.752 200.114 102.295 203.153 104.95C206.193 107.481 207.867 111.247 207.743 115.199C207.743 120.446 205.386 124.644 200.734 127.917C196.081 131.189 190.189 132.794 183.055 132.794H160.91V132.732Z" fill="white"/>
<path d="M217.668 132.731H226.353V89.0208H217.668V132.731ZM222.072 77.8462C220.646 77.908 219.219 77.4141 218.102 76.5497C217.048 75.8089 216.428 74.5741 216.49 73.3394C216.49 72.0429 217.11 70.8081 218.102 70.0673C219.219 69.203 220.646 68.7091 222.072 68.7708C223.561 68.7091 224.988 69.203 226.104 70.0673C227.903 71.3638 228.276 73.8333 227.035 75.6237C226.787 75.9941 226.477 76.3028 226.104 76.5497C224.988 77.4758 223.561 77.908 222.072 77.8462Z" fill="white"/>
<path d="M264.75 132.301C262.703 133.227 259.974 133.659 256.624 133.659C247.133 133.659 242.357 129.399 242.357 120.818V94.9496H233.052V88.961H242.357V78.2804L251.041 75.9961V88.961H264.688V94.9496H251.041V119.583C251.041 122.485 251.661 124.584 252.902 125.88C254.143 127.177 256.19 127.732 259.043 127.732C261.028 127.794 263.013 127.3 264.688 126.251L264.75 132.301Z" fill="white"/>
<path d="M343.716 132.734H335.59V94.9502C335.652 91.3077 335.838 87.6034 336.272 83.9609H336.086C335.59 85.813 334.845 87.6652 333.977 89.3938L310.095 132.672H306.063L282.243 89.7025C281.312 87.8504 280.63 85.9365 280.134 83.8992H279.947C280.258 87.5417 280.382 91.246 280.32 94.9502V132.672H272.442V76.3672H283.297L304.76 115.632C306.001 117.793 307.117 120.077 307.986 122.424H308.296C309.723 119.337 310.839 117.052 311.646 115.509L333.543 76.3672H343.778V132.734" fill="white"/>
<path d="M387.883 110.569L374.794 112.05C370.762 112.483 367.722 113.285 365.675 114.458C363.628 115.631 362.574 117.668 362.574 120.57C362.574 122.669 363.628 124.645 365.427 125.818C367.288 127.176 369.831 127.855 372.995 127.855C377.337 127.855 380.873 126.62 383.665 124.213C386.394 121.928 387.945 118.533 387.883 114.952V110.569ZM396.567 132.732H387.883V125.88H387.697C383.913 131.127 378.33 133.72 371.01 133.72C365.613 133.72 361.395 132.547 358.294 130.263C355.316 128.164 353.641 124.707 353.703 121.064C353.703 112.915 359.658 108.161 371.63 106.803L387.883 104.951C387.883 97.542 384.161 93.8377 376.717 93.8377C370.39 93.776 364.249 95.6281 359.038 99.2089V92.0473C364.373 89.3309 370.514 87.9727 377.461 87.9727C390.24 87.9727 396.567 93.4056 396.567 104.271V132.732Z" fill="white"/>
<path d="M436.887 96.0592C435.337 95.1331 433.166 94.6392 430.312 94.6392C426.714 94.5775 423.303 96.1209 421.007 98.8991C418.526 101.739 417.285 105.567 417.285 110.444V132.731H408.601V89.0211H417.285V98.0348H417.472C418.588 95.1331 420.573 92.6019 423.178 90.8115C425.66 89.0828 428.637 88.2185 431.739 88.2185C433.476 88.1568 435.275 88.342 436.949 88.8359L436.887 96.0592Z" fill="white"/>
<path d="M467.158 132.301C465.111 133.227 462.382 133.659 459.032 133.659C449.542 133.659 444.765 129.399 444.765 120.818V94.9496H435.46V88.961H444.765V78.2804L453.45 75.9961V88.961H467.096V94.9496H453.45V119.583C453.45 122.485 454.07 124.584 455.311 125.88C456.551 127.177 458.598 127.732 461.452 127.732C463.437 127.794 465.422 127.3 467.096 126.251L467.158 132.301Z" fill="white"/>
</svg>
