<svg width="383" height="150" viewBox="0 0 383 150" fill="none" xmlns="http://www.w3.org/2000/svg">
<path d="M87.5251 45.1114C82.7684 41.2145 76.2567 39.2891 67.944 39.2891H47.2546V42.1773H67.5746C74.6404 42.1773 81.0134 43.5985 84.9389 46.991C88.8643 50.3835 91.7738 55.3347 91.7738 61.478C91.7738 67.4378 89.1876 71.793 85.1698 75.1397C81.152 78.4864 73.8553 79.9534 66.6047 79.9534H43.283V82.8416H66.7895C75.5178 82.8416 82.3527 80.962 87.2942 77.2027C92.1894 73.4434 94.6832 68.1255 94.6832 61.2946C94.6832 54.3262 92.2818 48.9623 87.5251 45.1114Z" fill="white"/>
<path d="M85.7717 49.2414C82.8161 46.995 79.4448 45.207 69.839 45.207H53.8601V48.0036C53.8601 48.0036 61.0183 47.9119 69.4695 48.0036C77.6437 48.0953 80.6455 49.0121 83.4164 51.0293C86.9262 53.5966 89.143 56.8058 89.143 61.2527C89.143 65.5621 86.9262 68.5879 83.3702 71.201C79.7681 73.86 74.2263 73.86 71.9634 73.9517C71.1321 73.9517 60.0946 73.9517 60.0946 73.9517V76.7483C60.0946 76.7483 65.5441 76.8399 68.9615 76.7483C76.7201 76.5649 81.3382 76.1064 85.6332 72.9431C89.651 69.9632 91.7753 66.0664 91.7753 61.1152C91.7753 54.6052 88.4502 51.3502 85.7717 49.2414Z" fill="white"/>
<path d="M84.339 52.9602C82.1223 51.5849 80.1826 50.668 70.9925 50.668H59.4932V52.5018H70.6692C78.7972 52.5018 81.8452 53.923 82.815 54.5189C84.6623 55.6192 87.0637 57.453 87.0637 61.1206C87.0637 63.4587 85.6783 66.4386 83.6001 67.5847C81.7066 68.6391 78.243 69.6019 72.1932 69.6019H34.6936V71.4357H72.2855C79.6284 71.4357 82.1223 70.6105 84.7084 69.1893C87.2946 67.7681 89.0495 64.834 89.0495 61.1206C89.0495 56.9029 86.6943 54.4272 84.339 52.9602Z" fill="white"/>
<path d="M91.6347 73.2637C86.878 69.3669 80.3663 67.4414 72.0536 67.4414H58.1991V70.3296H71.638C78.7038 70.3296 85.0769 71.7967 89.0023 75.1433C92.9278 78.49 95.8834 83.4871 95.8834 89.6303C95.8834 95.5901 93.3434 99.9454 89.2794 103.292C85.2154 106.639 77.9649 108.106 70.7144 108.106H47.3926V110.994H70.8991C79.6274 110.994 86.4623 109.114 91.4038 105.355C96.3452 101.596 98.7929 96.2778 98.7929 89.4469C98.7467 82.5244 96.3914 77.1605 91.6347 73.2637Z" fill="white"/>
<path d="M89.8796 77.382C86.9239 75.1815 83.5527 73.3477 73.9469 73.3477H52.2415V76.1442C52.2415 76.1442 65.1262 76.0525 73.5774 76.1442C81.7516 76.2359 84.7534 77.1528 87.5243 79.17C91.0341 81.7373 93.2509 84.9464 93.2509 89.3933C93.2509 93.7028 91.0341 96.7285 87.4781 99.3417C83.876 102.001 78.3341 102.001 76.0712 102.092C75.24 102.092 64.2025 102.092 64.2025 102.092V104.889C64.2025 104.889 69.6982 104.981 73.0694 104.889C80.828 104.706 85.4461 104.247 89.741 101.084C93.7588 98.1039 95.8832 94.2071 95.8832 89.2558C95.8832 82.7917 92.6043 79.4909 89.8796 77.382Z" fill="white"/>
<path d="M56.8591 86.9181H77.2253V85.3594H56.8591V86.9181Z" fill="white"/>
<path d="M65.2649 92.3764H77.0874V91.0469H65.2649V92.3764Z" fill="white"/>
<path d="M47.3926 86.9181H53.3962V85.3594H47.3926V86.9181Z" fill="white"/>
<path d="M43.6055 92.4689H61.9396V90.9102H43.6055V92.4689Z" fill="white"/>
<path d="M48.1321 52.354H55.2903V51.0703H48.1321V52.354Z" fill="white"/>
<path d="M43.1904 62.8069H59.4926V61.3398H43.1904V62.8069Z" fill="white"/>
<path d="M43.6055 104.701H60.8313V102.867H43.6055V104.701Z" fill="white"/>
<path d="M39.3582 110.802H43.6531V108.098H39.3582V110.802Z" fill="white"/>
<path d="M50.071 58.2209H77.1335V56.7539H50.071V58.2209Z" fill="white"/>
<path d="M63.6023 62.8069H76.6255V61.3398H63.6023V62.8069Z" fill="white"/>
<path d="M88.4488 81.3714C86.2321 80.0419 84.2925 79.125 75.1023 79.125H60.5089V80.9129H74.8252C82.9532 80.9129 86.0474 82.2883 86.971 82.8384C88.7721 83.8929 91.2197 85.635 91.2197 89.2109C91.2197 91.5031 89.8343 94.3455 87.7561 95.4458C85.8627 96.4543 82.399 97.3712 76.3492 97.3712H38.8035V99.1592H76.3954C83.7383 99.1592 86.2321 98.3798 88.8183 97.0045C91.4045 95.6291 93.1132 92.8326 93.1132 89.2109C93.1594 85.2224 90.8041 82.8384 88.4488 81.3714Z" fill="white"/>
<path d="M126.964 77.3837V93.7503H135.97C139.849 93.7503 142.897 93.0168 145.021 91.5497C147.099 90.2202 148.3 87.928 148.254 85.4524C148.254 80.0885 143.682 77.3837 134.584 77.3837H126.964ZM126.964 57.8996V72.57H133.753C137.401 72.57 140.218 71.8823 142.296 70.4611C144.328 69.1775 145.529 66.8852 145.437 64.5013C145.437 60.1002 141.835 57.8538 134.584 57.8538L126.964 57.8996ZM120.314 98.564V53.0859H136.431C141.327 53.0859 145.206 54.0487 148.069 55.9742C150.932 57.8996 152.364 60.4211 152.364 63.4927C152.41 65.9683 151.487 68.3981 149.778 70.2319C148.023 72.1574 145.668 73.4869 142.62 74.3121V74.4496C146.453 74.8164 149.501 75.9625 151.764 77.9338C154.027 79.8135 155.274 82.61 155.181 85.5441C155.181 89.4409 153.426 92.5583 149.963 94.9881C146.499 97.4179 142.112 98.6098 136.801 98.6098H120.314V98.564Z" fill="white"/>
<path d="M162.57 98.5616H169.035V66.1034H162.57V98.5616ZM165.849 57.8055C164.787 57.8514 163.724 57.4846 162.893 56.8428C162.108 56.2926 161.646 55.3758 161.692 54.4589C161.692 53.4961 162.154 52.5792 162.893 52.0291C163.724 51.3873 164.787 51.0205 165.849 51.0663C166.957 51.0205 168.019 51.3873 168.851 52.0291C170.19 52.9918 170.467 54.8256 169.543 56.1551C169.359 56.4302 169.128 56.6594 168.851 56.8428C168.019 57.5305 166.957 57.8514 165.849 57.8055Z" fill="white"/>
<path d="M197.622 98.2441C196.098 98.9317 194.066 99.2526 191.572 99.2526C184.506 99.2526 180.95 96.0894 180.95 89.7169V70.508H174.023V66.061H180.95V58.1299L187.415 56.4336V66.061H197.575V70.508H187.415V88.8C187.415 90.9547 187.877 92.5135 188.801 93.4762C189.724 94.4389 191.248 94.8515 193.373 94.8515C194.851 94.8974 196.328 94.5306 197.575 93.7513L197.622 98.2441Z" fill="white"/>
<path d="M256.411 98.5633H250.361V70.5063C250.407 67.8015 250.546 65.0508 250.869 62.3459H250.731C250.361 63.7213 249.807 65.0966 249.16 66.3803L231.38 98.5175H228.379L210.645 66.6095C209.952 65.2342 209.444 63.813 209.075 62.3001H208.936C209.167 65.0049 209.259 67.7556 209.213 70.5063V98.5175H203.348V56.707H211.43L227.409 85.8643C228.332 87.4689 229.164 89.1652 229.81 90.9073H230.041C231.103 88.615 231.935 86.9188 232.535 85.7726L248.837 56.707H256.457V98.5633" fill="white"/>
<path d="M289.293 82.1073L279.549 83.2076C276.547 83.5285 274.284 84.1245 272.76 84.9955C271.236 85.8666 270.451 87.3795 270.451 89.5342C270.451 91.0929 271.236 92.56 272.576 93.431C273.961 94.4396 275.855 94.9439 278.21 94.9439C281.443 94.9439 284.075 94.027 286.153 92.239C288.185 90.5428 289.34 88.0213 289.293 85.3623V82.1073ZM295.759 98.5656H289.293V93.4768H289.155C286.338 97.3736 282.181 99.2991 276.732 99.2991C272.714 99.2991 269.574 98.4281 267.265 96.7318C265.048 95.1731 263.801 92.6058 263.847 89.9009C263.847 83.8494 268.281 80.3194 277.194 79.3108L289.293 77.9354C289.293 72.4341 286.523 69.6834 280.981 69.6834C276.27 69.6375 271.698 71.0129 267.819 73.6719V68.3539C271.791 66.3367 276.363 65.3281 281.535 65.3281C291.048 65.3281 295.759 69.3625 295.759 77.4312V98.5656Z" fill="white"/>
<path d="M325.776 71.3269C324.622 70.6392 323.005 70.2725 320.881 70.2725C318.202 70.2266 315.662 71.3727 313.954 73.4358C312.106 75.5446 311.183 78.387 311.183 82.0087V98.5587H304.717V66.1006H311.183V72.7939H311.321C312.153 70.6392 313.63 68.7596 315.57 67.4301C317.417 66.1464 319.634 65.5046 321.943 65.5046C323.236 65.4588 324.576 65.5963 325.822 65.9631L325.776 71.3269Z" fill="white"/>
<path d="M348.313 98.2441C346.789 98.9317 344.757 99.2526 342.263 99.2526C335.197 99.2526 331.641 96.0894 331.641 89.7169V70.508H324.714V66.061H331.641V58.1299L338.107 56.4336V66.061H348.267V70.508H338.107V88.8C338.107 90.9547 338.569 92.5135 339.492 93.4762C340.416 94.4389 341.94 94.8515 344.064 94.8515C345.542 94.8974 347.02 94.5306 348.267 93.7513L348.313 98.2441Z" fill="white"/>
</svg>
