<svg width="315" height="80" viewBox="0 0 315 80" fill="none" xmlns="http://www.w3.org/2000/svg">
<g clip-path="url(#clip0_924_209)">
<path d="M31.8864 6.98867C43.7553 6.98867 54.0238 10.1534 62.8255 15.1641L57.7578 24.5263C49.8897 19.9111 41.8216 17.5376 31.8864 17.5376C21.9511 17.5376 13.883 19.9111 6.01482 24.5263L0.947227 15.1641C9.74887 10.1534 20.0174 6.98867 31.8864 6.98867ZM0.947227 64.7443L6.01482 55.3819C13.883 59.9972 22.0845 62.3706 31.5528 62.3706C44.2885 62.3706 53.3569 58.0852 53.3569 52.0194C53.3569 45.9538 44.2885 41.6023 31.4863 41.6023C22.0845 41.6023 13.883 43.976 6.01482 48.591L0.947227 39.2289C9.48214 34.3499 20.0174 31.0534 31.4195 31.0534C50.4231 31.0534 65.0257 40.152 65.0257 52.0194C65.0257 63.887 50.4897 72.9195 31.4863 72.9195C20.0174 72.9195 9.48214 69.623 0.947227 64.7443ZM88.9637 50.1734L97.4984 47.0088C99.2987 52.5468 101.766 55.3161 107.434 55.3161C112.168 55.3161 115.635 53.536 115.635 50.1074C115.635 46.679 112.168 44.9649 108.834 44.2397L102.833 42.855C99.9656 42.1959 90.4305 39.9541 90.4305 30.9876C90.4305 23.4714 96.9649 18.5266 106.633 18.5266C114.502 18.5266 120.303 21.8891 123.037 28.0206L115.435 31.449C113.435 27.5592 111.368 25.5152 107.034 25.5152C102.699 25.5152 99.7657 27.3613 99.7657 30.3941C99.7657 33.0973 101.766 34.8774 105.633 35.8005L112.301 37.3827C118.769 38.8333 124.903 42.1959 124.903 49.5801C124.903 57.36 118.036 62.6343 107.567 62.6343C97.8985 62.6343 91.0973 58.0852 88.9637 50.1734ZM130.705 19.5155H139.706V27.625H140.24C142.974 20.7023 148.308 18.5266 153.842 18.5266C165.445 18.5266 173.713 27.4932 173.713 40.6134C173.713 53.7337 165.578 62.6343 154.842 62.6343C148.375 62.6343 142.84 59.4697 140.373 53.536H139.906V78.3917H130.705V19.5155ZM163.977 40.4815C163.977 31.6467 159.377 26.1745 152.175 26.1745C144.974 26.1745 140.04 31.8446 140.04 40.4157C140.04 48.9866 144.707 54.8545 152.175 54.8545C159.643 54.8545 163.977 49.2503 163.977 40.4815ZM179.447 19.5155H188.382V27.625H188.782C191.849 20.5704 197.45 17.8013 205.385 19.3837V27.8227C195.783 25.1197 188.516 30.4601 188.516 41.2728V61.6454H179.447V19.5155ZM208.986 6.32937C208.919 2.63724 211.52 0 215.254 0C218.788 0 221.521 2.63724 221.521 6.32937C221.521 10.0215 218.788 12.4609 215.254 12.4609C211.72 12.4609 209.053 9.95556 208.986 6.32937ZM210.586 19.5155H219.854V61.5794H210.586V19.5155ZM228.656 19.5155H237.658V26.768H237.925C240.192 22.4824 244.993 18.5266 251.794 18.5266C260.595 18.5266 266.531 25.3834 266.531 36.1301V61.6454H257.328V36.4599C257.328 30.2622 254.461 26.5043 248.66 26.5043C242.459 26.5043 237.858 31.3172 237.858 37.8444V61.6454H228.656V19.5155ZM272.998 66.2606L281.199 64.0188C282.467 69.1615 286.601 71.9966 292.735 71.9966C300.604 71.9966 305.004 67.5133 305.004 59.9311V51.8877H304.404C301.869 57.7554 296.336 60.9203 290.2 60.9203C279.466 60.9203 271.798 52.2173 271.798 39.8222C271.798 27.4274 279.398 18.5266 291.067 18.5266C296.535 18.5266 301.869 20.7023 304.605 27.625H305.205V19.5155H314.139V59.9311C314.139 72.0624 305.938 79.8423 292.735 79.8423C282.467 79.8423 275.332 74.7657 272.998 66.2606ZM304.871 39.6903C304.871 31.8446 300.27 26.1745 292.868 26.1745C285.868 26.1745 281.533 31.6467 281.533 39.6903C281.533 47.7339 285.868 53.1404 292.868 53.1404C300.27 53.1404 304.871 47.4702 304.871 39.6903Z" fill="white"/>
</g>
<defs>
<clipPath id="clip0_924_209">
<rect width="313.191" height="80" fill="white" transform="translate(0.947266)"/>
</clipPath>
</defs>
</svg>
