<svg width="368" height="94" viewBox="0 0 368 94" fill="none" xmlns="http://www.w3.org/2000/svg">
<g clip-path="url(#clip0_662_757)">
<path d="M36.3535 8.21169C50.2995 8.21169 62.365 11.9302 72.707 17.8178L66.7524 28.8184C57.5074 23.3956 48.0274 20.6067 36.3535 20.6067C24.6796 20.6067 15.1995 23.3956 5.95442 28.8184L0 17.8178C10.3419 11.9302 22.4075 8.21169 36.3535 8.21169ZM0 76.0745L5.95442 65.0738C15.1995 70.4967 24.8363 73.2854 35.9616 73.2854C50.926 73.2854 61.5814 68.2501 61.5814 61.1227C61.5814 53.9957 50.926 48.8827 35.8834 48.8827C24.8363 48.8827 15.1995 51.6718 5.95442 57.0944L0 46.094C10.0285 40.3612 22.4075 36.4878 35.8049 36.4878C58.1342 36.4878 75.2922 47.1786 75.2922 61.1227C75.2922 75.0672 58.2124 85.6804 35.8834 85.6804C22.4075 85.6804 10.0285 81.807 0 76.0745ZM103.419 58.9538L113.448 55.2353C115.563 61.7425 118.462 64.9965 125.122 64.9965C130.684 64.9965 134.758 62.9048 134.758 58.8761C134.758 54.8478 130.684 52.8338 126.767 51.9817L119.716 50.3546C116.347 49.5802 105.143 46.946 105.143 36.4104C105.143 27.5789 112.821 21.7687 124.181 21.7687C133.426 21.7687 140.243 25.7196 143.455 32.9243L134.523 36.9526C132.173 32.3821 129.744 29.9804 124.651 29.9804C119.559 29.9804 116.112 32.1495 116.112 35.713C116.112 38.8893 118.462 40.981 123.006 42.0656L130.841 43.9247C138.441 45.6291 145.649 49.5802 145.649 58.2567C145.649 67.398 137.579 73.5953 125.278 73.5953C113.918 73.5953 105.926 68.2501 103.419 58.9538ZM152.465 22.9308H163.042V32.4594H163.669C166.881 24.3252 173.149 21.7687 179.652 21.7687C193.284 21.7687 202.999 32.3045 202.999 47.7208C202.999 63.1371 193.441 73.5953 180.827 73.5953C173.227 73.5953 166.724 69.8769 163.825 62.9048H163.277V92.1103H152.465V22.9308ZM191.561 47.5658C191.561 37.1849 186.155 30.755 177.693 30.755C169.232 30.755 163.434 37.4175 163.434 47.4885C163.434 57.5592 168.918 64.454 177.693 64.454C186.468 64.454 191.561 57.8691 191.561 47.5658ZM209.737 22.9308H220.236V32.4594H220.706C224.31 24.1703 230.891 20.9166 240.215 22.7758V32.6917C228.933 29.5156 220.393 35.7907 220.393 48.4955V72.4334H209.737V22.9308ZM244.446 7.43701C244.367 3.09876 247.423 0 251.81 0C255.962 0 259.175 3.09876 259.175 7.43701C259.175 11.7753 255.962 14.6416 251.81 14.6416C247.658 14.6416 244.524 11.6978 244.446 7.43701ZM246.326 22.9308H257.216V72.3557H246.326V22.9308ZM267.558 22.9308H278.135V31.4524H278.448C281.112 26.4169 286.753 21.7687 294.745 21.7687C305.087 21.7687 312.061 29.8255 312.061 42.4528V72.4334H301.248V42.8403C301.248 35.5581 297.879 31.1425 291.062 31.1425C283.776 31.1425 278.37 36.7977 278.37 44.4672V72.4334H267.558V22.9308ZM319.66 77.8563L329.296 75.2221C330.786 81.2648 335.644 84.5961 342.85 84.5961C352.096 84.5961 357.267 79.3281 357.267 70.419V60.9681H356.561C353.584 67.8625 347.082 71.5813 339.873 71.5813C327.259 71.5813 318.249 61.3553 318.249 46.7911C318.249 32.2271 327.18 21.7687 340.891 21.7687C347.315 21.7687 353.584 24.3252 356.797 32.4594H357.503V22.9308H368V70.419C368 84.6734 358.365 93.8147 342.85 93.8147C330.786 93.8147 322.402 87.8497 319.66 77.8563ZM357.11 46.6361C357.11 37.4175 351.704 30.755 343.007 30.755C334.782 30.755 329.688 37.1849 329.688 46.6361C329.688 56.0874 334.782 62.44 343.007 62.44C351.704 62.44 357.11 55.7775 357.11 46.6361Z" fill="white"/>
</g>
<defs>
<clipPath id="clip0_662_757">
<rect width="368" height="94" fill="white"/>
</clipPath>
</defs>
</svg>
