<svg width="386" height="154" viewBox="0 0 386 154" fill="none" xmlns="http://www.w3.org/2000/svg">
<path d="M384.999 37.1808V30.41H376.591V19.884L376.308 19.9712L368.411 22.3875L368.255 22.4348V30.4104H355.79V25.9673C355.79 23.8984 356.253 22.3152 357.165 21.2594C358.07 20.2162 359.365 19.6859 361.017 19.6859C362.204 19.6859 363.433 19.9656 364.671 20.5171L364.981 20.6557V13.5251L364.835 13.4715C363.681 13.0566 362.111 12.8477 360.165 12.8477C357.712 12.8477 355.484 13.3814 353.541 14.4391C351.596 15.4983 350.067 17.0103 348.995 18.9328C347.928 20.8531 347.386 23.0709 347.386 25.5252V30.41H341.531V37.1808H347.386V65.705H355.79V37.1808H368.255V55.3075C368.255 62.7728 371.777 66.556 378.721 66.556C379.862 66.556 381.064 66.4223 382.29 66.1605C383.538 65.8916 384.389 65.6231 384.889 65.3363L385 65.2707V58.4374L384.658 58.6634C384.202 58.9673 383.634 59.2157 382.968 59.4005C382.299 59.5885 381.74 59.6828 381.307 59.6828C379.681 59.6828 378.477 59.2444 377.73 58.3793C376.975 57.5063 376.592 55.9797 376.592 53.8442V37.1808H384.999ZM322.762 59.6839C319.711 59.6839 317.306 58.6724 315.611 56.6799C313.906 54.6773 313.042 51.8222 313.042 48.1948C313.042 44.4522 313.906 41.523 315.612 39.4851C317.308 37.4605 319.69 36.433 322.693 36.433C325.608 36.433 327.928 37.4144 329.589 39.3514C331.259 41.2984 332.107 44.2042 332.107 47.9903C332.107 51.823 331.31 54.767 329.738 56.7365C328.178 58.691 325.83 59.6839 322.762 59.6839ZM323.136 29.5598C317.316 29.5598 312.693 31.2651 309.397 34.6286C306.103 37.9924 304.433 42.6474 304.433 48.4655C304.433 53.9916 306.063 58.4366 309.279 61.6749C312.494 64.9143 316.87 66.5553 322.285 66.5553C327.926 66.5553 332.457 64.8261 335.751 61.4161C339.045 58.0098 340.714 53.3987 340.714 47.7166C340.714 42.104 339.148 37.6259 336.058 34.4092C332.967 31.191 328.618 29.5598 323.136 29.5598ZM290.882 29.5598C286.923 29.5598 283.648 30.5724 281.147 32.569C278.63 34.5775 277.353 37.2118 277.353 40.3994C277.353 42.0563 277.629 43.5282 278.171 44.7766C278.717 46.0291 279.561 47.1318 280.683 48.0573C281.796 48.9754 283.514 49.937 285.791 50.9154C287.706 51.7031 289.133 52.3693 290.04 52.8945C290.927 53.4092 291.556 53.9265 291.911 54.4304C292.256 54.9235 292.431 55.5983 292.431 56.4311C292.431 58.8023 290.655 59.9561 287.001 59.9561C285.646 59.9561 284.1 59.6731 282.407 59.1152C280.725 58.5657 279.138 57.7611 277.702 56.7294L277.353 56.4791V64.5709L277.481 64.6305C278.67 65.1795 280.169 65.6424 281.936 66.0067C283.7 66.3713 285.303 66.5567 286.695 66.5567C290.991 66.5567 294.45 65.5393 296.975 63.5307C299.515 61.5084 300.803 58.812 300.803 55.5141C300.803 53.1351 300.11 51.0949 298.743 49.4495C297.387 47.8175 295.032 46.3192 291.747 44.9948C289.131 43.9446 287.454 43.0727 286.763 42.4034C286.096 41.7569 285.758 40.8426 285.758 39.6847C285.758 38.6583 286.175 37.8359 287.033 37.17C287.898 36.5008 289.101 36.1604 290.61 36.1604C292.01 36.1604 293.443 36.3816 294.868 36.8151C296.292 37.2486 297.542 37.8292 298.586 38.5395L298.93 38.7741V31.0983L298.798 31.0417C297.835 30.6287 296.565 30.2752 295.022 29.9884C293.487 29.7035 292.094 29.5598 290.882 29.5598ZM255.443 59.6839C252.393 59.6839 249.987 58.6724 248.292 56.6799C246.587 54.6773 245.724 51.823 245.724 48.1948C245.724 44.4522 246.588 41.523 248.294 39.4851C249.989 37.4605 252.371 36.433 255.375 36.433C258.289 36.433 260.608 37.4144 262.271 39.3514C263.941 41.2984 264.788 44.2042 264.788 47.9903C264.788 51.823 263.991 54.767 262.419 56.7365C260.858 58.691 258.512 59.6839 255.443 59.6839ZM255.817 29.5598C249.996 29.5598 245.373 31.2651 242.079 34.6286C238.785 37.9924 237.114 42.6474 237.114 48.4655C237.114 53.9939 238.745 58.4366 241.961 61.6749C245.176 64.9143 249.552 66.5553 254.966 66.5553C260.607 66.5553 265.139 64.8261 268.433 61.4161C271.727 58.0098 273.396 53.3987 273.396 47.7166C273.396 42.104 271.83 37.6259 268.739 34.4092C265.647 31.191 261.299 29.5598 255.817 29.5598ZM224.356 36.5224V30.41H216.054V65.7042H224.356V47.6499C224.356 44.5799 225.052 42.0578 226.426 40.1528C227.782 38.2706 229.589 37.3168 231.795 37.3168C232.543 37.3168 233.382 37.4401 234.291 37.684C235.191 37.9264 235.843 38.1898 236.227 38.4668L236.576 38.7197V30.3497L236.442 30.292C235.669 29.9635 234.575 29.7978 233.191 29.7978C231.104 29.7978 229.237 30.4681 227.638 31.788C226.234 32.9482 225.22 34.5388 224.444 36.5224H224.356ZM201.186 29.5598C197.377 29.5598 193.98 30.3765 191.09 31.9865C188.194 33.6003 185.955 35.9041 184.431 38.8337C182.914 41.7562 182.144 45.1699 182.144 48.9769C182.144 52.3116 182.891 55.3719 184.367 58.069C185.844 60.7706 187.934 62.8842 190.579 64.3501C193.221 65.8141 196.275 66.5564 199.656 66.5564C203.601 66.5564 206.97 65.7676 209.671 64.2119L209.78 64.1493V56.5432L209.431 56.7979C208.208 57.6891 206.84 58.4005 205.369 58.913C203.902 59.4251 202.564 59.6839 201.391 59.6839C198.133 59.6839 195.518 58.6645 193.62 56.6549C191.717 54.6427 190.753 51.817 190.753 48.2614C190.753 44.6835 191.759 41.7852 193.741 39.6467C195.718 37.5145 198.338 36.433 201.528 36.433C204.257 36.433 206.916 37.357 209.432 39.1819L209.78 39.4348V31.4204L209.668 31.3571C208.721 30.8272 207.43 30.3895 205.827 30.0577C204.23 29.7266 202.669 29.5598 201.186 29.5598ZM176.426 30.4104H168.124V65.7042H176.426V30.4104ZM172.36 15.375C170.994 15.375 169.802 15.8401 168.823 16.7619C167.839 17.6863 167.341 18.8501 167.341 20.2237C167.341 21.5756 167.833 22.7182 168.807 23.618C169.775 24.5152 170.97 24.9699 172.36 24.9699C173.75 24.9699 174.95 24.5152 175.929 23.6195C176.914 22.7182 177.414 21.576 177.414 20.2237C177.414 18.8982 176.928 17.7462 175.97 16.7992C175.012 15.8539 173.797 15.375 172.36 15.375ZM151.645 27.8064V65.7042H160.118V16.4554H148.391L133.486 53.036L119.021 16.4554H106.817V65.7039H114.779V27.8026H115.052L130.327 65.7042H136.336L151.372 27.8064H151.645Z" fill="white"/>
<path d="M39.0561 39.0561H0V0H39.0561V39.0561Z" fill="#F1511B"/>
<path d="M82.1785 39.0561H43.123V0H82.1785V39.0561Z" fill="#80CC28"/>
<path d="M39.055 82.1925H0V43.1367H39.055V82.1925Z" fill="#00ADEF"/>
<path d="M82.1785 82.1925H43.123V43.1367H82.1785V82.1925Z" fill="#FBBC09"/>
<path d="M121.447 112.296H115.927V135H111.559V112.296H108.151V108.696H111.559V106.824C111.559 103.88 112.311 101.736 113.815 100.392C115.351 99.016 117.799 98.328 121.159 98.328V101.976C119.239 101.976 117.879 102.36 117.079 103.128C116.311 103.864 115.927 105.096 115.927 106.824V108.696H121.447V112.296ZM138.012 135.432C135.548 135.432 133.308 134.872 131.292 133.752C129.308 132.632 127.74 131.048 126.588 129C125.468 126.92 124.908 124.52 124.908 121.8C124.908 119.112 125.484 116.744 126.636 114.696C127.82 112.616 129.42 111.032 131.436 109.944C133.452 108.824 135.708 108.264 138.204 108.264C140.7 108.264 142.956 108.824 144.972 109.944C146.988 111.032 148.572 112.6 149.724 114.648C150.908 116.696 151.5 119.08 151.5 121.8C151.5 124.52 150.892 126.92 149.676 129C148.492 131.048 146.876 132.632 144.828 133.752C142.78 134.872 140.508 135.432 138.012 135.432ZM138.012 131.592C139.58 131.592 141.052 131.224 142.428 130.488C143.804 129.752 144.908 128.648 145.74 127.176C146.604 125.704 147.036 123.912 147.036 121.8C147.036 119.688 146.62 117.896 145.788 116.424C144.956 114.952 143.868 113.864 142.524 113.16C141.18 112.424 139.724 112.056 138.156 112.056C136.556 112.056 135.084 112.424 133.74 113.16C132.428 113.864 131.372 114.952 130.572 116.424C129.772 117.896 129.372 119.688 129.372 121.8C129.372 123.944 129.756 125.752 130.524 127.224C131.324 128.696 132.38 129.8 133.692 130.536C135.004 131.24 136.444 131.592 138.012 131.592ZM161.611 112.968C162.379 111.464 163.467 110.296 164.875 109.464C166.315 108.632 168.059 108.216 170.107 108.216V112.728H168.955C164.059 112.728 161.611 115.384 161.611 120.696V135H157.243V108.696H161.611V112.968ZM198.554 135.336C196.346 135.336 194.362 134.952 192.602 134.184C190.874 133.384 189.514 132.296 188.522 130.92C187.53 129.512 187.018 127.896 186.986 126.072H191.642C191.802 127.64 192.442 128.968 193.562 130.056C194.714 131.112 196.378 131.64 198.554 131.64C200.634 131.64 202.266 131.128 203.45 130.104C204.666 129.048 205.274 127.704 205.274 126.072C205.274 124.792 204.922 123.752 204.218 122.952C203.514 122.152 202.634 121.544 201.578 121.128C200.522 120.712 199.098 120.264 197.306 119.784C195.098 119.208 193.322 118.632 191.978 118.056C190.666 117.48 189.53 116.584 188.57 115.368C187.642 114.12 187.178 112.456 187.178 110.376C187.178 108.552 187.642 106.936 188.57 105.528C189.498 104.12 190.794 103.032 192.458 102.264C194.154 101.496 196.09 101.112 198.266 101.112C201.402 101.112 203.962 101.896 205.946 103.464C207.962 105.032 209.098 107.112 209.354 109.704H204.554C204.394 108.424 203.722 107.304 202.538 106.344C201.354 105.352 199.786 104.856 197.834 104.856C196.01 104.856 194.522 105.336 193.37 106.296C192.218 107.224 191.642 108.536 191.642 110.232C191.642 111.448 191.978 112.44 192.65 113.208C193.354 113.976 194.202 114.568 195.194 114.984C196.218 115.368 197.642 115.816 199.466 116.328C201.674 116.936 203.45 117.544 204.794 118.152C206.138 118.728 207.29 119.64 208.25 120.888C209.21 122.104 209.69 123.768 209.69 125.88C209.69 127.512 209.258 129.048 208.394 130.488C207.53 131.928 206.25 133.096 204.554 133.992C202.858 134.888 200.858 135.336 198.554 135.336ZM221.446 112.296V127.8C221.446 129.08 221.718 129.992 222.262 130.536C222.806 131.048 223.75 131.304 225.094 131.304H228.31V135H224.374C221.942 135 220.118 134.44 218.902 133.32C217.686 132.2 217.078 130.36 217.078 127.8V112.296H213.67V108.696H217.078V102.072H221.446V108.696H228.31V112.296H221.446ZM231.97 121.752C231.97 119.064 232.514 116.712 233.602 114.696C234.69 112.648 236.178 111.064 238.066 109.944C239.986 108.824 242.114 108.264 244.45 108.264C246.754 108.264 248.754 108.76 250.45 109.752C252.146 110.744 253.41 111.992 254.242 113.496V108.696H258.658V135H254.242V130.104C253.378 131.64 252.082 132.92 250.354 133.944C248.658 134.936 246.674 135.432 244.402 135.432C242.066 135.432 239.954 134.856 238.066 133.704C236.178 132.552 234.69 130.936 233.602 128.856C232.514 126.776 231.97 124.408 231.97 121.752ZM254.242 121.8C254.242 119.816 253.842 118.088 253.042 116.616C252.242 115.144 251.154 114.024 249.778 113.256C248.434 112.456 246.946 112.056 245.314 112.056C243.682 112.056 242.194 112.44 240.85 113.208C239.506 113.976 238.434 115.096 237.634 116.568C236.834 118.04 236.434 119.768 236.434 121.752C236.434 123.768 236.834 125.528 237.634 127.032C238.434 128.504 239.506 129.64 240.85 130.44C242.194 131.208 243.682 131.592 245.314 131.592C246.946 131.592 248.434 131.208 249.778 130.44C251.154 129.64 252.242 128.504 253.042 127.032C253.842 125.528 254.242 123.784 254.242 121.8ZM270.408 112.968C271.176 111.464 272.264 110.296 273.672 109.464C275.112 108.632 276.856 108.216 278.904 108.216V112.728H277.752C272.856 112.728 270.408 115.384 270.408 120.696V135H266.04V108.696H270.408V112.968ZM289.274 112.296V127.8C289.274 129.08 289.546 129.992 290.09 130.536C290.634 131.048 291.578 131.304 292.922 131.304H296.138V135H292.202C289.77 135 287.946 134.44 286.73 133.32C285.514 132.2 284.906 130.36 284.906 127.8V112.296H281.498V108.696H284.906V102.072H289.274V108.696H296.138V112.296H289.274ZM324.758 108.696V135H320.39V131.112C319.558 132.456 318.39 133.512 316.886 134.28C315.414 135.016 313.782 135.384 311.99 135.384C309.942 135.384 308.102 134.968 306.47 134.136C304.838 133.272 303.542 131.992 302.582 130.296C301.654 128.6 301.19 126.536 301.19 124.104V108.696H305.51V123.528C305.51 126.12 306.166 128.12 307.478 129.528C308.79 130.904 310.582 131.592 312.854 131.592C315.19 131.592 317.03 130.872 318.374 129.432C319.718 127.992 320.39 125.896 320.39 123.144V108.696H324.758ZM336.502 113.544C337.366 112.04 338.646 110.792 340.342 109.8C342.07 108.776 344.07 108.264 346.342 108.264C348.678 108.264 350.79 108.824 352.677 109.944C354.597 111.064 356.102 112.648 357.19 114.696C358.278 116.712 358.822 119.064 358.822 121.752C358.822 124.408 358.278 126.776 357.19 128.856C356.102 130.936 354.597 132.552 352.677 133.704C350.79 134.856 348.678 135.432 346.342 135.432C344.102 135.432 342.118 134.936 340.39 133.944C338.694 132.92 337.398 131.656 336.502 130.152V147.48H332.134V108.696H336.502V113.544ZM354.358 121.752C354.358 119.768 353.958 118.04 353.158 116.568C352.358 115.096 351.27 113.976 349.894 113.208C348.55 112.44 347.062 112.056 345.43 112.056C343.83 112.056 342.342 112.456 340.966 113.256C339.622 114.024 338.534 115.16 337.702 116.664C336.902 118.136 336.502 119.848 336.502 121.8C336.502 123.784 336.902 125.528 337.702 127.032C338.534 128.504 339.622 129.64 340.966 130.44C342.342 131.208 343.83 131.592 345.43 131.592C347.062 131.592 348.55 131.208 349.894 130.44C351.27 129.64 352.358 128.504 353.158 127.032C353.958 125.528 354.358 123.768 354.358 121.752ZM373.883 135.432C371.867 135.432 370.059 135.096 368.459 134.424C366.859 133.72 365.595 132.76 364.667 131.544C363.739 130.296 363.227 128.872 363.131 127.272H367.643C367.771 128.584 368.379 129.656 369.467 130.488C370.587 131.32 372.043 131.736 373.835 131.736C375.499 131.736 376.811 131.368 377.771 130.632C378.731 129.896 379.211 128.968 379.211 127.848C379.211 126.696 378.699 125.848 377.675 125.304C376.651 124.728 375.067 124.168 372.923 123.624C370.971 123.112 369.371 122.6 368.123 122.088C366.907 121.544 365.851 120.76 364.955 119.736C364.091 118.68 363.659 117.304 363.659 115.608C363.659 114.264 364.059 113.032 364.859 111.912C365.659 110.792 366.795 109.912 368.267 109.272C369.739 108.6 371.419 108.264 373.307 108.264C376.219 108.264 378.571 109 380.363 110.472C382.155 111.944 383.115 113.96 383.243 116.52H378.875C378.779 115.144 378.219 114.04 377.195 113.208C376.203 112.376 374.859 111.96 373.163 111.96C371.595 111.96 370.347 112.296 369.419 112.968C368.491 113.64 368.027 114.52 368.027 115.608C368.027 116.472 368.299 117.192 368.843 117.768C369.419 118.312 370.123 118.76 370.955 119.112C371.819 119.432 373.003 119.8 374.507 120.216C376.395 120.728 377.931 121.24 379.115 121.752C380.299 122.232 381.307 122.968 382.139 123.96C383.003 124.952 383.451 126.248 383.483 127.848C383.483 129.288 383.083 130.584 382.283 131.736C381.483 132.888 380.347 133.8 378.875 134.472C377.435 135.112 375.771 135.432 373.883 135.432Z" fill="#D2D2D2"/>
</svg>
