<svg width="352" height="140" viewBox="0 0 352 140" fill="none" xmlns="http://www.w3.org/2000/svg">
<path d="M350.541 33.8086V27.6533H342.897V18.0842L342.64 18.1634L335.461 20.3601L335.319 20.4031V27.6536H323.987V23.6144C323.987 21.7337 324.408 20.2944 325.237 19.3345C326.06 18.3862 327.237 17.9041 328.739 17.9041C329.818 17.9041 330.936 18.1583 332.06 18.6598L332.342 18.7857V12.3034L332.21 12.2546C331.16 11.8774 329.733 11.6875 327.964 11.6875C325.735 11.6875 323.709 12.1727 321.942 13.1342C320.175 14.0971 318.784 15.4717 317.81 17.2195C316.839 18.9652 316.347 20.9814 316.347 23.2126V27.6533H311.024V33.8086H316.347V59.7396H323.987V33.8086H335.319V50.2873C335.319 57.074 338.52 60.5133 344.834 60.5133C345.871 60.5133 346.963 60.3917 348.078 60.1537C349.213 59.9093 349.986 59.6651 350.441 59.4044L350.541 59.3449V53.1327L350.231 53.3382C349.816 53.6145 349.3 53.8403 348.694 54.0082C348.086 54.1792 347.578 54.2649 347.185 54.2649C345.706 54.2649 344.612 53.8664 343.933 53.0799C343.246 52.2863 342.898 50.8984 342.898 48.9571V33.8086H350.541ZM293.962 54.2659C291.188 54.2659 289.002 53.3463 287.461 51.535C285.911 49.7144 285.125 47.1189 285.125 43.8212C285.125 40.4189 285.911 37.756 287.462 35.9033C289.004 34.0628 291.169 33.1287 293.899 33.1287C296.549 33.1287 298.658 34.0209 300.168 35.7818C301.687 37.5519 302.457 40.1934 302.457 43.6354C302.457 47.1196 301.733 49.796 300.304 51.5864C298.885 53.3633 296.751 54.2659 293.962 54.2659ZM294.301 26.8803C289.01 26.8803 284.808 28.4307 281.812 31.4883C278.817 34.5463 277.299 38.7782 277.299 44.0674C277.299 49.0911 278.781 53.132 281.704 56.0759C284.628 59.0208 288.606 60.5126 293.528 60.5126C298.656 60.5126 302.775 58.9406 305.77 55.8406C308.765 52.744 310.282 48.5521 310.282 43.3865C310.282 38.2842 308.858 34.2132 306.049 31.2889C303.239 28.3633 299.285 26.8803 294.301 26.8803ZM264.98 26.8803C261.381 26.8803 258.404 27.8009 256.13 29.616C253.842 31.4419 252.681 33.8367 252.681 36.7345C252.681 38.2409 252.932 39.5789 253.425 40.7138C253.921 41.8524 254.688 42.8549 255.708 43.6963C256.72 44.5309 258.282 45.4051 260.352 46.2945C262.092 47.0106 263.39 47.6163 264.215 48.0937C265.02 48.5616 265.592 49.0319 265.915 49.49C266.229 49.9382 266.388 50.5517 266.388 51.3088C266.388 53.4645 264.774 54.5134 261.452 54.5134C260.22 54.5134 258.815 54.2561 257.275 53.7489C255.747 53.2494 254.304 52.5179 252.998 51.58L252.68 51.3525V58.7087L252.797 58.7628C253.878 59.2619 255.241 59.6827 256.848 60.0139C258.451 60.3453 259.908 60.5139 261.173 60.5139C265.079 60.5139 268.224 59.589 270.519 57.763C272.828 55.9246 273.999 53.4733 273.999 50.4752C273.999 48.3124 273.369 46.4577 272.127 44.9619C270.893 43.4783 268.752 42.1162 265.767 40.9122C263.388 39.9574 261.864 39.1648 261.235 38.5564C260.629 37.9686 260.321 37.1374 260.321 36.0848C260.321 35.1517 260.701 34.4041 261.481 33.7988C262.267 33.1903 263.361 32.8809 264.733 32.8809C266.006 32.8809 267.308 33.082 268.603 33.4761C269.898 33.8702 271.035 34.398 271.984 35.0437L272.296 35.257V28.279L272.176 28.2275C271.301 27.852 270.146 27.5307 268.744 27.27C267.348 27.011 266.081 26.8803 264.98 26.8803ZM232.762 54.2659C229.99 54.2659 227.803 53.3463 226.262 51.535C224.711 49.7144 223.927 47.1196 223.927 43.8212C223.927 40.4189 224.712 37.756 226.264 35.9033C227.804 34.0628 229.969 33.1287 232.701 33.1287C235.349 33.1287 237.458 34.0209 238.969 35.7818C240.488 37.5519 241.258 40.1934 241.258 43.6354C241.258 47.1196 240.533 49.796 239.105 51.5864C237.686 53.3633 235.553 54.2659 232.762 54.2659ZM233.103 26.8803C227.811 26.8803 223.608 28.4307 220.613 31.4883C217.619 34.5463 216.1 38.7782 216.1 44.0674C216.1 49.0932 217.583 53.132 220.506 56.0759C223.429 59.0208 227.407 60.5126 232.329 60.5126C237.457 60.5126 241.577 58.9406 244.572 55.8406C247.566 52.744 249.084 48.5521 249.084 43.3865C249.084 38.2842 247.66 34.2132 244.85 31.2889C242.039 28.3633 238.086 26.8803 233.103 26.8803ZM204.502 33.21V27.6533H196.954V59.739H204.502V43.3259C204.502 40.535 205.134 38.2422 206.383 36.5104C207.616 34.7992 209.259 33.9322 211.264 33.9322C211.944 33.9322 212.707 34.0442 213.534 34.266C214.352 34.4864 214.944 34.7258 215.294 34.9777L215.611 35.2076V27.5985L215.489 27.546C214.786 27.2474 213.791 27.0967 212.533 27.0967C210.637 27.0967 208.939 27.7061 207.485 28.906C206.209 29.9607 205.287 31.4067 204.582 33.21H204.502ZM183.438 26.8803C179.975 26.8803 176.887 27.6228 174.26 29.0865C171.627 30.5535 169.592 32.6479 168.206 35.3112C166.827 37.968 166.127 41.0713 166.127 44.5322C166.127 47.5638 166.806 50.3459 168.148 52.7978C169.49 55.2539 171.39 57.1753 173.796 58.5079C176.197 59.8388 178.973 60.5136 182.047 60.5136C185.634 60.5136 188.696 59.7965 191.152 58.3823L191.251 58.3254V51.4107L190.934 51.6423C189.821 52.4525 188.578 53.0992 187.241 53.5651C185.907 54.0306 184.691 54.2659 183.624 54.2659C180.663 54.2659 178.285 53.3392 176.56 51.5123C174.83 49.683 173.953 47.1142 173.953 43.8818C173.953 40.6292 174.868 37.9944 176.67 36.0503C178.467 34.1119 180.849 33.1287 183.749 33.1287C186.23 33.1287 188.647 33.9687 190.934 35.6277L191.251 35.8576V28.5719L191.149 28.5143C190.288 28.0325 189.114 27.6347 187.657 27.333C186.206 27.032 184.786 26.8803 183.438 26.8803ZM160.929 27.6536H153.382V59.739H160.929V27.6536ZM157.233 13.9851C155.99 13.9851 154.907 14.4079 154.017 15.2459C153.123 16.0863 152.67 17.1443 152.67 18.393C152.67 19.622 153.118 20.6607 154.003 21.4787C154.883 22.2943 155.969 22.7077 157.233 22.7077C158.496 22.7077 159.587 22.2943 160.477 21.4801C161.373 20.6607 161.827 19.6223 161.827 18.393C161.827 17.188 161.385 16.1408 160.514 15.2798C159.644 14.4205 158.539 13.9851 157.233 13.9851ZM138.401 25.2863V59.739H146.104V14.9673H135.443L121.893 48.2224L108.743 14.9673H97.6479V59.7386H104.886V25.2829H105.135L119.021 59.739H124.483L138.153 25.2863H138.401Z" fill="white"/>
<path d="M36.047 35.5134H0.541382V0.0078125H36.047V35.5134Z" fill="#F1511B"/>
<path d="M75.2491 35.5134H39.7441V0.0078125H75.2491V35.5134Z" fill="#80CC28"/>
<path d="M36.046 74.7279H0.541382V39.2227H36.046V74.7279Z" fill="#00ADEF"/>
<path d="M75.2491 74.7279H39.7441V39.2227H75.2491V74.7279Z" fill="#FBBC09"/>
<path d="M111.129 101.903H106.111V122.543H102.14V101.903H99.0422V98.6302H102.14V96.9284C102.14 94.2521 102.824 92.303 104.191 91.0812C105.588 89.8302 107.813 89.2048 110.868 89.2048V92.5212C109.122 92.5212 107.886 92.8702 107.159 93.5684C106.46 94.2375 106.111 95.3575 106.111 96.9284V98.6302H111.129V101.903ZM126.188 122.936C123.948 122.936 121.912 122.427 120.079 121.408C118.276 120.39 116.85 118.95 115.803 117.088C114.785 115.198 114.276 113.016 114.276 110.543C114.276 108.099 114.799 105.947 115.847 104.085C116.923 102.194 118.378 100.754 120.21 99.7648C122.043 98.7466 124.094 98.2375 126.363 98.2375C128.632 98.2375 130.683 98.7466 132.516 99.7648C134.348 100.754 135.788 102.179 136.836 104.041C137.912 105.903 138.45 108.07 138.45 110.543C138.45 113.016 137.898 115.198 136.792 117.088C135.716 118.95 134.247 120.39 132.385 121.408C130.523 122.427 128.458 122.936 126.188 122.936ZM126.188 119.445C127.614 119.445 128.952 119.11 130.203 118.441C131.454 117.772 132.458 116.768 133.214 115.43C133.999 114.092 134.392 112.463 134.392 110.543C134.392 108.623 134.014 106.994 133.258 105.656C132.501 104.318 131.512 103.328 130.29 102.688C129.068 102.019 127.745 101.685 126.319 101.685C124.865 101.685 123.527 102.019 122.305 102.688C121.112 103.328 120.152 104.318 119.425 105.656C118.698 106.994 118.334 108.623 118.334 110.543C118.334 112.492 118.683 114.136 119.381 115.474C120.108 116.812 121.068 117.816 122.261 118.485C123.454 119.125 124.763 119.445 126.188 119.445ZM147.642 102.514C148.34 101.147 149.329 100.085 150.609 99.3284C151.919 98.5721 153.504 98.1939 155.366 98.1939V102.296H154.319C149.868 102.296 147.642 104.71 147.642 109.539V122.543H143.671V98.6302H147.642V102.514ZM181.227 122.848C179.22 122.848 177.416 122.499 175.816 121.801C174.245 121.074 173.009 120.085 172.107 118.834C171.205 117.554 170.74 116.085 170.71 114.427H174.943C175.089 115.852 175.67 117.059 176.689 118.048C177.736 119.008 179.249 119.488 181.227 119.488C183.118 119.488 184.601 119.023 185.678 118.092C186.783 117.132 187.336 115.91 187.336 114.427C187.336 113.263 187.016 112.318 186.376 111.59C185.736 110.863 184.936 110.31 183.976 109.932C183.016 109.554 181.721 109.147 180.092 108.71C178.085 108.187 176.47 107.663 175.249 107.139C174.056 106.616 173.023 105.801 172.15 104.696C171.307 103.561 170.885 102.048 170.885 100.158C170.885 98.4993 171.307 97.0302 172.15 95.7502C172.994 94.4702 174.172 93.4812 175.685 92.783C177.227 92.0848 178.987 91.7357 180.965 91.7357C183.816 91.7357 186.143 92.4484 187.947 93.8739C189.78 95.2993 190.812 97.1902 191.045 99.5466H186.681C186.536 98.383 185.925 97.3648 184.849 96.4921C183.772 95.5902 182.347 95.1393 180.572 95.1393C178.914 95.1393 177.561 95.5757 176.514 96.4484C175.467 97.2921 174.943 98.4848 174.943 100.027C174.943 101.132 175.249 102.034 175.86 102.732C176.5 103.43 177.27 103.968 178.172 104.347C179.103 104.696 180.398 105.103 182.056 105.568C184.063 106.121 185.678 106.674 186.9 107.227C188.121 107.75 189.169 108.579 190.041 109.714C190.914 110.819 191.35 112.332 191.35 114.252C191.35 115.736 190.958 117.132 190.172 118.441C189.387 119.75 188.223 120.812 186.681 121.627C185.14 122.441 183.321 122.848 181.227 122.848ZM202.038 101.903V115.998C202.038 117.161 202.285 117.99 202.779 118.485C203.274 118.95 204.132 119.183 205.354 119.183H208.278V122.543H204.699C202.489 122.543 200.83 122.034 199.725 121.016C198.619 119.998 198.067 118.325 198.067 115.998V101.903H194.969V98.6302H198.067V92.6084H202.038V98.6302H208.278V101.903H202.038ZM211.605 110.499C211.605 108.056 212.1 105.918 213.089 104.085C214.078 102.223 215.431 100.783 217.147 99.7648C218.892 98.7466 220.827 98.2375 222.951 98.2375C225.045 98.2375 226.863 98.6884 228.405 99.5902C229.947 100.492 231.096 101.627 231.852 102.994V98.6302H235.867V122.543H231.852V118.092C231.067 119.488 229.889 120.652 228.318 121.583C226.776 122.485 224.972 122.936 222.907 122.936C220.783 122.936 218.863 122.412 217.147 121.365C215.431 120.318 214.078 118.848 213.089 116.958C212.1 115.067 211.605 112.914 211.605 110.499ZM231.852 110.543C231.852 108.739 231.489 107.168 230.762 105.83C230.034 104.492 229.045 103.474 227.794 102.776C226.572 102.048 225.22 101.685 223.736 101.685C222.252 101.685 220.9 102.034 219.678 102.732C218.456 103.43 217.482 104.448 216.754 105.787C216.027 107.125 215.663 108.696 215.663 110.499C215.663 112.332 216.027 113.932 216.754 115.299C217.482 116.638 218.456 117.67 219.678 118.398C220.9 119.096 222.252 119.445 223.736 119.445C225.22 119.445 226.572 119.096 227.794 118.398C229.045 117.67 230.034 116.638 230.762 115.299C231.489 113.932 231.852 112.347 231.852 110.543ZM246.548 102.514C247.247 101.147 248.236 100.085 249.516 99.3284C250.825 98.5721 252.41 98.1939 254.272 98.1939V102.296H253.225C248.774 102.296 246.548 104.71 246.548 109.539V122.543H242.577V98.6302H246.548V102.514ZM263.7 101.903V115.998C263.7 117.161 263.947 117.99 264.441 118.485C264.936 118.95 265.794 119.183 267.016 119.183H269.94V122.543H266.361C264.15 122.543 262.492 122.034 261.387 121.016C260.281 119.998 259.729 118.325 259.729 115.998V101.903H256.63V98.6302H259.729V92.6084H263.7V98.6302H269.94V101.903H263.7ZM295.958 98.6302V122.543H291.987V119.008C291.231 120.23 290.169 121.19 288.802 121.888C287.464 122.558 285.98 122.892 284.351 122.892C282.489 122.892 280.816 122.514 279.333 121.758C277.849 120.972 276.671 119.808 275.798 118.267C274.954 116.725 274.533 114.848 274.533 112.638V98.6302H278.46V112.114C278.46 114.47 279.056 116.288 280.249 117.568C281.442 118.819 283.071 119.445 285.136 119.445C287.26 119.445 288.933 118.79 290.154 117.481C291.376 116.172 291.987 114.267 291.987 111.765V98.6302H295.958ZM306.634 103.038C307.419 101.67 308.583 100.536 310.125 99.6339C311.695 98.703 313.514 98.2375 315.579 98.2375C317.703 98.2375 319.623 98.7466 321.339 99.7648C323.085 100.783 324.452 102.223 325.441 104.085C326.43 105.918 326.925 108.056 326.925 110.499C326.925 112.914 326.43 115.067 325.441 116.958C324.452 118.848 323.085 120.318 321.339 121.365C319.623 122.412 317.703 122.936 315.579 122.936C313.543 122.936 311.739 122.485 310.168 121.583C308.626 120.652 307.448 119.503 306.634 118.136V133.888H302.663V98.6302H306.634V103.038ZM322.866 110.499C322.866 108.696 322.503 107.125 321.775 105.787C321.048 104.448 320.059 103.43 318.808 102.732C317.586 102.034 316.234 101.685 314.75 101.685C313.295 101.685 311.943 102.048 310.692 102.776C309.47 103.474 308.481 104.507 307.725 105.874C306.997 107.212 306.634 108.768 306.634 110.543C306.634 112.347 306.997 113.932 307.725 115.299C308.481 116.638 309.47 117.67 310.692 118.398C311.943 119.096 313.295 119.445 314.75 119.445C316.234 119.445 317.586 119.096 318.808 118.398C320.059 117.67 321.048 116.638 321.775 115.299C322.503 113.932 322.866 112.332 322.866 110.499ZM340.617 122.936C338.784 122.936 337.14 122.63 335.686 122.019C334.231 121.379 333.082 120.507 332.239 119.401C331.395 118.267 330.93 116.972 330.842 115.518H334.944C335.06 116.71 335.613 117.685 336.602 118.441C337.62 119.198 338.944 119.576 340.573 119.576C342.086 119.576 343.279 119.241 344.151 118.572C345.024 117.903 345.46 117.059 345.46 116.041C345.46 114.994 344.995 114.223 344.064 113.728C343.133 113.205 341.693 112.696 339.744 112.201C337.97 111.736 336.515 111.27 335.38 110.805C334.275 110.31 333.315 109.598 332.5 108.667C331.715 107.707 331.322 106.456 331.322 104.914C331.322 103.692 331.686 102.572 332.413 101.554C333.14 100.536 334.173 99.7357 335.511 99.1539C336.85 98.543 338.377 98.2375 340.093 98.2375C342.74 98.2375 344.879 98.9066 346.508 100.245C348.137 101.583 349.01 103.416 349.126 105.743H345.155C345.068 104.492 344.559 103.488 343.628 102.732C342.726 101.976 341.504 101.598 339.962 101.598C338.537 101.598 337.402 101.903 336.559 102.514C335.715 103.125 335.293 103.925 335.293 104.914C335.293 105.699 335.54 106.354 336.035 106.878C336.559 107.372 337.199 107.779 337.955 108.099C338.74 108.39 339.817 108.725 341.184 109.103C342.9 109.568 344.297 110.034 345.373 110.499C346.45 110.936 347.366 111.605 348.122 112.507C348.908 113.408 349.315 114.587 349.344 116.041C349.344 117.35 348.98 118.528 348.253 119.576C347.526 120.623 346.493 121.452 345.155 122.063C343.846 122.645 342.333 122.936 340.617 122.936Z" fill="#D2D2D2"/>
</svg>
