<svg width="334" height="127" viewBox="0 0 334 127" fill="none" xmlns="http://www.w3.org/2000/svg">
<g clip-path="url(#clip0_664_1111)">
<path d="M124.792 104.531H0V111.231H124.792V104.531Z" fill="#141BEB"/>
<mask id="mask0_664_1111" style="mask-type:luminance" maskUnits="userSpaceOnUse" x="139" y="88" width="40" height="39">
<path d="M178.836 88.7734H139.148V127.002H178.836V88.7734Z" fill="white"/>
</mask>
<g mask="url(#mask0_664_1111)">
<path d="M159.002 88.7737C155.136 88.8217 151.375 89.9797 148.18 92.1141C144.986 94.239 142.52 97.2444 141.071 100.738C139.623 104.232 139.268 108.07 140.055 111.764C140.841 115.459 142.722 118.837 145.475 121.489C148.228 124.14 151.72 125.94 155.509 126.657C159.309 127.375 163.232 126.983 166.801 125.528C170.37 124.073 173.411 121.623 175.56 118.483C177.699 115.344 178.85 111.659 178.85 107.888C178.822 102.786 176.711 97.9048 172.989 94.3251C169.267 90.7453 164.24 88.745 159.011 88.7737H159.002Z" fill="#00EDBE"/>
<path d="M166.842 100.81C166.784 99.8527 167.024 98.9053 167.533 98.082H151.54C151.397 98.082 151.252 98.1108 151.118 98.1588C150.984 98.2161 150.869 98.2926 150.763 98.3885C150.658 98.4842 150.581 98.6087 150.523 98.7328C150.466 98.8573 150.437 99.0009 150.437 99.1446V102.475C150.437 102.619 150.466 102.753 150.523 102.887C150.581 103.011 150.658 103.136 150.763 103.231C150.869 103.327 150.984 103.404 151.118 103.461C151.252 103.519 151.397 103.538 151.54 103.538H167.533C167.034 102.715 166.794 101.767 166.842 100.81Z" fill="#141BEB"/>
<path d="M147.944 107.935C147.992 108.892 147.752 109.839 147.253 110.663H163.245C163.389 110.663 163.533 110.634 163.667 110.586C163.802 110.529 163.917 110.452 164.022 110.356C164.128 110.261 164.205 110.136 164.262 110.012C164.32 109.887 164.349 109.744 164.349 109.6V106.269C164.349 106.126 164.32 105.992 164.262 105.858C164.205 105.733 164.128 105.609 164.022 105.513C163.917 105.418 163.802 105.341 163.667 105.284C163.533 105.226 163.389 105.207 163.245 105.207H147.253C147.752 106.03 147.992 106.978 147.944 107.935Z" fill="#141BEB"/>
<path d="M166.842 115.052C166.784 114.095 167.024 113.147 167.533 112.324H151.54C151.397 112.324 151.252 112.353 151.118 112.401C150.984 112.458 150.869 112.535 150.763 112.63C150.658 112.726 150.581 112.851 150.523 112.975C150.466 113.099 150.437 113.243 150.437 113.387V116.718C150.437 116.861 150.466 116.995 150.523 117.129C150.581 117.254 150.658 117.378 150.763 117.474C150.869 117.569 150.984 117.646 151.118 117.703C151.252 117.761 151.397 117.78 151.54 117.78H167.533C167.034 116.957 166.794 116.009 166.842 115.052Z" fill="#141BEB"/>
</g>
<path d="M200.806 100.027C205.488 100.027 208.538 103.167 208.538 108.345C208.538 112.279 206.198 116.308 200.873 116.308C196.125 116.308 193.16 112.949 193.16 107.991C193.16 103.971 195.703 100.027 200.806 100.027ZM204.279 108.058C204.279 105.081 202.85 103.655 200.873 103.655C198.58 103.655 197.285 105.454 197.285 108.211C197.285 110.699 198.648 112.662 200.787 112.662C203.176 112.662 204.289 110.843 204.289 108.058H204.279ZM217.249 104.813C219.878 104.813 222.132 106.766 222.132 110.46C222.132 114.155 219.724 115.992 216.981 116.021C215.513 116.021 214.285 115.332 214.103 115.045C214.103 115.782 214.189 120.491 213.988 120.625C213.786 120.778 210.735 120.912 210.313 120.692C210.246 120.673 210.38 105.244 210.582 104.746C210.601 104.679 213.921 104.861 213.921 104.861C213.921 104.995 213.901 105.933 213.901 106.057C214.055 105.789 215.235 104.813 217.24 104.813H217.249ZM218.362 110.508C218.362 108.996 217.451 108.192 216.242 108.192C214.726 108.192 214.016 109.149 214.016 110.479C214.016 111.944 215.043 112.834 216.156 112.834C217.556 112.834 218.362 111.877 218.362 110.498V110.508ZM226.814 111.35C226.814 112.528 227.658 113.264 229.203 113.264C230.402 113.264 231.227 112.843 231.812 112.489C232.033 112.709 232.944 114.557 232.973 114.892C232.369 115.447 230.834 116.155 229.03 116.155C225.001 116.155 223.37 113.466 223.37 110.623C223.37 107.617 225.241 104.823 228.742 104.823C231.707 104.823 233.51 107.043 233.51 109.532C233.51 110.221 233.443 110.795 233.309 111.245C232.196 111.398 228.157 111.398 226.824 111.36L226.814 111.35ZM226.795 109.302L230.296 109.235C230.345 108.144 229.788 107.302 228.714 107.302C227.553 107.302 226.795 108.173 226.795 109.302ZM235.151 105.186C235.352 104.899 238.47 104.765 238.672 104.966C238.652 105.435 238.623 106.163 238.604 106.297C239.094 105.559 240.187 104.736 241.991 104.736C244.418 104.736 245.934 106.67 245.934 109.541C245.934 111.034 245.848 114.786 245.752 115.878C245.732 116.098 242.384 116.059 242.317 116.012C242.231 115.964 242.336 110.718 242.336 109.924C242.336 108.728 241.799 107.876 240.638 107.876C239.41 107.876 238.681 108.833 238.681 109.694C238.681 110.451 238.662 115.782 238.595 115.878C238.528 115.964 235.276 115.925 235.208 115.791C235.16 115.705 235.074 109.896 235.141 105.186H235.151ZM256.218 108.144C256.218 111.322 258.175 112.594 260.074 112.594C261.974 112.594 263.106 111.637 263.595 111.283C264.104 111.637 265.092 113.437 265.447 114.193C264.488 115.284 262.233 116.347 259.672 116.347C254.453 116.347 252.026 112.633 252.026 107.991C252.026 103.349 255.192 100.075 260.247 100.075C262.809 100.075 264.66 100.879 265.351 101.539C265.351 101.98 264.411 104.382 263.854 104.851C263.049 104.382 261.696 103.779 260.286 103.779C257.993 103.779 256.208 105.598 256.208 108.134L256.218 108.144ZM266.521 107.168C266.541 106.794 268.018 104.698 271.001 104.698C273.765 104.698 275.904 106.325 275.904 109.57C275.904 111.953 275.789 115.638 275.722 115.772C275.654 115.906 272.843 115.772 272.843 115.772L272.642 114.815C272.489 114.968 271.548 116.04 269.793 116.04C267.366 116.04 266.339 114.614 266.339 112.681C266.339 110.747 268.104 109.417 270.33 109.417C271.356 109.417 271.98 109.704 272.402 110.02C272.421 109.063 272.469 107.751 270.464 107.751C269.083 107.751 268.44 108.728 268.239 108.756C268.037 108.756 266.502 107.426 266.521 107.177V107.168ZM269.332 112.614C269.332 113.351 269.956 113.858 270.781 113.858C271.759 113.858 272.249 113.284 272.249 112.614C272.249 111.838 271.606 111.35 270.781 111.35C269.908 111.35 269.332 111.906 269.332 112.614ZM278.091 105.052C278.293 104.717 281.41 104.918 281.612 105.119C281.593 105.588 281.564 106.191 281.545 106.316C282.034 105.579 282.878 104.803 284.693 104.803C285.938 104.803 286.946 105.426 287.54 106.402C288.299 105.071 289.997 104.803 290.908 104.803C293.719 104.803 294.967 106.651 294.967 109.493C294.967 111.006 294.88 114.853 294.812 115.897C294.795 116.098 291.407 116.098 291.339 116.031C291.274 115.983 291.387 110.891 291.387 109.848C291.387 108.804 291.101 107.933 289.921 107.933C288.74 107.933 288.338 109.13 288.338 109.819C288.338 111.417 288.27 114.71 288.202 115.82C288.183 116.021 284.817 115.887 284.769 115.839C284.681 115.791 284.786 110.594 284.786 109.838C284.786 108.747 284.472 107.924 283.32 107.924C282.168 107.924 281.67 108.9 281.67 109.618C281.67 110.259 281.621 115.887 281.554 115.973C281.487 116.06 278.235 116.021 278.168 115.887C278.12 115.801 278.034 109.752 278.101 105.033L278.091 105.052ZM304.062 104.803C306.688 104.803 308.944 106.756 308.944 110.451C308.944 114.145 306.536 115.983 303.793 116.012C302.324 116.012 301.095 115.322 300.914 115.035C300.914 115.772 300.999 120.481 300.798 120.615C300.597 120.768 297.546 120.902 297.124 120.682C297.056 120.663 297.192 105.234 297.393 104.736C297.413 104.669 300.733 104.851 300.733 104.851C300.733 104.985 300.713 105.923 300.713 106.048C300.866 105.78 302.046 104.803 304.05 104.803H304.062ZM305.174 110.498C305.174 108.986 304.263 108.182 303.054 108.182C301.537 108.182 300.826 109.139 300.826 110.47C300.826 111.934 301.854 112.824 302.966 112.824C304.367 112.824 305.174 111.867 305.174 110.489V110.498ZM321.138 115.839C320.934 116.126 318.039 116.04 317.818 115.839C317.838 115.37 317.818 114.729 317.838 114.576C317.348 115.284 316.205 116.222 314.537 116.222C311.84 116.222 310.546 114.576 310.546 111.465C310.546 109.867 310.767 106.067 310.832 105.014C310.88 104.794 314.22 104.832 314.288 104.899C314.336 105.148 314.104 110.211 314.104 111.082C314.104 112.327 314.642 113.083 315.803 113.083C317.031 113.083 317.674 112.145 317.693 111.168C317.693 110.527 317.778 105.052 317.875 104.966C317.943 104.88 321.175 104.918 321.263 105.052C321.28 105.138 321.215 111.101 321.127 115.839H321.138ZM327.603 116.26C325.378 116.26 323.343 115.37 323.037 115.035C322.853 114.815 323.881 112.393 324.062 112.48C324.419 112.662 325.8 113.657 327.229 113.657C328.121 113.657 328.563 113.341 328.563 112.853C328.563 112.365 328.206 112.097 326.76 111.829C324.263 111.408 323.103 110.364 323.103 108.498C323.103 106.115 324.736 104.736 327.47 104.736C329.522 104.736 331.325 105.426 331.614 105.713C331.815 105.914 330.787 108.249 330.635 108.268C330.518 108.268 329.1 107.397 327.804 107.397C326.932 107.397 326.559 107.818 326.559 108.268C326.559 108.756 326.932 108.977 328.226 109.158C330.875 109.532 332.064 110.451 332.064 112.518C332.064 114.471 330.731 116.251 327.603 116.251V116.26Z" fill="#141BEB"/>
<path d="M0 80.5493H34.1815V69.1018H11.4642V45.6612H31.2556V34.8936H11.4642V11.4436H34.1815V0.675781H0V80.5493Z" fill="white"/>
<path d="M55.773 0.675781H38.7925V80.5493H54.756C61.5769 80.5493 66.8055 78.7783 70.4412 75.2178C74.0773 71.6669 75.8903 66.1537 75.8903 58.6689V21.3213C75.8903 14.7457 74.1826 9.65375 70.7769 6.06448C67.3616 2.4752 62.3635 0.675781 55.7634 0.675781H55.773ZM64.4261 59.7887C64.4261 63.2248 63.7547 65.7518 62.402 67.3599C61.0493 68.9677 58.766 69.7718 55.5426 69.7718H50.2566V11.4436H55.5426C58.9194 11.4436 61.2412 12.305 62.517 14.0279C63.7929 15.7507 64.4261 18.1819 64.4261 21.3213V59.7983V59.7887Z" fill="white"/>
<path d="M171.174 5.27383C167.797 1.76114 163.413 0 158.021 0C155.249 0 152.716 0.469 150.433 1.39743C148.15 2.33542 146.173 3.62757 144.533 5.26426C142.883 6.91055 141.607 8.85354 140.714 11.0933C139.813 13.333 139.362 15.7641 139.362 18.3867V31.892L138.643 32.3034L130.574 36.9457L122.506 32.3034L120.981 31.4229V0.669998H109.517V61.4674C109.517 64.3103 108.845 66.4063 107.493 67.7463C106.14 69.0959 104.461 69.7659 102.437 69.7659C100.413 69.7659 98.7239 69.0959 97.3808 67.7463C96.0281 66.3967 95.3567 64.3103 95.3567 61.4674V0.669998H83.8926V62.5969C83.8926 65.2196 84.3817 67.6314 85.3506 69.8331C86.3197 72.044 87.6724 74.006 89.399 75.7194C91.1259 77.4423 93.0926 78.7823 95.2992 79.7585C97.5056 80.7252 99.8847 81.2134 102.437 81.2134C104.989 81.2134 107.387 80.7252 109.632 79.7585C111.877 78.7919 113.863 77.4423 115.589 75.7194C117.316 73.9964 118.64 72.0344 119.58 69.8331C120.52 67.6314 120.99 65.2196 120.99 62.5969V44.8516L122.516 43.9711L130.584 39.3288L138.652 43.9711L139.371 44.3825V62.3672C139.371 66.0332 139.947 69.0386 141.118 71.3932C142.278 73.7478 143.756 75.6714 145.559 77.1742C147.363 78.6675 149.387 79.7202 151.632 80.3137C153.877 80.9072 156.093 81.2134 158.261 81.2134C160.813 81.2134 163.192 80.706 165.398 79.701C167.605 78.696 169.543 77.3275 171.193 75.6045C172.843 73.8815 174.138 71.9195 175.069 69.7182C176.009 67.5166 176.479 65.1716 176.479 62.7118V57.7729H165.015V61.6972C165.015 63.2669 164.794 64.5784 164.343 65.6215C163.892 66.6648 163.326 67.4881 162.655 68.0909C161.906 68.694 161.101 69.1247 160.237 69.3832C159.374 69.6414 158.568 69.7755 157.82 69.7755C155.191 69.7755 153.378 68.9906 152.371 67.4209C151.363 65.8512 150.855 63.9084 150.855 61.5919V20.7508C150.855 18.0612 151.325 15.8311 152.256 14.0795C153.196 12.328 155.086 11.4474 157.935 11.4474C160.113 11.4474 161.83 12.2705 163.106 13.9168C164.382 15.5631 165.015 17.5061 165.015 19.7458V23.5648H176.479V19.0758C176.479 16.3097 176.009 13.7445 175.069 11.39C174.129 9.0354 172.834 6.99668 171.193 5.27383H171.174Z" fill="white"/>
<path d="M208.605 34.8897H194.435V0.671875H182.971V80.5453H194.435V44.9876H208.605V80.5453H220.069V0.671875H208.605V34.8897Z" fill="white"/>
<path d="M240.775 0.675781L222.902 80.5397H234.366L237.744 63.378H253.371L256.748 80.5397H268.212L250.33 0.675781H240.775ZM239.768 52.6101L245.389 23.6663H245.61L251.232 52.6101H239.768Z" fill="white"/>
<path d="M282.801 0.675781H271.336V80.5397H282.801V0.675781Z" fill="white"/>
<path d="M319.233 0.675781V48.8007H319.012L301.698 0.675781H290.673V80.5493H302.148V32.539H302.369L319.907 80.5493H330.7V0.675781H319.233Z" fill="white"/>
</g>
<defs>
<clipPath id="clip0_664_1111">
<rect width="334" height="127" fill="white"/>
</clipPath>
</defs>
</svg>
