<svg width="290" height="110" viewBox="0 0 290 110" fill="none" xmlns="http://www.w3.org/2000/svg">
<g clip-path="url(#clip0_924_221)">
<path d="M108.494 90.5391H0.406982V96.3422H108.494V90.5391Z" fill="#141BEB"/>
<mask id="mask0_924_221" style="mask-type:luminance" maskUnits="userSpaceOnUse" x="120" y="76" width="36" height="34">
<path d="M155.305 76.8906H120.929V110.002H155.305V76.8906Z" fill="white"/>
</mask>
<g mask="url(#mask0_924_221)">
<path d="M138.125 76.8909C134.776 76.9324 131.519 77.9354 128.752 79.7841C125.985 81.6246 123.849 84.2276 122.594 87.2536C121.34 90.2796 121.032 93.604 121.714 96.8041C122.395 100.004 124.024 102.93 126.408 105.227C128.793 107.523 131.818 109.082 135.1 109.703C138.39 110.325 141.789 109.985 144.88 108.725C147.971 107.465 150.605 105.343 152.466 102.624C154.319 99.9046 155.316 96.7126 155.316 93.4464C155.292 89.0278 153.464 84.7996 150.24 81.6991C147.016 78.5986 142.661 76.866 138.133 76.8909H138.125Z" fill="#00EDBE"/>
<path d="M144.916 87.3159C144.866 86.4868 145.074 85.6662 145.514 84.9531H131.662C131.538 84.9531 131.413 84.9781 131.297 85.0196C131.18 85.0692 131.081 85.1355 130.989 85.2186C130.898 85.3015 130.831 85.4093 130.781 85.5168C130.732 85.6246 130.707 85.749 130.707 85.8735V88.7584C130.707 88.8828 130.732 88.9989 130.781 89.1148C130.831 89.2226 130.898 89.3304 130.989 89.4133C131.081 89.4961 131.18 89.5626 131.297 89.6122C131.413 89.6621 131.538 89.6787 131.662 89.6787H145.514C145.082 88.9657 144.874 88.1448 144.916 87.3159Z" fill="#141BEB"/>
<path d="M128.547 93.4836C128.588 94.3128 128.381 95.1334 127.949 95.8464H141.8C141.925 95.8464 142.05 95.8215 142.166 95.7802C142.282 95.7303 142.382 95.6641 142.473 95.5812C142.565 95.4981 142.631 95.3906 142.681 95.2828C142.731 95.175 142.756 95.0505 142.756 94.9261V92.0412C142.756 91.9168 142.731 91.8009 142.681 91.6848C142.631 91.577 142.565 91.4692 142.473 91.3863C142.382 91.3034 142.282 91.237 142.166 91.1873C142.05 91.1375 141.925 91.1211 141.8 91.1211H127.949C128.381 91.8339 128.588 92.6547 128.547 93.4836Z" fill="#141BEB"/>
<path d="M144.916 99.6519C144.866 98.8227 145.074 98.0021 145.514 97.2891H131.662C131.538 97.2891 131.413 97.314 131.297 97.3553C131.18 97.4052 131.081 97.4714 130.989 97.5543C130.898 97.6374 130.831 97.7449 130.781 97.8527C130.732 97.9605 130.707 98.085 130.707 98.2094V101.094C130.707 101.219 130.732 101.335 130.781 101.451C130.831 101.559 130.898 101.666 130.989 101.749C131.081 101.832 131.18 101.899 131.297 101.948C131.413 101.998 131.538 102.014 131.662 102.014H145.514C145.082 101.302 144.874 100.481 144.916 99.6519Z" fill="#141BEB"/>
</g>
<path d="M174.334 86.6367C178.389 86.6367 181.031 89.3559 181.031 93.8407C181.031 97.248 179.003 100.738 174.392 100.738C170.279 100.738 167.711 97.8284 167.711 93.5342C167.711 90.0523 169.913 86.6367 174.334 86.6367ZM177.342 93.5921C177.342 91.014 176.103 89.7786 174.392 89.7786C172.406 89.7786 171.284 91.3371 171.284 93.7249C171.284 95.8801 172.464 97.5798 174.317 97.5798C176.386 97.5798 177.35 96.0046 177.35 93.5921H177.342ZM188.576 90.7818C190.852 90.7818 192.805 92.4731 192.805 95.6731C192.805 98.8731 190.72 100.465 188.343 100.49C187.072 100.49 186.008 99.8927 185.85 99.6441C185.85 100.282 185.925 104.361 185.751 104.477C185.576 104.61 182.934 104.726 182.568 104.535C182.51 104.519 182.626 91.1548 182.801 90.7238C182.817 90.6656 185.692 90.8233 185.692 90.8233C185.692 90.9392 185.676 91.7517 185.676 91.8595C185.809 91.6273 186.831 90.7818 188.567 90.7818H188.576ZM189.54 95.7144C189.54 94.4047 188.75 93.7082 187.703 93.7082C186.39 93.7082 185.775 94.5372 185.775 95.6895C185.775 96.9579 186.665 97.7289 187.629 97.7289C188.842 97.7289 189.54 96.9 189.54 95.7061V95.7144ZM196.86 96.4441C196.86 97.4636 197.591 98.1019 198.929 98.1019C199.968 98.1019 200.682 97.7372 201.189 97.4304C201.38 97.6211 202.17 99.2212 202.195 99.5114C201.671 99.9922 200.342 100.606 198.779 100.606C195.29 100.606 193.877 98.2762 193.877 95.8139C193.877 93.2108 195.497 90.7901 198.53 90.7901C201.098 90.7901 202.66 92.7134 202.66 94.8689C202.66 95.4658 202.602 95.9632 202.485 96.3529C201.522 96.4854 198.023 96.4854 196.868 96.4521L196.86 96.4441ZM196.843 94.6699L199.876 94.612C199.918 93.6667 199.436 92.9373 198.505 92.9373C197.5 92.9373 196.843 93.6916 196.843 94.6699ZM204.081 91.1052C204.255 90.8563 206.956 90.7402 207.13 90.9145C207.114 91.3205 207.089 91.9507 207.072 92.0668C207.496 91.4283 208.443 90.7155 210.005 90.7155C212.108 90.7155 213.421 92.39 213.421 94.8772C213.421 96.1703 213.346 99.4202 213.263 100.365C213.246 100.556 210.346 100.523 210.288 100.481C210.213 100.44 210.305 95.8968 210.305 95.2086C210.305 94.1724 209.839 93.4347 208.834 93.4347C207.77 93.4347 207.139 94.2636 207.139 95.0097C207.139 95.6648 207.122 100.282 207.064 100.365C207.006 100.44 204.189 100.407 204.131 100.291C204.089 100.216 204.014 95.184 204.073 91.1052H204.081ZM222.328 93.6667C222.328 96.4191 224.023 97.5216 225.668 97.5216C227.314 97.5216 228.294 96.6927 228.718 96.3859C229.158 96.6927 230.014 98.2512 230.322 98.9061C229.491 99.8511 227.538 100.771 225.32 100.771C220.799 100.771 218.697 97.5548 218.697 93.5342C218.697 89.5133 221.439 86.678 225.818 86.678C228.037 86.678 229.64 87.3744 230.238 87.9464C230.238 88.3278 229.424 90.4087 228.942 90.815C228.244 90.4087 227.073 89.8864 225.851 89.8864C223.865 89.8864 222.32 91.4616 222.32 93.6584L222.328 93.6667ZM231.252 92.8212C231.269 92.4978 232.549 90.6823 235.133 90.6823C237.526 90.6823 239.379 92.0917 239.379 94.9021C239.379 96.9662 239.279 100.158 239.221 100.274C239.163 100.39 236.728 100.274 236.728 100.274L236.554 99.4451C236.421 99.5776 235.606 100.506 234.086 100.506C231.984 100.506 231.094 99.2708 231.094 97.5964C231.094 95.9217 232.623 94.7694 234.551 94.7694C235.44 94.7694 235.98 95.018 236.346 95.2918C236.363 94.4626 236.404 93.3269 234.667 93.3269C233.471 93.3269 232.914 94.1724 232.74 94.1974C232.565 94.1974 231.236 93.0451 231.252 92.8295V92.8212ZM233.687 97.5382C233.687 98.1767 234.227 98.616 234.942 98.616C235.789 98.616 236.213 98.1185 236.213 97.5382C236.213 96.8667 235.656 96.4441 234.942 96.4441C234.186 96.4441 233.687 96.9249 233.687 97.5382ZM241.273 90.989C241.448 90.6989 244.148 90.8729 244.323 91.047C244.306 91.4533 244.281 91.9756 244.265 92.0834C244.688 91.4449 245.42 90.7734 246.991 90.7734C248.07 90.7734 248.943 91.3124 249.457 92.158C250.114 91.0057 251.585 90.7734 252.375 90.7734C254.809 90.7734 255.89 92.3736 255.89 94.8356C255.89 96.1456 255.814 99.4781 255.756 100.382C255.741 100.556 252.806 100.556 252.748 100.498C252.691 100.456 252.789 96.0461 252.789 95.1424C252.789 94.2387 252.542 93.4843 251.519 93.4843C250.497 93.4843 250.149 94.5205 250.149 95.1175C250.149 96.502 250.09 99.3539 250.031 100.316C250.014 100.49 247.099 100.374 247.057 100.332C246.981 100.291 247.072 95.789 247.072 95.1341C247.072 94.1891 246.8 93.476 245.802 93.476C244.805 93.476 244.373 94.3216 244.373 94.9434C244.373 95.4988 244.331 100.374 244.273 100.448C244.215 100.523 241.398 100.49 241.34 100.374C241.298 100.299 241.223 95.0595 241.282 90.9724L241.273 90.989ZM263.768 90.7734C266.043 90.7734 267.997 92.4648 267.997 95.6648C267.997 98.8648 265.91 100.456 263.535 100.481C262.262 100.481 261.198 99.8844 261.041 99.6358C261.041 100.274 261.115 104.353 260.941 104.469C260.767 104.601 258.124 104.718 257.759 104.527C257.7 104.51 257.817 91.1465 257.992 90.7155C258.009 90.6573 260.884 90.815 260.884 90.815C260.884 90.9311 260.867 91.7434 260.867 91.8512C261 91.619 262.022 90.7734 263.758 90.7734H263.768ZM264.731 95.7061C264.731 94.3964 263.942 93.6999 262.895 93.6999C261.581 93.6999 260.965 94.5288 260.965 95.6812C260.965 96.9496 261.855 97.7206 262.819 97.7206C264.032 97.7206 264.731 96.8916 264.731 95.6978V95.7061ZM278.558 100.332C278.382 100.581 275.874 100.506 275.682 100.332C275.7 99.9259 275.682 99.3703 275.7 99.2378C275.275 99.8511 274.285 100.664 272.841 100.664C270.505 100.664 269.384 99.2378 269.384 96.5436C269.384 95.159 269.575 91.8678 269.632 90.9558C269.674 90.7651 272.566 90.7984 272.625 90.8563C272.667 91.0719 272.466 95.4575 272.466 96.2119C272.466 97.2896 272.932 97.9445 273.937 97.9445C275.001 97.9445 275.557 97.1319 275.575 96.2864C275.575 95.731 275.648 90.9891 275.731 90.9145C275.79 90.8397 278.59 90.8729 278.666 90.989C278.681 91.0636 278.624 96.2285 278.548 100.332H278.558ZM284.158 100.697C282.231 100.697 280.468 99.9259 280.203 99.6358C280.044 99.4451 280.934 97.3475 281.091 97.4223C281.4 97.5798 282.596 98.4419 283.834 98.4419C284.606 98.4419 284.989 98.1684 284.989 97.7455C284.989 97.3228 284.68 97.0906 283.427 96.8584C281.265 96.4937 280.26 95.59 280.26 93.9735C280.26 91.9091 281.674 90.7155 284.042 90.7155C285.82 90.7155 287.382 91.3125 287.632 91.5611C287.806 91.7351 286.916 93.7579 286.783 93.7745C286.683 93.7745 285.455 93.0201 284.332 93.0201C283.577 93.0201 283.253 93.3848 283.253 93.7745C283.253 94.1974 283.577 94.388 284.697 94.5455C286.992 94.8689 288.021 95.6648 288.021 97.4553C288.021 99.1466 286.867 100.689 284.158 100.689V100.697Z" fill="#141BEB"/>
<path d="M0.406982 69.7677H30.013V59.8525H10.3366V39.5497H27.4788V30.2234H10.3366V9.9124H30.013V0.585938H0.406982V69.7677Z" fill="white"/>
<path d="M48.7141 0.585938H34.0066V69.7677H47.8332C53.7412 69.7677 58.2698 68.2338 61.4189 65.1499C64.5683 62.0743 66.1385 57.2991 66.1385 50.8162V18.4679C66.1385 12.7725 64.6595 8.36213 61.7097 5.25331C58.7515 2.14449 54.4225 0.585938 48.7058 0.585938H48.7141ZM56.209 51.7861C56.209 54.7622 55.6274 56.951 54.4558 58.3438C53.2842 59.7364 51.3065 60.4329 48.5146 60.4329H43.9361V9.9124H48.5146C51.4393 9.9124 53.4504 10.6585 54.5553 12.1508C55.6605 13.643 56.209 15.7487 56.209 18.4679V51.7944V51.7861Z" fill="white"/>
<path d="M148.668 4.56788C145.743 1.52539 141.946 0 137.276 0C134.874 0 132.681 0.40622 130.703 1.21037C128.726 2.02281 127.014 3.14199 125.593 4.5596C124.164 5.98552 123.058 7.66842 122.286 9.60833C121.505 11.5482 121.114 13.654 121.114 15.9255V27.623L120.491 27.9794L113.503 32.0002L106.515 27.9794L105.193 27.2167V0.580314H95.2639V53.2395C95.2639 55.7018 94.6823 57.5173 93.5107 58.6779C92.3391 59.8469 90.8848 60.4272 89.1316 60.4272C87.3785 60.4272 85.9158 59.8469 84.7525 58.6779C83.5809 57.509 82.9994 55.7018 82.9994 53.2395V0.580314H73.0698V54.2178C73.0698 56.4894 73.4935 58.5784 74.3327 60.4853C75.1721 62.4003 76.3437 64.0997 77.8392 65.5837C79.3349 67.076 81.0383 68.2367 82.9496 69.0822C84.8606 69.9194 86.9212 70.3423 89.1316 70.3423C91.342 70.3423 93.4193 69.9194 95.3636 69.0822C97.308 68.245 99.0281 67.076 100.524 65.5837C102.019 64.0914 103.166 62.392 103.98 60.4853C104.795 58.5784 105.202 56.4894 105.202 54.2178V38.8478L106.523 38.0852L113.511 34.0643L120.499 38.0852L121.122 38.4416V54.0188C121.122 57.1941 121.621 59.7972 122.635 61.8366C123.64 63.876 124.92 65.5422 126.482 66.8438C128.044 68.1372 129.797 69.049 131.742 69.563C133.686 70.0771 135.606 70.3423 137.483 70.3423C139.694 70.3423 141.754 69.9028 143.665 69.0323C145.577 68.1619 147.255 66.9766 148.684 65.4842C150.113 63.9919 151.235 62.2925 152.041 60.3858C152.856 58.4789 153.263 56.4478 153.263 54.3173V50.0395H143.333V53.4385C143.333 54.7981 143.142 55.934 142.752 56.8375C142.361 57.7412 141.871 58.4542 141.289 58.9764C140.641 59.4988 139.943 59.8718 139.195 60.0957C138.447 60.3194 137.749 60.4355 137.101 60.4355C134.824 60.4355 133.254 59.7557 132.382 58.3961C131.509 57.0365 131.069 55.3537 131.069 53.3473V17.9731C131.069 15.6436 131.476 13.712 132.282 12.1949C133.096 10.6778 134.733 9.91508 137.201 9.91508C139.087 9.91508 140.574 10.628 141.68 12.0539C142.785 13.4799 143.333 15.1628 143.333 17.1027V20.4105H153.263V16.5223C153.263 14.1265 152.856 11.9047 152.041 9.86534C151.227 7.82594 150.105 6.06012 148.684 4.56788H148.668Z" fill="white"/>
<path d="M181.089 30.2195H168.816V0.582031H158.886V69.7638H168.816V38.9657H181.089V69.7638H191.018V0.582031H181.089V30.2195Z" fill="white"/>
<path d="M208.952 0.585938L193.472 69.7594H203.402L206.327 54.895H219.862L222.787 69.7594H232.717L217.228 0.585938H208.952ZM208.08 45.5684L212.949 20.499H213.14L218.009 45.5684H208.08Z" fill="white"/>
<path d="M245.352 0.585938H235.423V69.7594H245.352V0.585938Z" fill="white"/>
<path d="M276.908 0.585938V42.2689H276.717L261.72 0.585938H252.171V69.7677H262.11V28.184H262.301L277.492 69.7677H286.84V0.585938H276.908Z" fill="white"/>
</g>
<defs>
<clipPath id="clip0_924_221">
<rect width="289.291" height="110" fill="white" transform="translate(0.406982)"/>
</clipPath>
</defs>
</svg>
