<svg width="360" height="97" viewBox="0 0 360 97" fill="none" xmlns="http://www.w3.org/2000/svg">
<path d="M53.1906 46.1244C45.2257 59.1523 33.1092 71.8202 16.8193 71.8202C6.8739 71.8202 0 65.4861 0 55.3499C0 38.8901 15.739 16.0859 33.4692 16.0859C38.3519 16.0859 41.2541 18.4373 41.2541 23.5002C41.2541 38.6994 20.8123 46.2937 8.68506 49.0158C7.78478 52.0877 7.05395 55.53 7.05395 58.7815C7.05395 65.1156 9.94544 69.9983 16.8193 69.9983C32.3784 69.9983 43.7746 57.1505 51.5595 45.0335L53.1906 46.1138V46.1244ZM36.0006 22.5999C36.0006 20.2485 34.9098 18.0772 32.1981 18.0772C20.6217 18.0772 12.1167 38.3394 9.22522 47.0248C20.8017 43.7623 36.0006 36.7082 36.0006 22.5999Z" fill="white"/>
<path d="M116.995 71.8127V11.1638H116.698L92.539 71.8127H86.2265L61.9716 11.1638H61.7811V71.8127H51.2954V0H67.797L89.3402 55.0245L110.979 0H127.47V71.8127H116.995Z" fill="white"/>
<path d="M161.917 72.218C146.972 72.218 133.659 59.4761 133.659 44.5309C133.659 28.3465 146.4 16.3672 162.679 16.3672C177.338 16.3672 191.128 27.8593 190.938 44.7215C190.747 58.904 178.863 72.218 161.917 72.218ZM162.203 25.4762C152.236 25.4762 143.615 33.9071 143.615 44.2554C143.615 54.6036 151.95 63.1302 162.002 63.1302C172.053 63.1302 180.971 54.8896 180.971 44.16C180.971 33.4307 172.636 25.4762 162.192 25.4762H162.203Z" fill="white"/>
<path d="M235.221 72.3154V42.6265C235.221 31.1239 230.698 25.722 221.653 25.722C212.703 25.722 207.301 32.3101 207.301 42.5314V72.3154H197.081V17.8629H206.613V23.6672H206.814C210.839 18.456 216.442 16.3906 222.733 16.3906C235.803 16.3906 245.441 24.6523 245.441 39.6926V72.3262H235.221V72.3154Z" fill="white"/>
<path d="M261.62 48.8788C263.919 57.6911 270.909 63.3473 279.055 63.3473C285.283 63.3473 291.129 60.0956 294.189 54.4394H304.156C300.035 65.3596 290.08 72.4456 278.673 72.4456C263.728 72.4456 251.665 59.227 251.665 45.055C251.665 28.2882 264.311 16.6055 278.388 16.6055C293.998 16.6055 305.884 28.6801 305.884 43.9113C305.884 45.5423 305.884 47.0782 305.596 48.8893H261.631L261.62 48.8788ZM295.917 41.2102C295.153 32.2073 287.2 25.6933 278.673 25.6933C270.528 25.6933 262.394 32.1119 261.62 41.2102H295.917Z" fill="white"/>
<path d="M357.236 16.8672H346.506L330.513 58.0483L314.9 16.8672H304.172L325.335 68.8732L321.477 78.2257H321.469L313.715 96.9943H324.064L332.471 76.6792H332.463L357.236 16.8672Z" fill="white"/>
</svg>
