<svg width="298" height="80" viewBox="0 0 298 80" fill="none" xmlns="http://www.w3.org/2000/svg">
<g clip-path="url(#clip0_924_241)">
<path d="M44.7232 38.0435C38.1543 48.7882 28.1613 59.236 14.7264 59.236C6.52393 59.236 0.854736 54.012 0.854736 45.6522C0.854736 32.0771 13.8354 13.2695 28.4582 13.2695C32.4852 13.2695 34.8787 15.2088 34.8787 19.3844C34.8787 31.9198 18.0196 38.1832 8.01767 40.4282C7.27517 42.9617 6.67243 45.8008 6.67243 48.4824C6.67243 53.7064 9.05716 57.7333 14.7264 57.7333C27.5586 57.7333 36.9575 47.1372 43.378 37.1438L44.7232 38.0348V38.0435ZM30.5459 18.6419C30.5459 16.7026 29.6463 14.9118 27.4099 14.9118C17.8623 14.9118 10.8479 31.6229 8.46317 38.7861C18.0108 36.0954 30.5459 30.2776 30.5459 18.6419Z" fill="white"/>
<path d="M97.3453 59.227V9.20725H97.1009L77.1757 59.227H71.9695L51.9655 9.20725H51.8084V59.227H43.1604V0H56.7699L74.5376 45.381L92.3837 0H105.985V59.227H97.3453Z" fill="white"/>
<path d="M134.395 59.5625C122.069 59.5625 111.089 49.0537 111.089 36.7278C111.089 23.3799 121.597 13.5 135.023 13.5C147.113 13.5 158.486 22.9781 158.329 36.885C158.172 48.5819 148.371 59.5625 134.395 59.5625ZM134.63 21.0125C126.41 21.0125 119.3 27.9659 119.3 36.5006C119.3 45.0352 126.175 52.0674 134.464 52.0674C142.754 52.0674 150.109 45.2711 150.109 36.4219C150.109 27.573 143.235 21.0125 134.622 21.0125H134.63Z" fill="white"/>
<path d="M194.851 59.6391V35.1534C194.851 25.6668 191.121 21.2116 183.661 21.2116C176.28 21.2116 171.825 26.6451 171.825 35.075V59.6391H163.395V14.7299H171.257V19.517H171.423C174.742 15.2191 179.363 13.5156 184.552 13.5156C195.331 13.5156 203.281 20.3293 203.281 32.7338V59.6481H194.851V59.6391Z" fill="white"/>
<path d="M216.624 40.3125C218.52 47.5804 224.285 52.2453 231.003 52.2453C236.14 52.2453 240.961 49.5634 243.485 44.8985H251.705C248.306 53.9049 240.096 59.749 230.688 59.749C218.363 59.749 208.413 48.8471 208.413 37.1589C208.413 23.3305 218.843 13.6953 230.453 13.6953C243.327 13.6953 253.13 23.6537 253.13 36.2156C253.13 37.5607 253.13 38.8275 252.892 40.3212H216.633L216.624 40.3125ZM244.91 33.9879C244.28 26.5628 237.72 21.1904 230.688 21.1904C223.971 21.1904 217.262 26.4841 216.624 33.9879H244.91Z" fill="white"/>
<path d="M295.483 13.9102H286.633L273.443 47.874L260.566 13.9102H251.719L269.172 56.8017L265.991 64.5151H265.984L259.589 79.9944H268.124L275.058 63.2397H275.051L295.483 13.9102Z" fill="white"/>
</g>
<defs>
<clipPath id="clip0_924_241">
<rect width="296.907" height="80" fill="white" transform="translate(0.854736)"/>
</clipPath>
</defs>
</svg>
