<svg width="351" height="62" viewBox="0 0 351 62" fill="none" xmlns="http://www.w3.org/2000/svg">
<g clip-path="url(#clip0_924_248)">
<path fill-rule="evenodd" clip-rule="evenodd" d="M52.1988 37.0421C51.1517 37.7246 49.9187 37.8092 48.9814 37.2641C47.7908 36.571 47.1362 34.9477 47.1362 32.6903V25.936C47.1362 22.6744 45.8856 20.3535 43.7944 19.7268C40.2505 18.6623 37.5852 23.1334 36.5835 24.8125L30.3333 35.2618V22.4901C30.263 19.5517 29.3375 17.794 27.5802 17.264C26.4174 16.9137 24.6777 17.0541 22.9877 19.7208L8.98477 42.9055C7.11011 39.2358 6.13285 35.1497 6.1379 31.0021C6.1379 17.036 16.9923 5.67468 30.3333 5.67468C43.6743 5.67468 54.5272 17.036 54.5272 31.0021C54.5272 31.0262 54.5331 31.0474 54.5346 31.07C54.5346 31.0942 54.5302 31.1153 54.5316 31.1395C54.6576 33.8439 53.8082 35.9942 52.1988 37.0421ZM59.9032 31.0036V30.9326L59.9017 30.8631C59.827 13.8544 46.5929 0.046875 30.3318 0.046875C14.0283 0.046875 0.761963 13.9329 0.761963 31.0021C0.761963 48.0697 14.0283 61.9573 30.3333 61.9573C37.8151 61.9573 44.9557 59.0248 50.4371 53.702C51.5266 52.645 51.591 50.8647 50.5806 49.7262C50.3428 49.4558 50.055 49.237 49.7341 49.0827C49.4133 48.9284 49.0658 48.8417 48.712 48.8276C48.3582 48.8136 48.0053 48.8724 47.6738 49.0008C47.3424 49.1292 47.0392 49.3244 46.7818 49.5752C42.3389 53.9134 36.4522 56.3306 30.3333 56.3294C23.1898 56.3294 16.7624 53.0693 12.3295 47.8991L24.9574 26.9915V36.6299C24.9574 41.2596 26.6986 42.756 28.1586 43.1939C29.6201 43.6318 31.8534 43.3328 34.1979 39.4068L41.1438 27.7963C41.3664 27.4218 41.5714 27.0987 41.7588 26.8193V32.6903C41.7588 37.0179 43.44 40.4789 46.3703 42.1837C49.0122 43.7209 52.3335 43.582 55.0398 41.8213C58.3201 39.6846 60.0877 35.748 59.9032 31.0036ZM101.073 20.4275C101.783 20.8729 102.398 21.8635 102.398 22.7559C102.398 24.1919 101.215 25.3803 99.8896 25.3803C99.5586 25.3803 99.2277 25.2821 98.9436 25.1825C97.381 23.9941 95.3938 23.2014 93.3113 23.2014C88.3908 23.2014 84.9831 27.3614 84.9831 32.5121C84.9831 37.6642 88.3908 41.7745 93.3113 41.7745C95.7716 41.7745 97.9492 40.7341 99.6055 39.1501C100.033 38.8329 100.546 38.6599 101.073 38.6548C102.398 38.6548 103.439 39.7435 103.439 41.1312C103.439 42.0221 102.918 42.8149 102.256 43.2603C99.8896 45.3411 96.6722 46.7273 93.3597 46.7273C85.7885 46.7273 79.635 40.2886 79.635 32.3641C79.635 24.4396 85.7871 18.0009 93.3597 18.0009C96.1992 18.0009 98.8952 18.8918 101.073 20.4275ZM114.918 26.4207C120.075 26.4207 124.429 30.9281 124.429 36.4743C124.429 42.0221 120.075 46.7273 114.918 46.7273C109.523 46.7273 105.027 42.0221 105.027 36.4743C105.027 30.9281 109.523 26.4207 114.918 26.4207ZM114.869 41.7745C117.142 41.7745 119.081 39.5457 119.081 36.5242C119.081 33.5041 117.142 31.6212 114.869 31.6212C112.409 31.6212 110.373 33.4543 110.373 36.5242C110.373 39.5457 112.409 41.7745 114.869 41.7745ZM127.673 43.6559V29.4921C127.673 27.9564 128.856 26.6683 130.323 26.6683C131.791 26.6683 133.021 27.9564 133.021 29.4921V43.6559C133.021 45.1916 131.791 46.4797 130.323 46.4797C128.856 46.4797 127.673 45.1916 127.673 43.6559ZM127.248 21.3199C127.248 19.4867 128.619 18.0009 130.323 18.0009C132.073 18.0009 133.494 19.4867 133.494 21.3199C133.494 23.1017 132.073 24.5392 130.323 24.5392C128.619 24.5392 127.248 23.1017 127.248 21.3199ZM143.269 35.9791V43.6559C143.269 45.1916 142.039 46.4797 140.57 46.4797C139.104 46.4797 137.919 45.1916 137.919 43.6559V28.8473C137.919 27.6589 138.867 26.6683 140.003 26.6683C141.138 26.6683 142.039 27.6589 142.039 28.8473C144.215 26.768 146.107 26.4207 147.905 26.4207C153.254 26.4207 155.62 30.5808 155.62 35.286V43.6559C155.62 45.1916 154.39 46.4797 152.923 46.4797C151.455 46.4797 150.272 45.1916 150.272 43.6559V35.9791C150.272 33.5525 149.988 31.5215 146.628 31.5215C144.262 31.5215 143.269 33.5525 143.269 35.9791ZM173.013 38.9024C172.398 38.9024 171.973 38.605 171.641 38.2078L165.394 31.2255V43.6559C165.394 45.1916 164.164 46.4797 162.696 46.4797C161.229 46.4797 160.046 45.1916 160.046 43.6559V19.0428C160.122 18.8354 160.259 18.6575 160.437 18.5332C160.615 18.4088 160.826 18.3443 161.041 18.3482C161.513 18.3482 161.891 18.7453 162.176 19.0428L172.114 30.5823C172.398 30.9296 172.776 31.1274 172.966 31.1274C173.155 31.1274 173.533 30.9296 173.817 30.5838L183.756 19.0428C184.04 18.7453 184.418 18.3482 184.891 18.3482C185.364 18.3482 185.744 18.6457 185.886 19.0428V43.6559C185.886 45.1916 184.702 46.4797 183.235 46.4797C181.768 46.4797 180.537 45.1916 180.537 43.6559V31.2255L174.292 38.2078C173.959 38.605 173.533 38.9024 173.013 38.9024ZM198.736 41.7745C201.149 41.7745 203.184 39.5457 203.184 36.5242C203.184 33.5041 201.103 31.5215 198.736 31.5215C196.37 31.5215 194.476 33.5525 194.476 36.5242C194.476 39.446 196.37 41.7745 198.736 41.7745ZM204.415 44.3007L204.318 43.6559C203.279 45.7851 199.965 46.7273 197.835 46.7273C192.818 46.7273 189.128 42.0221 189.128 36.4743C189.128 30.9281 192.913 26.4207 198.12 26.4207C199.019 26.4207 202 26.6683 204.318 29.4921L204.414 28.8473C204.414 27.6589 205.313 26.6683 206.449 26.6683C207.584 26.6683 208.53 27.6589 208.53 28.8473V44.3007C208.53 45.4891 207.584 46.4797 206.448 46.4797C205.313 46.4797 204.412 45.4891 204.412 44.3007H204.415ZM223.369 31.5215H222.803C219.442 31.7208 218.78 33.702 218.78 35.9791V43.6559C218.78 45.1916 217.55 46.4797 216.082 46.4797C214.615 46.4797 213.432 45.1916 213.432 43.6559V28.8473C213.432 27.6589 214.378 26.6683 215.514 26.6683C216.65 26.6683 217.55 27.6589 217.55 28.8473C219.537 26.916 221.146 26.5204 222.803 26.4207H223.322C224.601 26.4207 225.783 27.5592 225.783 28.9968C225.783 30.3331 224.648 31.5215 223.369 31.5215ZM243.981 42.3694C244.218 42.765 244.361 43.2105 244.361 43.7058C244.361 45.1418 243.082 46.4797 241.71 46.4797C240.764 46.4797 239.958 45.7367 239.343 44.944L233.193 37.5646V43.6559C233.193 45.1916 231.961 46.4797 230.494 46.4797C229.026 46.4797 227.843 45.1916 227.843 43.6559V21.1719C227.843 19.6347 229.026 18.3482 230.494 18.3482C231.961 18.3482 233.191 19.6347 233.191 21.1719V35.1878L239.343 28.1542C239.958 27.4113 240.716 26.6683 241.663 26.6683C242.988 26.6683 244.218 27.9564 244.218 29.3924C244.218 29.8378 244.123 30.2833 243.886 30.6804L239.012 36.1769L243.981 42.3694ZM254.467 31.6212C252.999 31.6212 250.633 32.4139 250.633 34.7408H258.346C258.346 32.3641 255.886 31.6212 254.465 31.6212H254.467ZM261.47 38.2577H250.633C250.633 41.5767 253.708 42.0719 255.08 42.0719C256.076 42.0719 257.495 41.8741 258.583 41.3773C258.914 41.1312 259.482 40.9319 259.955 40.9319C261.139 40.9319 262.131 41.9738 262.131 43.212C262.131 44.0531 261.612 44.796 260.95 45.1916C259.293 46.4298 257.163 46.7273 255.128 46.7273C249.734 46.7273 245.238 43.7073 245.238 36.722C245.238 31.2255 247.982 26.4207 254.371 26.4207C259.529 26.4207 263.457 29.8877 263.552 36.0787C263.552 37.2671 262.606 38.2577 261.47 38.2577ZM276.355 46.7273H274.888C270.817 46.7273 268.452 44.8941 268.452 38.3075V31.5215H267.08C265.801 31.5215 264.666 30.3331 264.666 28.9968C264.666 27.5592 265.801 26.4207 267.08 26.4207H268.452V21.1704C268.452 19.6347 269.635 18.3467 271.103 18.3467C272.568 18.3467 273.8 19.6347 273.8 21.1704V26.4207H276.023C277.302 26.4207 278.438 27.5592 278.438 28.9968C278.438 30.3331 277.302 31.5215 276.023 31.5215H273.8V37.2173C273.8 40.9817 273.989 41.7745 275.598 41.7745H276.355C277.632 41.7745 278.721 42.8647 278.721 44.2509C278.721 45.5888 277.632 46.7273 276.355 46.7273ZM302.267 20.4275C302.976 20.8729 303.592 21.8635 303.592 22.7559C303.592 24.1919 302.409 25.3803 301.084 25.3803C300.753 25.3803 300.421 25.2821 300.138 25.1825C298.575 23.9941 296.588 23.2014 294.506 23.2014C289.585 23.2014 286.176 27.3614 286.176 32.5121C286.176 37.6642 289.584 41.7745 294.506 41.7745C296.966 41.7745 299.144 40.7341 300.8 39.1501C301.228 38.8329 301.74 38.6599 302.267 38.6548C303.592 38.6548 304.632 39.7435 304.632 41.1312C304.632 42.0221 304.112 42.8149 303.45 43.2603C301.084 45.3411 297.865 46.7273 294.553 46.7273C286.981 46.7273 280.829 40.2886 280.829 32.3641C280.829 24.4396 286.98 18.0009 294.553 18.0009C297.394 18.0009 300.09 18.8918 302.267 20.4275ZM315.828 41.7745C318.241 41.7745 320.275 39.5457 320.275 36.5242C320.275 33.5041 318.193 31.5215 315.826 31.5215C313.461 31.5215 311.568 33.5525 311.568 36.5242C311.568 39.446 313.461 41.7745 315.826 41.7745H315.828ZM321.505 44.3007L321.412 43.6559C320.371 45.7851 317.058 46.7273 314.927 46.7273C309.912 46.7273 306.22 42.0221 306.22 36.4743C306.22 30.9281 310.007 26.4207 315.211 26.4207C316.111 26.4207 319.092 26.6683 321.412 29.4921L321.505 28.8473C321.505 27.6589 322.405 26.6683 323.541 26.6683C324.676 26.6683 325.623 27.6589 325.623 28.8473V44.3007C325.623 45.4891 324.676 46.4797 323.541 46.4797C322.405 46.4797 321.505 45.4891 321.505 44.3007ZM340.319 41.7745C342.686 41.7745 344.578 39.446 344.578 36.5242C344.578 33.5525 342.686 31.5215 340.319 31.5215C337.953 31.5215 335.87 33.5026 335.87 36.5242C335.87 39.5457 337.906 41.7745 340.319 41.7745ZM335.87 45.0935V52.1256C335.87 53.6613 334.64 54.9493 333.173 54.9493C331.707 54.9493 330.522 53.6613 330.522 52.1256V28.8473C330.522 27.6589 331.47 26.6683 332.606 26.6683C333.741 26.6683 334.641 27.6589 334.641 29.0451C336.627 26.916 339.089 26.4207 340.934 26.4207C346.14 26.4207 349.926 30.9281 349.926 36.4743C349.926 42.0221 346.235 46.7273 341.218 46.7273C339.657 46.7273 337.337 46.232 335.87 45.0935Z" fill="white"/>
</g>
<defs>
<clipPath id="clip0_924_248">
<rect width="350" height="61.9104" fill="white" transform="translate(0.761963 0.0429688)"/>
</clipPath>
</defs>
</svg>
