<svg width="424" height="75" viewBox="0 0 424 75" fill="none" xmlns="http://www.w3.org/2000/svg">
<path fill-rule="evenodd" clip-rule="evenodd" d="M62.312 44.8171C61.0436 45.6439 59.5498 45.7463 58.4144 45.086C56.9721 44.2463 56.1791 42.2799 56.1791 39.5451V31.3628C56.1791 27.4116 54.6641 24.6 52.1307 23.8409C47.8375 22.5512 44.6087 27.9677 43.3953 30.0018L35.8236 42.6604V27.1884C35.7384 23.6287 34.6172 21.4994 32.4883 20.8573C31.0797 20.4329 28.9722 20.603 26.9249 23.8335L9.96134 51.9201C7.69032 47.4746 6.50645 42.5245 6.51257 37.5C6.51257 20.5811 19.6619 6.81768 35.8236 6.81768C51.9852 6.81768 65.1328 20.5811 65.1328 37.5C65.1328 37.5293 65.1399 37.5549 65.1417 37.5823C65.1417 37.6116 65.1363 37.6372 65.1381 37.6665C65.2907 40.9427 64.2617 43.5476 62.312 44.8171ZM71.6454 37.5018V37.4159L71.6436 37.3317C71.5531 16.7268 55.5209 0 35.8218 0C16.0712 0 0 16.822 0 37.5C0 58.1762 16.0712 75 35.8236 75C44.8872 75 53.5375 71.4476 60.1778 64.9994C61.4977 63.7189 61.5758 61.5622 60.3517 60.1829C60.0636 59.8553 59.715 59.5903 59.3263 59.4034C58.9376 59.2165 58.5166 59.1114 58.088 59.0944C57.6594 59.0774 57.2319 59.1487 56.8304 59.3042C56.4289 59.4597 56.0615 59.6962 55.7498 60C50.3674 65.2554 43.2362 68.1837 35.8236 68.1823C27.1697 68.1823 19.3834 64.2329 14.0133 57.9695L29.311 32.6415V44.3177C29.311 49.9262 31.4204 51.739 33.1891 52.2695C34.9596 52.8 37.665 52.4378 40.5053 47.6817L48.9197 33.6165C49.1893 33.1628 49.4377 32.7713 49.6648 32.4329V39.5451C49.6648 44.7878 51.7014 48.9805 55.2513 51.0457C58.4517 52.9079 62.4752 52.7396 65.7537 50.6067C69.7276 48.0183 71.8689 43.2494 71.6454 37.5018ZM121.519 24.6896C122.38 25.2293 123.125 26.4293 123.125 27.5104C123.125 29.25 121.692 30.6896 120.086 30.6896C119.685 30.6896 119.284 30.5707 118.94 30.45C117.047 29.0104 114.64 28.05 112.117 28.05C106.156 28.05 102.028 33.0896 102.028 39.3293C102.028 45.5707 106.156 50.55 112.117 50.55C115.097 50.55 117.735 49.2896 119.742 47.3707C120.26 46.9865 120.881 46.777 121.519 46.7707C123.125 46.7707 124.386 48.0896 124.386 49.7707C124.386 50.85 123.755 51.8104 122.953 52.35C120.086 54.8707 116.188 56.55 112.176 56.55C103.004 56.55 95.549 48.75 95.549 39.15C95.549 29.55 103.002 21.75 112.176 21.75C115.615 21.75 118.881 22.8293 121.519 24.6896ZM138.291 31.95C144.54 31.95 149.814 37.4104 149.814 44.1293C149.814 50.85 144.54 56.55 138.291 56.55C131.756 56.55 126.309 50.85 126.309 44.1293C126.309 37.4104 131.756 31.95 138.291 31.95ZM138.233 50.55C140.986 50.55 143.335 47.85 143.335 44.1896C143.335 40.5311 140.986 38.25 138.233 38.25C135.252 38.25 132.787 40.4707 132.787 44.1896C132.787 47.85 135.252 50.55 138.233 50.55ZM153.743 52.8293V35.6707C153.743 33.8104 155.177 32.25 156.955 32.25C158.732 32.25 160.222 33.8104 160.222 35.6707V52.8293C160.222 54.6896 158.732 56.25 156.955 56.25C155.177 56.25 153.743 54.6896 153.743 52.8293ZM153.229 25.7707C153.229 23.55 154.89 21.75 156.955 21.75C159.075 21.75 160.795 23.55 160.795 25.7707C160.795 27.9293 159.075 29.6707 156.955 29.6707C154.89 29.6707 153.229 27.9293 153.229 25.7707ZM172.637 43.5293V52.8293C172.637 54.6896 171.147 56.25 169.368 56.25C167.592 56.25 166.157 54.6896 166.157 52.8293V34.8896C166.157 33.45 167.304 32.25 168.681 32.25C170.056 32.25 171.147 33.45 171.147 34.8896C173.783 32.3707 176.075 31.95 178.254 31.95C184.733 31.95 187.6 36.9896 187.6 42.6896V52.8293C187.6 54.6896 186.109 56.25 184.332 56.25C182.554 56.25 181.121 54.6896 181.121 52.8293V43.5293C181.121 40.5896 180.777 38.1293 176.707 38.1293C173.84 38.1293 172.637 40.5896 172.637 43.5293ZM208.67 47.0707C207.925 47.0707 207.411 46.7104 207.008 46.2293L199.44 37.7707V52.8293C199.44 54.6896 197.949 56.25 196.172 56.25C194.394 56.25 192.961 54.6896 192.961 52.8293V23.0122C193.053 22.761 193.219 22.5454 193.435 22.3948C193.651 22.2442 193.907 22.166 194.167 22.1707C194.738 22.1707 195.196 22.6518 195.542 23.0122L207.581 36.9915C207.925 37.4122 208.383 37.6518 208.613 37.6518C208.842 37.6518 209.3 37.4122 209.644 36.9933L221.685 23.0122C222.029 22.6518 222.486 22.1707 223.059 22.1707C223.633 22.1707 224.092 22.5311 224.264 23.0122V52.8293C224.264 54.6896 222.831 56.25 221.053 56.25C219.275 56.25 217.785 54.6896 217.785 52.8293V37.7707L210.219 46.2293C209.816 46.7104 209.3 47.0707 208.67 47.0707ZM239.831 50.55C242.755 50.55 245.219 47.85 245.219 44.1896C245.219 40.5311 242.698 38.1293 239.831 38.1293C236.965 38.1293 234.671 40.5896 234.671 44.1896C234.671 47.7293 236.965 50.55 239.831 50.55ZM246.711 53.6104L246.594 52.8293C245.335 55.4085 241.32 56.55 238.74 56.55C232.662 56.55 228.192 50.85 228.192 44.1293C228.192 37.4104 232.778 31.95 239.085 31.95C240.174 31.95 243.786 32.25 246.594 35.6707L246.709 34.8896C246.709 33.45 247.799 32.25 249.175 32.25C250.55 32.25 251.696 33.45 251.696 34.8896V53.6104C251.696 55.05 250.55 56.25 249.174 56.25C247.799 56.25 246.708 55.05 246.708 53.6104H246.711ZM269.673 38.1293H268.986C264.915 38.3707 264.113 40.7707 264.113 43.5293V52.8293C264.113 54.6896 262.623 56.25 260.845 56.25C259.068 56.25 257.634 54.6896 257.634 52.8293V34.8896C257.634 33.45 258.78 32.25 260.157 32.25C261.534 32.25 262.623 33.45 262.623 34.8896C265.03 32.55 266.98 32.0707 268.986 31.95H269.616C271.165 31.95 272.597 33.3293 272.597 35.0707C272.597 36.6896 271.222 38.1293 269.673 38.1293ZM294.643 51.2707C294.93 51.75 295.102 52.2896 295.102 52.8896C295.102 54.6293 293.554 56.25 291.891 56.25C290.745 56.25 289.769 55.35 289.024 54.3896L281.573 45.45V52.8293C281.573 54.6896 280.081 56.25 278.304 56.25C276.526 56.25 275.093 54.6896 275.093 52.8293V25.5915C275.093 23.7293 276.526 22.1707 278.304 22.1707C280.081 22.1707 281.572 23.7293 281.572 25.5915V42.5707L289.024 34.05C289.769 33.15 290.687 32.25 291.834 32.25C293.44 32.25 294.93 33.8104 294.93 35.55C294.93 36.0896 294.815 36.6293 294.527 37.1104L288.623 43.7689L294.643 51.2707ZM307.345 38.25C305.567 38.25 302.701 39.2104 302.701 42.0293H312.045C312.045 39.15 309.064 38.25 307.343 38.25H307.345ZM315.829 46.2896H302.701C302.701 50.3104 306.426 50.9104 308.088 50.9104C309.295 50.9104 311.014 50.6707 312.332 50.0689C312.733 49.7707 313.421 49.5293 313.994 49.5293C315.428 49.5293 316.63 50.7915 316.63 52.2915C316.63 53.3104 316.001 54.2104 315.199 54.6896C313.192 56.1896 310.611 56.55 308.147 56.55C301.611 56.55 296.165 52.8915 296.165 44.4293C296.165 37.7707 299.489 31.95 307.23 31.95C313.478 31.95 318.236 36.15 318.351 43.65C318.351 45.0896 317.205 46.2896 315.829 46.2896ZM333.862 56.55H332.084C327.152 56.55 324.287 54.3293 324.287 46.35V38.1293H322.625C321.076 38.1293 319.701 36.6896 319.701 35.0707C319.701 33.3293 321.076 31.95 322.625 31.95H324.287V25.5896C324.287 23.7293 325.721 22.1689 327.498 22.1689C329.274 22.1689 330.766 23.7293 330.766 25.5896V31.95H333.459C335.008 31.95 336.385 33.3293 336.385 35.0707C336.385 36.6896 335.008 38.1293 333.459 38.1293H330.766V45.0293C330.766 49.5896 330.995 50.55 332.945 50.55H333.862C335.409 50.55 336.727 51.8707 336.727 53.55C336.727 55.1707 335.409 56.55 333.862 56.55ZM365.252 24.6896C366.111 25.2293 366.858 26.4293 366.858 27.5104C366.858 29.25 365.424 30.6896 363.819 30.6896C363.418 30.6896 363.015 30.5707 362.673 30.45C360.78 29.0104 358.372 28.05 355.85 28.05C349.889 28.05 345.759 33.0896 345.759 39.3293C345.759 45.5707 349.887 50.55 355.85 50.55C358.83 50.55 361.468 49.2896 363.474 47.3707C363.993 46.9865 364.614 46.777 365.252 46.7707C366.858 46.7707 368.117 48.0896 368.117 49.7707C368.117 50.85 367.487 51.8104 366.686 52.35C363.819 54.8707 359.919 56.55 355.906 56.55C346.734 56.55 339.282 48.75 339.282 39.15C339.282 29.55 346.733 21.75 355.906 21.75C359.348 21.75 362.614 22.8293 365.252 24.6896ZM381.68 50.55C384.604 50.55 387.068 47.85 387.068 44.1896C387.068 40.5311 384.545 38.1293 381.678 38.1293C378.813 38.1293 376.519 40.5896 376.519 44.1896C376.519 47.7293 378.813 50.55 381.678 50.55H381.68ZM388.558 53.6104L388.444 52.8293C387.183 55.4085 383.17 56.55 380.589 56.55C374.513 56.55 370.04 50.85 370.04 44.1293C370.04 37.4104 374.628 31.95 380.933 31.95C382.022 31.95 385.634 32.25 388.444 35.6707L388.558 34.8896C388.558 33.45 389.647 32.25 391.024 32.25C392.399 32.25 393.547 33.45 393.547 34.8896V53.6104C393.547 55.05 392.399 56.25 391.024 56.25C389.647 56.25 388.558 55.05 388.558 53.6104ZM411.349 50.55C414.216 50.55 416.508 47.7293 416.508 44.1896C416.508 40.5896 414.216 38.1293 411.349 38.1293C408.482 38.1293 405.96 40.5293 405.96 44.1896C405.96 47.85 408.426 50.55 411.349 50.55ZM405.96 54.5707V63.0896C405.96 64.95 404.469 66.5104 402.692 66.5104C400.916 66.5104 399.481 64.95 399.481 63.0896V34.8896C399.481 33.45 400.629 32.25 402.005 32.25C403.38 32.25 404.471 33.45 404.471 35.1293C406.877 32.55 409.859 31.95 412.094 31.95C418.401 31.95 422.987 37.4104 422.987 44.1293C422.987 50.85 418.516 56.55 412.438 56.55C410.547 56.55 407.737 55.95 405.96 54.5707Z" fill="white"/>
</svg>
