<svg width="503" height="187" viewBox="0 0 503 187" fill="none" xmlns="http://www.w3.org/2000/svg">
<path d="M84.2744 54.8477C62.7747 54.8477 45.2991 72.0698 45.2991 93.3844C45.2991 114.699 62.7172 131.921 84.2744 131.921C105.832 131.921 123.25 114.699 123.25 93.4413C122.847 72.013 105.544 54.8477 84.2744 54.8477ZM87.8385 99.6367C88.9882 100.603 89.6206 102.024 89.6206 103.502C89.5631 106.401 87.2062 108.674 84.3319 108.731C82.8372 108.674 81.4576 108.049 80.4228 106.969C76.5713 103.672 70.8227 103.672 66.9712 106.969L66.6263 107.31C65.5915 107.992 64.4993 108.731 63.0622 108.731C61.74 108.788 60.4178 108.276 59.498 107.31L58.8082 106.628V106.287L58.4633 105.946C58.4633 105.605 58.1184 105.264 58.1184 104.866C58.1184 104.468 57.7735 103.786 57.7735 103.445C57.7735 102.763 57.7735 102.422 58.1184 102.024C58.1184 101.683 58.4633 101.342 58.4633 100.944C58.4633 100.773 58.6358 100.603 58.8082 100.603V100.262C59.498 100.262 59.498 100.262 59.498 99.9209L59.843 99.5799C61.3951 97.8179 62.2574 95.6012 62.3148 93.2708C62.4298 90.9404 61.51 88.61 59.843 86.9616C58.9232 85.7112 58.4633 84.2902 58.4058 82.7556C58.4633 79.8568 60.8202 77.5832 63.6945 77.5264C66.5113 77.5264 68.6383 79.9705 68.6383 82.7556C68.5808 84.2334 67.9484 85.5975 66.8562 86.6206C63.522 90.4288 63.522 96.1127 66.8562 99.9209L67.2011 100.262C68.9832 101.797 71.2251 102.649 73.582 102.706C75.939 102.82 78.2959 101.91 79.963 100.262C79.963 99.9209 80.3079 99.9209 80.6528 99.5799C82.2049 97.8179 83.0672 95.6012 83.1247 93.2708C83.2396 90.9404 82.3199 88.61 80.6528 86.9616C79.5031 85.8817 78.8707 84.3471 78.8707 82.7556C78.8707 79.8568 81.2276 77.5264 84.1594 77.5264C87.0912 77.5264 89.4481 79.8568 89.4481 82.7556C89.3906 84.2334 88.7583 85.5975 87.666 86.6206C86.0564 88.4963 85.1942 90.8267 85.1942 93.2708C85.2516 95.7148 86.1714 97.9884 87.8385 99.6367ZM94.5643 98.2726C91.6326 98.2726 89.2756 95.9422 89.2756 93.0434C89.2756 90.1446 91.6326 87.8142 94.5643 87.8142C97.4961 87.8142 99.853 90.1446 99.853 93.0434C99.9105 95.8854 97.6111 98.2157 94.7368 98.2726C94.6793 98.2726 94.6218 98.2726 94.5643 98.2726ZM108.361 99.6367C108.706 100.319 109.051 100.319 109.051 100.319V100.66L109.396 101.001C109.396 101.342 109.741 101.683 109.741 102.081C109.741 102.479 110.085 103.161 110.085 103.502C110.085 104.184 110.085 104.582 109.741 104.923C109.741 105.264 109.396 105.605 109.396 106.003C109.396 106.173 109.223 106.344 109.051 106.344V106.685L108.361 107.367C107.269 108.049 106.234 108.788 104.797 108.788C103.475 108.845 102.152 108.333 101.233 107.367L100.543 106.685V106.287L100.198 105.946C100.198 105.605 99.853 105.264 99.853 104.866C99.853 104.468 99.5081 103.786 99.5081 103.445C99.5081 102.763 99.5081 102.422 99.853 102.024C99.853 101.683 100.198 101.342 100.198 100.944C100.198 100.773 100.37 100.603 100.543 100.603V100.262L100.888 99.9209L101.233 99.5799C102.785 97.8179 103.647 95.6012 103.705 93.2708C103.82 90.9404 102.9 88.61 101.233 86.9616C100.14 85.9385 99.5081 84.5744 99.4506 83.0966C99.4506 80.1978 101.808 77.8674 104.739 77.8674C107.671 77.8674 110.028 80.1978 110.028 83.0966C109.97 84.5744 109.338 85.9385 108.246 86.9616C106.636 88.8373 105.774 91.1677 105.774 93.6118C105.889 95.7717 106.924 97.8747 108.361 99.6367Z" fill="#FCDC02"/>
<path d="M156.879 122.086V64.2812H171.767V110.491H197.923V122.086H156.879Z" fill="#FCDC02"/>
<path d="M457.529 122.086L428.499 93.3259L457.529 64.6223H436.259L417.864 82.8676V64.2812H402.975V122.086H417.864V103.841L436.259 122.086H457.529Z" fill="#FCDC02"/>
<path d="M287.888 110.832L284.324 122.086H268.746L288.923 64.2812H308.756L328.991 122.086H313.412L309.848 110.832L306.284 99.9761L298.868 75.8195L291.05 99.9761L287.888 110.832Z" fill="#FCDC02"/>
<path d="M353.02 84.2317V122.086H338.878V64.2812H357.274L379.233 103.841V64.2812H393.432V122.086H374.979L353.02 84.2317Z" fill="#FCDC02"/>
<path d="M257.766 99.6365C257.019 97.9882 256.099 96.4535 254.949 95.0894C253.742 93.8958 252.305 92.9295 250.695 92.3043C249.201 91.679 247.648 91.2243 246.096 90.8833C247.533 90.5991 248.971 90.0876 250.35 89.4623C251.672 88.8371 252.88 88.0414 253.914 87.0183C255.007 85.9952 255.754 84.631 256.041 83.1532C256.731 81.7322 256.731 80.0271 256.731 78.2651C256.674 76.5031 256.444 74.7411 256.041 73.0359C255.467 71.2739 254.317 69.6824 252.88 68.4888C251.328 66.9541 249.373 65.8742 247.189 65.3626C244.314 64.6237 241.325 64.2259 238.336 64.2827H207.523V122.031H240.463C246.499 122.031 250.753 120.61 253.914 117.825C257.076 115.04 258.513 111.175 258.513 106.287C258.801 104.07 258.571 101.796 257.766 99.6365ZM222.7 73.718H238.278C239.485 73.7748 240.693 74.0021 241.842 74.4C242.762 74.6274 243.624 75.1389 244.314 75.821C244.889 76.4462 245.407 77.1283 245.751 77.924C246.096 78.7198 246.211 79.5155 246.096 80.3681C246.096 82.0733 245.464 83.6648 244.314 84.9152C243.222 86.3362 241.153 86.6772 238.278 86.6772H222.7V73.718ZM246.096 109.811C245.004 111.232 242.935 111.573 240.06 111.573H222.7V98.6134H240.06C241.268 98.6702 242.475 98.8976 243.624 99.2955C244.544 99.5228 245.407 100.034 246.096 100.716C246.671 101.342 247.189 102.024 247.533 102.819C247.878 103.615 247.993 104.411 247.878 105.264C247.878 106.969 247.533 108.731 246.096 109.811Z" fill="#FCDC02"/>
</svg>
