<svg width="405" height="150" viewBox="0 0 405 150" fill="none" xmlns="http://www.w3.org/2000/svg">
<path d="M68.5734 44C51.3305 44 37.3149 57.8146 37.3149 74.9119C37.3149 92.0091 51.2844 105.824 68.5734 105.824C85.8623 105.824 99.8318 92.0091 99.8318 74.9574C99.5091 57.769 85.6318 44 68.5734 44ZM71.4318 79.927C72.3539 80.7021 72.861 81.8419 72.861 83.0274C72.8149 85.3526 70.9247 87.1763 68.6195 87.2219C67.4208 87.1763 66.3143 86.6748 65.4844 85.8085C62.3955 83.1641 57.7851 83.1641 54.6961 85.8085L54.4195 86.0821C53.5896 86.6292 52.7136 87.2219 51.561 87.2219C50.5007 87.2675 49.4403 86.8571 48.7026 86.0821L48.1494 85.535V85.2614L47.8727 84.9878C47.8727 84.7143 47.5961 84.4407 47.5961 84.1216C47.5961 83.8024 47.3195 83.2553 47.3195 82.9818C47.3195 82.4347 47.3195 82.1611 47.5961 81.8419C47.5961 81.5684 47.8727 81.2948 47.8727 80.9757C47.8727 80.8389 48.011 80.7021 48.1494 80.7021V80.4286C48.7026 80.4286 48.7026 80.4286 48.7026 80.155L48.9792 79.8815C50.224 78.4681 50.9156 76.69 50.9617 74.8207C51.0539 72.9514 50.3162 71.0821 48.9792 69.7599C48.2416 68.7568 47.8727 67.617 47.8266 66.386C47.8727 64.0608 49.763 62.2371 52.0682 62.1915C54.3273 62.1915 56.0331 64.152 56.0331 66.386C55.987 67.5714 55.4799 68.6657 54.6039 69.4863C51.9299 72.541 51.9299 77.1003 54.6039 80.155L54.8805 80.4286C56.3097 81.6596 58.1078 82.3435 59.9981 82.3891C61.8883 82.4803 63.7786 81.7508 65.1156 80.4286C65.1156 80.155 65.3922 80.155 65.6688 79.8815C66.9136 78.4681 67.6052 76.69 67.6513 74.8207C67.7435 72.9514 67.0058 71.0821 65.6688 69.7599C64.7468 68.8936 64.2396 67.6626 64.2396 66.386C64.2396 64.0608 66.1299 62.1915 68.4812 62.1915C70.8325 62.1915 72.7227 64.0608 72.7227 66.386C72.6766 67.5714 72.1695 68.6657 71.2935 69.4863C70.0026 70.9909 69.311 72.8602 69.311 74.8207C69.3571 76.7812 70.0948 78.6049 71.4318 79.927ZM76.826 78.8328C74.4747 78.8328 72.5844 76.9635 72.5844 74.6383C72.5844 72.3131 74.4747 70.4438 76.826 70.4438C79.1773 70.4438 81.0675 72.3131 81.0675 74.6383C81.1136 76.9179 79.2695 78.7872 76.9643 78.8328C76.9182 78.8328 76.8721 78.8328 76.826 78.8328ZM87.8909 79.927C88.1675 80.4742 88.4442 80.4742 88.4442 80.4742V80.7477L88.7208 81.0213C88.7208 81.2948 88.9974 81.5684 88.9974 81.8875C88.9974 82.2067 89.274 82.7538 89.274 83.0274C89.274 83.5745 89.274 83.8936 88.9974 84.1672C88.9974 84.4407 88.7208 84.7143 88.7208 85.0334C88.7208 85.1702 88.5825 85.307 88.4442 85.307V85.5806L87.8909 86.1277C87.0149 86.6748 86.1851 87.2675 85.0325 87.2675C83.9721 87.3131 82.9117 86.9027 82.174 86.1277L81.6208 85.5806V85.2614L81.3442 84.9878C81.3442 84.7143 81.0675 84.4407 81.0675 84.1216C81.0675 83.8024 80.7909 83.2553 80.7909 82.9818C80.7909 82.4347 80.7909 82.1611 81.0675 81.8419C81.0675 81.5684 81.3442 81.2948 81.3442 80.9757C81.3442 80.8389 81.4825 80.7021 81.6208 80.7021V80.4286L81.8974 80.155L82.174 79.8815C83.4188 78.4681 84.1104 76.69 84.1565 74.8207C84.2487 72.9514 83.511 71.0821 82.174 69.7599C81.2981 68.9392 80.7909 67.845 80.7448 66.6596C80.7448 64.3344 82.6351 62.465 84.9864 62.465C87.3377 62.465 89.2279 64.3344 89.2279 66.6596C89.1818 67.845 88.6747 68.9392 87.7987 69.7599C86.5078 71.2644 85.8162 73.1337 85.8162 75.0942C85.9084 76.8268 86.7383 78.5137 87.8909 79.927Z" fill="#FCDC02"/>
<path d="M126.802 97.9303V51.5625H138.743V88.6294H159.72V97.9303H126.802Z" fill="#FCDC02"/>
<path d="M367.926 97.9303L344.643 74.8604L367.926 51.8361H350.868L336.114 66.4713V51.5625H324.173V97.9303H336.114V83.295L350.868 97.9303H367.926Z" fill="#FCDC02"/>
<path d="M231.873 88.9029L229.014 97.9303H216.52L232.703 51.5625H248.609L264.837 97.9303H252.343L249.485 88.9029L246.626 80.1947L240.679 60.8178L234.409 80.1947L231.873 88.9029Z" fill="#FCDC02"/>
<path d="M284.108 67.5655V97.9303H272.766V51.5625H287.519L305.131 83.295V51.5625H316.519V97.9303H301.719L284.108 67.5655Z" fill="#FCDC02"/>
<path d="M207.715 79.9255C207.115 78.6033 206.378 77.3723 205.456 76.278C204.487 75.3206 203.335 74.5455 202.044 74.044C200.845 73.5425 199.6 73.1777 198.356 72.9042C199.508 72.6762 200.661 72.2659 201.767 71.7644C202.828 71.2628 203.796 70.6245 204.626 69.8039C205.502 68.9832 206.101 67.889 206.331 66.7036C206.885 65.5638 206.885 64.196 206.885 62.7826C206.839 61.3692 206.654 59.9559 206.331 58.5881C205.87 57.1747 204.948 55.8981 203.796 54.9407C202.551 53.7097 200.983 52.8434 199.231 52.4331C196.926 51.8404 194.529 51.5212 192.131 51.5668H167.42V97.889H193.837C198.678 97.889 202.09 96.7492 204.626 94.5151C207.161 92.2811 208.314 89.1808 208.314 85.2598C208.544 83.4817 208.36 81.658 207.715 79.9255ZM179.591 59.1352H192.085C193.054 59.1808 194.022 59.3631 194.944 59.6823C195.681 59.8647 196.373 60.275 196.926 60.8221C197.387 61.3236 197.802 61.8707 198.079 62.509C198.356 63.1473 198.448 63.7856 198.356 64.4695C198.356 65.8373 197.848 67.1139 196.926 68.1169C196.05 69.2568 194.391 69.5303 192.085 69.5303H179.591V59.1352ZM198.356 88.0866C197.48 89.2264 195.82 89.4999 193.515 89.4999H179.591V79.1048H193.515C194.483 79.1504 195.451 79.3328 196.373 79.6519C197.111 79.8343 197.802 80.2446 198.356 80.7917C198.817 81.2932 199.231 81.8403 199.508 82.4786C199.785 83.1169 199.877 83.7553 199.785 84.4391C199.785 85.8069 199.508 87.2203 198.356 88.0866Z" fill="#FCDC02"/>
</svg>
