<svg width="180" height="236" viewBox="0 0 180 236" fill="none" xmlns="http://www.w3.org/2000/svg">
<path d="M73.5729 37.5685C75.3354 35.8594 76.8987 34.1736 78.6415 32.7024C82.3655 29.5588 86.5923 28.0722 91.5778 27.7396C99.9304 27.1824 106.227 30.2948 111.96 36.2029C127.036 51.7406 142.264 67.1382 157.752 82.2606C167.149 91.4364 167.572 106.938 157.654 116.686C141.809 132.262 126.291 148.173 110.626 163.934C100.337 174.287 86.4677 174.222 76.1483 163.825C60.5514 148.111 45.0704 132.277 29.2763 116.766C19.3074 106.976 19.5843 91.3793 29.5117 81.7705C44.416 67.3445 58.8316 52.4083 73.5729 37.5685ZM72.8172 145.112C87.4025 145.106 101.988 145.151 116.573 145.079C129.05 145.018 138.76 135.287 138.806 122.8C138.863 107.238 138.86 91.6759 138.795 76.1141C138.745 64.089 129.105 53.9845 117.187 53.8281C101.382 53.6207 85.5708 53.6375 69.765 53.8159C58.0096 53.9486 48.148 64.0254 48.0707 75.7789C47.9673 91.5042 47.9544 107.231 48.0558 122.956C48.1407 136.113 59.299 146.186 72.8172 145.112Z" fill="white"/>
<path d="M45.3862 205.958C46.8611 205.742 48.9429 206.614 48.9765 204.629C49.0103 202.637 46.9373 203.261 45.679 203.245C40.7907 203.181 35.9009 203.248 31.0121 203.204C25.5831 203.155 21.8377 199.431 21.8448 194.169C21.8516 189.099 25.6349 185.316 30.9042 185.275C38.6448 185.215 46.3868 185.305 54.1269 185.215C56.1506 185.192 56.8393 185.907 56.8458 187.918C56.8618 192.851 56.9358 192.85 51.9689 192.852C45.5316 192.854 39.0942 192.855 32.6569 192.863C32.0061 192.864 31.3506 192.862 30.7056 192.936C29.9677 193.02 29.5156 193.471 29.5062 194.238C29.4965 195.022 29.9808 195.471 30.7082 195.524C31.9248 195.611 33.1482 195.628 34.3689 195.632C38.769 195.646 43.1732 195.524 47.5685 195.673C54.3664 195.903 58.5395 202.201 55.9091 208.206C54.5652 211.274 52.3449 213.129 48.7295 213.089C40.745 213 32.7572 212.979 24.7741 213.121C22.348 213.164 21.5187 212.308 21.8348 210.014C21.9012 209.531 21.8958 209.026 21.8378 208.542C21.6037 206.587 22.529 205.95 24.3787 205.962C31.3046 206.007 38.231 205.966 45.3862 205.958Z" fill="white"/>
<path d="M88.6096 186.645C91.6384 188.571 92.9023 191.349 92.967 194.613C93.0723 199.928 92.9296 205.248 92.9794 210.566C92.9971 212.457 92.2944 213.142 90.3808 213.097C84.5232 212.96 85.5402 213.584 85.4565 208.105C85.3711 202.517 86.0362 203.253 80.6877 203.216C76.2926 203.186 71.8965 203.251 67.5023 203.185C65.8271 203.16 65.1337 203.785 65.2164 205.49C65.3075 207.368 65.201 209.254 65.2422 211.134C65.2712 212.456 64.748 212.983 63.3884 213.08C57.7293 213.484 57.7367 213.524 57.7445 207.74C57.7499 203.731 57.7065 199.722 57.7454 195.714C57.812 188.84 61.3876 185.274 68.1752 185.258C73.1401 185.247 78.1053 185.27 83.0701 185.239C84.985 185.226 86.7923 185.551 88.6096 186.645ZM65.7692 193.549C64.6877 195.429 65.8871 195.626 67.3031 195.628C72.5735 195.636 77.844 195.655 83.1141 195.613C83.9803 195.606 85.3404 195.999 85.2912 194.447C85.248 193.081 84.1139 192.872 82.9765 192.872C78.5169 192.871 74.0572 192.842 69.5979 192.878C68.4082 192.887 67.1575 192.557 65.7692 193.549Z" fill="white"/>
<path d="M136.36 213.007C129.302 212.994 130.09 214.052 130.072 206.916C130.062 202.987 130.044 199.057 130.066 195.128C130.1 189.074 133.811 185.316 139.817 185.276C145.11 185.241 150.404 185.226 155.698 185.266C161.335 185.31 164.997 189.04 165.005 194.668C165.013 199.908 164.94 205.148 165.041 210.386C165.078 212.344 164.553 213.131 162.453 213.108C157.295 213.051 157.294 213.148 157.647 208.004C157.681 207.514 157.737 207.023 157.725 206.534C157.655 203.424 157.434 203.207 154.371 203.203C149.566 203.198 144.76 203.255 139.956 203.165C138.15 203.132 137.448 203.766 137.56 205.588C137.67 207.381 137.593 209.188 137.562 210.989C137.549 211.785 137.675 212.692 136.36 213.007ZM143.09 195.641C147.164 195.637 151.239 195.666 155.313 195.603C156.157 195.59 157.531 196.057 157.488 194.44C157.45 193.012 156.328 192.859 155.19 192.86C151.686 192.861 148.182 192.852 144.678 192.85C143.048 192.849 141.418 192.851 139.788 192.861C138.707 192.868 137.751 193.21 137.708 194.439C137.659 195.821 138.834 195.57 139.676 195.617C140.651 195.672 141.631 195.637 143.09 195.641Z" fill="white"/>
<path d="M110.057 192.855C107.776 192.857 105.739 192.861 103.703 192.862C102.21 192.862 101.434 193.579 101.435 195.109C101.436 197.975 101.437 200.841 101.417 203.708C101.407 205.232 102.123 205.967 103.646 205.964C108.86 205.953 114.074 205.961 119.289 205.959C120.929 205.958 121.626 205.074 121.609 203.479C121.589 201.595 121.664 199.709 121.593 197.829C121.532 196.229 122.261 195.703 123.775 195.618C129.08 195.319 129.135 195.333 129.132 200.629C129.131 202.757 129.208 204.889 128.638 206.974C127.572 210.878 124.836 213.044 120.842 213.057C114.812 213.076 108.783 213.066 102.754 213.059C97.6557 213.054 94.3205 210.109 93.9791 204.932C93.7372 201.263 93.7368 197.555 93.9589 193.884C94.2626 188.864 97.988 185.337 102.932 185.282C110.834 185.194 118.738 185.293 126.641 185.227C128.447 185.212 129.066 185.927 129.128 187.676C129.309 192.858 129.356 192.855 124.233 192.854C119.589 192.853 114.945 192.854 110.057 192.855Z" fill="white"/>
<path d="M53.1285 94.3333C60.8829 86.3661 68.5287 78.5447 76.1994 70.7481C79.4634 67.4305 82.8314 64.2152 86.0595 60.8632C90.4527 56.3014 96.1105 56.227 100.693 60.8337C110.023 70.2128 119.329 79.6152 128.645 89.008C129.968 90.3415 131.338 91.6312 132.604 93.0169C136.145 96.8912 136.202 102.372 132.538 106.092C121.705 117.089 110.826 128.039 99.8859 138.927C95.9687 142.825 90.5304 142.554 86.3748 138.398C76.6746 128.696 67.0216 118.946 57.3494 109.216C56.5434 108.405 55.7309 107.601 54.931 106.784C51.2835 103.059 50.6937 99.2338 53.1285 94.3333Z" fill="white"/>
</svg>
