<svg width="169" height="220" viewBox="0 0 169 220" fill="none" xmlns="http://www.w3.org/2000/svg">
<path d="M68.8481 35.0189C70.4911 33.4257 71.9485 31.8541 73.5731 30.4827C77.0446 27.5522 80.9849 26.1665 85.6324 25.8564C93.4187 25.3369 99.2885 28.2383 104.632 33.7459C118.687 48.2301 132.882 62.5839 147.32 76.681C156.08 85.2347 156.474 99.6855 147.229 108.773C132.458 123.292 117.992 138.125 103.389 152.817C93.7973 162.468 80.8687 162.408 71.2489 152.716C56.7095 138.067 42.2781 123.307 27.5547 108.847C18.2617 99.7204 18.5198 85.1815 27.7742 76.2241C41.668 62.7762 55.1063 48.8526 68.8481 35.0189ZM68.1437 135.272C81.7402 135.266 95.3369 135.307 108.933 135.241C120.565 135.184 129.616 126.112 129.658 114.472C129.711 99.9654 129.709 85.458 129.649 70.9512C129.602 59.7414 120.616 50.322 109.506 50.1762C94.772 49.9828 80.0326 49.9985 65.2985 50.1648C54.34 50.2885 45.147 59.6821 45.0749 70.6388C44.9785 85.2979 44.9665 99.9586 45.0611 114.618C45.1402 126.882 55.542 136.273 68.1437 135.272Z" fill="white"/>
<path d="M42.5727 191.993C43.9476 191.792 45.8883 192.604 45.9196 190.754C45.9511 188.898 44.0187 189.479 42.8457 189.464C38.2888 189.404 33.7305 189.467 29.1732 189.426C24.1122 189.38 20.6208 185.908 20.6274 181.004C20.6337 176.277 24.1605 172.751 29.0726 172.713C36.2884 172.656 43.5055 172.741 50.7209 172.657C52.6073 172.635 53.2493 173.301 53.2554 175.176C53.2703 179.775 53.3393 179.774 48.7091 179.776C42.7082 179.777 36.7073 179.779 30.7064 179.786C30.0997 179.786 29.4887 179.785 28.8875 179.854C28.1995 179.932 27.7781 180.353 27.7693 181.067C27.7603 181.799 28.2117 182.217 28.8898 182.266C30.024 182.348 31.1644 182.363 32.3024 182.367C36.4042 182.38 40.5098 182.266 44.607 182.405C50.9442 182.62 54.8343 188.491 52.3822 194.089C51.1294 196.949 49.0597 198.678 45.6894 198.64C38.2462 198.558 30.8 198.538 23.3581 198.67C21.0964 198.71 20.3234 197.912 20.618 195.774C20.68 195.324 20.6749 194.853 20.6208 194.402C20.4026 192.58 21.2652 191.985 22.9895 191.997C29.4458 192.038 35.9026 192.001 42.5727 191.993Z" fill="white"/>
<path d="M82.8653 173.991C85.6887 175.786 86.8669 178.376 86.9272 181.419C87.0254 186.374 86.8923 191.333 86.9388 196.29C86.9553 198.054 86.3002 198.692 84.5164 198.65C79.0559 198.522 80.0039 199.104 79.9259 193.996C79.8463 188.787 80.4663 189.473 75.4804 189.439C71.3833 189.41 67.2853 189.471 63.1889 189.41C61.6273 189.386 60.9809 189.969 61.0581 191.559C61.143 193.309 61.0437 195.067 61.0821 196.82C61.1091 198.052 60.6214 198.544 59.354 198.634C54.0785 199.011 54.0854 199.048 54.0927 193.656C54.0977 189.919 54.0572 186.181 54.0935 182.445C54.1556 176.038 57.4888 172.713 63.8162 172.698C68.4446 172.688 73.0731 172.709 77.7013 172.68C79.4864 172.669 81.1711 172.971 82.8653 173.991ZM61.5734 180.427C60.5652 182.179 61.6833 182.363 63.0032 182.365C67.9163 182.373 72.8295 182.39 77.7423 182.351C78.5498 182.345 79.8177 182.711 79.7719 181.264C79.7315 179.991 78.6743 179.796 77.614 179.796C73.4568 179.795 69.2994 179.768 65.1425 179.801C64.0334 179.81 62.8676 179.502 61.5734 180.427Z" fill="white"/>
<path d="M127.378 198.566C120.799 198.554 121.534 199.54 121.517 192.888C121.508 189.225 121.491 185.562 121.512 181.899C121.543 176.256 125.003 172.753 130.601 172.715C135.536 172.683 140.471 172.668 145.406 172.706C150.661 172.747 154.074 176.223 154.082 181.471C154.089 186.355 154.021 191.24 154.115 196.123C154.15 197.948 153.66 198.682 151.702 198.66C146.894 198.607 146.894 198.698 147.222 193.902C147.254 193.446 147.306 192.988 147.296 192.532C147.23 189.633 147.024 189.43 144.169 189.427C139.689 189.422 135.209 189.476 130.731 189.392C129.047 189.36 128.393 189.952 128.497 191.65C128.599 193.322 128.528 195.006 128.499 196.685C128.487 197.426 128.604 198.273 127.378 198.566ZM133.652 182.378C137.45 182.374 141.249 182.401 145.047 182.342C145.834 182.33 147.114 182.765 147.074 181.257C147.039 179.927 145.993 179.784 144.932 179.785C141.666 179.786 138.399 179.777 135.133 179.776C133.613 179.775 132.094 179.776 130.575 179.786C129.567 179.792 128.676 180.111 128.635 181.257C128.59 182.546 129.685 182.311 130.47 182.355C131.379 182.406 132.292 182.374 133.652 182.378Z" fill="white"/>
<path d="M102.859 179.783C100.732 179.785 98.8337 179.789 96.9349 179.789C95.5436 179.79 94.8206 180.458 94.8211 181.884C94.8221 184.556 94.8228 187.228 94.8045 189.9C94.7947 191.321 95.4622 192.006 96.8819 192.003C101.743 191.993 106.604 192.001 111.464 191.998C112.994 191.997 113.643 191.173 113.627 189.687C113.609 187.931 113.679 186.173 113.612 184.42C113.555 182.928 114.236 182.438 115.646 182.358C120.592 182.08 120.643 182.093 120.64 187.03C120.639 189.014 120.711 191.001 120.18 192.945C119.186 196.584 116.636 198.603 112.912 198.615C107.292 198.633 101.671 198.624 96.0507 198.618C91.298 198.613 88.1889 195.868 87.8707 191.042C87.6452 187.621 87.6448 184.164 87.8518 180.742C88.135 176.063 91.6078 172.775 96.2166 172.724C103.583 172.642 110.951 172.734 118.318 172.672C120.002 172.658 120.579 173.325 120.636 174.955C120.806 179.786 120.849 179.783 116.074 179.782C111.744 179.781 107.415 179.782 102.859 179.783Z" fill="white"/>
<path d="M49.7896 87.9355C57.0183 80.5085 64.1457 73.2174 71.2964 65.9493C74.3391 62.8566 77.4787 59.8593 80.488 56.7346C84.5834 52.4821 89.8576 52.4127 94.1294 56.707C102.827 65.4502 111.502 74.2152 120.187 82.9712C121.42 84.2144 122.697 85.4166 123.877 86.7084C127.178 90.32 127.231 95.4297 123.815 98.897C113.717 109.148 103.575 119.356 93.377 129.506C89.7254 133.14 84.6558 132.887 80.7819 129.013C71.7394 119.969 62.7408 110.88 53.7243 101.809C52.973 101.053 52.2156 100.304 51.4699 99.5422C48.0696 96.0701 47.5199 92.5037 49.7896 87.9355Z" fill="white"/>
</svg>
