<svg width="312" height="64" viewBox="0 0 312 64" fill="none" xmlns="http://www.w3.org/2000/svg">
<g clip-path="url(#clip0_924_267)">
<path d="M30.8041 1.9027C30.8041 2.95354 29.9725 3.80542 28.9465 3.80542C27.9205 3.80542 27.0887 2.95354 27.0887 1.9027C27.0887 0.851868 27.9205 0 28.9465 0C29.9725 0 30.8041 0.851868 30.8041 1.9027Z" fill="url(#paint0_radial_924_267)"/>
<path d="M6.3157 45.4926C6.3157 46.5434 5.48396 47.3951 4.45796 47.3951C3.43196 47.3951 2.60022 46.5434 2.60022 45.4926C2.60022 44.4415 3.43196 43.5898 4.45796 43.5898C5.48396 43.5898 6.3157 44.4415 6.3157 45.4926Z" fill="url(#paint1_radial_924_267)"/>
<path d="M53.6035 47.3951C54.6295 47.3951 55.4613 46.5434 55.4613 45.4926C55.4613 44.4415 54.6295 43.5898 53.6035 43.5898C52.5776 43.5898 51.7457 44.4415 51.7457 45.4926C51.7457 46.5434 52.5776 47.3951 53.6035 47.3951Z" fill="url(#paint2_radial_924_267)"/>
<path d="M24.2177 5.70961C24.2177 6.95149 23.2347 7.95826 22.0222 7.95826C20.8096 7.95826 19.8267 6.95149 19.8267 5.70961C19.8267 4.46771 20.8096 3.46094 22.0222 3.46094C23.2347 3.46094 24.2177 4.46771 24.2177 5.70961Z" fill="url(#paint3_radial_924_267)"/>
<path d="M28.4396 11.9387C29.6522 11.9387 30.6351 10.9319 30.6351 9.69005C30.6351 8.44814 29.6522 7.44141 28.4396 7.44141C27.2271 7.44141 26.2441 8.44814 26.2441 9.69005C26.2441 10.9319 27.2271 11.9387 28.4396 11.9387Z" fill="url(#paint4_radial_924_267)"/>
<path d="M30.4663 19.7174C30.4663 20.9593 29.4834 21.966 28.2708 21.966C27.0583 21.966 26.0753 20.9593 26.0753 19.7174C26.0753 18.4755 27.0583 17.4688 28.2708 17.4688C29.4834 17.4688 30.4663 18.4755 30.4663 19.7174Z" fill="url(#paint5_radial_924_267)"/>
<path d="M29.0309 33.2121C30.2435 33.2121 31.2265 32.2053 31.2265 30.9635C31.2265 29.7216 30.2435 28.7148 29.0309 28.7148C27.8184 28.7148 26.8354 29.7216 26.8354 30.9635C26.8354 32.2053 27.8184 33.2121 29.0309 33.2121Z" fill="url(#paint6_radial_924_267)"/>
<path d="M13.409 42.3775C13.409 43.6194 12.426 44.6261 11.2135 44.6261C10.0009 44.6261 9.01794 43.6194 9.01794 42.3775C9.01794 41.1357 10.0009 40.1289 11.2135 40.1289C12.426 40.1289 13.409 41.1357 13.409 42.3775Z" fill="url(#paint7_radial_924_267)"/>
<path d="M4.28937 40.1264C5.50193 40.1264 6.48487 39.1197 6.48487 37.8778C6.48487 36.6357 5.50193 35.6289 4.28937 35.6289C3.07683 35.6289 2.09387 36.6357 2.09387 37.8778C2.09387 39.1197 3.07683 40.1264 4.28937 40.1264Z" fill="url(#paint8_radial_924_267)"/>
<path d="M13.409 49.815C13.409 51.0569 12.426 52.0636 11.2135 52.0636C10.0009 52.0636 9.01794 51.0569 9.01794 49.815C9.01794 48.5732 10.0009 47.5664 11.2135 47.5664C12.426 47.5664 13.409 48.5732 13.409 49.815Z" fill="url(#paint9_radial_924_267)"/>
<path d="M47.3548 43.2436C48.5673 43.2436 49.5502 42.2369 49.5502 40.9947C49.5502 39.7529 48.5673 38.7461 47.3548 38.7461C46.1423 38.7461 45.1593 39.7529 45.1593 40.9947C45.1593 42.2369 46.1423 43.2436 47.3548 43.2436Z" fill="url(#paint10_radial_924_267)"/>
<path d="M49.2126 49.1236C49.2126 50.3655 48.2296 51.3722 47.0171 51.3722C45.8046 51.3722 44.8217 50.3655 44.8217 49.1236C44.8217 47.8818 45.8046 46.875 47.0171 46.875C48.2296 46.875 49.2126 47.8818 49.2126 49.1236Z" fill="url(#paint11_radial_924_267)"/>
<path d="M53.9412 39.5246C55.154 39.5246 56.137 38.5178 56.137 37.276C56.137 36.0341 55.154 35.0273 53.9412 35.0273C52.7287 35.0273 51.7457 36.0341 51.7457 37.276C51.7457 38.5178 52.7287 39.5246 53.9412 39.5246Z" fill="url(#paint12_radial_924_267)"/>
<path d="M41.1061 35.8075C41.1061 37.0494 40.1232 38.0561 38.9107 38.0561C37.6982 38.0561 36.7152 37.0494 36.7152 35.8075C36.7152 34.5654 37.6982 33.5586 38.9107 33.5586C40.1232 33.5586 41.1061 34.5654 41.1061 35.8075Z" fill="url(#paint13_radial_924_267)"/>
<path d="M35.1105 18.6807C36.6495 18.6807 37.8972 17.403 37.8972 15.8267C37.8972 14.2504 36.6495 12.9727 35.1105 12.9727C33.5717 12.9727 32.3241 14.2504 32.3241 15.8267C32.3241 17.403 33.5717 18.6807 35.1105 18.6807Z" fill="url(#paint14_radial_924_267)"/>
<path d="M24.3867 15.8267C24.3867 17.403 23.139 18.6807 21.6001 18.6807C20.0611 18.6807 18.8135 17.403 18.8135 15.8267C18.8135 14.2504 20.0611 12.9727 21.6001 12.9727C23.139 12.9727 24.3867 14.2504 24.3867 15.8267Z" fill="url(#paint15_radial_924_267)"/>
<path d="M12.9025 14.0087C14.7679 14.0087 16.2802 12.4599 16.2802 10.5493C16.2802 8.63867 14.7679 7.08984 12.9025 7.08984C11.037 7.08984 9.52478 8.63867 9.52478 10.5493C9.52478 12.4599 11.037 14.0087 12.9025 14.0087Z" fill="url(#paint16_radial_924_267)"/>
<path d="M7.66687 28.0181C7.66687 29.9287 6.15465 31.4777 4.28919 31.4777C2.42374 31.4777 0.911499 29.9287 0.911499 28.0181C0.911499 26.1075 2.42374 24.5586 4.28919 24.5586C6.15465 24.5586 7.66687 26.1075 7.66687 28.0181Z" fill="url(#paint17_radial_924_267)"/>
<path d="M48.0302 21.7925C48.0302 21.5123 47.9948 21.2407 47.9323 20.9778L50.8572 18.9402C51.553 19.7359 52.563 20.2358 53.6878 20.2358C55.7871 20.2358 57.4878 18.4939 57.4878 16.3439C57.4878 14.1938 55.7871 12.452 53.6878 12.452C52.678 12.452 51.7609 12.8567 51.0801 13.5141L46.9713 11.0855C46.9983 10.9108 47.0151 10.7326 47.0151 10.5493C47.0151 8.63794 45.5037 7.08984 43.6375 7.08984C41.7713 7.08984 40.2599 8.63794 40.2599 10.5493C40.2599 12.4606 41.7713 14.0087 43.6375 14.0087C44.5766 14.0087 45.4259 13.6161 46.0373 12.983L50.0163 15.3354C49.9319 15.6572 49.8862 15.9962 49.8862 16.3439C49.8862 16.5722 49.9064 16.7936 49.9436 17.0116L46.8481 19.1685C46.2569 18.6496 45.4902 18.3331 44.6508 18.3331C42.7846 18.3331 41.2732 19.8812 41.2732 21.7925C41.2732 23.7039 42.7846 25.252 44.6508 25.252C46.517 25.252 48.0284 23.7039 48.0284 21.7925H48.0302Z" fill="url(#paint18_radial_924_267)"/>
<path d="M57.6567 26.811C57.6567 28.7216 56.1444 30.2705 54.2791 30.2705C52.4135 30.2705 50.9015 28.7216 50.9015 26.811C50.9015 24.9004 52.4135 23.3516 54.2791 23.3516C56.1444 23.3516 57.6567 24.9004 57.6567 26.811Z" fill="url(#paint19_radial_924_267)"/>
<path d="M39.8648 51.0379V46.653C40.8664 46.2204 41.5706 45.205 41.5706 44.0219C41.5706 42.4462 40.3227 41.1681 38.7839 41.1681C38.0984 41.1681 37.4702 41.4241 36.9838 41.8444L31.8124 39.7893C31.7703 38.2499 30.5425 37.0148 29.0292 37.0148C28.1781 37.0148 27.4181 37.4059 26.9064 38.0216L21.9462 36.6151C21.8078 36.0773 21.4835 35.6173 21.0444 35.3164L21.7993 29.3746C23.1639 29.1896 24.2177 27.996 24.2177 26.5482C24.2177 24.9725 22.9697 23.6942 21.4311 23.6942C20.8468 23.6942 20.3064 23.8793 19.8588 24.1924L16.5841 22.2568C16.6044 22.1046 16.6179 21.9506 16.6179 21.7915C16.6179 19.8802 15.1064 18.332 13.2402 18.332C11.3741 18.332 9.86255 19.8802 9.86255 21.7915C9.86255 23.7029 11.3741 25.251 13.2402 25.251C14.2029 25.251 15.0692 24.8358 15.6857 24.1733L18.7053 25.9584C18.6665 26.1487 18.6462 26.3459 18.6462 26.5465C18.6462 27.4892 19.0938 28.3212 19.7811 28.8419L18.9857 35.1087C18.1919 35.4478 17.6346 36.2487 17.6346 37.1844C17.6346 38.4262 18.6175 39.433 19.8301 39.433C20.482 39.433 21.0663 39.1407 21.4683 38.677L26.2562 40.0333C26.3423 41.5311 27.5515 42.7195 29.0343 42.7195C29.8551 42.7195 30.5897 42.3545 31.0998 41.7751L36.0143 43.7281C36.0059 43.8231 36.0008 43.9182 36.0008 44.0167C36.0008 45.2345 36.7474 46.2724 37.7976 46.6822V51.0016C36.4163 51.4358 35.4096 52.7521 35.4096 54.3087C35.4096 56.2201 36.9213 57.7681 38.7875 57.7681C40.6537 57.7681 42.1651 56.2201 42.1651 54.3087C42.1651 52.7865 41.2026 51.4961 39.8684 51.0327L39.8648 51.0379Z" fill="url(#paint20_radial_924_267)"/>
<path d="M32.4084 49.4711C32.4084 51.3819 30.8961 52.9308 29.0307 52.9308C27.1652 52.9308 25.653 51.3819 25.653 49.4711C25.653 47.5606 27.1652 46.0117 29.0307 46.0117C30.8961 46.0117 32.4084 47.5606 32.4084 49.4711Z" fill="url(#paint21_radial_924_267)"/>
<path d="M19.6577 58.9813C21.5232 58.9813 23.0354 57.4327 23.0354 55.5219C23.0354 53.6114 21.5232 52.0625 19.6577 52.0625C17.7923 52.0625 16.28 53.6114 16.28 55.5219C16.28 57.4327 17.7923 58.9813 19.6577 58.9813Z" fill="url(#paint22_radial_924_267)"/>
<path d="M32.8308 60.1065C32.8308 62.2561 31.1296 63.9985 29.031 63.9985C26.9324 63.9985 25.2311 62.2561 25.2311 60.1065C25.2311 57.9573 26.9324 56.2148 29.031 56.2148C31.1296 56.2148 32.8308 57.9573 32.8308 60.1065Z" fill="url(#paint23_radial_924_267)"/>
<path d="M4.37376 20.2369C6.47237 20.2369 8.17365 18.4944 8.17365 16.345C8.17365 14.1956 6.47237 12.4531 4.37376 12.4531C2.27513 12.4531 0.573853 14.1956 0.573853 16.345C0.573853 18.4944 2.27513 20.2369 4.37376 20.2369Z" fill="url(#paint24_radial_924_267)"/>
<path d="M15.7734 33.2993C15.7734 34.8756 14.5258 36.1535 12.9868 36.1535C11.4478 36.1535 10.2002 34.8756 10.2002 33.2993C10.2002 31.723 11.4478 30.4453 12.9868 30.4453C14.5258 30.4453 15.7734 31.723 15.7734 33.2993Z" fill="url(#paint25_radial_924_267)"/>
<path d="M19.7421 48.083C21.2812 48.083 22.5287 46.8052 22.5287 45.2288C22.5287 43.6528 21.2812 42.375 19.7421 42.375C18.2031 42.375 16.9556 43.6528 16.9556 45.2288C16.9556 46.8052 18.2031 48.083 19.7421 48.083Z" fill="url(#paint26_radial_924_267)"/>
<path d="M48.3681 32.0884C48.3681 33.6647 47.1205 34.9426 45.5814 34.9426C44.0427 34.9426 42.795 33.6647 42.795 32.0884C42.795 30.5122 44.0427 29.2344 45.5814 29.2344C47.1205 29.2344 48.3681 30.5122 48.3681 32.0884Z" fill="url(#paint27_radial_924_267)"/>
<path d="M36.4619 29.4034C38.0009 29.4034 39.2483 28.1256 39.2483 26.5494C39.2483 24.9731 38.0009 23.6953 36.4619 23.6953C34.9228 23.6953 33.6752 24.9731 33.6752 26.5494C33.6752 28.1256 34.9228 29.4034 36.4619 29.4034Z" fill="url(#paint28_radial_924_267)"/>
<path d="M37.7285 5.70961C37.7285 6.95149 36.7455 7.95826 35.533 7.95826C34.3205 7.95826 33.3375 6.95149 33.3375 5.70961C33.3375 4.46771 34.3205 3.46094 35.533 3.46094C36.7455 3.46094 37.7285 4.46771 37.7285 5.70961Z" fill="url(#paint29_radial_924_267)"/>
<path fill-rule="evenodd" clip-rule="evenodd" d="M111.069 53.8404C108.549 52.3552 106.55 50.2903 105.072 47.6669V47.6561C103.626 45.0183 102.897 42.0121 102.869 38.6623C102.841 35.3121 103.467 32.27 104.78 29.6431C106.124 26.9875 107.99 24.8831 110.368 23.3441C112.762 21.7944 115.517 21.0178 118.6 20.9891C121.641 20.9605 124.333 21.662 126.645 23.1294C128.978 24.5466 130.791 26.5437 132.072 29.0991C133.349 31.6546 133.993 34.55 134.025 37.7675C134.032 38.6121 133.779 39.378 133.212 39.9792L133.177 40.0149C132.607 40.5589 131.885 40.8023 131.097 40.8096L108.996 41.0207C109.225 42.3127 109.629 43.4903 110.21 44.5601C111.182 46.2746 112.473 47.6096 114.099 48.5795C115.711 49.5423 117.576 50.0253 119.73 50.0038C121 49.993 122.274 49.7604 123.555 49.3023C124.889 48.8013 125.899 48.2072 126.621 47.545L126.638 47.5272C127.201 47.037 127.866 46.7792 128.598 46.7647C129.32 46.7112 129.999 46.901 130.569 47.3663L130.618 47.409C131.245 47.9961 131.653 48.7296 131.671 49.5958C131.73 50.469 131.379 51.2136 130.741 51.7755C129.397 52.9816 127.708 53.9764 125.695 54.7783L125.681 54.7853C123.661 55.5478 121.694 55.945 119.783 55.9629C116.559 55.9952 113.652 55.297 111.083 53.8478L111.069 53.8404ZM123.679 28.301C122.313 27.3955 120.652 26.9338 118.656 26.9517C116.63 26.9696 114.894 27.485 113.42 28.4656C111.935 29.4534 110.777 30.817 109.946 32.585C109.552 33.4404 109.257 34.3638 109.063 35.3552L127.947 35.1761C127.754 34.0989 127.44 33.1004 127.001 32.1733C126.216 30.5056 125.111 29.2244 123.685 28.3081L123.675 28.301H123.679Z" fill="white"/>
<path d="M146.484 22.7367H146.491C148.465 21.5351 150.643 20.9414 153.011 20.9414C154.83 20.9414 156.35 21.2061 157.49 21.8176C158.081 22.1359 158.577 22.5758 158.863 23.1766C159.155 23.7881 159.186 24.4533 159.035 25.115L159.028 25.1364C158.838 25.8767 158.458 26.5455 157.779 26.9067C157.24 27.2107 156.621 27.2965 155.981 27.25H155.974C155.485 27.2107 154.918 27.1713 154.271 27.132H154.246C152.219 26.9425 150.453 27.1713 148.926 27.7865H148.915C147.423 28.3658 146.252 29.2527 145.368 30.4472C144.542 31.6168 144.116 33.0187 144.116 34.703V52.4701C144.116 53.3605 143.869 54.1762 143.282 54.7913C142.691 55.4064 141.902 55.6565 141.044 55.6565C140.185 55.6565 139.4 55.4064 138.81 54.7913C138.218 54.1762 137.976 53.3605 137.976 52.4701V24.4784C137.976 23.5879 138.218 22.7725 138.81 22.1573C139.4 21.5422 140.189 21.2919 141.044 21.2919C141.899 21.2919 142.687 21.5422 143.282 22.1573C143.873 22.7725 144.116 23.5879 144.116 24.4784V24.5928C144.834 23.8847 145.625 23.2624 146.484 22.7331V22.7367Z" fill="white"/>
<path d="M164.225 54.7909L164.197 54.7589C163.634 54.1186 163.394 53.3032 163.394 52.4091V37.9466C163.394 37.0561 163.637 36.2408 164.228 35.6254C164.841 34.9891 165.636 34.6992 166.519 34.6992C167.402 34.6992 168.124 34.9891 168.697 35.6254C169.32 36.23 169.591 37.0454 169.591 37.9466V52.4091C169.591 53.3281 169.313 54.1509 168.697 54.7875C168.116 55.3918 167.353 55.6528 166.519 55.6528C165.685 55.6528 164.876 55.3989 164.256 54.8161L164.225 54.7875V54.7909Z" fill="white"/>
<path fill-rule="evenodd" clip-rule="evenodd" d="M222.403 53.683L222.393 53.6756C219.933 52.127 217.973 50.0316 216.531 47.3993L216.524 47.3886C215.106 44.7421 214.406 41.7701 214.406 38.4978C214.406 35.2255 215.127 32.1892 216.587 29.5392L216.594 29.5285C218.082 26.8963 220.099 24.8185 222.639 23.3129C225.19 21.7572 228.058 20.9883 231.218 20.9883C234.378 20.9883 237.228 21.7572 239.74 23.3129C242.281 24.8185 244.279 26.8963 245.733 29.5321C247.228 32.1784 247.988 35.1719 248.027 38.4836V52.4599C248.027 53.3538 247.738 54.155 247.133 54.7809L247.119 54.795L247.105 54.8095C246.496 55.3815 245.736 55.6464 244.899 55.6464C244.061 55.6464 243.301 55.3852 242.696 54.8095L242.682 54.795L242.664 54.7809C242.059 54.155 241.77 53.3538 241.77 52.4599V51.3726C240.852 52.3202 239.811 53.1464 238.653 53.8544H238.646C236.324 55.2566 233.684 55.943 230.757 55.943C227.671 55.943 224.881 55.1919 222.403 53.6756V53.683ZM236.651 48.4615H236.658C238.273 47.4707 239.533 46.1261 240.447 44.4095V44.4024C241.401 42.6501 241.88 40.6901 241.88 38.4978C241.88 36.3055 241.397 34.3101 240.454 32.6006L240.447 32.5861C239.533 30.8695 238.273 29.5249 236.658 28.5414L236.637 28.5307C235.074 27.5222 233.276 27.0072 231.211 27.0072C229.145 27.0072 227.389 27.5222 225.782 28.5343L225.771 28.5414C224.152 29.5285 222.868 30.8769 221.911 32.6006C220.968 34.3064 220.486 36.2627 220.486 38.4978C220.486 40.7332 220.964 42.6464 221.915 44.3987C222.868 46.1227 224.152 47.4673 225.771 48.4544C227.379 49.4341 229.184 49.9313 231.211 49.9313C233.238 49.9313 235.085 49.4341 236.647 48.4578L236.651 48.4615Z" fill="white"/>
<path d="M82.6574 53.5732C82.9319 54.1954 83.3051 54.7212 83.8011 55.0966C84.3112 55.4794 84.8955 55.6581 85.5288 55.6581C86.162 55.6581 86.792 55.4865 87.3232 55.1111C87.8477 54.7391 88.2382 54.2061 88.5161 53.5732L101.046 25.5349C101.384 24.8232 101.409 24.0651 101.138 23.3248C100.863 22.538 100.336 21.9443 99.6106 21.5688L99.586 21.5581L99.5614 21.5473C98.8223 21.2183 98.0485 21.1933 97.2848 21.4544C96.4932 21.694 95.9161 22.2483 95.5853 23.0351L85.5393 45.9234L75.3349 22.9957L75.3208 22.9707C74.9585 22.2733 74.4165 21.7584 73.7093 21.4758C72.9529 21.1754 72.1787 21.2505 71.4538 21.626C70.7184 21.9837 70.1518 22.5415 69.8634 23.3176C69.5819 24.0758 69.617 24.8483 69.9442 25.585L82.654 53.5766L82.6574 53.5732Z" fill="white"/>
<path fill-rule="evenodd" clip-rule="evenodd" d="M177.832 47.4163C179.324 50.0486 181.34 52.1443 183.873 53.6892L183.884 53.6963C186.435 55.2092 189.299 55.9566 192.456 55.9566C195.612 55.9566 198.402 55.2092 200.914 53.6929C203.455 52.187 205.454 50.1307 206.91 47.5307C208.402 44.8913 209.184 41.9409 209.264 38.7079V10.634C209.264 9.72564 208.99 8.90666 208.356 8.29869C207.755 7.68355 206.991 7.38672 206.136 7.38672C205.281 7.38672 204.518 7.67998 203.916 8.29869C203.282 8.90666 203.008 9.72564 203.008 10.634V25.5722C201.956 24.4922 200.732 23.5767 199.338 22.8256C197.139 21.599 194.683 20.9946 191.994 20.9946C188.905 20.9946 186.111 21.7671 183.634 23.3263C181.171 24.8355 179.211 26.9134 177.761 29.5455L177.754 29.5563C176.336 32.2027 175.64 35.1747 175.64 38.447C175.64 41.7193 176.361 44.7556 177.818 47.4055L177.824 47.4163H177.832ZM201.699 32.6104C202.649 34.3199 203.128 36.2581 203.128 38.447C203.128 40.6356 202.646 42.6347 201.699 44.3443L201.692 44.3587C200.777 46.0787 199.514 47.4449 197.888 48.4713C196.326 49.4439 194.525 49.9412 192.456 49.9412C190.387 49.9412 188.624 49.4476 187.019 48.4676C185.394 47.4415 184.109 46.0716 183.155 44.3443C182.212 42.6384 181.731 40.6821 181.731 38.447C181.731 36.2116 182.212 34.3199 183.155 32.6104L183.163 32.6033C184.116 30.8403 185.4 29.474 187.012 28.4905C188.624 27.5106 190.429 27.0135 192.456 27.0135C194.482 27.0135 196.326 27.5106 197.892 28.4869H197.899C199.511 29.474 200.77 30.8329 201.689 32.5889L201.696 32.6104H201.699Z" fill="white"/>
<path d="M164.225 31.1193L164.197 31.087C163.634 30.4469 163.394 29.6315 163.394 28.7374V25.2004C163.394 24.3099 163.637 23.4945 164.228 22.8794C164.841 22.2428 165.636 21.9531 166.519 21.9531C167.402 21.9531 168.124 22.2428 168.697 22.8794C169.32 23.4838 169.591 24.2992 169.591 25.2004V28.7374C169.591 29.6565 169.313 30.479 168.697 31.1156C168.116 31.7199 167.353 31.9812 166.519 31.9812C165.685 31.9812 164.876 31.7273 164.256 31.1442L164.225 31.1156V31.1193Z" fill="#37E0C9"/>
<path d="M305.56 54.83L305.533 54.7977C304.968 54.1577 304.728 53.3423 304.728 52.4481V37.9857C304.728 37.0949 304.971 36.2795 305.563 35.6644C306.176 35.0278 306.972 34.7383 307.856 34.7383C308.739 34.7383 309.46 35.0278 310.034 35.6644C310.655 36.2687 310.926 37.0844 310.926 37.9857V52.4481C310.926 53.3672 310.649 54.1897 310.034 54.8263C309.451 55.4309 308.688 55.6918 307.856 55.6918C307.02 55.6918 306.212 55.438 305.59 54.8549L305.56 54.8263V54.83Z" fill="white"/>
<path d="M305.56 31.1621L305.533 31.1301C304.968 30.4898 304.728 29.6744 304.728 28.7804V25.2434C304.728 24.3529 304.971 23.5375 305.563 22.9224C306.176 22.2858 306.972 21.9961 307.856 21.9961C308.739 21.9961 309.46 22.2858 310.034 22.9224C310.655 23.5268 310.926 24.3422 310.926 25.2434V28.7804C310.926 29.6995 310.649 30.522 310.034 31.1587C309.451 31.763 308.688 32.0242 307.856 32.0242C307.02 32.0242 306.212 31.7701 305.59 31.1873L305.56 31.1587V31.1621Z" fill="#37D5C7"/>
<path fill-rule="evenodd" clip-rule="evenodd" d="M273.006 53.6751L272.995 53.668C270.536 52.1194 268.576 50.0237 267.133 47.3917L267.126 47.3809C265.708 44.7344 265.008 38.4901 265.008 38.4901C265.008 38.4901 265.729 32.1815 267.189 29.5315L267.196 29.5207C268.685 26.8885 270.701 24.8107 273.242 23.3051C275.793 21.7494 278.66 20.9805 281.82 20.9805C284.98 20.9805 287.83 21.7494 290.342 23.3051C292.883 24.8107 294.882 26.8885 296.335 29.5243C297.83 32.1707 298.59 35.164 298.629 38.4757V52.452C298.629 53.3461 298.34 54.1471 297.735 54.7729L297.721 54.7874L297.707 54.8015C297.099 55.3738 296.338 55.6384 295.501 55.6384C294.664 55.6384 293.904 55.3775 293.298 54.8015L293.284 54.7874L293.267 54.7729C292.661 54.1471 292.373 53.3461 292.373 52.452V51.3649C291.454 52.3126 290.413 53.1387 289.255 53.8467H289.248C286.926 55.2486 284.287 55.9354 281.359 55.9354C278.273 55.9354 275.483 55.1843 273.006 53.668V53.6751ZM287.253 48.4538H287.26C288.875 47.4631 290.135 46.1184 291.05 44.4018V44.3944C292.003 42.6421 292.482 40.6824 292.482 38.4901C292.482 36.2978 292 34.3021 291.057 32.5929L291.05 32.5784C290.135 30.8618 288.875 29.5171 287.26 28.5336L287.239 28.5229C285.677 27.5144 283.879 26.9994 281.813 26.9994C279.747 26.9994 277.992 27.5144 276.384 28.5265L276.373 28.5336C274.755 29.5207 273.47 30.8689 272.513 32.5929C271.57 34.2987 271.088 36.2547 271.088 38.4901C271.088 40.7252 271.567 42.6387 272.517 44.3911C273.47 46.1147 274.755 47.4594 276.373 48.4464C277.981 49.4264 279.786 49.9237 281.813 49.9237C283.84 49.9237 285.687 49.4264 287.25 48.4501L287.253 48.4538Z" fill="white"/>
<path d="M258.794 52.616C258.794 54.3154 257.449 55.6929 255.79 55.6929C254.131 55.6929 252.786 54.3154 252.786 52.616C252.786 50.9166 254.131 49.5391 255.79 49.5391C257.449 49.5391 258.794 50.9166 258.794 52.616Z" fill="white"/>
</g>
<defs>
<radialGradient id="paint0_radial_924_267" cx="0" cy="0" r="1" gradientUnits="userSpaceOnUse" gradientTransform="translate(16.0253 8.36369) rotate(61.2095) scale(51.6336 91.4515)">
<stop stop-color="#D14DF1"/>
<stop offset="0.440138" stop-color="#7755F1"/>
<stop offset="1" stop-color="#37E0C9"/>
</radialGradient>
<radialGradient id="paint1_radial_924_267" cx="0" cy="0" r="1" gradientUnits="userSpaceOnUse" gradientTransform="translate(16.025 8.36429) rotate(61.2095) scale(51.6336 91.4515)">
<stop stop-color="#D14DF1"/>
<stop offset="0.440138" stop-color="#7755F1"/>
<stop offset="1" stop-color="#37E0C9"/>
</radialGradient>
<radialGradient id="paint2_radial_924_267" cx="0" cy="0" r="1" gradientUnits="userSpaceOnUse" gradientTransform="translate(16.0252 8.36429) rotate(61.2095) scale(51.6336 91.4515)">
<stop stop-color="#D14DF1"/>
<stop offset="0.440138" stop-color="#7755F1"/>
<stop offset="1" stop-color="#37E0C9"/>
</radialGradient>
<radialGradient id="paint3_radial_924_267" cx="0" cy="0" r="1" gradientUnits="userSpaceOnUse" gradientTransform="translate(16.0252 8.36518) rotate(61.2095) scale(51.6336 91.4515)">
<stop stop-color="#D14DF1"/>
<stop offset="0.440138" stop-color="#7755F1"/>
<stop offset="1" stop-color="#37E0C9"/>
</radialGradient>
<radialGradient id="paint4_radial_924_267" cx="0" cy="0" r="1" gradientUnits="userSpaceOnUse" gradientTransform="translate(16.0251 8.36725) rotate(61.2095) scale(51.6336 91.4515)">
<stop stop-color="#D14DF1"/>
<stop offset="0.440138" stop-color="#7755F1"/>
<stop offset="1" stop-color="#37E0C9"/>
</radialGradient>
<radialGradient id="paint5_radial_924_267" cx="0" cy="0" r="1" gradientUnits="userSpaceOnUse" gradientTransform="translate(16.0252 8.36217) rotate(61.2095) scale(51.6336 91.4515)">
<stop stop-color="#D14DF1"/>
<stop offset="0.440138" stop-color="#7755F1"/>
<stop offset="1" stop-color="#37E0C9"/>
</radialGradient>
<radialGradient id="paint6_radial_924_267" cx="0" cy="0" r="1" gradientUnits="userSpaceOnUse" gradientTransform="translate(16.0253 8.36504) rotate(61.2095) scale(51.6335 91.4515)">
<stop stop-color="#D14DF1"/>
<stop offset="0.440138" stop-color="#7755F1"/>
<stop offset="1" stop-color="#37E0C9"/>
</radialGradient>
<radialGradient id="paint7_radial_924_267" cx="0" cy="0" r="1" gradientUnits="userSpaceOnUse" gradientTransform="translate(16.0251 8.36275) rotate(61.2095) scale(51.6336 91.4515)">
<stop stop-color="#D14DF1"/>
<stop offset="0.440138" stop-color="#7755F1"/>
<stop offset="1" stop-color="#37E0C9"/>
</radialGradient>
<radialGradient id="paint8_radial_924_267" cx="0" cy="0" r="1" gradientUnits="userSpaceOnUse" gradientTransform="translate(16.0253 8.3603) rotate(61.2095) scale(51.6336 91.4515)">
<stop stop-color="#D14DF1"/>
<stop offset="0.440138" stop-color="#7755F1"/>
<stop offset="1" stop-color="#37E0C9"/>
</radialGradient>
<radialGradient id="paint9_radial_924_267" cx="0" cy="0" r="1" gradientUnits="userSpaceOnUse" gradientTransform="translate(16.0252 8.36241) rotate(61.2095) scale(51.6336 91.4515)">
<stop stop-color="#D14DF1"/>
<stop offset="0.440138" stop-color="#7755F1"/>
<stop offset="1" stop-color="#37E0C9"/>
</radialGradient>
<radialGradient id="paint10_radial_924_267" cx="0" cy="0" r="1" gradientUnits="userSpaceOnUse" gradientTransform="translate(16.0252 8.36394) rotate(61.2095) scale(51.6336 91.4515)">
<stop stop-color="#D14DF1"/>
<stop offset="0.440138" stop-color="#7755F1"/>
<stop offset="1" stop-color="#37E0C9"/>
</radialGradient>
<radialGradient id="paint11_radial_924_267" cx="0" cy="0" r="1" gradientUnits="userSpaceOnUse" gradientTransform="translate(16.0252 8.36296) rotate(61.2096) scale(51.6336 91.4515)">
<stop stop-color="#D14DF1"/>
<stop offset="0.440138" stop-color="#7755F1"/>
<stop offset="1" stop-color="#37E0C9"/>
</radialGradient>
<radialGradient id="paint12_radial_924_267" cx="0" cy="0" r="1" gradientUnits="userSpaceOnUse" gradientTransform="translate(16.0252 8.36396) rotate(61.2095) scale(51.6336 91.4515)">
<stop stop-color="#D14DF1"/>
<stop offset="0.440138" stop-color="#7755F1"/>
<stop offset="1" stop-color="#37E0C9"/>
</radialGradient>
<radialGradient id="paint13_radial_924_267" cx="0" cy="0" r="1" gradientUnits="userSpaceOnUse" gradientTransform="translate(16.0253 8.36566) rotate(61.2095) scale(51.6336 91.4515)">
<stop stop-color="#D14DF1"/>
<stop offset="0.440138" stop-color="#7755F1"/>
<stop offset="1" stop-color="#37E0C9"/>
</radialGradient>
<radialGradient id="paint14_radial_924_267" cx="0" cy="0" r="1" gradientUnits="userSpaceOnUse" gradientTransform="translate(16.0251 8.36336) rotate(61.2095) scale(51.6336 91.4515)">
<stop stop-color="#D14DF1"/>
<stop offset="0.440138" stop-color="#7755F1"/>
<stop offset="1" stop-color="#37E0C9"/>
</radialGradient>
<radialGradient id="paint15_radial_924_267" cx="0" cy="0" r="1" gradientUnits="userSpaceOnUse" gradientTransform="translate(16.0253 8.36336) rotate(61.2095) scale(51.6336 91.4515)">
<stop stop-color="#D14DF1"/>
<stop offset="0.440138" stop-color="#7755F1"/>
<stop offset="1" stop-color="#37E0C9"/>
</radialGradient>
<radialGradient id="paint16_radial_924_267" cx="0" cy="0" r="1" gradientUnits="userSpaceOnUse" gradientTransform="translate(16.0253 8.36163) rotate(61.2095) scale(51.6336 91.4515)">
<stop stop-color="#D14DF1"/>
<stop offset="0.440138" stop-color="#7755F1"/>
<stop offset="1" stop-color="#37E0C9"/>
</radialGradient>
<radialGradient id="paint17_radial_924_267" cx="0" cy="0" r="1" gradientUnits="userSpaceOnUse" gradientTransform="translate(16.0252 8.36014) rotate(61.2095) scale(51.6336 91.4515)">
<stop stop-color="#D14DF1"/>
<stop offset="0.440138" stop-color="#7755F1"/>
<stop offset="1" stop-color="#37E0C9"/>
</radialGradient>
<radialGradient id="paint18_radial_924_267" cx="0" cy="0" r="1" gradientUnits="userSpaceOnUse" gradientTransform="translate(16.025 8.36163) rotate(61.2095) scale(51.6336 91.4515)">
<stop stop-color="#D14DF1"/>
<stop offset="0.440138" stop-color="#7755F1"/>
<stop offset="1" stop-color="#37E0C9"/>
</radialGradient>
<radialGradient id="paint19_radial_924_267" cx="0" cy="0" r="1" gradientUnits="userSpaceOnUse" gradientTransform="translate(16.0252 8.3639) rotate(61.2095) scale(51.6336 91.4515)">
<stop stop-color="#D14DF1"/>
<stop offset="0.440138" stop-color="#7755F1"/>
<stop offset="1" stop-color="#37E0C9"/>
</radialGradient>
<radialGradient id="paint20_radial_924_267" cx="0" cy="0" r="1" gradientUnits="userSpaceOnUse" gradientTransform="translate(16.0253 8.36406) rotate(61.2095) scale(51.6336 91.4515)">
<stop stop-color="#D14DF1"/>
<stop offset="0.440138" stop-color="#7755F1"/>
<stop offset="1" stop-color="#37E0C9"/>
</radialGradient>
<radialGradient id="paint21_radial_924_267" cx="0" cy="0" r="1" gradientUnits="userSpaceOnUse" gradientTransform="translate(16.025 8.36464) rotate(61.2095) scale(51.6336 91.4515)">
<stop stop-color="#D14DF1"/>
<stop offset="0.440138" stop-color="#7755F1"/>
<stop offset="1" stop-color="#37E0C9"/>
</radialGradient>
<radialGradient id="paint22_radial_924_267" cx="0" cy="0" r="1" gradientUnits="userSpaceOnUse" gradientTransform="translate(16.0252 8.36126) rotate(61.2095) scale(51.6336 91.4515)">
<stop stop-color="#D14DF1"/>
<stop offset="0.440138" stop-color="#7755F1"/>
<stop offset="1" stop-color="#37E0C9"/>
</radialGradient>
<radialGradient id="paint23_radial_924_267" cx="0" cy="0" r="1" gradientUnits="userSpaceOnUse" gradientTransform="translate(16.0253 8.36223) rotate(61.2095) scale(51.6336 91.4515)">
<stop stop-color="#D14DF1"/>
<stop offset="0.440138" stop-color="#7755F1"/>
<stop offset="1" stop-color="#37E0C9"/>
</radialGradient>
<radialGradient id="paint24_radial_924_267" cx="0" cy="0" r="1" gradientUnits="userSpaceOnUse" gradientTransform="translate(16.0253 8.36275) rotate(61.2095) scale(51.6336 91.4515)">
<stop stop-color="#D14DF1"/>
<stop offset="0.440138" stop-color="#7755F1"/>
<stop offset="1" stop-color="#37E0C9"/>
</radialGradient>
<radialGradient id="paint25_radial_924_267" cx="0" cy="0" r="1" gradientUnits="userSpaceOnUse" gradientTransform="translate(16.0252 8.36578) rotate(61.2095) scale(51.6336 91.4515)">
<stop stop-color="#D14DF1"/>
<stop offset="0.440138" stop-color="#7755F1"/>
<stop offset="1" stop-color="#37E0C9"/>
</radialGradient>
<radialGradient id="paint26_radial_924_267" cx="0" cy="0" r="1" gradientUnits="userSpaceOnUse" gradientTransform="translate(16.0252 8.36021) rotate(61.2095) scale(51.6336 91.4515)">
<stop stop-color="#D14DF1"/>
<stop offset="0.440138" stop-color="#7755F1"/>
<stop offset="1" stop-color="#37E0C9"/>
</radialGradient>
<radialGradient id="paint27_radial_924_267" cx="0" cy="0" r="1" gradientUnits="userSpaceOnUse" gradientTransform="translate(16.0252 8.36564) rotate(61.2095) scale(51.6336 91.4515)">
<stop stop-color="#D14DF1"/>
<stop offset="0.440138" stop-color="#7755F1"/>
<stop offset="1" stop-color="#37E0C9"/>
</radialGradient>
<radialGradient id="paint28_radial_924_267" cx="0" cy="0" r="1" gradientUnits="userSpaceOnUse" gradientTransform="translate(16.0252 8.36171) rotate(61.2095) scale(51.6336 91.4515)">
<stop stop-color="#D14DF1"/>
<stop offset="0.440138" stop-color="#7755F1"/>
<stop offset="1" stop-color="#37E0C9"/>
</radialGradient>
<radialGradient id="paint29_radial_924_267" cx="0" cy="0" r="1" gradientUnits="userSpaceOnUse" gradientTransform="translate(16.0252 8.36519) rotate(61.2095) scale(51.6336 91.4515)">
<stop stop-color="#D14DF1"/>
<stop offset="0.440138" stop-color="#7755F1"/>
<stop offset="1" stop-color="#37E0C9"/>
</radialGradient>
<clipPath id="clip0_924_267">
<rect width="310.634" height="64" fill="white" transform="translate(0.432739)"/>
</clipPath>
</defs>
</svg>
