<svg width="398" height="82" viewBox="0 0 398 82" fill="none" xmlns="http://www.w3.org/2000/svg">
<g clip-path="url(#clip0_664_1324)">
<path d="M38.9132 2.43784C38.9132 3.78422 37.8476 4.87569 36.5331 4.87569C35.2185 4.87569 34.1528 3.78422 34.1528 2.43784C34.1528 1.09146 35.2185 0 36.5331 0C37.8476 0 38.9132 1.09146 38.9132 2.43784Z" fill="url(#paint0_radial_664_1324)"/>
<path d="M7.5378 58.2856C7.5378 59.6319 6.47213 60.7231 5.15758 60.7231C3.84301 60.7231 2.77734 59.6319 2.77734 58.2856C2.77734 56.9389 3.84301 55.8477 5.15758 55.8477C6.47213 55.8477 7.5378 56.9389 7.5378 58.2856Z" fill="url(#paint1_radial_664_1324)"/>
<path d="M68.1249 60.7231C69.4394 60.7231 70.5052 59.6319 70.5052 58.2856C70.5052 56.9389 69.4394 55.8477 68.1249 55.8477C66.8105 55.8477 65.7446 56.9389 65.7446 58.2856C65.7446 59.6319 66.8105 60.7231 68.1249 60.7231Z" fill="url(#paint2_radial_664_1324)"/>
<path d="M30.4741 7.31471C30.4741 8.90587 29.2147 10.1958 27.6611 10.1958C26.1076 10.1958 24.8481 8.90587 24.8481 7.31471C24.8481 5.72352 26.1076 4.43359 27.6611 4.43359C29.2147 4.43359 30.4741 5.72352 30.4741 7.31471Z" fill="url(#paint3_radial_664_1324)"/>
<path d="M35.8838 15.2934C37.4374 15.2934 38.6967 14.0035 38.6967 12.4123C38.6967 10.8211 37.4374 9.53125 35.8838 9.53125C34.3302 9.53125 33.0708 10.8211 33.0708 12.4123C33.0708 14.0035 34.3302 15.2934 35.8838 15.2934Z" fill="url(#paint4_radial_664_1324)"/>
<path d="M38.4805 25.2639C38.4805 26.8551 37.2211 28.145 35.6675 28.145C34.1139 28.145 32.8545 26.8551 32.8545 25.2639C32.8545 23.6727 34.1139 22.3828 35.6675 22.3828C37.2211 22.3828 38.4805 23.6727 38.4805 25.2639Z" fill="url(#paint5_radial_664_1324)"/>
<path d="M36.6411 42.5512C38.1947 42.5512 39.4542 41.2613 39.4542 39.6701C39.4542 38.079 38.1947 36.7891 36.6411 36.7891C35.0875 36.7891 33.8281 38.079 33.8281 39.6701C33.8281 41.2613 35.0875 42.5512 36.6411 42.5512Z" fill="url(#paint6_radial_664_1324)"/>
<path d="M16.626 54.299C16.626 55.8901 15.3666 57.18 13.813 57.18C12.2594 57.18 11 55.8901 11 54.299C11 52.7079 12.2594 51.418 13.813 51.418C15.3666 51.418 16.626 52.7079 16.626 54.299Z" fill="url(#paint7_radial_664_1324)"/>
<path d="M4.94091 51.4148C6.4945 51.4148 7.75389 50.1249 7.75389 48.5338C7.75389 46.9423 6.4945 45.6523 4.94091 45.6523C3.38735 45.6523 2.12793 46.9423 2.12793 48.5338C2.12793 50.1249 3.38735 51.4148 4.94091 51.4148Z" fill="url(#paint8_radial_664_1324)"/>
<path d="M16.626 63.8264C16.626 65.4175 15.3666 66.7074 13.813 66.7074C12.2594 66.7074 11 65.4175 11 63.8264C11 62.2352 12.2594 60.9453 13.813 60.9453C15.3666 60.9453 16.626 62.2352 16.626 63.8264Z" fill="url(#paint9_radial_664_1324)"/>
<path d="M60.1186 55.407C61.6721 55.407 62.9316 54.1171 62.9316 52.5256C62.9316 50.9345 61.6721 49.6445 60.1186 49.6445C58.5651 49.6445 57.3057 50.9345 57.3057 52.5256C57.3057 54.1171 58.5651 55.407 60.1186 55.407Z" fill="url(#paint10_radial_664_1324)"/>
<path d="M62.4989 62.9396C62.4989 64.5308 61.2395 65.8207 59.686 65.8207C58.1325 65.8207 56.873 64.5308 56.873 62.9396C56.873 61.3485 58.1325 60.0586 59.686 60.0586C61.2395 60.0586 62.4989 61.3485 62.4989 62.9396Z" fill="url(#paint11_radial_664_1324)"/>
<path d="M68.5576 50.641C70.1115 50.641 71.3709 49.3511 71.3709 47.7599C71.3709 46.1688 70.1115 44.8789 68.5576 44.8789C67.0041 44.8789 65.7446 46.1688 65.7446 47.7599C65.7446 49.3511 67.0041 50.641 68.5576 50.641Z" fill="url(#paint12_radial_664_1324)"/>
<path d="M52.1127 45.8775C52.1127 47.4686 50.8533 48.7586 49.2998 48.7586C47.7463 48.7586 46.4868 47.4686 46.4868 45.8775C46.4868 44.286 47.7463 42.9961 49.2998 42.9961C50.8533 42.9961 52.1127 44.286 52.1127 45.8775Z" fill="url(#paint13_radial_664_1324)"/>
<path d="M44.4309 23.9346C46.4028 23.9346 48.0014 22.2974 48.0014 20.2778C48.0014 18.2583 46.4028 16.6211 44.4309 16.6211C42.4594 16.6211 40.8608 18.2583 40.8608 20.2778C40.8608 22.2974 42.4594 23.9346 44.4309 23.9346Z" fill="url(#paint14_radial_664_1324)"/>
<path d="M30.6909 20.2778C30.6909 22.2974 29.0924 23.9346 27.1206 23.9346C25.1488 23.9346 23.5503 22.2974 23.5503 20.2778C23.5503 18.2583 25.1488 16.6211 27.1206 16.6211C29.0924 16.6211 30.6909 18.2583 30.6909 20.2778Z" fill="url(#paint15_radial_664_1324)"/>
<path d="M15.9766 17.9508C18.3667 17.9508 20.3043 15.9663 20.3043 13.5184C20.3043 11.0704 18.3667 9.08594 15.9766 9.08594C13.5865 9.08594 11.6489 11.0704 11.6489 13.5184C11.6489 15.9663 13.5865 17.9508 15.9766 17.9508Z" fill="url(#paint16_radial_664_1324)"/>
<path d="M9.2686 35.9012C9.2686 38.3491 7.33107 40.3338 4.94095 40.3338C2.55084 40.3338 0.613281 38.3491 0.613281 35.9012C0.613281 33.4532 2.55084 31.4688 4.94095 31.4688C7.33107 31.4688 9.2686 33.4532 9.2686 35.9012Z" fill="url(#paint17_radial_664_1324)"/>
<path d="M60.9846 27.9237C60.9846 27.5647 60.9392 27.2168 60.8591 26.8799L64.6066 24.2692C65.4981 25.2887 66.7921 25.9292 68.2333 25.9292C70.923 25.9292 73.102 23.6974 73.102 20.9427C73.102 18.1879 70.923 15.9562 68.2333 15.9562C66.9396 15.9562 65.7644 16.4748 64.8922 17.317L59.6278 14.2054C59.6624 13.9815 59.684 13.7533 59.684 13.5184C59.684 11.0694 57.7475 9.08594 55.3564 9.08594C52.9653 9.08594 51.0288 11.0694 51.0288 13.5184C51.0288 15.9673 52.9653 17.9508 55.3564 17.9508C56.5596 17.9508 57.6478 17.4477 58.4311 16.6366L63.5292 19.6506C63.4211 20.0628 63.3626 20.4972 63.3626 20.9427C63.3626 21.2352 63.3884 21.5189 63.4361 21.7981L59.4699 24.5617C58.7124 23.8969 57.7301 23.4913 56.6547 23.4913C54.2636 23.4913 52.3271 25.4748 52.3271 27.9237C52.3271 30.3727 54.2636 32.3562 56.6547 32.3562C59.0458 32.3562 60.9823 30.3727 60.9823 27.9237H60.9846Z" fill="url(#paint18_radial_664_1324)"/>
<path d="M73.3182 34.3504C73.3182 36.7984 71.3806 38.7828 68.9907 38.7828C66.6004 38.7828 64.6631 36.7984 64.6631 34.3504C64.6631 31.9024 66.6004 29.918 68.9907 29.918C71.3806 29.918 73.3182 31.9024 73.3182 34.3504Z" fill="url(#paint19_radial_664_1324)"/>
<path d="M50.522 65.3927V59.7745C51.8053 59.2202 52.7075 57.9193 52.7075 56.4034C52.7075 54.3846 51.1086 52.7469 49.137 52.7469C48.2587 52.7469 47.4538 53.0749 46.8306 53.6135L40.2047 50.9804C40.1509 49.0081 38.5777 47.4256 36.6389 47.4256C35.5483 47.4256 34.5746 47.9267 33.919 48.7155L27.5638 46.9135C27.3863 46.2244 26.9709 45.635 26.4083 45.2495L27.3755 37.6366C29.1239 37.3995 30.4741 35.8703 30.4741 34.0153C30.4741 31.9963 28.8751 30.3586 26.9038 30.3586C26.1551 30.3586 25.4627 30.5957 24.8893 30.9968L20.6936 28.5169C20.7196 28.3219 20.7368 28.1246 20.7368 27.9207C20.7368 25.4718 18.8002 23.4883 16.4092 23.4883C14.0182 23.4883 12.0815 25.4718 12.0815 27.9207C12.0815 30.3697 14.0182 32.3532 16.4092 32.3532C17.6426 32.3532 18.7526 31.8213 19.5424 30.9724L23.4114 33.2596C23.3616 33.5034 23.3356 33.756 23.3356 34.0131C23.3356 35.2209 23.909 36.2869 24.7897 36.954L23.7706 44.9834C22.7536 45.4178 22.0395 46.444 22.0395 47.6428C22.0395 49.234 23.2988 50.5239 24.8525 50.5239C25.6877 50.5239 26.4364 50.1494 26.9514 49.5553L33.0859 51.293C33.1962 53.2121 34.7455 54.7347 36.6454 54.7347C37.697 54.7347 38.6382 54.2671 39.2917 53.5248L45.5885 56.027C45.5777 56.1488 45.5712 56.2706 45.5712 56.3967C45.5712 57.9571 46.5277 59.2868 47.8734 59.812V65.3462C46.1035 65.9024 44.8137 67.5889 44.8137 69.5834C44.8137 72.0323 46.7506 74.0157 49.1417 74.0157C51.5327 74.0157 53.4692 72.0323 53.4692 69.5834C53.4692 67.6331 52.236 65.9797 50.5266 65.386L50.522 65.3927Z" fill="url(#paint20_radial_664_1324)"/>
<path d="M40.9689 63.3855C40.9689 65.8336 39.0312 67.8182 36.6412 67.8182C34.2511 67.8182 32.3135 65.8336 32.3135 63.3855C32.3135 60.9377 34.2511 58.9531 36.6412 58.9531C39.0312 58.9531 40.9689 60.9377 40.9689 63.3855Z" fill="url(#paint21_radial_664_1324)"/>
<path d="M24.6319 75.5717C27.022 75.5717 28.9595 73.5875 28.9595 71.1394C28.9595 68.6916 27.022 66.707 24.6319 66.707C22.2418 66.707 20.3042 68.6916 20.3042 71.1394C20.3042 73.5875 22.2418 75.5717 24.6319 75.5717Z" fill="url(#paint22_radial_664_1324)"/>
<path d="M41.5096 77.0136C41.5096 79.7677 39.3299 82.0002 36.6411 82.0002C33.9522 82.0002 31.7725 79.7677 31.7725 77.0136C31.7725 74.2599 33.9522 72.0273 36.6411 72.0273C39.3299 72.0273 41.5096 74.2599 41.5096 77.0136Z" fill="url(#paint23_radial_664_1324)"/>
<path d="M5.0493 25.93C7.73815 25.93 9.91791 23.6975 9.91791 20.9435C9.91791 18.1896 7.73815 15.957 5.0493 15.957C2.36042 15.957 0.180664 18.1896 0.180664 20.9435C0.180664 23.6975 2.36042 25.93 5.0493 25.93Z" fill="url(#paint24_radial_664_1324)"/>
<path d="M19.6553 42.6606C19.6553 44.6802 18.0568 46.3175 16.085 46.3175C14.1131 46.3175 12.5146 44.6802 12.5146 42.6606C12.5146 40.641 14.1131 39.0039 16.085 39.0039C18.0568 39.0039 19.6553 40.641 19.6553 42.6606Z" fill="url(#paint25_radial_664_1324)"/>
<path d="M24.7402 61.6103C26.7121 61.6103 28.3106 59.973 28.3106 57.9534C28.3106 55.9341 26.7121 54.2969 24.7402 54.2969C22.7684 54.2969 21.1699 55.9341 21.1699 57.9534C21.1699 59.973 22.7684 61.6103 24.7402 61.6103Z" fill="url(#paint26_radial_664_1324)"/>
<path d="M61.4169 41.1099C61.4169 43.1295 59.8183 44.7667 57.8464 44.7667C55.8749 44.7667 54.2764 43.1295 54.2764 41.1099C54.2764 39.0903 55.8749 37.4531 57.8464 37.4531C59.8183 37.4531 61.4169 39.0903 61.4169 41.1099Z" fill="url(#paint27_radial_664_1324)"/>
<path d="M46.1622 37.6768C48.1342 37.6768 49.7323 36.0396 49.7323 34.02C49.7323 32.0005 48.1342 30.3633 46.1622 30.3633C44.1903 30.3633 42.5918 32.0005 42.5918 34.02C42.5918 36.0396 44.1903 37.6768 46.1622 37.6768Z" fill="url(#paint28_radial_664_1324)"/>
<path d="M47.7851 7.31471C47.7851 8.90587 46.5256 10.1958 44.9721 10.1958C43.4186 10.1958 42.1592 8.90587 42.1592 7.31471C42.1592 5.72352 43.4186 4.43359 44.9721 4.43359C46.5256 4.43359 47.7851 5.72352 47.7851 7.31471Z" fill="url(#paint29_radial_664_1324)"/>
<path fill-rule="evenodd" clip-rule="evenodd" d="M141.752 68.9863C138.524 67.0834 135.963 64.4377 134.069 61.0765V61.0627C132.216 57.6829 131.282 53.8313 131.246 49.5393C131.21 45.2469 132.013 41.3492 133.695 37.9835C135.417 34.581 137.807 31.8847 140.855 29.9129C143.921 27.9274 147.452 26.9323 151.401 26.8956C155.298 26.8589 158.747 27.7577 161.709 29.6378C164.699 31.4537 167.021 34.0124 168.662 37.2865C170.299 40.5607 171.124 44.2704 171.165 48.3929C171.174 49.4751 170.849 50.4563 170.123 51.2266L170.078 51.2724C169.348 51.9694 168.423 52.2812 167.413 52.2907L139.097 52.5611C139.39 54.2165 139.908 55.7252 140.652 57.0959C141.897 59.2926 143.552 61.0031 145.635 62.2458C147.7 63.4793 150.09 64.0983 152.849 64.0707C154.477 64.0569 156.109 63.7588 157.751 63.1718C159.459 62.53 160.753 61.7687 161.678 60.9204L161.7 60.8975C162.422 60.2695 163.274 59.9391 164.212 59.9206C165.136 59.852 166.007 60.0952 166.737 60.6913L166.8 60.7461C167.603 61.4983 168.126 62.4382 168.148 63.5479C168.225 64.6667 167.774 65.6208 166.958 66.3406C165.235 67.886 163.071 69.1606 160.492 70.1879L160.474 70.197C157.886 71.1739 155.365 71.6829 152.917 71.7057C148.786 71.7471 145.062 70.8526 141.771 68.9958L141.752 68.9863ZM157.908 36.2639C156.159 35.1038 154.03 34.5123 151.474 34.5352C148.877 34.5581 146.654 35.2184 144.764 36.4749C142.861 37.7405 141.378 39.4876 140.314 41.7529C139.809 42.8488 139.43 44.0319 139.182 45.3021L163.378 45.0727C163.13 43.6925 162.728 42.4132 162.165 41.2254C161.159 39.0886 159.743 37.447 157.917 36.2731L157.904 36.2639H157.908Z" fill="white"/>
<path d="M187.128 29.1283H187.137C189.666 27.5888 192.456 26.8281 195.491 26.8281C197.821 26.8281 199.769 27.1672 201.23 27.9507C201.987 28.3586 202.623 28.9222 202.988 29.692C203.362 30.4755 203.403 31.3278 203.209 32.1755L203.2 32.203C202.956 33.1515 202.47 34.0084 201.6 34.4712C200.91 34.8606 200.116 34.9706 199.296 34.911H199.287C198.66 34.8606 197.934 34.8102 197.105 34.7598H197.073C194.476 34.517 192.213 34.8102 190.257 35.5983H190.243C188.331 36.3406 186.83 37.477 185.699 39.0075C184.639 40.506 184.093 42.3021 184.093 44.4601V67.2242C184.093 68.3651 183.778 69.4102 183.025 70.1983C182.268 70.9863 181.258 71.3069 180.158 71.3069C179.058 71.3069 178.052 70.9863 177.295 70.1983C176.538 69.4102 176.227 68.3651 176.227 67.2242V31.3598C176.227 30.2189 176.538 29.1742 177.295 28.386C178.052 27.5979 179.062 27.2772 180.158 27.2772C181.253 27.2772 182.263 27.5979 183.025 28.386C183.782 29.1742 184.093 30.2189 184.093 31.3598V31.5065C185.013 30.5992 186.028 29.8019 187.128 29.1238V29.1283Z" fill="white"/>
<path d="M209.858 70.2034L209.822 70.1624C209.101 69.342 208.794 68.2973 208.794 67.1517V48.6216C208.794 47.4807 209.105 46.436 209.863 45.6476C210.647 44.8323 211.666 44.4609 212.798 44.4609C213.929 44.4609 214.854 44.8323 215.589 45.6476C216.386 46.4222 216.734 47.4669 216.734 48.6216V67.1517C216.734 68.3292 216.377 69.3834 215.589 70.1991C214.844 70.9734 213.866 71.3077 212.798 71.3077C211.729 71.3077 210.692 70.9824 209.899 70.2357L209.858 70.1991V70.2034Z" fill="white"/>
<path fill-rule="evenodd" clip-rule="evenodd" d="M284.399 68.7847L284.386 68.7752C281.235 66.791 278.724 64.1063 276.875 60.7337L276.866 60.7199C275.049 57.3291 274.152 53.5212 274.152 49.3286C274.152 45.1359 275.077 41.2457 276.947 37.8504L276.956 37.8367C278.863 34.4642 281.447 31.802 284.702 29.8729C287.97 27.8797 291.645 26.8945 295.693 26.8945C299.742 26.8945 303.393 27.8797 306.612 29.8729C309.867 31.802 312.428 34.4642 314.29 37.8413C316.206 41.2319 317.18 45.0673 317.229 49.3105V67.2176C317.229 68.3628 316.86 69.3894 316.084 70.1913L316.066 70.2094L316.049 70.2279C315.268 70.9608 314.295 71.3002 313.222 71.3002C312.149 71.3002 311.175 70.9655 310.4 70.2279L310.381 70.2094L310.359 70.1913C309.583 69.3894 309.214 68.3628 309.214 67.2176V65.8244C308.037 67.0386 306.702 68.0971 305.219 69.0042H305.21C302.235 70.8008 298.853 71.6803 295.102 71.6803C291.149 71.6803 287.573 70.718 284.399 68.7752V68.7847ZM302.654 62.0946H302.663C304.733 60.8251 306.346 59.1024 307.519 56.9029V56.8939C308.74 54.6487 309.353 52.1375 309.353 49.3286C309.353 46.5197 308.736 43.9631 307.527 41.7728L307.519 41.7542C306.346 39.5548 304.733 37.8321 302.663 36.572L302.636 36.5583C300.634 35.2661 298.331 34.6063 295.684 34.6063C293.038 34.6063 290.788 35.2661 288.728 36.5628L288.714 36.572C286.64 37.8367 284.995 39.5643 283.769 41.7728C282.56 43.9584 281.943 46.4649 281.943 49.3286C281.943 52.1927 282.556 54.644 283.773 56.8891C284.995 59.098 286.64 60.8208 288.714 62.0855C290.774 63.3407 293.087 63.9778 295.684 63.9778C298.281 63.9778 300.648 63.3407 302.649 62.0898L302.654 62.0946Z" fill="white"/>
<path d="M105.35 68.6408C105.702 69.4379 106.18 70.1117 106.816 70.5927C107.469 71.0831 108.218 71.3121 109.029 71.3121C109.841 71.3121 110.648 71.0921 111.329 70.6112C112.001 70.1346 112.501 69.4517 112.857 68.6408L128.911 32.7167C129.344 31.8049 129.376 30.8335 129.028 29.885C128.677 28.8769 128.001 28.1163 127.072 27.6351L127.04 27.6214L127.009 27.6076C126.062 27.1861 125.07 27.154 124.092 27.4885C123.078 27.7955 122.338 28.5058 121.914 29.5138L109.043 58.8394L95.9686 29.4634L95.9505 29.4313C95.4863 28.5379 94.7919 27.878 93.8858 27.516C92.9166 27.1311 91.9247 27.2273 90.9959 27.7085C90.0536 28.1667 89.3277 28.8815 88.9582 29.8758C88.5975 30.8472 88.6425 31.837 89.0617 32.7809L105.346 68.6452L105.35 68.6408Z" fill="white"/>
<path fill-rule="evenodd" clip-rule="evenodd" d="M227.292 60.7488C229.204 64.1214 231.787 66.8065 235.033 68.786L235.047 68.795C238.315 70.7335 241.985 71.6911 246.029 71.6911C250.073 71.6911 253.648 70.7335 256.867 68.7907C260.122 66.8613 262.683 64.2267 264.549 60.8954C266.46 57.5137 267.462 53.7334 267.565 49.5913V13.6215C267.565 12.4577 267.214 11.4084 266.402 10.6294C265.631 9.84125 264.653 9.46094 263.557 9.46094C262.462 9.46094 261.484 9.83668 260.713 10.6294C259.901 11.4084 259.549 12.4577 259.549 13.6215V32.7611C258.201 31.3773 256.632 30.2043 254.847 29.2421C252.029 27.6704 248.883 26.896 245.438 26.896C241.48 26.896 237.9 27.8857 234.726 29.8836C231.57 31.8172 229.059 34.4795 227.202 37.8519L227.193 37.8657C225.376 41.2564 224.483 45.0643 224.483 49.257C224.483 53.4496 225.408 57.3399 227.274 60.735L227.283 60.7488H227.292ZM257.872 41.7788C259.089 43.9691 259.703 46.4524 259.703 49.257C259.703 52.0611 259.085 54.6224 257.872 56.8128L257.863 56.8313C256.691 59.0351 255.072 60.7854 252.99 62.1006C250.988 63.3468 248.68 63.9838 246.029 63.9838C243.378 63.9838 241.119 63.3515 239.064 62.0959C236.981 60.7811 235.335 59.026 234.113 56.8128C232.905 54.6272 232.288 52.1206 232.288 49.257C232.288 46.3929 232.905 43.9691 234.113 41.7788L234.122 41.7697C235.344 39.5108 236.99 37.7603 239.054 36.5002C241.119 35.2447 243.432 34.6077 246.029 34.6077C248.626 34.6077 250.988 35.2447 252.994 36.4956H253.003C255.068 37.7603 256.682 39.5013 257.859 41.7512L257.868 41.7788H257.872Z" fill="white"/>
<path d="M209.858 39.8731L209.822 39.8317C209.101 39.0115 208.794 37.9668 208.794 36.8213V32.2895C208.794 31.1486 209.105 30.1038 209.863 29.3157C210.647 28.5001 211.666 28.1289 212.798 28.1289C213.929 28.1289 214.854 28.5001 215.589 29.3157C216.386 30.0901 216.734 31.1348 216.734 32.2895V36.8213C216.734 37.9989 216.377 39.0527 215.589 39.8683C214.844 40.6426 213.866 40.9773 212.798 40.9773C211.729 40.9773 210.692 40.6521 209.899 39.905L209.858 39.8683V39.8731Z" fill="#37E0C9"/>
<path d="M390.945 70.2503L390.91 70.2089C390.186 69.3889 389.878 68.3442 389.878 67.1986V48.6685C389.878 47.5272 390.19 46.4825 390.948 45.6944C391.734 44.8788 392.754 44.5078 393.885 44.5078C395.017 44.5078 395.941 44.8788 396.676 45.6944C397.473 46.4687 397.819 47.5138 397.819 48.6685V67.1986C397.819 68.3761 397.465 69.4299 396.676 70.2456C395.929 71.0202 394.952 71.3545 393.885 71.3545C392.815 71.3545 391.78 71.0293 390.983 70.2822L390.945 70.2456V70.2503Z" fill="white"/>
<path d="M390.945 39.9236L390.91 39.8826C390.186 39.0623 389.878 38.0176 389.878 36.872V32.3403C389.878 31.1993 390.19 30.1546 390.948 29.3665C391.734 28.5509 392.754 28.1797 393.885 28.1797C395.017 28.1797 395.941 28.5509 396.676 29.3665C397.473 30.1409 397.819 31.1856 397.819 32.3403V36.872C397.819 38.0496 397.465 39.1035 396.676 39.9192C395.929 40.6935 394.952 41.0282 393.885 41.0282C392.815 41.0282 391.78 40.7026 390.983 39.9559L390.945 39.9192V39.9236Z" fill="#37D5C7"/>
<path fill-rule="evenodd" clip-rule="evenodd" d="M349.234 68.7728L349.221 68.7637C346.07 66.7795 343.558 64.0944 341.71 60.7222L341.701 60.7084C339.884 57.3176 338.987 49.3171 338.987 49.3171C338.987 49.3171 339.911 41.2342 341.782 37.8388L341.791 37.825C343.698 34.4525 346.281 31.7903 349.536 29.8612C352.805 27.868 356.479 26.8828 360.528 26.8828C364.576 26.8828 368.228 27.868 371.447 29.8612C374.702 31.7903 377.263 34.4525 379.125 37.8296C381.041 41.2204 382.015 45.0554 382.064 49.2985V67.2057C382.064 68.3513 381.694 69.3775 380.919 70.1794L380.901 70.1979L380.883 70.216C380.103 70.9493 379.129 71.2883 378.056 71.2883C376.983 71.2883 376.01 70.954 375.234 70.216L375.216 70.1979L375.194 70.1794C374.418 69.3775 374.048 68.3513 374.048 67.2057V65.8129C372.871 67.0271 371.537 68.0856 370.054 68.9927H370.045C367.069 70.7888 363.688 71.6688 359.937 71.6688C355.983 71.6688 352.408 70.7065 349.234 68.7637V68.7728ZM367.489 62.0831H367.498C369.567 60.8136 371.181 59.0908 372.353 56.8914V56.882C373.575 54.6368 374.188 52.126 374.188 49.3171C374.188 46.5082 373.57 43.9512 372.362 41.7612L372.353 41.7427C371.181 39.5433 369.567 37.8204 367.498 36.5603L367.471 36.5466C365.469 35.2544 363.165 34.5946 360.519 34.5946C357.872 34.5946 355.623 35.2544 353.562 36.5512L353.549 36.5603C351.475 37.825 349.829 39.5524 348.603 41.7612C347.395 43.9469 346.777 46.453 346.777 49.3171C346.777 52.1808 347.391 54.6325 348.608 56.8776C349.829 59.0861 351.475 60.8089 353.549 62.0736C355.609 63.3292 357.922 63.9663 360.519 63.9663C363.115 63.9663 365.482 63.3292 367.484 62.0783L367.489 62.0831Z" fill="white"/>
<path d="M331.025 67.415C331.025 69.5923 329.302 71.3573 327.176 71.3573C325.05 71.3573 323.327 69.5923 323.327 67.415C323.327 65.2376 325.05 63.4727 327.176 63.4727C329.302 63.4727 331.025 65.2376 331.025 67.415Z" fill="white"/>
</g>
<defs>
<radialGradient id="paint0_radial_664_1324" cx="0" cy="0" r="1" gradientUnits="userSpaceOnUse" gradientTransform="translate(19.9778 10.716) rotate(61.2095) scale(66.1555 117.172)">
<stop stop-color="#D14DF1"/>
<stop offset="0.440138" stop-color="#7755F1"/>
<stop offset="1" stop-color="#37E0C9"/>
</radialGradient>
<radialGradient id="paint1_radial_664_1324" cx="0" cy="0" r="1" gradientUnits="userSpaceOnUse" gradientTransform="translate(19.9779 10.7149) rotate(61.2095) scale(66.1555 117.172)">
<stop stop-color="#D14DF1"/>
<stop offset="0.440138" stop-color="#7755F1"/>
<stop offset="1" stop-color="#37E0C9"/>
</radialGradient>
<radialGradient id="paint2_radial_664_1324" cx="0" cy="0" r="1" gradientUnits="userSpaceOnUse" gradientTransform="translate(19.9777 10.7149) rotate(61.2095) scale(66.1555 117.172)">
<stop stop-color="#D14DF1"/>
<stop offset="0.440138" stop-color="#7755F1"/>
<stop offset="1" stop-color="#37E0C9"/>
</radialGradient>
<radialGradient id="paint3_radial_664_1324" cx="0" cy="0" r="1" gradientUnits="userSpaceOnUse" gradientTransform="translate(19.9776 10.7172) rotate(61.2095) scale(66.1555 117.172)">
<stop stop-color="#D14DF1"/>
<stop offset="0.440138" stop-color="#7755F1"/>
<stop offset="1" stop-color="#37E0C9"/>
</radialGradient>
<radialGradient id="paint4_radial_664_1324" cx="0" cy="0" r="1" gradientUnits="userSpaceOnUse" gradientTransform="translate(19.9776 10.7175) rotate(61.2095) scale(66.1555 117.172)">
<stop stop-color="#D14DF1"/>
<stop offset="0.440138" stop-color="#7755F1"/>
<stop offset="1" stop-color="#37E0C9"/>
</radialGradient>
<radialGradient id="paint5_radial_664_1324" cx="0" cy="0" r="1" gradientUnits="userSpaceOnUse" gradientTransform="translate(19.9777 10.715) rotate(61.2095) scale(66.1555 117.172)">
<stop stop-color="#D14DF1"/>
<stop offset="0.440138" stop-color="#7755F1"/>
<stop offset="1" stop-color="#37E0C9"/>
</radialGradient>
<radialGradient id="paint6_radial_664_1324" cx="0" cy="0" r="1" gradientUnits="userSpaceOnUse" gradientTransform="translate(19.9776 10.7159) rotate(61.2095) scale(66.1555 117.172)">
<stop stop-color="#D14DF1"/>
<stop offset="0.440138" stop-color="#7755F1"/>
<stop offset="1" stop-color="#37E0C9"/>
</radialGradient>
<radialGradient id="paint7_radial_664_1324" cx="0" cy="0" r="1" gradientUnits="userSpaceOnUse" gradientTransform="translate(19.978 10.7176) rotate(61.2095) scale(66.1555 117.172)">
<stop stop-color="#D14DF1"/>
<stop offset="0.440138" stop-color="#7755F1"/>
<stop offset="1" stop-color="#37E0C9"/>
</radialGradient>
<radialGradient id="paint8_radial_664_1324" cx="0" cy="0" r="1" gradientUnits="userSpaceOnUse" gradientTransform="translate(19.9776 10.7144) rotate(61.2095) scale(66.1555 117.172)">
<stop stop-color="#D14DF1"/>
<stop offset="0.440138" stop-color="#7755F1"/>
<stop offset="1" stop-color="#37E0C9"/>
</radialGradient>
<radialGradient id="paint9_radial_664_1324" cx="0" cy="0" r="1" gradientUnits="userSpaceOnUse" gradientTransform="translate(19.978 10.7152) rotate(61.2095) scale(66.1555 117.172)">
<stop stop-color="#D14DF1"/>
<stop offset="0.440138" stop-color="#7755F1"/>
<stop offset="1" stop-color="#37E0C9"/>
</radialGradient>
<radialGradient id="paint10_radial_664_1324" cx="0" cy="0" r="1" gradientUnits="userSpaceOnUse" gradientTransform="translate(19.9776 10.7174) rotate(61.2095) scale(66.1555 117.172)">
<stop stop-color="#D14DF1"/>
<stop offset="0.440138" stop-color="#7755F1"/>
<stop offset="1" stop-color="#37E0C9"/>
</radialGradient>
<radialGradient id="paint11_radial_664_1324" cx="0" cy="0" r="1" gradientUnits="userSpaceOnUse" gradientTransform="translate(19.9776 10.715) rotate(61.2095) scale(66.1555 117.172)">
<stop stop-color="#D14DF1"/>
<stop offset="0.440138" stop-color="#7755F1"/>
<stop offset="1" stop-color="#37E0C9"/>
</radialGradient>
<radialGradient id="paint12_radial_664_1324" cx="0" cy="0" r="1" gradientUnits="userSpaceOnUse" gradientTransform="translate(19.9777 10.7165) rotate(61.2095) scale(66.1555 117.172)">
<stop stop-color="#D14DF1"/>
<stop offset="0.440138" stop-color="#7755F1"/>
<stop offset="1" stop-color="#37E0C9"/>
</radialGradient>
<radialGradient id="paint13_radial_664_1324" cx="0" cy="0" r="1" gradientUnits="userSpaceOnUse" gradientTransform="translate(19.9779 10.7176) rotate(61.2095) scale(66.1555 117.172)">
<stop stop-color="#D14DF1"/>
<stop offset="0.440138" stop-color="#7755F1"/>
<stop offset="1" stop-color="#37E0C9"/>
</radialGradient>
<radialGradient id="paint14_radial_664_1324" cx="0" cy="0" r="1" gradientUnits="userSpaceOnUse" gradientTransform="translate(19.9778 10.7154) rotate(61.2095) scale(66.1555 117.172)">
<stop stop-color="#D14DF1"/>
<stop offset="0.440138" stop-color="#7755F1"/>
<stop offset="1" stop-color="#37E0C9"/>
</radialGradient>
<radialGradient id="paint15_radial_664_1324" cx="0" cy="0" r="1" gradientUnits="userSpaceOnUse" gradientTransform="translate(19.978 10.7154) rotate(61.2095) scale(66.1555 117.172)">
<stop stop-color="#D14DF1"/>
<stop offset="0.440138" stop-color="#7755F1"/>
<stop offset="1" stop-color="#37E0C9"/>
</radialGradient>
<radialGradient id="paint16_radial_664_1324" cx="0" cy="0" r="1" gradientUnits="userSpaceOnUse" gradientTransform="translate(19.9777 10.7154) rotate(61.2095) scale(66.1555 117.172)">
<stop stop-color="#D14DF1"/>
<stop offset="0.440138" stop-color="#7755F1"/>
<stop offset="1" stop-color="#37E0C9"/>
</radialGradient>
<radialGradient id="paint17_radial_664_1324" cx="0" cy="0" r="1" gradientUnits="userSpaceOnUse" gradientTransform="translate(19.9777 10.7145) rotate(61.2095) scale(66.1555 117.172)">
<stop stop-color="#D14DF1"/>
<stop offset="0.440138" stop-color="#7755F1"/>
<stop offset="1" stop-color="#37E0C9"/>
</radialGradient>
<radialGradient id="paint18_radial_664_1324" cx="0" cy="0" r="1" gradientUnits="userSpaceOnUse" gradientTransform="translate(19.9779 10.7154) rotate(61.2095) scale(66.1555 117.172)">
<stop stop-color="#D14DF1"/>
<stop offset="0.440138" stop-color="#7755F1"/>
<stop offset="1" stop-color="#37E0C9"/>
</radialGradient>
<radialGradient id="paint19_radial_664_1324" cx="0" cy="0" r="1" gradientUnits="userSpaceOnUse" gradientTransform="translate(19.9778 10.715) rotate(61.2095) scale(66.1555 117.172)">
<stop stop-color="#D14DF1"/>
<stop offset="0.440138" stop-color="#7755F1"/>
<stop offset="1" stop-color="#37E0C9"/>
</radialGradient>
<radialGradient id="paint20_radial_664_1324" cx="0" cy="0" r="1" gradientUnits="userSpaceOnUse" gradientTransform="translate(19.9776 10.7168) rotate(61.2095) scale(66.1555 117.172)">
<stop stop-color="#D14DF1"/>
<stop offset="0.440138" stop-color="#7755F1"/>
<stop offset="1" stop-color="#37E0C9"/>
</radialGradient>
<radialGradient id="paint21_radial_664_1324" cx="0" cy="0" r="1" gradientUnits="userSpaceOnUse" gradientTransform="translate(19.9777 10.7178) rotate(61.2095) scale(66.1555 117.172)">
<stop stop-color="#D14DF1"/>
<stop offset="0.440138" stop-color="#7755F1"/>
<stop offset="1" stop-color="#37E0C9"/>
</radialGradient>
<radialGradient id="paint22_radial_664_1324" cx="0" cy="0" r="1" gradientUnits="userSpaceOnUse" gradientTransform="translate(19.9777 10.7148) rotate(61.2095) scale(66.1555 117.172)">
<stop stop-color="#D14DF1"/>
<stop offset="0.440138" stop-color="#7755F1"/>
<stop offset="1" stop-color="#37E0C9"/>
</radialGradient>
<radialGradient id="paint23_radial_664_1324" cx="0" cy="0" r="1" gradientUnits="userSpaceOnUse" gradientTransform="translate(19.9776 10.7162) rotate(61.2095) scale(66.1555 117.172)">
<stop stop-color="#D14DF1"/>
<stop offset="0.440138" stop-color="#7755F1"/>
<stop offset="1" stop-color="#37E0C9"/>
</radialGradient>
<radialGradient id="paint24_radial_664_1324" cx="0" cy="0" r="1" gradientUnits="userSpaceOnUse" gradientTransform="translate(19.9778 10.7162) rotate(61.2095) scale(66.1555 117.172)">
<stop stop-color="#D14DF1"/>
<stop offset="0.440138" stop-color="#7755F1"/>
<stop offset="1" stop-color="#37E0C9"/>
</radialGradient>
<radialGradient id="paint25_radial_664_1324" cx="0" cy="0" r="1" gradientUnits="userSpaceOnUse" gradientTransform="translate(19.9779 10.7145) rotate(61.2095) scale(66.1555 117.172)">
<stop stop-color="#D14DF1"/>
<stop offset="0.440138" stop-color="#7755F1"/>
<stop offset="1" stop-color="#37E0C9"/>
</radialGradient>
<radialGradient id="paint26_radial_664_1324" cx="0" cy="0" r="1" gradientUnits="userSpaceOnUse" gradientTransform="translate(19.9779 10.7154) rotate(61.2095) scale(66.1555 117.172)">
<stop stop-color="#D14DF1"/>
<stop offset="0.440138" stop-color="#7755F1"/>
<stop offset="1" stop-color="#37E0C9"/>
</radialGradient>
<radialGradient id="paint27_radial_664_1324" cx="0" cy="0" r="1" gradientUnits="userSpaceOnUse" gradientTransform="translate(19.9775 10.7151) rotate(61.2095) scale(66.1555 117.172)">
<stop stop-color="#D14DF1"/>
<stop offset="0.440138" stop-color="#7755F1"/>
<stop offset="1" stop-color="#37E0C9"/>
</radialGradient>
<radialGradient id="paint28_radial_664_1324" cx="0" cy="0" r="1" gradientUnits="userSpaceOnUse" gradientTransform="translate(19.9778 10.7171) rotate(61.2095) scale(66.1555 117.172)">
<stop stop-color="#D14DF1"/>
<stop offset="0.440138" stop-color="#7755F1"/>
<stop offset="1" stop-color="#37E0C9"/>
</radialGradient>
<radialGradient id="paint29_radial_664_1324" cx="0" cy="0" r="1" gradientUnits="userSpaceOnUse" gradientTransform="translate(19.9778 10.7172) rotate(61.2095) scale(66.1555 117.172)">
<stop stop-color="#D14DF1"/>
<stop offset="0.440138" stop-color="#7755F1"/>
<stop offset="1" stop-color="#37E0C9"/>
</radialGradient>
<clipPath id="clip0_664_1324">
<rect width="398" height="82" fill="white"/>
</clipPath>
</defs>
</svg>
