<svg width="281" height="76" viewBox="0 0 281 76" fill="none" xmlns="http://www.w3.org/2000/svg">
<g clip-path="url(#clip0_665_1551)">
<path d="M15.0545 39.1505V73.9844H0V26.8516H47.3383V73.9844H32.2859V39.1505H15.0545Z" fill="white"/>
<path d="M75.6374 73.9828H60.5829V26.8499H75.6374V73.9828ZM59.0986 8.72723C59.0986 4.03219 63.1583 0.277344 68.1121 0.277344C73.0657 0.277344 77.0228 4.03219 77.0228 8.72723C77.0228 13.4223 72.9611 17.177 68.1121 17.177C63.2631 17.177 59.0986 13.4203 59.0986 8.72723Z" fill="white"/>
<path d="M103.835 0H88.7822V73.9842H103.835V0Z" fill="white"/>
<path d="M132.034 0H116.981V73.9842H132.034V0Z" fill="white"/>
<path d="M160.234 73.9847H145.181V26.8518H160.234V73.9847ZM143.694 8.73113C143.694 4.03609 147.754 0.28125 152.709 0.28125C157.662 0.28125 161.619 4.03609 161.619 8.73113C161.619 13.4262 157.559 17.181 152.709 17.181C147.857 17.181 143.694 13.4242 143.694 8.73113Z" fill="white"/>
<path d="M196.949 62.8099C204.178 62.8099 209.626 57.4574 209.626 50.4169C209.626 43.3763 204.178 38.0237 196.949 38.0237C189.72 38.0237 184.174 43.3763 184.174 50.4169C184.174 57.4574 189.621 62.8099 196.949 62.8099ZM196.949 25.7227C211.408 25.7227 223.687 36.2395 223.687 50.4169C223.687 64.5943 211.408 75.111 196.949 75.111C182.49 75.111 170.112 64.5962 170.112 50.4169C170.112 36.2375 182.493 25.7227 196.949 25.7227Z" fill="white"/>
<path d="M248.718 39.1505V73.9844H233.667V26.8516H281V73.9844H265.949V39.1505H248.718Z" fill="white"/>
</g>
<defs>
<clipPath id="clip0_665_1551">
<rect width="281" height="76" fill="white"/>
</clipPath>
</defs>
</svg>
