<svg width="296" height="80" viewBox="0 0 296 80" fill="none" xmlns="http://www.w3.org/2000/svg">
<g clip-path="url(#clip0_924_309)">
<path d="M15.9138 41.2118V77.8791H0.0669556V28.2656H49.8968V77.8791H34.0521V41.2118H15.9138Z" fill="white"/>
<path d="M79.685 77.8777H63.8381V28.2641H79.685V77.8777ZM62.2758 9.18758C62.2758 4.24543 66.5491 0.292969 71.7636 0.292969C76.978 0.292969 81.1433 4.24543 81.1433 9.18758C81.1433 14.1297 76.8678 18.0821 71.7636 18.0821C66.6594 18.0821 62.2758 14.1276 62.2758 9.18758Z" fill="white"/>
<path d="M109.367 0H93.5222V77.8781H109.367V0Z" fill="white"/>
<path d="M139.05 0H123.205V77.8781H139.05V0Z" fill="white"/>
<path d="M168.734 77.8794H152.889V28.2659H168.734V77.8794ZM151.324 9.19148C151.324 4.24934 155.597 0.296875 160.813 0.296875C166.027 0.296875 170.192 4.24934 170.192 9.19148C170.192 14.1336 165.919 18.0861 160.813 18.0861C155.706 18.0861 151.324 14.1315 151.324 9.19148Z" fill="white"/>
<path d="M207.381 66.1135C214.991 66.1135 220.726 60.4793 220.726 53.0681C220.726 45.657 214.991 40.0227 207.381 40.0227C199.772 40.0227 193.934 45.657 193.934 53.0681C193.934 60.4793 199.668 66.1135 207.381 66.1135ZM207.381 27.0742C222.602 27.0742 235.527 38.1446 235.527 53.0681C235.527 67.9917 222.602 79.0619 207.381 79.0619C192.162 79.0619 179.132 67.9938 179.132 53.0681C179.132 38.1425 192.165 27.0742 207.381 27.0742Z" fill="white"/>
<path d="M261.875 41.2118V77.8791H246.031V28.2656H295.856V77.8791H280.013V41.2118H261.875Z" fill="white"/>
</g>
<defs>
<clipPath id="clip0_924_309">
<rect width="295.789" height="80" fill="white" transform="translate(0.0668945)"/>
</clipPath>
</defs>
</svg>
