<svg width="307" height="104" viewBox="0 0 307 104" fill="none" xmlns="http://www.w3.org/2000/svg">
<path fill-rule="evenodd" clip-rule="evenodd" d="M81 36.8307L48.1035 53.7082L80.7856 69.4358C77.6894 75.2917 73.0577 80.1878 67.3906 83.5953C61.7234 87.0029 55.2362 88.7923 48.6294 88.7705C28.6274 88.7705 12.4121 72.7247 12.4121 52.9282C12.4121 33.1318 28.6274 17.0859 48.6294 17.0859C62.7842 17.0859 75.0414 25.1203 81 36.8307Z" fill="white"/>
<path d="M41.9581 48.5059L46.5494 65.641L41.1574 67.0858L37.152 52.1374C37.5808 51.9637 38.0138 51.7854 38.4523 51.6C39.9262 50.9775 41.1562 49.89 41.9559 48.5049L41.9581 48.5059Z" fill="#CCCCCC"/>
<path d="M76.0267 25.4419L76.9939 29.0514L49.6322 38.7357C47.9826 39.3191 46.596 40.4723 45.721 41.9878L41.9563 48.506C41.1566 49.8911 39.9266 50.9787 38.4526 51.6011C38.0141 51.7865 37.581 51.965 37.1523 52.1385C27.5184 56.0193 20.261 56.7691 16.0429 56.7597L16.0424 56.7579L18.6203 44.8245C19.223 42.033 21.2993 39.7957 24.036 38.9816C41.2446 33.8567 62.5369 27.7881 70.0336 24.4304L76.0267 25.4419Z" fill="#0B9B53"/>
<path d="M41.958 48.5061L43.6088 54.667L43.6076 54.6692C42.808 56.0543 41.578 57.1419 40.104 57.7644C39.6655 57.9497 39.2324 58.1282 38.8037 58.3017L37.152 52.1374C37.5808 51.9637 38.0138 51.7854 38.4523 51.6C39.9262 50.9775 41.1562 49.89 41.9559 48.5049L41.958 48.5061Z" fill="#999999"/>
<path d="M66.7128 19.3625L70.0334 24.4336C62.5369 27.7912 41.2444 33.8599 24.0359 38.9848C21.2993 39.7989 19.223 42.0362 18.6202 44.8277L16.0422 56.7611L16.0427 56.7629C13.3064 56.7565 11.8481 56.4297 11.8481 56.4297C11.9558 54.6261 10.9703 50.1131 9.56029 44.7411C7.45104 36.7119 8.62831 28.5507 12.2963 21.7264C15.9625 14.9024 22.1217 9.4165 29.9776 6.73524C43.6702 2.06403 58.7867 7.26126 66.7128 19.3625Z" fill="#06B559"/>
<path d="M23.3423 21.8483C26.6951 15.6079 32.3274 10.591 39.5116 8.13894C42.9838 6.95437 46.5561 6.46501 50.0606 6.61057C43.696 4.52769 36.667 4.45327 29.9775 6.73516C22.1217 9.41642 15.9625 14.9024 12.2963 21.7263C8.62832 28.5508 7.45115 36.7118 9.56027 44.741C10.9703 50.113 11.9556 54.6261 11.848 56.4296C11.848 56.4296 13.3065 56.7563 16.0427 56.7628L16.0422 56.761L18.6201 44.8276C18.9139 43.4673 19.5596 42.2405 20.459 41.244C19.0877 34.4415 20.2392 27.6217 23.3423 21.8483Z" fill="#0B9B53"/>
<path d="M76.2481 24.1336L70.8279 23.2192L67.8252 18.634C59.5636 6.01627 43.825 0.604552 29.5494 5.47575C21.6297 8.17795 15.0864 13.7252 11.1253 21.0959C7.16266 28.4692 6.15043 36.9859 8.27525 45.077C10.2415 52.5642 10.5819 55.3389 10.5214 56.3481C10.4822 56.9993 10.9214 57.5826 11.5582 57.7251C11.8917 57.7999 18.2627 59.1483 29.218 56.2128C31.3864 55.6318 33.7366 54.8811 36.2536 53.9209L39.874 67.4324C40.064 68.1416 40.793 68.5625 41.5022 68.3725L46.8943 66.9277C47.6035 66.7377 48.0244 66.0086 47.8344 65.2994L43.3854 48.6956L46.873 42.6549C47.5889 41.4146 48.7268 40.4682 50.0771 39.9905L77.4379 30.3069C78.0922 30.0753 78.4581 29.3797 78.2785 28.7094L77.3115 25.1003C77.1766 24.5981 76.7612 24.2201 76.2481 24.1336ZM10.8471 44.4014C8.89374 36.9632 9.82423 29.1335 13.4674 22.3548C17.1099 15.5776 23.1262 10.4769 30.4083 7.99237C43.5314 3.51404 58.0043 8.48932 65.6011 20.0907L68.0498 23.8303C61.078 26.6503 46.4318 30.9762 32.2337 35.1696C29.3188 36.0305 26.4351 36.8823 23.6579 37.7092C20.4543 38.6628 18.0265 41.2828 17.3222 44.546L14.9763 55.4005C14.2174 55.3744 13.6028 55.3247 13.1433 55.2746C12.9637 53.1604 12.2062 49.5765 10.8471 44.4014ZM42.0981 65.4599L38.7392 52.9243C38.8174 52.8916 38.8935 52.8613 38.972 52.8281C39.8375 52.462 40.638 51.954 41.3394 51.334L44.9217 64.7033L42.0981 65.4599ZM75.3917 28.2103L49.1897 37.4837C47.243 38.1727 45.6023 39.5371 44.5699 41.3253L40.8068 47.8432C40.1557 48.971 39.1362 49.8715 37.9363 50.3792C29.0694 54.1295 22.1377 55.187 17.7009 55.382L19.9213 45.1072C20.4209 42.7926 22.1434 40.9342 24.4167 40.2575C27.1922 39.4308 30.0737 38.5798 32.9867 37.7196C48.0467 33.2717 63.6086 28.6755 70.2052 25.8106L74.9638 26.6134L75.3917 28.2103Z" fill="#333333"/>
<path d="M37.947 29.8805C38.6562 29.6905 39.0771 28.9615 38.8871 28.2522C38.697 27.543 37.968 27.1221 37.2588 27.3122C36.5496 27.5022 36.1287 28.2312 36.3187 28.9404C36.5087 29.6497 37.2378 30.0706 37.947 29.8805Z" fill="#333333"/>
<path d="M94.6427 81.7344V22.988H115.494C121.837 22.988 127.132 24.3118 131.38 26.9596C135.627 29.5521 138.799 33.0824 140.895 37.5505C143.046 41.9633 144.122 46.8727 144.122 52.2784C144.122 58.2358 142.936 63.4209 140.564 67.8338C138.247 72.2467 134.938 75.6667 130.635 78.0938C126.333 80.5208 121.285 81.7344 115.494 81.7344H94.6427ZM134.69 52.2784C134.69 48.1414 133.917 44.5007 132.373 41.3566C130.883 38.1572 128.705 35.675 125.836 33.9098C123.023 32.0895 119.575 31.1794 115.494 31.1794H103.91V73.543H115.494C119.631 73.543 123.106 72.6052 125.919 70.7298C128.787 68.8543 130.966 66.3169 132.455 63.1176C133.945 59.9182 134.69 56.3052 134.69 52.2784ZM166.996 22.988H175.767L198.603 81.7344H188.84L182.634 65.7653H159.963L153.84 81.7344H143.994L166.996 22.988ZM180.814 58.8977L171.381 33.1652L161.618 58.8977H180.814ZM226.36 82.1481C222.112 82.1481 218.279 81.3207 214.859 79.6658C211.439 78.011 208.488 75.777 206.005 72.9638C203.523 70.0954 201.593 66.8961 200.214 63.3658C198.89 59.7803 198.228 56.1121 198.228 52.3612C198.228 48.4448 198.945 44.7214 200.379 41.1911C201.813 37.6056 203.799 34.4339 206.336 31.6758C208.874 28.8626 211.853 26.6562 215.273 25.0565C218.748 23.4017 222.499 22.5743 226.525 22.5743C230.718 22.5743 234.524 23.4293 237.944 25.1393C241.419 26.8492 244.37 29.1384 246.797 32.0068C249.279 34.8752 251.182 38.0745 252.506 41.6048C253.885 45.1351 254.575 48.7481 254.575 52.4439C254.575 56.3603 253.858 60.1113 252.423 63.6968C251.044 67.227 249.086 70.3988 246.549 73.212C244.011 75.9701 241.005 78.1489 237.53 79.7486C234.11 81.3482 230.387 82.1481 226.36 82.1481ZM207.66 52.3612C207.66 55.1192 208.102 57.7945 208.984 60.3871C209.867 62.9797 211.108 65.2964 212.708 67.3374C214.362 69.3232 216.348 70.8953 218.665 72.0536C220.982 73.212 223.574 73.7912 226.443 73.7912C229.421 73.7912 232.069 73.1844 234.386 71.9709C236.703 70.7573 238.633 69.1301 240.178 67.0891C241.777 64.993 242.991 62.6763 243.818 60.1389C244.646 57.5463 245.059 54.9537 245.059 52.3612C245.059 49.6031 244.618 46.9554 243.736 44.418C242.908 41.8254 241.667 39.5363 240.012 37.5505C238.357 35.5095 236.372 33.9098 234.055 32.7515C231.793 31.5931 229.256 31.0139 226.443 31.0139C223.464 31.0139 220.816 31.6207 218.499 32.8342C216.183 34.0478 214.224 35.675 212.625 37.716C211.025 39.7569 209.784 42.0461 208.901 44.5835C208.074 47.1209 207.66 49.7135 207.66 52.3612ZM297.185 36.8058C296.633 36.199 295.833 35.5647 294.785 34.9027C293.737 34.1856 292.496 33.5237 291.062 32.9169C289.628 32.3102 288.083 31.8137 286.428 31.4276C284.773 31.0415 283.063 30.8484 281.298 30.8484C277.437 30.8484 274.569 31.5655 272.693 32.9997C270.818 34.4339 269.88 36.4197 269.88 38.9571C269.88 40.8325 270.404 42.3219 271.452 43.4251C272.5 44.4732 274.1 45.3557 276.251 46.0728C278.402 46.7899 281.105 47.5622 284.36 48.3896C288.331 49.3273 291.779 50.4581 294.702 51.782C297.626 53.0507 299.86 54.7607 301.404 56.912C302.949 59.0632 303.721 61.904 303.721 65.4343C303.721 68.413 303.17 70.978 302.066 73.1293C300.963 75.2805 299.419 77.0457 297.433 78.4247C295.447 79.7486 293.158 80.7415 290.565 81.4034C287.973 82.0102 285.187 82.3136 282.208 82.3136C279.285 82.3136 276.361 82.0102 273.438 81.4034C270.569 80.7966 267.811 79.9141 265.164 78.7557C262.571 77.5421 260.172 76.0804 257.965 74.3704L262.185 66.4272C262.902 67.1443 263.923 67.9441 265.246 68.8267C266.625 69.6541 268.198 70.454 269.963 71.2262C271.783 71.9985 273.741 72.6604 275.837 73.212C277.989 73.7085 280.167 73.9567 282.374 73.9567C286.07 73.9567 288.883 73.3223 290.813 72.0536C292.799 70.7298 293.792 68.8543 293.792 66.4272C293.792 64.4414 293.158 62.8693 291.889 61.711C290.62 60.4974 288.773 59.4769 286.345 58.6495C283.918 57.8221 281.022 56.9947 277.658 56.1673C273.796 55.1192 270.569 53.9884 267.977 52.7749C265.384 51.5062 263.426 49.9065 262.102 47.9759C260.834 45.9901 260.199 43.4803 260.199 40.4464C260.199 36.5852 261.137 33.3307 263.012 30.6829C264.888 27.98 267.425 25.9667 270.625 24.6428C273.879 23.2638 277.52 22.5743 281.546 22.5743C284.194 22.5743 286.704 22.8777 289.076 23.4844C291.448 24.036 293.654 24.8083 295.695 25.8012C297.791 26.7941 299.694 27.9249 301.404 29.1936L297.185 36.8058Z" fill="white"/>
</svg>
