<svg width="307" height="105" viewBox="0 0 307 105" fill="none" xmlns="http://www.w3.org/2000/svg">
<path fill-rule="evenodd" clip-rule="evenodd" d="M80.592 37.4569L47.5114 54.4289L80.3765 70.2446C77.263 76.1333 72.6053 81.0568 66.9064 84.4834C61.2075 87.91 54.684 89.7095 48.0402 89.6876C27.9262 89.6876 11.6201 73.5519 11.6201 53.6446C11.6201 33.7373 27.9262 17.6016 48.0402 17.6016C62.2742 17.6016 74.6001 25.681 80.592 37.4569Z" fill="white"/>
<path d="M41.3318 49.1971L45.9489 66.4281L40.5266 67.881L36.4988 52.8489C36.93 52.6743 37.3654 52.4949 37.8064 52.3085C39.2885 51.6825 40.5255 50.5889 41.3296 49.196L41.3318 49.1971Z" fill="#CCCCCC"/>
<path d="M75.5912 26.0043L76.5637 29.634L49.0489 39.3726C47.39 39.9593 45.9956 41.119 45.1157 42.643L41.3299 49.1976C40.5257 50.5905 39.2889 51.6842 37.8066 52.3101C37.3657 52.4965 36.9302 52.676 36.4991 52.8505C26.8112 56.753 19.5131 57.507 15.2714 57.4976L15.2709 57.4958L17.8633 45.4955C18.4694 42.6884 20.5573 40.4385 23.3093 39.6199C40.6142 34.4663 62.0258 28.3637 69.5644 24.9872L75.5912 26.0043Z" fill="#0B9B53"/>
<path d="M41.3317 49.1972L42.9918 55.3926L42.9906 55.3949C42.1864 56.7877 40.9495 57.8814 39.4673 58.5073C39.0264 58.6937 38.5909 58.8732 38.1598 59.0477L36.4988 52.8489C36.93 52.6743 37.3654 52.4949 37.8064 52.3085C39.2885 51.6825 40.5255 50.5889 41.3296 49.196L41.3317 49.1972Z" fill="#999999"/>
<path d="M66.2252 19.8896L69.5645 24.9891C62.026 28.3655 40.6143 34.4682 23.3093 39.6218C20.5574 40.4404 18.4695 42.6903 17.8633 45.4974L15.2709 57.4976L15.2714 57.4994C12.5198 57.493 11.0533 57.1643 11.0533 57.1643C11.1616 55.3506 10.1706 50.8124 8.75269 45.4103C6.63162 37.3361 7.81549 29.1292 11.5041 22.2667C15.1908 15.4045 21.3845 9.88788 29.2843 7.1916C43.0536 2.49424 58.2548 7.72057 66.2252 19.8896Z" fill="#06B559"/>
<path d="M22.6119 22.3893C25.9835 16.114 31.6473 11.069 38.8717 8.60317C42.3633 7.41196 45.9557 6.91987 49.4798 7.06623C43.0795 4.97169 36.0112 4.89685 29.2843 7.19152C21.3845 9.8878 15.1908 15.4045 11.504 22.2666C7.8155 29.1293 6.63174 37.336 8.75267 45.4102C10.1706 50.8123 11.1615 55.3507 11.0532 57.1642C11.0532 57.1642 12.5199 57.4928 15.2714 57.4994L15.2709 57.4976L17.8633 45.4973C18.1587 44.1293 18.808 42.8957 19.7124 41.8936C18.3334 35.053 19.4914 28.195 22.6119 22.3893Z" fill="#0B9B53"/>
<path d="M75.8138 24.6888L70.3632 23.7692L67.3438 19.1583C59.0358 6.46998 43.2091 1.02795 28.8536 5.92643C20.8895 8.64376 14.3096 14.2221 10.3263 21.6341C6.34147 29.0487 5.32357 37.613 7.46029 45.7495C9.43751 53.2786 9.77984 56.0688 9.71901 57.0837C9.67962 57.7385 10.1213 58.3251 10.7616 58.4684C11.097 58.5436 17.5036 59.8995 28.5203 56.9476C30.7009 56.3634 33.0643 55.6085 35.5953 54.6429L39.236 68.23C39.4271 68.9432 40.1602 69.3665 40.8734 69.1754L46.2956 67.7225C47.0088 67.5314 47.432 66.7983 47.2409 66.0851L42.767 49.3883L46.2742 43.3138C46.9941 42.0666 48.1384 41.1148 49.4962 40.6344L77.0103 30.8967C77.6682 30.6638 78.0362 29.9642 77.8556 29.2902L76.8831 25.6609C76.7475 25.1558 76.3297 24.7757 75.8138 24.6888ZM10.0466 45.0701C8.08225 37.5902 9.01794 29.7167 12.6816 22.9C16.3444 16.0848 22.3944 10.9555 29.7173 8.45714C42.9138 3.95373 57.4679 8.95688 65.1071 20.6233L67.5696 24.3838C60.5588 27.2195 45.8305 31.5696 31.5529 35.7866C28.6217 36.6523 25.7219 37.5089 22.9291 38.3404C19.7076 39.2994 17.2662 41.934 16.5579 45.2154L14.1989 56.1308C13.4357 56.1045 12.8177 56.0545 12.3556 56.0041C12.175 53.8782 11.4132 50.2741 10.0466 45.0701ZM41.4725 66.2465L38.0948 53.6407C38.1735 53.6078 38.25 53.5774 38.3289 53.544C39.1993 53.1758 40.0043 52.6649 40.7096 52.0415L44.312 65.4857L41.4725 66.2465ZM74.9526 28.7883L48.6038 38.1136C46.6463 38.8064 44.9964 40.1786 43.9582 41.9768L40.174 48.5311C39.5193 49.6653 38.4941 50.5708 37.2874 51.0813C28.3709 54.8526 21.4004 55.9161 16.9388 56.1121L19.1716 45.7798C19.674 43.4522 21.4061 41.5835 23.6921 40.903C26.4832 40.0716 29.3808 39.2158 32.3102 38.3508C47.4544 33.878 63.1035 29.2561 69.737 26.3751L74.5223 27.1824L74.9526 28.7883Z" fill="#333333"/>
<path d="M37.2984 30.4711C38.0116 30.28 38.4348 29.5469 38.2437 28.8337C38.0526 28.1205 37.3195 27.6972 36.6063 27.8884C35.8931 28.0795 35.4699 28.8125 35.661 29.5258C35.8521 30.239 36.5852 30.6622 37.2984 30.4711Z" fill="#333333"/>
<path d="M94.198 82.2812V23.2059H115.166C121.545 23.2059 126.87 24.5371 131.141 27.1997C135.412 29.8068 138.602 33.3569 140.709 37.8499C142.873 42.2875 143.954 47.2243 143.954 52.6604C143.954 58.6511 142.762 63.8653 140.377 68.3028C138.047 72.7404 134.719 76.1796 130.392 78.6202C126.065 81.0609 120.99 82.2812 115.166 82.2812H94.198ZM134.469 52.6604C134.469 48.5001 133.692 44.8391 132.139 41.6773C130.642 38.4601 128.451 35.9639 125.566 34.1889C122.737 32.3584 119.27 31.4431 115.166 31.4431H103.517V74.044H115.166C119.326 74.044 122.82 73.101 125.649 71.215C128.534 69.329 130.725 66.7774 132.223 63.5602C133.72 60.3429 134.469 56.7097 134.469 52.6604ZM166.957 23.2059H175.776L198.741 82.2812H188.923L182.682 66.2227H159.884L153.727 82.2812H143.826L166.957 23.2059ZM180.852 59.3167L171.366 33.4401L161.548 59.3167H180.852ZM226.653 82.6973C222.382 82.6973 218.526 81.8652 215.087 80.2011C211.648 78.537 208.681 76.2905 206.184 73.4615C203.688 70.5771 201.747 67.3599 200.36 63.8098C199.029 60.2043 198.363 56.5155 198.363 52.7436C198.363 48.8052 199.084 45.061 200.526 41.5109C201.969 37.9054 203.966 34.7159 206.517 31.9424C209.069 29.1134 212.064 26.8946 215.503 25.286C218.998 23.6219 222.77 22.7898 226.819 22.7898C231.035 22.7898 234.862 23.6496 238.301 25.3692C241.796 27.0888 244.764 29.3908 247.204 32.2752C249.701 35.1596 251.614 38.3769 252.945 41.9269C254.332 45.477 255.026 49.1103 255.026 52.8268C255.026 56.7651 254.304 60.5371 252.862 64.1426C251.476 67.6927 249.506 70.8822 246.955 73.7112C244.403 76.4847 241.38 78.6757 237.885 80.2843C234.446 81.893 230.702 82.6973 226.653 82.6973ZM207.849 52.7436C207.849 55.5171 208.292 58.2073 209.18 60.8144C210.067 63.4215 211.315 65.7512 212.924 67.8036C214.588 69.8005 216.585 71.3814 218.915 72.5463C221.244 73.7112 223.852 74.2936 226.736 74.2936C229.731 74.2936 232.394 73.6834 234.724 72.4631C237.053 71.2428 238.995 69.6064 240.548 67.554C242.157 65.4462 243.377 63.1164 244.209 60.5648C245.041 57.9577 245.457 55.3506 245.457 52.7436C245.457 49.9701 245.013 47.3075 244.126 44.7559C243.294 42.1488 242.046 39.8468 240.382 37.8499C238.717 35.7975 236.721 34.1889 234.391 33.024C232.117 31.8592 229.565 31.2767 226.736 31.2767C223.741 31.2767 221.078 31.8869 218.748 33.1072C216.419 34.3276 214.449 35.9639 212.841 38.0163C211.232 40.0687 209.984 42.3707 209.097 44.9223C208.265 47.4739 207.849 50.081 207.849 52.7436ZM297.874 37.1011C297.319 36.4909 296.515 35.853 295.461 35.1874C294.407 34.4662 293.159 33.8006 291.717 33.1904C290.275 32.5803 288.722 32.081 287.057 31.6928C285.393 31.3045 283.674 31.1103 281.899 31.1103C278.016 31.1103 275.131 31.8314 273.246 33.2736C271.36 34.7159 270.417 36.7128 270.417 39.2644C270.417 41.1504 270.944 42.648 271.997 43.7574C273.051 44.8114 274.66 45.6989 276.823 46.42C278.987 47.1411 281.705 47.9177 284.977 48.7497C288.971 49.6927 292.438 50.8299 295.378 52.1611C298.318 53.4369 300.564 55.1565 302.118 57.3198C303.671 59.4831 304.447 62.3398 304.447 65.8899C304.447 68.8853 303.893 71.4646 302.783 73.628C301.674 75.7913 300.121 77.5663 298.124 78.9531C296.127 80.2843 293.825 81.2828 291.218 81.9484C288.611 82.5586 285.809 82.8637 282.814 82.8637C279.874 82.8637 276.934 82.5586 273.994 81.9484C271.11 81.3383 268.336 80.4507 265.674 79.2859C263.067 78.0655 260.654 76.5956 258.435 74.876L262.678 66.8884C263.4 67.6095 264.426 68.4138 265.757 69.3013C267.144 70.1334 268.725 70.9377 270.5 71.7142C272.33 72.4908 274.299 73.1565 276.407 73.7112C278.571 74.2104 280.762 74.46 282.98 74.46C286.697 74.46 289.526 73.8221 291.467 72.5463C293.464 71.215 294.463 69.329 294.463 66.8884C294.463 64.8915 293.825 63.3106 292.549 62.1457C291.273 60.9254 289.415 59.8992 286.974 59.0671C284.534 58.2351 281.621 57.403 278.238 56.571C274.355 55.5171 271.11 54.3799 268.503 53.1596C265.896 51.8838 263.927 50.2752 262.595 48.3337C261.319 46.3368 260.682 43.8129 260.682 40.7621C260.682 36.8792 261.625 33.6065 263.511 30.9439C265.397 28.2259 267.948 26.2012 271.165 24.87C274.438 23.4832 278.099 22.7898 282.148 22.7898C284.811 22.7898 287.335 23.0949 289.72 23.7051C292.105 24.2598 294.324 25.0364 296.376 26.0348C298.484 27.0333 300.398 28.1704 302.118 29.4462L297.874 37.1011Z" fill="white"/>
</svg>
