<svg width="408" height="78" viewBox="0 0 408 78" fill="none" xmlns="http://www.w3.org/2000/svg">
<path d="M61.9554 55.3573L50.6598 42.5733L39.3682 55.3573H33.3183L50.6598 36.1253L68.0052 55.3573H61.9554ZM73.8133 55.3573L72.5497 53.9533L72.5638 53.9413L50.6598 29.6573L28.7577 53.9413L28.7739 53.9533L27.5103 55.3573H21.4322L50.6598 22.1953L79.8913 55.3573H73.8133Z" fill="#5E5BF9"/>
<path d="M372.82 55.1642H368.936V26.2002H358.308V22.8422H383.448V26.2042H372.82V55.1682V55.1642ZM348.677 55.1642H344.574L323.778 28.7662V55.1642H319.899V22.8402H323.998L344.793 49.2382V22.8402H348.677V55.1642ZM287.352 55.1642V22.8402H307.619V26.2022H291.231V37.0622H306.715V40.4242H291.231V51.8022H307.839V55.1642H287.352ZM275.073 55.1642H270.97L250.174 28.7662V55.1642H246.293V22.8402H250.396L271.191 49.2382V22.8402H275.073V55.1642ZM218.381 55.8102C215.896 55.8102 213.603 55.3942 211.501 54.5622C209.461 53.7602 207.609 52.5662 206.052 51.0482C204.504 49.5182 203.283 47.7002 202.46 45.7042C201.592 43.5742 201.156 41.2962 201.181 39.0022C201.181 36.5742 201.606 34.3402 202.458 32.3002C203.309 30.2462 204.51 28.4642 206.052 26.9562C207.609 25.4402 209.461 24.2442 211.501 23.4442C213.689 22.5942 216.027 22.1702 218.381 22.1922C220.864 22.1922 223.153 22.6082 225.239 23.4402C227.278 24.2442 229.131 25.4382 230.688 26.9562C232.242 28.4822 233.465 30.3002 234.28 32.3002C235.134 34.3402 235.559 36.5742 235.559 39.0022C235.559 41.4142 235.134 43.6502 234.282 45.7042C233.459 47.7022 232.238 49.5182 230.688 51.0482C229.131 52.5642 227.278 53.7602 225.239 54.5602C223.153 55.3922 220.864 55.8102 218.381 55.8102ZM218.381 52.4502C220.277 52.4502 222.027 52.1122 223.629 51.4362C225.213 50.7822 226.646 49.8222 227.841 48.6142C229.04 47.3822 229.977 45.9322 230.6 44.3442C231.273 42.6422 231.609 40.8282 231.589 39.0022C231.607 37.1742 231.271 35.3602 230.598 33.6562C229.981 32.0682 229.044 30.6182 227.841 29.3922C226.654 28.1742 225.219 27.2122 223.629 26.5682C221.97 25.8822 220.183 25.5362 218.381 25.5542C216.573 25.5382 214.78 25.8822 213.111 26.5682C211.529 27.2162 210.102 28.1762 208.921 29.3902C207.716 30.6182 206.771 32.0682 206.142 33.6562C205.467 35.3602 205.131 37.1742 205.149 39.0022C205.149 40.9262 205.477 42.7102 206.138 44.3442C206.803 45.9822 207.726 47.4122 208.917 48.6342C210.106 49.8402 211.533 50.8022 213.109 51.4582C214.78 52.1302 216.571 52.4662 218.377 52.4502H218.381ZM169.073 55.1642V22.8402H179.265C181.967 22.8402 184.283 23.2482 186.209 24.0682C188.152 24.8862 189.635 26.0562 190.663 27.5802C191.693 29.1042 192.207 30.9282 192.207 33.0542C192.207 35.1662 191.693 36.9902 190.663 38.5282C189.635 40.0622 188.148 41.2502 186.209 42.0822C184.283 42.9022 181.967 43.3122 179.265 43.3122H172.957V55.1642H169.073ZM172.957 39.9502H178.932C181.9 39.9502 184.194 39.3402 185.812 38.1182C187.43 36.8962 188.239 35.2082 188.239 33.0542C188.239 30.8982 187.43 29.2182 185.812 28.0102C184.194 26.8062 181.9 26.2022 178.932 26.2022H172.957V39.9502ZM129.407 22.8402H134.259L143.896 35.5962L153.467 22.8402H158.12L147.312 36.9582H140.186L129.407 22.8402ZM129.407 54.9402H134.259L143.896 42.1822L153.467 54.9402H158.12L147.31 40.8222H140.184L129.403 54.9402H129.407ZM98.5144 55.1642V22.8402H118.782V26.2022H102.398V37.0622H117.879V40.4242H102.398V51.8022H119.002V55.1642H98.5144Z" fill="white"/>
</svg>
