<svg width="548" height="105" viewBox="0 0 548 105" fill="none" xmlns="http://www.w3.org/2000/svg">
<path d="M83.2037 74.5162L67.9981 57.3069L52.7979 74.5162H44.6538L67.9981 48.6269L91.3478 74.5162H83.2037ZM99.1663 74.5162L97.4653 72.6262L97.4843 72.61L67.9981 39.92L38.5146 72.61L38.5363 72.6262L36.8353 74.5162H28.6533L67.9981 29.875L107.348 74.5162H99.1663Z" fill="#5E5BF9"/>
<path d="M501.675 74.2576H496.447V35.2676H482.14V30.7472H515.983V35.273H501.675V74.263V74.2576ZM469.175 74.2576H463.651L435.657 38.7218V74.2576H430.435V30.7445H435.953L463.947 66.2803V30.7445H469.175V74.2576ZM386.622 74.2576V30.7445H413.905V35.2703H391.844V49.8895H412.687V54.4153H391.844V69.7318H414.201V74.2576H386.622ZM370.093 74.2576H364.569L336.575 38.7218V74.2576H331.35V30.7445H336.874L364.868 66.2803V30.7445H370.093V74.2576ZM293.777 75.1272C290.432 75.1272 287.345 74.5672 284.515 73.4472C281.77 72.3676 279.277 70.7603 277.179 68.7168C275.096 66.6572 273.452 64.2099 272.345 61.523C271.176 58.6557 270.59 55.5891 270.622 52.501C270.622 49.2326 271.195 46.2253 272.342 43.4791C273.487 40.7141 275.104 38.3153 277.179 36.2853C279.277 34.2445 281.77 32.6345 284.515 31.5576C287.461 30.4133 290.608 29.8426 293.777 29.8722C297.119 29.8722 300.201 30.4322 303.009 31.5522C305.754 32.6345 308.247 34.2418 310.344 36.2853C312.436 38.3395 314.083 40.7868 315.179 43.4791C316.329 46.2253 316.901 49.2326 316.901 52.501C316.901 55.748 316.329 58.758 315.181 61.523C314.075 64.2126 312.431 66.6572 310.344 68.7168C308.247 70.7576 305.754 72.3676 303.009 73.4445C300.201 74.5645 297.119 75.1272 293.777 75.1272ZM293.777 70.6041C296.33 70.6041 298.684 70.1491 300.841 69.2391C302.973 68.3587 304.902 67.0664 306.511 65.4403C308.125 63.7818 309.387 61.8299 310.225 59.6922C311.131 57.401 311.584 54.9591 311.557 52.501C311.581 50.0403 311.128 47.5983 310.222 45.3045C309.392 43.1668 308.131 41.2149 306.511 39.5645C304.913 37.9249 302.982 36.6299 300.841 35.763C298.608 34.8395 296.202 34.3737 293.777 34.398C291.343 34.3764 288.929 34.8395 286.683 35.763C284.553 36.6353 282.632 37.9276 281.043 39.5618C279.42 41.2149 278.148 43.1668 277.302 45.3045C276.393 47.5983 275.94 50.0403 275.964 52.501C275.964 55.091 276.406 57.4926 277.296 59.6922C278.191 61.8972 279.434 63.8222 281.037 65.4672C282.638 67.0907 284.559 68.3857 286.68 69.2687C288.929 70.1733 291.341 70.6257 293.771 70.6041H293.777ZM227.401 74.2576V30.7445H241.12C244.758 30.7445 247.875 31.2937 250.469 32.3976C253.084 33.4987 255.08 35.0737 256.464 37.1253C257.85 39.1768 258.542 41.6322 258.542 44.4941C258.542 47.3372 257.85 49.7926 256.464 51.863C255.08 53.928 253.078 55.5272 250.469 56.6472C247.875 57.751 244.758 58.303 241.12 58.303H232.629V74.2576H227.401ZM232.629 53.7772H240.672C244.668 53.7772 247.756 52.956 249.934 51.311C252.113 49.666 253.2 47.3937 253.2 44.4941C253.2 41.5918 252.113 39.3303 249.934 37.7041C247.756 36.0833 244.668 35.2703 240.672 35.2703H232.629V53.7772ZM174.004 30.7445H180.536L193.509 47.916L206.393 30.7445H212.657L198.107 49.7495H188.515L174.004 30.7445ZM174.004 73.956H180.536L193.509 56.7818L206.393 73.956H212.657L198.105 54.951H188.512L173.998 73.956H174.004ZM132.418 74.2576V30.7445H159.701V35.2703H137.646V49.8895H158.486V54.4153H137.646V69.7318H159.997V74.2576H132.418Z" fill="white"/>
</svg>
