<svg width="270" height="90" viewBox="0 0 270 90" fill="none" xmlns="http://www.w3.org/2000/svg">
<g clip-path="url(#clip0_924_333)">
<path d="M230.106 84.3328V89.9986H268.995V64.4448H263.328V84.3328H230.106ZM230.106 0V5.66609H263.328V25.5552H268.995V0H230.106ZM210.052 43.8336V30.6674H218.94C223.275 30.6674 224.83 32.1114 224.83 36.0565V38.3894C224.83 42.4446 223.329 43.8336 218.94 43.8336H210.052ZM224.162 46.1664C228.217 45.111 231.05 41.3326 231.05 36.8336C231.05 34.0006 229.939 31.4445 227.829 29.3887C225.162 26.8326 221.605 25.5552 216.995 25.5552H204.495V64.4434H210.052V48.9443H218.385C222.662 48.9443 224.385 50.7219 224.385 55.1671V64.4448H230.051V56.0559C230.051 49.9447 228.607 47.6119 224.162 46.945V46.1664ZM177.386 47.4438H194.497V42.333H177.386V30.666H196.163V25.5552H171.719V64.4434H196.997V59.3326H177.386V47.4438ZM158.774 49.4996V52.166C158.774 57.777 156.718 59.6109 151.552 59.6109H150.33C145.163 59.6109 142.663 57.9437 142.663 50.2217V39.777C142.663 31.9999 145.275 30.3877 150.441 30.3877H151.551C156.607 30.3877 158.218 32.2768 158.273 37.4992H164.384C163.829 29.8324 158.718 25 151.051 25C147.329 25 144.218 26.167 141.885 28.3883C138.385 31.6664 136.441 37.2222 136.441 44.9994C136.441 52.4995 138.108 58.0553 141.552 61.4988C143.885 63.7765 147.107 64.9987 150.274 64.9987C153.607 64.9987 156.663 63.6649 158.218 60.7767H158.995V64.4434H164.106V44.3889H149.051V49.4996H158.774ZM109.776 30.666H115.832C121.555 30.666 124.666 32.1101 124.666 39.8886V50.1101C124.666 57.8872 121.555 59.3326 115.832 59.3326H109.776V30.666ZM116.331 64.4448C126.943 64.4448 130.886 56.3894 130.886 45.0007C130.886 33.4453 126.664 25.5566 116.22 25.5566H104.219V64.4448H116.331ZM77.388 47.4438H94.4993V42.333H77.388V30.666H96.165V25.5552H71.7202V64.4434H96.9989V59.3326H77.388V47.4438ZM44.6107 25.5552H38.9446V64.4434H64.4999V59.3326H44.6107V25.5552ZM0 64.4448V90H38.8882V84.3328H5.66609V64.4448H0ZM0 0V25.5552H5.66609V5.66609H38.8882V0H0Z" fill="white"/>
</g>
<defs>
<clipPath id="clip0_924_333">
<rect width="269.297" height="90" fill="white"/>
</clipPath>
</defs>
</svg>
