<svg width="332" height="54" viewBox="0 0 332 54" fill="none" xmlns="http://www.w3.org/2000/svg">
<g clip-path="url(#clip0_924_335)">
<path d="M45.4682 21.4297L43.574 19.6012L50.6368 12.5087L51.9496 11.1904L50.6397 9.87515L43.574 2.78111L45.4682 0.878906L55.7367 11.1904L45.4682 21.4297Z" fill="white"/>
<path d="M45.4682 53.4626L43.574 51.5603L50.6268 44.54L51.9496 43.2232L50.6383 41.9064L43.574 34.8124L45.4682 32.9102L55.7367 43.2232L45.4682 53.4626Z" fill="white"/>
<path d="M107.607 5.26172H70.8633C70.3369 5.26172 69.881 5.44302 69.4923 5.80411C69.125 6.19438 68.9414 6.6538 68.9414 7.18081V47.1484C68.9414 47.677 69.125 48.1349 69.4923 48.5252C69.881 48.8939 70.3384 49.0783 70.8633 49.0783C71.3895 49.0783 71.8318 48.8939 72.1914 48.5252C72.58 48.1349 72.7743 47.6755 72.7743 47.1484V9.07994H107.607C108.133 9.07994 108.578 8.89555 108.946 8.5268C109.334 8.15804 109.529 7.70938 109.529 7.18235C109.529 6.6538 109.334 6.19592 108.946 5.80565C108.578 5.44456 108.132 5.26172 107.607 5.26172ZM101.473 25.2609H80.0437C79.5175 25.2609 79.0615 25.4422 78.6729 25.8033C78.3056 26.172 78.122 26.6208 78.122 27.1477C78.122 27.6978 78.3056 28.1557 78.6729 28.5244C79.0615 28.8932 79.519 29.0776 80.0437 29.0776H101.473C101.999 29.0776 102.455 28.8932 102.844 28.5244C103.211 28.1557 103.394 27.6963 103.394 27.1477C103.394 26.6191 103.211 26.172 102.844 25.8033C102.455 25.4422 101.997 25.2609 101.473 25.2609Z" fill="white"/>
<path d="M133.517 23.7106C132.991 23.7106 132.535 23.895 132.146 24.2637C131.779 24.6539 131.595 25.1133 131.595 25.6404V28.6996C131.595 29.2281 131.779 29.6861 132.146 30.0764C132.535 30.445 132.992 30.6294 133.517 30.6294C134.043 30.6294 134.488 30.445 134.856 30.0764C135.245 29.6861 135.439 29.2267 135.439 28.6996V25.6404C135.439 25.1119 135.245 24.6539 134.856 24.2637C134.488 23.895 134.042 23.7106 133.517 23.7106ZM149.967 13.3099V40.9885C149.967 42.1594 149.557 43.1581 148.736 43.9816C147.915 44.813 146.92 45.2293 145.755 45.2293H121.281C120.115 45.2293 119.12 44.813 118.3 43.9816C117.473 43.1581 117.058 42.1594 117.058 40.9885V13.3099C117.058 12.1668 117.473 11.1803 118.3 10.3491C119.12 9.50247 120.115 9.07994 121.281 9.07994H145.755C146.92 9.07994 147.915 9.50247 148.736 10.3491C149.555 11.1803 149.967 12.1683 149.967 13.3099ZM145.755 5.26172H121.281C119.064 5.26172 117.167 6.05302 115.589 7.63717C114.012 9.19825 113.224 11.0897 113.224 13.3099V40.9885C113.224 43.215 114.012 45.1202 115.589 46.7044C117.167 48.2885 119.064 49.0798 121.281 49.0798H145.755C147.971 49.0798 149.869 48.2885 151.446 46.7044C153.025 45.1202 153.812 43.215 153.812 40.9885V13.3099C153.812 11.0897 153.025 9.19979 151.446 7.63717C149.869 6.05302 147.971 5.26172 145.755 5.26172Z" fill="white"/>
<path d="M191.817 27.6702C193.712 26.6361 195.221 25.201 196.343 23.3649C197.51 21.4626 198.094 19.3991 198.094 17.1712C198.094 13.8892 196.928 11.0759 194.595 8.73269C192.283 6.41871 189.496 5.26172 186.234 5.26172H159.428C158.901 5.26172 158.445 5.44304 158.056 5.80411C157.688 6.19438 157.506 6.6538 157.506 7.18082C157.506 7.70938 157.688 8.1565 158.056 8.52526C158.445 8.89403 158.902 9.07841 159.428 9.07841H186.234C188.446 9.07841 190.327 9.8697 191.883 11.4538C193.461 13.038 194.249 14.9433 194.249 17.1696C194.249 19.396 193.461 21.3013 191.883 22.8855C190.329 24.4696 188.446 25.261 186.234 25.261H159.428C158.901 25.261 158.445 25.4423 158.056 25.8033C157.688 26.1721 157.506 26.6207 157.506 27.1477C157.506 27.6978 157.688 28.1556 158.056 28.5244C158.445 28.8931 158.902 29.0775 159.428 29.0775H183.933C186.763 29.0775 189.197 30.0979 191.235 32.1368C193.244 34.1619 194.247 36.6096 194.247 39.4797V47.1484C194.247 47.677 194.442 48.1348 194.831 48.5251C195.198 48.8939 195.645 49.0783 196.169 49.0783C196.696 49.0783 197.141 48.8939 197.507 48.5251C197.896 48.1348 198.091 47.6754 198.091 47.1484V39.4797C198.091 34.4261 195.999 30.488 191.816 27.6685L191.817 27.6702Z" fill="white"/>
<path d="M203.71 5.26172C203.183 5.26172 202.727 5.44302 202.338 5.80411C201.972 6.19438 201.788 6.6538 201.788 7.18081V47.1485C201.788 47.677 201.972 48.1349 202.338 48.5252C202.727 48.8939 203.184 49.0783 203.71 49.0783C204.236 49.0783 204.678 48.8939 205.038 48.5252C205.427 48.1349 205.621 47.6755 205.621 47.1485V7.18081C205.621 6.65226 205.427 6.19438 205.038 5.80411C204.678 5.44302 204.234 5.26172 203.71 5.26172ZM242.377 14.8602V7.18081C242.377 6.65226 242.183 6.19438 241.794 5.80411C241.426 5.44302 240.98 5.26172 240.455 5.26172C239.928 5.26172 239.483 5.44302 239.116 5.80411C238.727 6.19438 238.532 6.6538 238.532 7.18081V14.8602C238.532 17.7305 237.529 20.175 235.52 22.1925C233.482 24.2391 231.049 25.2624 228.218 25.2624H212.894C212.367 25.2624 211.911 25.4437 211.522 25.8048C211.156 26.1736 210.972 26.6222 210.972 27.1493C210.972 27.6993 211.156 28.1572 211.522 28.526C211.911 28.8947 212.368 29.0791 212.894 29.0791H228.218C231.048 29.0791 233.482 30.0993 235.52 32.1383C237.529 34.1635 238.532 36.611 238.532 39.4813V47.1499C238.532 47.6785 238.727 48.1364 239.116 48.5267C239.483 48.8955 239.93 49.0798 240.455 49.0798C240.981 49.0798 241.426 48.8955 241.794 48.5267C242.183 48.1364 242.377 47.677 242.377 47.1499V39.4813C242.377 36.8862 241.724 34.4845 240.42 32.2797C239.16 30.1255 237.459 28.4153 235.312 27.1493C237.457 25.9124 239.16 24.2176 240.42 22.0619C241.724 19.8355 242.377 17.4339 242.377 14.8602Z" fill="white"/>
<path d="M284.737 45.2277H247.994C247.466 45.2277 247.011 45.4199 246.623 45.8024C246.255 46.1713 246.072 46.6199 246.072 47.1469C246.072 47.6754 246.255 48.1334 246.623 48.5236C247.011 48.8923 247.469 49.0767 247.994 49.0767H284.737C285.263 49.0767 285.708 48.8923 286.076 48.5236C286.465 48.1334 286.659 47.674 286.659 47.1469C286.659 46.6184 286.465 46.1713 286.076 45.8024C285.708 45.4199 285.262 45.2277 284.737 45.2277ZM247.994 9.0784H284.737C285.263 9.0784 285.708 8.89402 286.076 8.52526C286.465 8.1565 286.659 7.70784 286.659 7.18081C286.659 6.65226 286.465 6.19438 286.076 5.80411C285.708 5.44302 285.262 5.26172 284.737 5.26172H247.994C247.466 5.26172 247.011 5.44302 246.623 5.80411C246.255 6.19438 246.072 6.6538 246.072 7.18081C246.072 7.70938 246.255 8.1565 246.623 8.52526C247.011 8.89402 247.469 9.0784 247.994 9.0784ZM284.737 25.2608H247.994C247.466 25.2608 247.011 25.4422 246.623 25.8033C246.255 26.1721 246.072 26.6207 246.072 27.1477C246.072 27.6977 246.255 28.1557 246.623 28.5245C247.011 28.8932 247.469 29.0776 247.994 29.0776H284.737C285.263 29.0776 285.708 28.8932 286.076 28.5245C286.465 28.1557 286.659 27.6962 286.659 27.1477C286.659 26.6192 286.465 26.1721 286.076 25.8033C285.708 25.4422 285.262 25.2608 284.737 25.2608Z" fill="white"/>
<path d="M316.782 49.0806H292.276C291.75 49.0806 291.294 48.8963 290.905 48.5275C290.538 48.1372 290.354 47.6778 290.354 47.1508C290.354 46.6222 290.538 46.1751 290.905 45.8063C291.294 45.4237 291.751 45.2317 292.276 45.2317H316.782C319.611 45.2317 322.045 44.2191 324.083 42.1956C326.092 40.1566 327.097 37.712 327.097 34.8633V19.4844C327.097 16.6143 326.092 14.1666 324.083 12.1415C322.045 10.1025 319.612 9.08231 316.782 9.08231H292.276C291.75 9.08231 291.294 8.89792 290.905 8.52916C290.538 8.1604 290.354 7.71174 290.354 7.18472C290.354 6.65617 290.538 6.19829 290.905 5.80801C291.294 5.44693 291.751 5.26562 292.276 5.26562H316.782C320.692 5.26562 324.028 6.65463 326.795 9.43109C329.56 12.2076 330.943 15.5587 330.943 19.486V34.8648C330.943 38.7906 329.56 42.1417 326.795 44.9198C324.03 47.6963 320.693 49.0853 316.782 49.0853V49.0806Z" fill="white"/>
<path d="M21.0692 28.5222V25.8164H20.314L19.3938 27.2069L20.2643 28.5222H21.0692Z" fill="white"/>
<path d="M0.895508 25.8164V28.5222H20.2648L19.3943 27.2069L20.3145 25.8164H0.895508Z" fill="white"/>
<path d="M27.332 39.1984C29.5905 42.5634 33.3039 44.5378 37.3096 44.5378H50.6267L51.9496 43.221L50.6383 41.9042H37.3096C34.1792 41.9042 31.3377 40.3692 29.5905 37.7356L22.5995 27.2044L29.5905 16.6732C31.2644 14.0411 34.1776 12.5047 37.3096 12.5047H50.6368L51.9496 11.1863L50.6396 9.87109H37.3096C33.3039 9.87109 29.5905 11.8455 27.332 15.2105L20.3142 25.8139H21.0693V28.5197H20.2644L27.332 39.1984Z" fill="white"/>
</g>
<defs>
<clipPath id="clip0_924_335">
<rect width="331.244" height="54" fill="white" transform="translate(0.296875)"/>
</clipPath>
</defs>
</svg>
