<svg width="503" height="82" viewBox="0 0 503 82" fill="none" xmlns="http://www.w3.org/2000/svg">
<path d="M68.5933 32.5388L65.7168 29.7622L76.4419 18.9921L78.4354 16.9902L76.4462 14.993L65.7168 4.22056L68.5933 1.33203L84.1861 16.9902L68.5933 32.5388Z" fill="white"/>
<path d="M68.5933 81.1858L65.7168 78.2971L76.4266 67.6367L78.4354 65.6371L76.4441 63.6376L65.7168 52.8652L68.5933 49.9766L84.1861 65.6371L68.5933 81.1858Z" fill="white"/>
<path d="M162.952 7.99219H107.156C106.357 7.99219 105.664 8.2675 105.074 8.81582C104.516 9.40845 104.238 10.1061 104.238 10.9064V71.598C104.238 72.4005 104.516 73.0959 105.074 73.6886C105.664 74.2484 106.359 74.5284 107.156 74.5284C107.955 74.5284 108.627 74.2484 109.173 73.6886C109.763 73.0959 110.058 72.3983 110.058 71.598V13.7902H162.952C163.751 13.7902 164.427 13.5102 164.985 12.9503C165.575 12.3903 165.87 11.709 165.87 10.9087C165.87 10.1061 165.575 9.41079 164.985 8.81815C164.427 8.26984 163.749 7.99219 162.952 7.99219ZM153.637 38.3613H121.097C120.298 38.3613 119.605 38.6366 119.015 39.185C118.457 39.7449 118.178 40.4263 118.178 41.2264C118.178 42.0618 118.457 42.7571 119.015 43.317C119.605 43.877 120.3 44.1571 121.097 44.1571H153.637C154.436 44.1571 155.129 43.877 155.719 43.317C156.276 42.7571 156.555 42.0595 156.555 41.2264C156.555 40.4238 156.276 39.7449 155.719 39.185C155.129 38.6366 154.434 38.3613 153.637 38.3613Z" fill="white"/>
<path d="M202.297 36.0071C201.498 36.0071 200.805 36.2871 200.215 36.847C199.658 37.4396 199.379 38.1373 199.379 38.9376V43.5831C199.379 44.3857 199.658 45.081 200.215 45.6737C200.805 46.2335 201.5 46.5136 202.297 46.5136C203.096 46.5136 203.772 46.2335 204.33 45.6737C204.92 45.081 205.216 44.3834 205.216 43.5831V38.9376C205.216 38.135 204.92 37.4396 204.33 36.847C203.772 36.2871 203.094 36.0071 202.297 36.0071ZM227.276 20.2136V62.244C227.276 64.022 226.653 65.5386 225.407 66.7891C224.161 68.0515 222.65 68.6837 220.88 68.6837H183.716C181.946 68.6837 180.436 68.0515 179.19 66.7891C177.933 65.5386 177.304 64.022 177.304 62.244V20.2136C177.304 18.4777 177.933 16.9797 179.19 15.7175C180.436 14.4319 181.946 13.7902 183.716 13.7902H220.88C222.65 13.7902 224.161 14.4319 225.407 15.7175C226.651 16.9797 227.276 18.48 227.276 20.2136ZM220.88 7.99219H183.716C180.35 7.99219 177.468 9.1938 175.073 11.5993C172.678 13.9699 171.481 16.8421 171.481 20.2136V62.244C171.481 65.6249 172.678 68.5181 175.073 70.9237C177.468 73.3292 180.35 74.5307 183.716 74.5307H220.88C224.246 74.5307 227.128 73.3292 229.523 70.9237C231.92 68.5181 233.115 65.6249 233.115 62.244V20.2136C233.115 16.8421 231.92 13.9722 229.523 11.5993C227.128 9.1938 224.246 7.99219 220.88 7.99219Z" fill="white"/>
<path d="M290.828 42.0159C293.705 40.4456 295.996 38.2665 297.701 35.4783C299.472 32.5896 300.358 29.4562 300.358 26.0731C300.358 21.0893 298.588 16.8172 295.045 13.259C291.534 9.74519 287.303 7.98828 282.35 7.98828H241.644C240.843 7.98828 240.151 8.26362 239.56 8.81191C239.002 9.40454 238.725 10.1022 238.725 10.9025C238.725 11.7051 239.002 12.3841 239.56 12.944C240.151 13.504 240.845 13.784 241.644 13.784H282.35C285.708 13.784 288.565 14.9856 290.927 17.3911C293.324 19.7967 294.52 22.69 294.52 26.0706C294.52 29.4515 293.324 32.3446 290.927 34.7503C288.567 37.1558 285.708 38.3575 282.35 38.3575H241.644C240.843 38.3575 240.151 38.6328 239.56 39.181C239.002 39.741 238.725 40.4223 238.725 41.2226C238.725 42.0579 239.002 42.7531 239.56 43.3132C240.151 43.873 240.845 44.153 241.644 44.153H278.855C283.152 44.153 286.848 45.7024 289.944 48.7986C292.994 51.8738 294.518 55.5906 294.518 59.9489V71.5939C294.518 72.3967 294.813 73.0919 295.403 73.6845C295.961 74.2446 296.64 74.5246 297.436 74.5246C298.236 74.5246 298.912 74.2446 299.468 73.6845C300.059 73.0919 300.354 72.3943 300.354 71.5939V59.9489C300.354 52.2749 297.177 46.2949 290.826 42.0135L290.828 42.0159Z" fill="white"/>
<path d="M308.887 7.99219C308.086 7.99219 307.394 8.2675 306.803 8.81582C306.248 9.40845 305.969 10.1061 305.969 10.9064V71.598C305.969 72.4005 306.248 73.0959 306.803 73.6886C307.394 74.2484 308.088 74.5285 308.887 74.5285C309.685 74.5285 310.357 74.2484 310.903 73.6886C311.493 73.0959 311.789 72.3983 311.789 71.598V10.9064C311.789 10.1037 311.493 9.40845 310.903 8.81582C310.357 8.2675 309.683 7.99219 308.887 7.99219ZM367.603 22.5677V10.9064C367.603 10.1037 367.308 9.40845 366.717 8.81582C366.16 8.2675 365.481 7.99219 364.685 7.99219C363.885 7.99219 363.209 8.2675 362.651 8.81582C362.06 9.40845 361.765 10.1061 361.765 10.9064V22.5677C361.765 26.9262 360.242 30.6384 357.191 33.7019C354.096 36.8097 350.402 38.3636 346.103 38.3636H322.832C322.032 38.3636 321.34 38.6389 320.749 39.1873C320.193 39.7473 319.914 40.4285 319.914 41.2289C319.914 42.064 320.193 42.7594 320.749 43.3195C321.34 43.8793 322.034 44.1593 322.832 44.1593H346.103C350.4 44.1593 354.096 45.7085 357.191 48.8048C360.242 51.88 361.765 55.5967 361.765 59.9552V71.6002C361.765 72.4028 362.06 73.0982 362.651 73.6908C363.209 74.2509 363.887 74.5307 364.685 74.5307C365.483 74.5307 366.16 74.2509 366.717 73.6908C367.308 73.0982 367.603 72.4005 367.603 71.6002V59.9552C367.603 56.0145 366.612 52.3675 364.632 49.0195C362.718 45.7483 360.136 43.1514 356.875 41.2289C360.132 39.3507 362.718 36.7771 364.632 33.5036C366.612 30.1228 367.603 26.4758 367.603 22.5677Z" fill="white"/>
<path d="M431.928 68.6813H376.132C375.332 68.6813 374.639 68.9731 374.051 69.554C373.493 70.1141 373.214 70.7953 373.214 71.5956C373.214 72.3982 373.493 73.0936 374.051 73.6862C374.639 74.2461 375.336 74.5261 376.132 74.5261H431.928C432.727 74.5261 433.403 74.2461 433.961 73.6862C434.551 73.0936 434.847 72.3959 434.847 71.5956C434.847 70.7931 434.551 70.1141 433.961 69.554C433.403 68.9731 432.725 68.6813 431.928 68.6813ZM376.132 13.7879H431.928C432.727 13.7879 433.403 13.5079 433.961 12.9479C434.551 12.388 434.847 11.7067 434.847 10.9064C434.847 10.1037 434.551 9.40845 433.961 8.81582C433.403 8.2675 432.725 7.99219 431.928 7.99219H376.132C375.332 7.99219 374.639 8.2675 374.051 8.81582C373.493 9.40845 373.214 10.1061 373.214 10.9064C373.214 11.709 373.493 12.388 374.051 12.9479C374.639 13.5079 375.336 13.7879 376.132 13.7879ZM431.928 38.3612H376.132C375.332 38.3612 374.639 38.6365 374.051 39.1849C373.493 39.745 373.214 40.4262 373.214 41.2265C373.214 42.0617 373.493 42.7571 374.051 43.3171C374.639 43.877 375.336 44.157 376.132 44.157H431.928C432.727 44.157 433.403 43.877 433.961 43.3171C434.551 42.7571 434.847 42.0594 434.847 41.2265C434.847 40.4239 434.551 39.745 433.961 39.1849C433.403 38.6365 432.725 38.3612 431.928 38.3612Z" fill="white"/>
<path d="M480.589 74.5299H443.375C442.577 74.5299 441.885 74.2501 441.294 73.6901C440.736 73.0974 440.457 72.3998 440.457 71.5995C440.457 70.7969 440.736 70.1179 441.294 69.5579C441.885 68.9769 442.579 68.6854 443.375 68.6854H480.589C484.884 68.6854 488.58 67.1477 491.675 64.0749C494.726 60.9786 496.251 57.2665 496.251 52.9408V29.5876C496.251 25.2293 494.726 21.5124 491.675 18.4372C488.58 15.341 484.886 13.7918 480.589 13.7918H443.375C442.577 13.7918 441.885 13.5118 441.294 12.9518C440.736 12.3919 440.457 11.7106 440.457 10.9103C440.457 10.1077 440.736 9.41236 441.294 8.81972C441.885 8.27141 442.579 7.99609 443.375 7.99609H480.589C486.525 7.99609 491.592 10.1053 495.793 14.3214C499.992 18.5375 502.092 23.6264 502.092 29.59V52.943C502.092 58.9044 499.992 63.9931 495.793 68.2116C491.594 72.4279 486.527 74.5371 480.589 74.5371V74.5299Z" fill="white"/>
<path d="M31.5431 43.3119V39.2031H30.3964L28.999 41.3146L30.3209 43.3119H31.5431Z" fill="white"/>
<path d="M0.908447 39.2031V43.3119H30.321L28.9992 41.3146L30.3966 39.2031H0.908447Z" fill="white"/>
<path d="M41.053 59.5262C44.4826 64.636 50.1215 67.6342 56.2043 67.6342H76.4265L78.4353 65.6346L76.4441 63.635H56.2043C51.4507 63.635 47.1359 61.3042 44.4826 57.305L33.8666 41.3132L44.4826 25.3213C47.0245 21.3245 51.4482 18.9913 56.2043 18.9913H76.4418L78.4353 16.9894L76.4461 14.9922H56.2043C50.1215 14.9922 44.4826 17.9904 41.053 23.1002L30.3964 39.2017H31.5431V43.3105H30.3208L41.053 59.5262Z" fill="white"/>
</svg>
