<svg width="319" height="78" viewBox="0 0 319 78" fill="none" xmlns="http://www.w3.org/2000/svg">
<g clip-path="url(#clip0_924_349)">
<path d="M66.6999 0H12.822C5.84975 0 0.197632 5.57165 0.197632 12.4446V65.5554C0.197632 72.4284 5.84975 78 12.822 78H66.6999C73.6721 78 79.3243 72.4284 79.3243 65.5554V12.4446C79.3243 5.57165 73.6721 0 66.6999 0Z" fill="#FFD733"/>
<mask id="mask0_924_349" style="mask-type:luminance" maskUnits="userSpaceOnUse" x="10" y="9" width="59" height="59">
<path d="M39.5513 67.7661C55.7936 67.7661 68.9605 54.7866 68.9605 38.7756C68.9605 22.7646 55.7936 9.78516 39.5513 9.78516C23.3091 9.78516 10.1421 22.7646 10.1421 38.7756C10.1421 54.7866 23.3091 67.7661 39.5513 67.7661Z" fill="white"/>
</mask>
<g mask="url(#mask0_924_349)">
<path d="M42.3071 9.4273L48.4179 20.1161H17.0194C17.0194 20.1161 21.5308 5.86436 42.3071 9.4273Z" fill="#282828"/>
<path d="M45.5459 10.016L61.1477 36.5328L68.4674 25.2545C68.4674 25.2545 60.3675 7.55523 45.5459 10.016Z" fill="#282828"/>
<path d="M52.631 56.1042L69.0906 28.6133C69.0906 28.6133 77.0215 45.8256 66.4904 56.1042H52.631Z" fill="#282828"/>
<path d="M32.7257 58.0898H64.7741C64.7741 58.0898 55.4522 72.5209 38.6932 69.9577L32.7257 58.0898Z" fill="#282828"/>
<path d="M45.0644 30.15C43.7643 29.9064 44.0113 29.8552 43.7643 29.4066C43.5173 28.9581 44.0113 29.0092 43.5042 26.9331C42.9972 24.8568 34.1822 23.1523 34.1822 23.1523H15.1091L10.8057 27.9712C10.8057 27.9712 6.68423 34.8022 11.4557 32.0724C14.2301 30.4561 17.4137 29.6515 20.6348 29.7526C16.3735 30.9283 12.4419 33.0502 9.14149 35.9557L7.49032 44.8119C7.49032 44.8119 3.58989 54.9495 11.5468 46.4779C19.5037 38.0064 20.6477 38.7882 20.6477 38.7882C12.8469 45.0681 11.9108 52.5913 11.9108 52.5913L20.5438 61.8318C19.4386 52.0915 21.7009 48.6823 21.7009 48.6823C20.4917 58.6662 24.9513 64.2157 24.9513 64.2157L19.0876 64.8565C19.0876 64.8565 38.7457 73.5972 34.8843 68.0605C27.9805 58.1536 26.5634 51.7966 30.1779 47.3494C33.7922 42.9022 39.7988 42.8509 43.0102 42.8893C46.2216 42.9279 48.0287 45.568 47.4307 43.7865C46.8326 42.0051 42.165 40.8643 41.515 40.7746C40.8649 40.6849 35.5864 40.6722 36.2364 40.3261C38.2907 39.2367 42.5681 38.9419 46.2735 38.8906C48.6491 38.9713 50.8982 39.9649 52.5402 41.659V38.9932C52.6312 32.7388 46.3646 30.3934 45.0644 30.15ZM36.1845 33.9948C34.5333 33.9948 32.2841 32.6107 31.5169 29.3938C33.8721 31.0912 36.8055 31.8175 39.6949 31.4188C39.6949 31.4188 37.8357 34.0077 36.1845 34.0077V33.9948Z" fill="#282828"/>
</g>
<path d="M171.777 32.2734H171.764C168.956 32.2734 166.68 34.5171 166.68 37.2846V60.4437C166.68 63.2114 168.956 65.4549 171.764 65.4549H171.777C174.585 65.4549 176.861 63.2114 176.861 60.4437V37.2846C176.861 34.5171 174.585 32.2734 171.777 32.2734Z" fill="white"/>
<path d="M224.757 32.2734H224.745C221.937 32.2734 219.661 34.5171 219.661 37.2846V60.4437C219.661 63.2114 221.937 65.4549 224.745 65.4549H224.757C227.565 65.4549 229.84 63.2114 229.84 60.4437V37.2846C229.84 34.5171 227.565 32.2734 224.757 32.2734Z" fill="white"/>
<path d="M248.888 65.4374H238.708V17.8633H269.768V25.835H248.888V37.1519H268.455V45.1237H248.888V65.4374Z" fill="white"/>
<path d="M294.823 47.4997L283.342 65.4425H272.122L289.023 40.7455L273.111 17.8555H285.891L295.81 34.0553L306.213 17.8555H317.277L301.363 40.7455L318.264 65.4425H305.575L294.823 47.4997Z" fill="white"/>
<path d="M172.27 27.4292C175.272 27.4292 177.705 25.0307 177.705 22.0721C177.705 19.1133 175.272 16.7148 172.27 16.7148C169.27 16.7148 166.836 19.1133 166.836 22.0721C166.836 25.0307 169.27 27.4292 172.27 27.4292Z" fill="white"/>
<path d="M225.148 27.4292C228.15 27.4292 230.582 25.0307 230.582 22.0721C230.582 19.1133 228.15 16.7148 225.148 16.7148C222.147 16.7148 219.713 19.1133 219.713 22.0721C219.713 25.0307 222.147 27.4292 225.148 27.4292Z" fill="white"/>
<path d="M114.636 53.7649L122.437 25.5689C122.852 23.9872 123.789 22.5862 125.1 21.5863C126.41 20.5864 128.021 20.0443 129.679 20.0452C131.371 20.0456 133.013 20.6108 134.337 21.6488C135.662 22.6868 136.591 24.1363 136.973 25.7612L144.11 53.8033H144.37L151.417 21.6344C151.64 20.6182 152.209 19.7077 153.03 19.0547C153.851 18.4019 154.873 18.0458 155.929 18.0458C156.63 18.0461 157.324 18.2045 157.954 18.5086C158.586 18.8128 159.137 19.255 159.569 19.8011C160 20.3474 160.299 20.9836 160.444 21.661C160.588 22.3385 160.573 23.0395 160.402 23.7106L151.001 60.2114C150.598 61.7631 149.683 63.1388 148.4 64.1223C147.118 65.1059 145.54 65.6417 143.915 65.6456C142.264 65.6449 140.661 65.0936 139.368 64.0814C138.074 63.0694 137.166 61.6558 136.791 60.0704L130.29 31.6439C130.247 31.4456 130.137 31.2679 129.977 31.1402C129.817 31.0126 129.618 30.943 129.412 30.943C129.207 30.943 129.007 31.0126 128.847 31.1402C128.688 31.2679 128.577 31.4456 128.535 31.6439L121.501 60.0833C121.086 61.6766 120.145 63.0889 118.827 64.0981C117.51 65.1073 115.889 65.6561 114.22 65.6584C112.535 65.6567 110.899 65.0977 109.574 64.0706C108.249 63.0434 107.312 61.6077 106.913 59.9936L98.1113 24.3002C97.9173 23.5501 97.9014 22.766 98.0647 22.009C98.2281 21.2518 98.5662 20.542 99.0528 19.9346C99.5395 19.3271 100.162 18.8384 100.871 18.5065C101.58 18.1744 102.358 18.008 103.143 18.0202C104.325 18.0208 105.47 18.4244 106.385 19.1626C107.3 19.9007 107.927 20.9279 108.161 22.0702L114.636 53.7649Z" fill="white"/>
<path d="M191.045 18.0195C191.715 18.0179 192.378 18.1466 192.998 18.3986C193.617 18.6504 194.179 19.0203 194.653 19.4873C195.126 19.9541 195.501 20.5086 195.757 21.119C196.013 21.7292 196.144 22.3833 196.142 23.0435V42.2679L204.775 34.0271C205.199 33.5018 205.733 33.0696 206.337 32.7585C206.941 32.4473 207.605 32.264 208.285 32.22C209.099 32.2163 209.898 32.4402 210.587 32.8659C211.277 33.2916 211.832 33.9015 212.183 34.6248C212.536 35.3481 212.674 36.1551 212.58 36.9522C212.486 37.7493 212.164 38.5037 211.653 39.128L206.14 44.1519C205.76 44.6142 205.539 45.1838 205.508 45.7781C205.478 46.3724 205.64 46.961 205.97 47.4585L213.213 58.3011C213.689 59.0208 213.957 59.8538 213.992 60.7121C214.026 61.5702 213.827 62.4218 213.41 63.1767C212.995 63.9315 212.38 64.5618 211.632 65.0007C210.882 65.4398 210.028 65.6711 209.156 65.6705C208.295 65.6678 207.45 65.4398 206.708 65.0097C205.966 64.5797 205.352 63.9629 204.931 63.2226L196.142 47.6636V60.6465C196.142 61.979 195.604 63.2568 194.649 64.199C193.693 65.1411 192.396 65.6705 191.045 65.6705C189.696 65.6672 188.402 65.1363 187.45 64.1945C186.497 63.2526 185.961 61.9767 185.961 60.6465V23.0948C185.959 22.4357 186.09 21.7826 186.344 21.1731C186.6 20.5637 186.974 20.0097 187.445 19.5431C187.918 19.0764 188.48 18.7061 189.096 18.4535C189.714 18.2009 190.376 18.0708 191.045 18.0708V18.0195Z" fill="white"/>
</g>
<defs>
<clipPath id="clip0_924_349">
<rect width="318.067" height="78" fill="white" transform="translate(0.197754)"/>
</clipPath>
</defs>
</svg>
