<svg width="367" height="90" viewBox="0 0 367 90" fill="none" xmlns="http://www.w3.org/2000/svg">
<g clip-path="url(#clip0_679_2584)">
<path d="M76.7334 0H14.5666C6.52168 0 0 6.42882 0 14.3592V75.6409C0 83.5712 6.52168 90 14.5666 90H76.7334C84.7782 90 91.3 83.5712 91.3 75.6409V14.3592C91.3 6.42882 84.7782 0 76.7334 0Z" fill="#FFD733"/>
<mask id="mask0_679_2584" style="mask-type:luminance" maskUnits="userSpaceOnUse" x="11" y="11" width="69" height="68">
<path d="M45.4083 78.198C64.1494 78.198 79.342 63.2216 79.342 44.7474C79.342 26.2732 64.1494 11.2969 45.4083 11.2969C26.6673 11.2969 11.4746 26.2732 11.4746 44.7474C11.4746 63.2216 26.6673 78.198 45.4083 78.198Z" fill="white"/>
</mask>
<g mask="url(#mask0_679_2584)">
<path d="M48.5882 10.8825L55.6392 23.2157H19.4102C19.4102 23.2157 24.6156 6.77138 48.5882 10.8825Z" fill="#282828"/>
<path d="M52.3252 11.5638L70.3272 42.1602L78.7731 29.1467C78.7731 29.1467 69.427 8.72448 52.3252 11.5638Z" fill="#282828"/>
<path d="M60.5 64.7399L79.4919 33.0195C79.4919 33.0195 88.643 52.8799 76.4916 64.7399H60.5Z" fill="#282828"/>
<path d="M37.5327 67.0312H74.5116C74.5116 67.0312 63.7556 83.6825 44.4183 80.7249L37.5327 67.0312Z" fill="#282828"/>
<path d="M51.7697 34.7969C50.2696 34.5158 50.5546 34.4568 50.2696 33.9391C49.9845 33.4216 50.5546 33.4806 49.9695 31.0851C49.3844 28.6893 39.2133 26.7227 39.2133 26.7227H17.2059L12.2404 32.2829C12.2404 32.2829 7.48486 40.1648 12.9905 37.015C16.1916 35.1501 19.865 34.2217 23.5817 34.3384C18.6647 35.695 14.1283 38.1433 10.3202 41.4958L8.41496 51.7144C8.41496 51.7144 3.91448 63.4117 13.0955 53.6368C22.2766 43.8619 23.5965 44.764 23.5965 44.764C14.5956 52.0101 13.5155 60.6907 13.5155 60.6907L23.4766 71.3528C22.2014 60.114 24.8118 56.1803 24.8118 56.1803C23.4165 67.7002 28.5622 74.1035 28.5622 74.1035L21.7965 74.8429C21.7965 74.8429 44.4788 84.9283 40.0234 78.5398C32.0575 67.1088 30.4224 59.7738 34.5929 54.6424C38.7632 49.511 45.6939 49.4518 49.3994 49.4961C53.1049 49.5406 55.19 52.5869 54.5 50.5313C53.8099 48.4758 48.4243 47.1596 47.6742 47.0561C46.9241 46.9526 40.8335 46.9379 41.5835 46.5386C43.9538 45.2815 48.8893 44.9414 53.1648 44.8822C55.9058 44.9753 58.501 46.1218 60.3956 48.0765V45.0006C60.5006 37.784 53.2699 35.0778 51.7697 34.7969ZM41.5236 39.2332C39.6184 39.2332 37.0231 37.6362 36.138 33.9244C38.8555 35.8829 42.2401 36.721 45.5741 36.2609C45.5741 36.2609 43.4289 39.2481 41.5236 39.2481V39.2332Z" fill="#282828"/>
</g>
<path d="M197.975 37.2383H197.961C194.721 37.2383 192.095 39.8272 192.095 43.0204V69.7425C192.095 72.9359 194.721 75.5246 197.961 75.5246H197.975C201.216 75.5246 203.842 72.9359 203.842 69.7425V43.0204C203.842 39.8272 201.216 37.2383 197.975 37.2383Z" fill="white"/>
<path d="M259.107 37.2383H259.093C255.853 37.2383 253.227 39.8272 253.227 43.0204V69.7425C253.227 72.9359 255.853 75.5246 259.093 75.5246H259.107C262.347 75.5246 264.972 72.9359 264.972 69.7425V43.0204C264.972 39.8272 262.347 37.2383 259.107 37.2383Z" fill="white"/>
<path d="M286.95 75.5065H275.205V20.6133H311.043V29.8115H286.95V42.8694H309.528V52.0676H286.95V75.5065Z" fill="white"/>
<path d="M339.952 54.8064L326.705 75.5097H313.759L333.26 47.0131L314.9 20.6016H329.646L341.092 39.2937L353.094 20.6016H365.861L347.498 47.0131L367 75.5097H352.358L339.952 54.8064Z" fill="white"/>
<path d="M198.545 31.6479C202.009 31.6479 204.816 28.8804 204.816 25.4666C204.816 22.0527 202.009 19.2852 198.545 19.2852C195.083 19.2852 192.275 22.0527 192.275 25.4666C192.275 28.8804 195.083 31.6479 198.545 31.6479Z" fill="white"/>
<path d="M259.558 31.6479C263.022 31.6479 265.829 28.8804 265.829 25.4666C265.829 22.0527 263.022 19.2852 259.558 19.2852C256.096 19.2852 253.288 22.0527 253.288 25.4666C253.288 28.8804 256.096 31.6479 259.558 31.6479Z" fill="white"/>
<path d="M132.045 62.0376L141.046 29.5038C141.525 27.6787 142.605 26.0621 144.118 24.9084C145.63 23.7547 147.489 23.1292 149.401 23.1302C151.354 23.1307 153.249 23.7829 154.777 24.9806C156.305 26.1783 157.377 27.8507 157.818 29.7257L166.053 62.0819H166.353L174.484 24.964C174.741 23.7914 175.398 22.7408 176.345 21.9874C177.293 21.2342 178.472 20.8233 179.69 20.8233C180.5 20.8236 181.3 21.0064 182.027 21.3572C182.756 21.7082 183.392 22.2185 183.89 22.8486C184.388 23.479 184.732 24.213 184.9 24.9946C185.066 25.7764 185.049 26.5852 184.851 27.3595L174.004 69.4759C173.539 71.2664 172.483 72.8537 171.003 73.9885C169.524 75.1234 167.703 75.7416 165.828 75.7461C163.923 75.7453 162.074 75.1092 160.581 73.9413C159.089 72.7735 158.041 71.1425 157.607 69.3132L150.107 36.5134C150.057 36.2846 149.93 36.0795 149.746 35.9322C149.561 35.7849 149.331 35.7046 149.094 35.7046C148.857 35.7046 148.627 35.7849 148.442 35.9322C148.258 36.0795 148.131 36.2846 148.081 36.5134L139.966 69.3281C139.487 71.1665 138.402 72.796 136.881 73.9605C135.36 75.125 133.49 75.7582 131.565 75.7608C129.62 75.7589 127.732 75.1139 126.203 73.9288C124.675 72.7436 123.594 71.0871 123.134 69.2246L112.978 28.0399C112.754 27.1743 112.735 26.2697 112.924 25.3961C113.112 24.5225 113.502 23.7035 114.064 23.0027C114.625 22.3017 115.343 21.7378 116.162 21.3548C116.98 20.9716 117.877 20.7797 118.783 20.7937C120.147 20.7944 121.469 21.2601 122.524 22.1118C123.58 22.9636 124.304 24.1488 124.574 25.4668L132.045 62.0376Z" fill="white"/>
<path d="M220.209 20.793C220.981 20.7911 221.746 20.9396 222.461 21.2304C223.176 21.5209 223.824 21.9478 224.371 22.4865C224.917 23.0252 225.35 23.665 225.645 24.3693C225.941 25.0734 226.091 25.8281 226.089 26.5899V48.7719L236.051 39.2632C236.54 38.6571 237.155 38.1585 237.853 37.7995C238.55 37.4404 239.315 37.2289 240.1 37.1782C241.04 37.1739 241.961 37.4323 242.756 37.9234C243.553 38.4146 244.193 39.1184 244.598 39.9529C245.006 40.7875 245.165 41.7187 245.056 42.6384C244.948 43.5581 244.576 44.4285 243.987 45.1489L237.625 50.9458C237.187 51.4792 236.932 52.1364 236.897 52.8221C236.862 53.5078 237.049 54.187 237.43 54.7611L245.787 67.2718C246.335 68.1022 246.645 69.0633 246.685 70.0536C246.725 71.0438 246.494 72.0264 246.014 72.8974C245.535 73.7684 244.826 74.4956 243.962 75.0021C243.097 75.5087 242.111 75.7755 241.105 75.7748C240.112 75.7717 239.137 75.5087 238.281 75.0124C237.424 74.5162 236.717 73.8045 236.231 72.9504L226.089 54.9977V69.978C226.089 71.5154 225.469 72.9899 224.366 74.077C223.263 75.1641 221.767 75.7748 220.209 75.7748C218.651 75.771 217.159 75.1585 216.06 74.0718C214.96 72.985 214.342 71.5128 214.342 69.978V26.649C214.34 25.8885 214.49 25.135 214.784 24.4318C215.079 23.7285 215.511 23.0894 216.054 22.5509C216.6 22.0125 217.248 21.5852 217.959 21.2937C218.672 21.0022 219.436 20.8522 220.209 20.8522V20.793Z" fill="white"/>
</g>
<defs>
<clipPath id="clip0_679_2584">
<rect width="367" height="90" fill="white"/>
</clipPath>
</defs>
</svg>
