<svg width="201" height="200" viewBox="0 0 201 200" fill="none" xmlns="http://www.w3.org/2000/svg">
<g clip-path="url(#clip0_924_53)">
<path d="M112.159 130.559C108.336 132.625 104.651 134.692 100.886 136.601C100.34 136.878 99.2839 136.601 98.6733 136.233C90.0593 131.049 81.4816 125.805 72.895 120.576C70.9982 119.42 69.0631 118.321 67.2268 117.077C66.6694 116.699 66.0416 115.928 66.0292 115.325C65.9316 110.6 65.9703 105.871 65.9878 101.144C65.9891 100.782 66.1501 100.42 66.3129 99.742C67.4112 100.34 68.376 100.816 69.2911 101.372C79.2119 107.408 89.1377 113.435 99.0257 119.524C100.401 120.371 101.465 120.504 102.958 119.653C108.703 116.379 114.559 113.302 120.322 110.06C120.897 109.736 121.449 108.793 121.457 108.13C121.539 101.235 121.544 94.337 121.45 87.4415C121.44 86.7347 120.815 85.7633 120.189 85.3787C109.828 79.0134 99.4207 72.7243 89.0288 66.4096C88.4866 66.0802 87.9908 65.6747 87.2744 65.1624C91.957 62.5951 96.3526 60.1361 100.812 57.7987C101.411 57.4851 102.503 57.5001 103.078 57.8435C113.622 64.134 124.131 70.4812 134.6 76.8945C135.141 77.2258 135.513 78.2533 135.521 78.9616C135.592 85.357 135.564 91.7536 135.565 98.1498C135.565 104.157 135.548 110.164 135.576 116.17C135.582 117.267 135.316 117.995 134.246 118.568C126.899 122.508 119.592 126.521 112.159 130.559Z" fill="white"/>
<path d="M91.0448 98.1702C83.0412 93.3377 75.1326 88.5815 67.287 83.7238C66.63 83.317 66.0277 82.23 66.0228 81.4551C65.9442 68.9907 65.9779 56.5256 65.9472 44.0607C65.9444 42.959 66.3701 42.3731 67.3187 41.8614C75.8329 37.2689 84.3227 32.6313 92.8188 28.0054C95.2607 26.6759 97.7337 25.3979 100.123 23.9796C101.004 23.4563 101.644 23.595 102.409 24.058C110.537 28.9824 118.671 33.897 126.803 38.814C129.134 40.2231 131.434 41.6857 133.808 43.0175C135.055 43.7168 135.632 44.5424 135.598 46.0418C135.5 50.38 135.568 54.7219 135.559 59.0624C135.558 59.592 135.485 60.1215 135.422 60.9744C134.369 60.3785 133.56 59.9467 132.777 59.4738C122.401 53.2113 112.02 46.9573 101.67 40.6522C100.718 40.0723 99.9699 40.0758 99.0505 40.5794C92.9543 43.9188 86.8313 47.2099 80.7646 50.6014C80.2315 50.8994 79.7413 51.8013 79.7345 52.428C79.6613 59.2718 79.7095 66.1168 79.6674 72.9612C79.6604 74.0997 80.2487 74.6426 81.1074 75.1613C91.5701 81.4819 102.023 87.8183 112.476 94.1545C112.893 94.4067 113.285 94.6981 114.029 95.202C112.545 96.0246 111.321 96.7086 110.092 97.3836C106.974 99.0967 103.841 100.785 100.74 102.529C99.8176 103.048 99.0313 103.084 98.1182 102.502C95.8202 101.039 93.4797 99.643 91.0448 98.1702Z" fill="white"/>
<path d="M32.147 166.212C35.0525 172.403 39.5606 173.33 45.3326 172.347C47.5932 171.961 49.751 170.976 52.197 170.185C52.197 171.367 52.2529 172.611 52.1617 173.843C52.1356 174.195 51.7542 174.674 51.4148 174.826C45.3649 177.535 39.3271 178.576 33.3312 174.631C27.7082 170.931 25.5285 164.256 27.6832 157.184C29.3661 151.661 35.1593 147.374 40.9426 147.226C44.0557 147.146 47.0039 147.728 49.9163 148.753C51.4596 149.297 52.1584 150.204 51.9225 151.857C51.817 152.597 51.9046 153.364 51.9046 154.288C49.5915 153.488 47.5973 152.685 45.5391 152.109C39.4244 150.398 35.3452 152.661 32.4334 158.02C31.0231 160.615 31.2108 163.358 32.147 166.212Z" fill="white"/>
<path d="M173.961 174.76C171.083 176.6 168.135 177.427 164.826 176.666C161.181 175.826 159.088 173.516 158.176 169.994C157.475 167.287 157.685 164.69 158.636 162.028C160.326 157.299 168.548 154.698 172.349 159.417C173.987 161.45 174.545 163.849 174.688 166.377C174.75 167.468 173.994 167.616 173.131 167.615C170.177 167.61 167.223 167.617 164.269 167.62C163.609 167.62 162.949 167.62 162.33 167.62C161.665 170.301 163.84 173.076 166.656 172.888C169.187 172.719 171.681 171.994 174.419 171.471C174.32 172.338 174.188 173.502 173.961 174.76ZM168.733 164.942C169.272 164.902 169.812 164.863 170.333 164.824C170.448 162.122 168.323 160.398 166.384 160.573C164.169 160.774 162.305 162.49 162.303 164.943C164.339 164.943 166.384 164.943 168.733 164.942Z" fill="white"/>
<path d="M66.1989 175.937C59.6674 177.953 53.9554 174.582 52.6648 168.058C52.0019 164.707 54.4216 160.286 57.93 158.437C62.7633 155.889 69.2009 157.824 71.6227 162.551C74.0983 167.383 72.2593 172.962 67.3826 175.407C67.0351 175.582 66.6792 175.739 66.1989 175.937ZM64.5779 161.41C64.1452 161.312 63.7171 161.167 63.279 161.124C59.4686 160.752 55.7555 164.329 56.7929 168.299C57.5691 171.27 59.8912 172.741 63.4073 172.612C65.8016 172.525 68.1979 170.582 68.5893 168.412C69.191 165.075 67.991 162.882 64.5779 161.41Z" fill="white"/>
<path d="M124.532 171.623C122.277 166.49 123.759 162.074 127.234 159.384C132.331 155.441 140.349 157.239 142.635 163.222C144.88 169.099 142.242 174.607 135.89 176.233C131.185 177.437 127.431 175.696 124.602 171.675C124.519 171.612 124.532 171.623 124.532 171.623ZM133.402 172.623C136.807 173.12 139.472 169.745 139.541 166.969C139.614 163.975 136.648 161.125 133.466 161.022C130.405 160.923 127.262 163.742 127.288 166.83C127.313 169.853 129.66 172.761 133.402 172.623Z" fill="white"/>
<path d="M84.7153 176.327C84.4025 176.421 84.0947 176.571 83.7762 176.599C80.788 176.852 80.6849 176.754 80.6844 173.748C80.6838 168.81 80.6994 163.872 80.6796 158.934C80.6754 157.895 80.9242 157.076 82.1401 157.303C83.181 157.498 84.9363 156.347 84.9634 158.81C85.0138 159.042 85.1161 159.103 85.2183 159.164C88.2432 156.507 91.1961 156.198 94.0968 158.309C95.5714 159.382 96.3467 160.937 96.3794 162.72C96.4547 166.825 96.3622 170.934 96.4274 175.039C96.4529 176.647 95.492 176.614 94.3605 176.64C93.1423 176.667 92.3408 176.482 92.376 174.951C92.4526 171.623 92.3981 168.292 92.3937 164.963C92.39 162.127 91.8242 161.01 90.1377 160.489C88.4686 159.974 86.3554 161.05 84.9753 163.323C84.8404 167.82 84.7778 172.073 84.7153 176.327Z" fill="white"/>
<path d="M98.0912 173.542C98.1208 172.706 98.1532 172.01 98.1917 171.181C99.7018 171.744 100.953 172.389 102.28 172.649C103.371 172.862 104.602 172.809 105.679 172.526C106.904 172.203 107.144 171.067 106.162 170.241C105.029 169.287 103.719 168.52 102.42 167.787C100.339 166.614 98.635 165.142 98.4501 162.611C98.1939 159.106 101.547 156.381 105.275 156.992C106.036 157.117 106.793 157.35 107.512 157.635C109.964 158.606 110.358 159.579 109.412 162.459C108.606 162.097 107.824 161.717 107.02 161.394C106.457 161.168 105.832 160.807 105.289 160.885C104.438 161.008 103.634 161.451 102.81 161.759C103.166 162.55 103.318 163.585 103.917 164.085C105.699 165.569 107.783 166.7 109.513 168.233C111.561 170.048 111.149 173.624 108.915 175.217C105.784 177.449 101.918 176.529 98.7842 175.052C98.4193 174.879 98.3177 174.151 98.0912 173.542Z" fill="white"/>
<path d="M124.513 171.604C124.509 171.709 124.513 171.821 124.514 171.932C124.549 175.522 123.576 176.532 120.005 176.616C116.58 176.698 113.886 174.569 113.828 171.653C113.773 168.93 113.739 166.204 113.837 163.484C113.895 161.888 113.487 161.022 111.716 161.249C111.311 161.3 110.88 161.144 110.038 161.022C112.598 158.318 114.919 155.867 117.589 153.047C117.699 154.228 117.839 154.953 117.818 155.674C117.785 156.8 118.224 157.33 119.384 157.261C120.105 157.217 120.831 157.256 121.556 157.261C123.711 157.277 124.473 158.34 123.749 160.435C123.636 160.764 123.191 161.058 122.832 161.201C122.492 161.337 122.064 161.259 121.674 161.265C117.364 161.335 117.871 160.695 117.83 165.075C117.815 166.687 117.817 168.299 117.833 169.911C117.86 172.711 119.277 173.752 121.92 172.849C122.75 172.565 123.505 172.063 124.413 171.642C124.532 171.622 124.519 171.611 124.513 171.604Z" fill="white"/>
<path d="M145.224 157.584C146.257 157.489 147.292 157.313 148.319 157.347C148.639 157.358 149.077 157.894 149.213 158.276C149.389 158.774 149.317 159.359 149.366 160.119C150.275 159.425 151.022 158.803 151.821 158.256C153.917 156.824 156.546 157.038 158.37 158.831C158.624 159.081 158.771 159.736 158.625 160.04C158.178 160.968 157.564 161.816 157.021 162.684C156.714 162.581 156.516 162.574 156.417 162.471C155.317 161.333 153.957 160.299 152.461 161.16C150.654 162.2 149.376 163.919 149.308 166.156C149.227 168.762 149.286 171.373 149.281 173.982C149.276 176.678 149.255 176.7 146.604 176.611C146.219 176.598 145.836 176.517 145.347 176.227C145.237 169.852 145.231 163.718 145.224 157.584Z" fill="white"/>
<path d="M73.6552 168.614C73.6563 165.333 73.7207 162.217 73.6317 159.106C73.588 157.581 74.2348 157.205 75.6227 157.236C76.9021 157.264 77.7212 157.399 77.6978 159.02C77.6217 164.301 77.6211 169.585 77.6985 174.867C77.7222 176.488 76.9072 176.624 75.6266 176.651C74.2438 176.68 73.5574 176.317 73.6339 174.785C73.7338 172.788 73.6563 170.783 73.6552 168.614Z" fill="white"/>
<path d="M74.401 149.93C75.7216 149.373 77.0087 149.383 77.5645 150.593C77.9349 151.399 77.8829 152.715 77.4561 153.497C76.738 154.812 75.3008 154.843 74.1664 153.895C72.9561 152.883 72.998 151.463 74.401 149.93Z" fill="white"/>
<path d="M84.7995 176.214C84.7777 172.074 84.8403 167.82 84.9413 163.438C84.9478 167.572 84.9158 171.836 84.7995 176.214Z" fill="white"/>
</g>
<defs>
<clipPath id="clip0_924_53">
<rect width="200.778" height="200" fill="white" transform="translate(0.0375366)"/>
</clipPath>
</defs>
</svg>
