<svg width="258" height="257" viewBox="0 0 258 257" fill="none" xmlns="http://www.w3.org/2000/svg">
<g clip-path="url(#clip0_661_754)">
<path d="M144.076 167.766C139.163 170.421 134.429 173.077 129.591 175.53C128.889 175.886 127.532 175.53 126.747 175.057C115.678 168.396 104.656 161.657 93.6219 154.937C91.1845 153.453 88.6979 152.041 86.3383 150.442C85.622 149.956 84.8153 148.965 84.7993 148.191C84.674 142.118 84.7237 136.042 84.7462 129.967C84.7479 129.502 84.9548 129.038 85.1639 128.166C86.5752 128.935 87.815 129.546 88.9908 130.261C101.739 138.016 114.494 145.762 127.2 153.585C128.968 154.674 130.335 154.845 132.253 153.752C139.635 149.545 147.16 145.591 154.565 141.424C155.305 141.008 156.014 139.796 156.024 138.945C156.129 130.084 156.136 121.221 156.015 112.36C156.003 111.452 155.199 110.204 154.395 109.709C141.081 101.53 127.707 93.4483 114.354 85.334C113.657 84.9106 113.02 84.3896 112.099 83.7312C118.117 80.4324 123.765 77.2725 129.496 74.2689C130.264 73.866 131.668 73.8852 132.408 74.3265C145.956 82.4098 159.46 90.5659 172.913 98.8071C173.607 99.2328 174.086 100.553 174.097 101.463C174.188 109.681 174.152 117.901 174.152 126.12C174.152 133.839 174.13 141.558 174.167 149.276C174.174 150.686 173.832 151.621 172.458 152.358C163.017 157.42 153.627 162.576 144.076 167.766Z" fill="white"/>
<path d="M116.944 126.148C106.66 119.939 96.4971 113.827 86.4156 107.585C85.5713 107.062 84.7973 105.665 84.7911 104.669C84.6901 88.6526 84.7334 72.635 84.6939 56.6176C84.6904 55.2019 85.2373 54.449 86.4563 53.7915C97.3971 47.8901 108.306 41.9308 119.224 35.9865C122.362 34.2781 125.54 32.6359 128.609 30.8134C129.742 30.141 130.565 30.3192 131.547 30.9141C141.991 37.2419 152.444 43.5572 162.894 49.8756C165.889 51.6862 168.845 53.5658 171.895 55.2771C173.497 56.1757 174.239 57.2366 174.196 59.1632C174.069 64.7379 174.157 70.3173 174.145 75.8948C174.143 76.5754 174.051 77.2558 173.969 78.3517C172.616 77.5859 171.577 77.0311 170.57 76.4235C157.237 68.3761 143.897 60.3398 130.598 52.2376C129.374 51.4924 128.413 51.497 127.232 52.1441C119.398 56.4353 111.53 60.6644 103.734 65.0224C103.049 65.4053 102.419 66.5643 102.411 67.3696C102.317 76.1639 102.378 84.9597 102.324 93.7547C102.315 95.2177 103.071 95.9153 104.175 96.5819C117.619 104.704 131.052 112.846 144.484 120.988C145.019 121.312 145.523 121.687 146.479 122.334C144.573 123.391 143 124.27 141.421 125.138C137.413 127.339 133.387 129.508 129.403 131.75C128.217 132.417 127.207 132.462 126.034 131.715C123.081 129.835 120.073 128.041 116.944 126.148Z" fill="white"/>
<path d="M41.2607 213.583C44.9943 221.538 50.7872 222.729 58.2043 221.465C61.1091 220.97 63.8819 219.703 67.025 218.688C67.025 220.207 67.0968 221.804 66.9796 223.388C66.9461 223.84 66.456 224.456 66.0199 224.651C58.2458 228.132 50.4871 229.47 42.7824 224.4C35.5568 219.646 32.7559 211.068 35.5248 201.981C37.6873 194.884 45.1315 189.376 52.5631 189.185C56.5634 189.083 60.3519 189.83 64.0943 191.148C66.0774 191.846 66.9753 193.012 66.6722 195.136C66.5366 196.086 66.6493 197.072 66.6493 198.259C63.6769 197.232 61.1143 196.2 58.4696 195.46C50.6122 193.261 45.3704 196.169 41.6287 203.055C39.8165 206.39 40.0577 209.915 41.2607 213.583Z" fill="white"/>
<path d="M223.492 224.563C219.794 226.927 216.005 227.99 211.753 227.011C207.069 225.933 204.38 222.964 203.208 218.439C202.307 214.96 202.577 211.622 203.799 208.202C205.971 202.125 216.535 198.782 221.421 204.847C223.525 207.459 224.242 210.542 224.426 213.791C224.506 215.192 223.534 215.383 222.425 215.381C218.629 215.375 214.833 215.384 211.037 215.388C210.189 215.388 209.341 215.388 208.546 215.388C207.692 218.832 210.486 222.398 214.104 222.157C217.357 221.94 220.561 221.008 224.08 220.336C223.954 221.45 223.784 222.947 223.492 224.563ZM216.773 211.946C217.467 211.896 218.16 211.845 218.83 211.795C218.978 208.322 216.247 206.107 213.755 206.333C210.909 206.591 208.514 208.795 208.511 211.948C211.128 211.948 213.755 211.948 216.773 211.946Z" fill="white"/>
<path d="M85.0173 226.078C76.6244 228.668 69.2845 224.337 67.6261 215.954C66.7743 211.648 69.8835 205.966 74.3919 203.59C80.6026 200.317 88.8749 202.802 91.987 208.877C95.1681 215.086 92.8049 222.255 86.5384 225.398C86.0918 225.622 85.6346 225.824 85.0173 226.078ZM82.9344 207.411C82.3783 207.285 81.8283 207.098 81.2653 207.043C76.3689 206.566 71.5976 211.162 72.9306 216.264C73.9281 220.081 76.912 221.972 81.4301 221.806C84.5068 221.693 87.5862 219.197 88.0891 216.408C88.8623 212.121 87.3202 209.302 82.9344 207.411Z" fill="white"/>
<path d="M159.975 220.533C157.078 213.938 158.982 208.262 163.448 204.807C169.997 199.74 180.3 202.05 183.237 209.738C186.122 217.29 182.733 224.368 174.571 226.457C168.524 228.005 163.7 225.768 160.066 220.6C159.958 220.519 159.975 220.533 159.975 220.533ZM171.373 221.818C175.749 222.457 179.173 218.12 179.261 214.553C179.356 210.706 175.544 207.044 171.456 206.911C167.522 206.784 163.484 210.406 163.517 214.374C163.549 218.26 166.565 221.996 171.373 221.818Z" fill="white"/>
<path d="M108.811 226.576C108.409 226.697 108.013 226.89 107.604 226.925C103.764 227.251 103.632 227.125 103.631 223.262C103.63 216.917 103.651 210.571 103.625 204.226C103.62 202.891 103.939 201.838 105.502 202.131C106.839 202.381 109.095 200.902 109.13 204.066C109.195 204.364 109.326 204.443 109.457 204.522C113.344 201.107 117.139 200.711 120.866 203.423C122.761 204.802 123.757 206.8 123.799 209.091C123.896 214.367 123.777 219.646 123.861 224.921C123.894 226.988 122.659 226.946 121.205 226.978C119.64 227.013 118.61 226.775 118.655 224.808C118.753 220.532 118.683 216.252 118.678 211.973C118.673 208.329 117.946 206.893 115.779 206.225C113.634 205.563 110.918 206.945 109.145 209.866C108.972 215.644 108.891 221.11 108.811 226.576Z" fill="white"/>
<path d="M125.999 223.005C126.037 221.932 126.079 221.037 126.128 219.972C128.069 220.695 129.677 221.524 131.382 221.858C132.783 222.133 134.365 222.064 135.749 221.7C137.324 221.286 137.631 219.825 136.37 218.764C134.914 217.538 133.231 216.552 131.562 215.611C128.887 214.103 126.698 212.212 126.46 208.959C126.131 204.455 130.44 200.954 135.231 201.74C136.208 201.9 137.181 202.2 138.104 202.565C141.256 203.814 141.762 205.063 140.547 208.765C139.51 208.299 138.506 207.811 137.472 207.395C136.749 207.105 135.946 206.641 135.249 206.742C134.155 206.9 133.121 207.469 132.062 207.865C132.52 208.881 132.715 210.212 133.486 210.854C135.775 212.76 138.453 214.213 140.676 216.184C143.308 218.516 142.778 223.111 139.908 225.158C135.885 228.027 130.916 226.844 126.89 224.946C126.421 224.724 126.29 223.789 125.999 223.005Z" fill="white"/>
<path d="M159.951 220.511C159.946 220.645 159.951 220.788 159.953 220.931C159.997 225.544 158.747 226.842 154.158 226.951C149.757 227.055 146.296 224.32 146.22 220.573C146.15 217.074 146.107 213.57 146.232 210.075C146.306 208.025 145.783 206.913 143.507 207.203C142.987 207.269 142.433 207.068 141.351 206.912C144.641 203.437 147.623 200.288 151.053 196.664C151.195 198.182 151.375 199.114 151.347 200.04C151.305 201.487 151.869 202.168 153.36 202.079C154.287 202.023 155.22 202.073 156.151 202.08C158.921 202.1 159.899 203.466 158.97 206.158C158.824 206.581 158.252 206.959 157.791 207.143C157.354 207.317 156.804 207.217 156.303 207.225C150.765 207.314 151.416 206.492 151.364 212.121C151.344 214.192 151.347 216.263 151.367 218.334C151.402 221.932 153.223 223.27 156.619 222.11C157.685 221.745 158.656 221.1 159.823 220.558C159.975 220.533 159.958 220.518 159.951 220.511Z" fill="white"/>
<path d="M186.565 202.5C187.891 202.378 189.221 202.151 190.542 202.196C190.953 202.21 191.516 202.898 191.69 203.39C191.917 204.029 191.825 204.781 191.887 205.758C193.056 204.866 194.015 204.066 195.042 203.364C197.735 201.524 201.113 201.799 203.458 204.103C203.784 204.424 203.972 205.266 203.784 205.656C203.21 206.848 202.421 207.938 201.724 209.054C201.33 208.921 201.075 208.912 200.947 208.78C199.534 207.318 197.787 205.989 195.865 207.095C193.542 208.432 191.9 210.64 191.812 213.515C191.709 216.864 191.784 220.219 191.778 223.571C191.771 227.035 191.744 227.065 188.338 226.95C187.843 226.933 187.351 226.829 186.723 226.456C186.581 218.265 186.573 210.383 186.565 202.5Z" fill="white"/>
<path d="M94.5987 216.67C94.6002 212.454 94.6829 208.45 94.5684 204.452C94.5123 202.492 95.3434 202.01 97.127 202.049C98.771 202.085 99.8235 202.258 99.7935 204.341C99.6957 211.128 99.6949 217.918 99.7943 224.704C99.8248 226.788 98.7776 226.963 97.1319 226.997C95.355 227.034 94.473 226.568 94.5714 224.599C94.6996 222.034 94.6001 219.456 94.5987 216.67Z" fill="white"/>
<path d="M95.5571 192.66C97.2541 191.944 98.908 191.958 99.6222 193.512C100.098 194.547 100.031 196.24 99.483 197.244C98.5602 198.934 96.7134 198.974 95.2556 197.755C93.7004 196.455 93.7542 194.63 95.5571 192.66Z" fill="white"/>
<path d="M108.919 226.433C108.891 221.113 108.972 215.647 109.101 210.016C109.11 215.329 109.069 220.808 108.919 226.433Z" fill="white"/>
</g>
<defs>
<clipPath id="clip0_661_754">
<rect width="258" height="257" fill="white"/>
</clipPath>
</defs>
</svg>
