<svg width="239" height="140" viewBox="0 0 239 140" fill="none" xmlns="http://www.w3.org/2000/svg">
<g clip-path="url(#clip0_924_368)">
<path fill-rule="evenodd" clip-rule="evenodd" d="M47.6005 100.778H60.4259V78.9116H77.9789V100.778H90.663V47.6172H77.9789V67.8377H60.4259V47.6172H47.6005V100.778Z" fill="white"/>
<path fill-rule="evenodd" clip-rule="evenodd" d="M96.556 100.798H109.381V86.861L115.184 79.0022L127.727 100.798H141.743L122.611 68.9295L138.756 47.6373H124.709L109.573 68.6427H109.356V47.6172H96.5308L96.556 100.798Z" fill="white"/>
<path fill-rule="evenodd" clip-rule="evenodd" d="M221.859 88.5566H206.097L203.014 100.778H189.977L206.526 47.6172H221.859L238.413 100.778H224.941L221.859 88.5566ZM218.276 74.1973C216.843 68.9094 215.481 62.5498 214.048 57.1211H213.761C212.474 62.6907 211.041 68.9094 209.679 74.1973L208.534 78.6953H219.422L218.276 74.1973Z" fill="white"/>
<path fill-rule="evenodd" clip-rule="evenodd" d="M98.2343 7.79193C98.6228 6.77561 99.5361 6.05111 100.611 5.90017L100.585 5.94545C101.862 5.73413 103.133 6.35298 103.744 7.49006C104.359 8.6221 104.183 10.0208 103.305 10.9717C102.427 11.9176 101.045 12.2044 99.859 11.6862L96.7207 15.9527C97.4119 16.6722 97.7399 17.6583 97.6238 18.6444C97.5028 19.6306 96.9528 20.5161 96.1102 21.0544L97.8055 25.4518C99.5209 25.1751 101.166 26.2367 101.615 27.9121C102.069 29.5825 101.181 31.3233 99.5613 31.9422C97.9367 32.566 96.1102 31.8667 95.3231 30.3271C94.531 28.7825 95.0406 26.8958 96.4937 25.9549L94.7984 21.5525C93.2444 21.784 91.7359 20.9035 91.1859 19.4344C91.1052 19.213 91.0446 18.9866 91.0093 18.7602L84.1274 17.8495C83.6884 19.4645 82.3312 20.667 80.6713 20.9136C79.6269 21.0695 78.5623 20.823 77.6945 20.2243L68.7036 26.4279C68.9306 27.1121 69.0366 27.8266 69.0164 28.5511C68.9558 31.3032 67.0991 33.6981 64.4352 34.4477C61.7762 35.1924 58.9357 34.1257 57.4422 31.8063C55.9437 29.4919 56.1355 26.4681 57.9165 24.365L50.9387 14.1163C48.4362 15.032 45.6259 14.4987 43.6329 12.7327L35.2323 18.4834C36.0446 20.3702 36.0194 22.5185 35.1617 24.3852C34.304 26.2568 32.6945 27.6806 30.7318 28.3096L31.973 38.7143H32.1496C35.6662 39.2929 38.1839 42.4073 38.0124 45.9594C37.8358 49.5064 35.0255 52.3592 31.4735 52.6007C27.9215 52.8371 24.748 50.3819 24.1022 46.8901C23.4513 43.3984 25.53 39.9771 28.9306 38.9306L27.6945 28.5913C27.5532 28.5762 27.412 28.541 27.2656 28.541C25.3484 28.219 23.6329 27.1524 22.5028 25.5725C21.3726 23.9877 20.9185 22.0255 21.2414 20.1136C21.2818 19.8771 21.3373 19.6457 21.3928 19.4193L13.6531 15.9376C11.635 18.891 7.70964 19.857 4.54112 18.1816C1.37261 16.5011 -0.0199253 12.7125 1.30702 9.39189C2.639 6.0662 6.26161 4.27506 9.71771 5.22597C13.1738 6.18192 15.3585 9.57804 14.7833 13.11L22.7904 16.7074C24.0719 15.1326 25.9538 14.1616 27.9821 14.0207C30.0103 13.8798 32.0033 14.5892 33.4866 15.9728L41.8115 10.2724C40.8126 8.07369 40.974 5.52785 42.2354 3.47508C43.4967 1.41728 45.7016 0.119206 48.1133 0.00851791C48.6329 -0.0166386 49.1476 0.0135492 49.6572 0.104113C52.4372 0.566992 54.6975 2.58957 55.4644 5.29641C56.2263 7.99822 55.3585 10.9013 53.2344 12.7478L60.0204 22.7097C62.5179 21.5022 65.5098 22.0758 67.3817 24.1135L76.085 18.0759C75.9992 17.8294 75.9387 17.5778 75.8933 17.3262C75.6713 15.8319 76.2666 14.3377 77.4473 13.4018C78.6329 12.466 80.2273 12.2295 81.6299 12.783C83.0376 13.3364 84.0366 14.5942 84.2586 16.0885L91.2263 17.0093C91.5441 16.1841 92.1799 15.515 92.9922 15.1628C93.7994 14.8056 94.7227 14.7854 95.5451 15.1125L98.7338 10.7856C98.0376 9.95036 97.8458 8.80322 98.2343 7.79193Z" fill="white"/>
<path fill-rule="evenodd" clip-rule="evenodd" d="M62.1359 123.393C61.8231 123.278 61.5103 123.152 61.2126 123.021C60.9149 122.89 60.6122 122.749 60.3196 122.593V129.104H58.6798V128.601H51.8231V129.104H50.1834V122.644L49.2903 123.061C48.9876 123.197 48.6798 123.323 48.362 123.444L47.8575 121.975C48.8312 121.642 49.7797 121.245 50.7031 120.787C51.5658 120.359 52.3832 119.851 53.1551 119.278H48.6143V117.874H54.4366V116.616C53.5285 116.672 52.6607 116.712 51.8383 116.737L49.6789 116.812L49.5477 115.303C50.3247 115.303 51.1925 115.268 52.1561 115.228C53.1198 115.187 54.0986 115.142 55.1026 115.082C56.1067 115.021 57.0754 114.956 58.0189 114.885C58.9624 114.815 59.81 114.74 60.5416 114.664L60.7737 116.138C60.138 116.204 59.4165 116.264 58.6092 116.324C57.8019 116.385 56.9493 116.44 56.0865 116.495V117.854H61.9392V119.258H57.4336C59.033 120.42 60.809 121.315 62.696 121.909L62.1359 123.393ZM57.6607 121.064C57.1107 120.687 56.5809 120.274 56.0865 119.831V121.793H54.4467V119.912C53.9674 120.334 53.4629 120.727 52.9331 121.089C52.3428 121.486 51.7323 121.854 51.1017 122.186H59.5123C58.8766 121.844 58.256 121.471 57.6607 121.064ZM51.8231 123.524V124.707H58.6798V123.524H51.8231ZM58.6798 126.06H51.8231V127.237H58.6798V126.06Z" fill="white"/>
<path fill-rule="evenodd" clip-rule="evenodd" d="M79.6184 121.892C79.4418 121.721 79.245 121.53 79.018 121.324C78.7909 121.118 78.5639 120.906 78.3318 120.7C78.0997 120.494 77.8626 120.297 77.6355 120.111C77.4085 119.925 77.1966 119.769 77.0099 119.638L77.8979 118.411C78.0946 118.542 78.3066 118.692 78.5437 118.869C78.7808 119.045 79.018 119.226 79.2551 119.417C79.4922 119.608 79.7294 119.799 79.9463 119.991C80.1633 120.182 80.355 120.358 80.5215 120.519L79.6184 121.892ZM83.3923 125.917V126.571C83.3671 126.828 83.4327 127.085 83.5689 127.306C83.7657 127.477 84.018 127.563 84.2753 127.553C85.4912 127.638 86.7172 127.638 87.9332 127.553C88.1148 127.548 88.2965 127.527 88.4731 127.492C88.5992 127.472 88.7152 127.427 88.8212 127.356C88.912 127.281 88.9826 127.18 89.023 127.07C89.0835 126.909 89.1239 126.737 89.1491 126.566C89.1491 126.415 89.1895 126.265 89.2046 126.114C89.2198 125.963 89.24 125.807 89.2601 125.61L90.7031 126.114C90.7031 126.29 90.6678 126.436 90.6577 126.561C90.6476 126.687 90.6224 126.853 90.5921 127.065C90.5518 127.376 90.471 127.683 90.36 127.975C90.1986 128.443 89.7949 128.79 89.3055 128.881C88.9725 128.956 88.6345 129.002 88.2965 129.012C86.7828 129.102 85.2692 129.102 83.7556 129.012C83.4781 129.007 83.2006 128.966 82.9281 128.896C82.7062 128.841 82.4993 128.725 82.3328 128.569C82.1562 128.398 82.0301 128.187 81.9594 127.955C81.8686 127.628 81.8282 127.286 81.8383 126.949V123.839C81.6315 124.026 81.4196 124.202 81.2077 124.373C80.9958 124.544 80.7788 124.7 80.5619 124.876L80.1986 124.237C80.1027 124.619 79.9917 125.017 79.8807 125.429C79.7697 125.842 79.6436 126.265 79.5175 126.692C79.3913 127.12 79.2652 127.537 79.1391 127.95C79.0129 128.363 78.8868 128.76 78.7556 129.142L77.2773 128.72C77.3984 128.368 77.5296 127.97 77.6658 127.522C77.802 127.075 77.9382 126.617 78.0745 126.149C78.2107 125.681 78.3368 125.223 78.4529 124.77C78.5689 124.317 78.6698 123.905 78.7556 123.533L80.0674 123.99L79.7394 123.387C80.3701 123.024 80.9604 122.592 81.4852 122.089C82.02 121.596 82.4942 121.042 82.9029 120.443H80.5619V119.019H82.9231V117.384H81.248V115.991H82.9231V114.355L84.4771 114.421V115.991H87.0553V114.355L88.6143 114.421V115.991H90.9403V117.364H88.6143V118.999H91.4145V120.423H88.4831C88.8868 120.997 89.3762 121.505 89.9312 121.933C90.5467 122.406 91.2026 122.818 91.8938 123.175L91.2026 124.564C90.799 124.338 90.4206 124.106 90.0724 123.88C89.7344 123.658 89.4115 123.417 89.1037 123.16V125.892L83.3923 125.917ZM80.2995 118.084C80.1481 117.923 79.9564 117.731 79.7243 117.52C79.4922 117.309 79.2601 117.092 79.0129 116.881C78.7657 116.67 78.5084 116.469 78.2763 116.277C78.0442 116.086 77.8172 115.93 77.6406 115.81L78.5134 114.647C78.7102 114.778 78.9221 114.934 79.1592 115.115L79.8757 115.669L80.5719 116.242L81.1522 116.745L80.2995 118.084ZM83.4176 123.351V124.494H87.6809V123.351H83.4176ZM83.6446 121.978H87.9584C87.7617 121.741 87.58 121.49 87.4085 121.233C87.2369 120.977 87.0755 120.73 86.9039 120.423H84.6537C84.3661 120.972 84.028 121.49 83.6446 121.978ZM87.1007 118.999V117.364H84.5225V118.999H87.1007Z" fill="white"/>
<path fill-rule="evenodd" clip-rule="evenodd" d="M109.614 116.478V127.109H121.112V128.583H108.09V115.039H120.829V116.478H109.614ZM115.042 121.877V126.113H110.572V121.877H115.042ZM119.407 117.283V121.041H111.501V117.283H119.407ZM113.746 124.83V123.129H111.99V124.83H113.746ZM117.812 119.799V118.571H113.095L113.09 119.799H117.812ZM120.325 121.907V126.143H115.88V121.877L120.325 121.907ZM118.978 124.85V123.15H117.172V124.85H118.978Z" fill="white"/>
<path fill-rule="evenodd" clip-rule="evenodd" d="M140.739 125.835L140.269 125.981L139.402 126.258L138.342 126.61L137.277 126.972C136.939 127.083 136.642 127.184 136.394 127.274L135.89 127.435L135.481 125.82L135.744 125.735L136.218 125.589L136.833 125.393L137.545 125.161V120.044H135.956V118.535H137.545V114.51L138.973 114.575V118.55H140.416V120.059H138.973V124.703L139.982 124.361L140.532 124.165L140.739 125.835ZM150.325 126.193C150.325 126.379 150.325 126.555 150.325 126.696C150.325 126.837 150.325 127.023 150.325 127.199C150.3 127.461 150.249 127.717 150.168 127.969C150.108 128.15 149.992 128.311 149.84 128.432C149.669 128.557 149.472 128.648 149.265 128.688C148.983 128.744 148.695 128.779 148.408 128.784C147.651 128.819 146.894 128.819 146.142 128.784C145.85 128.779 145.562 128.738 145.279 128.668C145.067 128.618 144.876 128.517 144.709 128.376C144.558 128.24 144.442 128.069 144.381 127.873C144.301 127.601 144.26 127.32 144.27 127.038V125.287C143.766 126.072 143.155 126.786 142.459 127.415C141.642 128.145 140.759 128.804 139.825 129.377L138.958 127.903C141.46 126.56 143.064 124.925 143.766 122.998H140.678V115.758H143.549C143.655 115.496 143.746 115.229 143.821 114.958L144.028 114.238L145.713 114.404C145.673 114.545 145.607 114.741 145.527 114.998C145.446 115.255 145.36 115.501 145.274 115.758H149.043V122.983H147.57L147.863 123.098C147.797 123.274 147.726 123.451 147.651 123.632C147.575 123.813 147.499 123.994 147.424 124.175L148.241 123.717C148.362 123.969 148.503 124.276 148.67 124.643C148.836 125.01 148.983 125.347 149.129 125.649L150.325 126.193ZM142.096 118.686H144.174V117.101H142.096V118.686ZM144.174 120.975C144.195 120.764 144.174 120.558 144.174 120.341V119.964H142.096V121.569L144.114 121.584C144.114 121.388 144.154 121.187 144.174 120.975ZM145.113 123.461L145.688 123.496V124.95C145.754 124.844 145.829 124.708 145.91 124.552C145.991 124.396 146.077 124.225 146.157 124.049L146.405 123.511C146.485 123.325 146.556 123.154 146.621 123.008L145.244 122.988C145.214 123.129 145.168 123.29 145.113 123.461ZM147.59 119.964H145.572V120.326C145.572 120.542 145.572 120.754 145.572 120.96C145.572 121.171 145.572 121.373 145.522 121.569L147.59 121.584V119.964ZM145.572 117.101V118.686H147.59V117.101H145.572ZM148.549 127.33C148.65 127.315 148.741 127.269 148.821 127.209C148.887 127.149 148.937 127.073 148.963 126.988C148.993 126.867 149.013 126.746 149.018 126.62C149.013 126.57 149.013 126.515 149.018 126.464C149.018 126.414 149.018 126.364 149.018 126.308L148.362 126.65L148.216 126.293L147.661 126.334L147.005 126.384C146.773 126.384 146.541 126.419 146.314 126.449L145.673 126.52V126.65C145.668 126.776 145.683 126.897 145.708 127.018C145.723 127.103 145.774 127.184 145.839 127.239C145.915 127.3 146.006 127.335 146.102 127.345C146.208 127.345 146.349 127.375 146.51 127.39C147.04 127.42 147.575 127.42 148.105 127.39H148.135C148.276 127.38 148.413 127.36 148.549 127.33ZM147.101 124.874C147.035 125.015 146.975 125.181 146.919 125.302L147.742 125.237L147.328 124.371C147.242 124.557 147.166 124.734 147.101 124.874Z" fill="white"/>
<path fill-rule="evenodd" clip-rule="evenodd" d="M174.961 127.432C175.728 127.432 176.475 127.462 177.242 127.432C178.009 127.402 178.756 127.392 179.522 127.346L179.21 128.77C178.468 128.815 177.731 128.841 177 128.851C176.268 128.861 175.526 128.851 174.785 128.851C174.427 128.846 174.068 128.815 173.715 128.76C173.417 128.72 173.13 128.629 172.857 128.498C172.595 128.368 172.353 128.202 172.141 127.995C171.894 127.744 171.682 127.462 171.505 127.155C171.187 127.714 170.814 128.242 170.39 128.725L169.341 127.809L169.734 127.306L168.624 127.583C168.18 127.688 167.731 127.804 167.272 127.925L165.95 128.267L164.941 128.529L164.679 127.125L165.653 126.888L167.005 126.551V122.315H165.153V120.967H167.005V119.809H166.071V119.457L165.678 119.96L164.78 118.914C165.047 118.592 165.294 118.255 165.526 117.908C165.769 117.535 166.001 117.143 166.223 116.735C166.445 116.328 166.642 115.915 166.828 115.508C167 115.13 167.156 114.748 167.287 114.355L168.715 114.587L168.518 115.125C168.846 115.452 169.194 115.81 169.558 116.202C169.921 116.594 170.244 116.937 170.516 117.208L169.618 118.214C169.386 117.953 169.114 117.661 168.821 117.334L167.958 116.398C167.772 116.75 167.59 117.098 167.403 117.44C167.222 117.787 167.015 118.124 166.793 118.446H169.664V119.824H168.402V120.967H170.108V122.325H168.387V126.219L169.25 125.983C169.507 125.912 169.714 125.847 169.881 125.792L169.961 126.481L170.027 126.924L170.431 126.35C170.567 126.154 170.698 125.953 170.829 125.741V120.755H169.881V119.367H172.075V125.746C172.222 126.023 172.393 126.285 172.58 126.536C172.736 126.737 172.923 126.909 173.14 127.039C173.377 127.18 173.634 127.276 173.902 127.326C174.25 127.392 174.608 127.427 174.961 127.432ZM166.071 122.838C166.147 123.045 166.228 123.276 166.309 123.522C166.389 123.769 166.47 124.026 166.556 124.287C166.641 124.549 166.707 124.79 166.773 125.037C166.838 125.283 166.899 125.505 166.954 125.701L165.945 126.109L165.764 125.424C165.698 125.173 165.627 124.921 165.547 124.655C165.466 124.388 165.38 124.151 165.299 123.885C165.219 123.618 165.138 123.407 165.062 123.195L166.071 122.838ZM168.448 125.354C168.614 124.951 168.766 124.519 168.917 124.056C169.068 123.593 169.184 123.17 169.285 122.788L170.269 123.115C170.178 123.517 170.062 123.965 169.906 124.448C169.749 124.931 169.603 125.369 169.447 125.746L168.448 125.354ZM171.319 118.602C171.263 118.386 171.192 118.124 171.107 117.827C171.021 117.53 170.92 117.218 170.809 116.911C170.698 116.604 170.592 116.298 170.481 116.001L170.188 115.231L171.399 114.823C171.485 115.03 171.586 115.276 171.697 115.558C171.808 115.84 171.909 116.137 172.015 116.443C172.121 116.75 172.217 117.047 172.313 117.334L172.55 118.079L171.319 118.602ZM175.138 117.128H172.711V115.855H175.153V114.426L176.369 114.491V115.865H178.892V117.138H176.369V118.144H178.534V123.457H176.369V124.463H179.124V125.741H176.369V127.251H175.153V125.741H172.545V124.438H175.153V123.432H172.938V118.129H175.153L175.138 117.128ZM174.129 120.207H175.138V119.286H174.129V120.207ZM175.138 121.374H174.129V122.305H175.138V121.374ZM176.354 120.207H177.363V119.286H176.354V120.207ZM177.363 121.374H176.354V122.305H177.363V121.374Z" fill="white"/>
<path fill-rule="evenodd" clip-rule="evenodd" d="M206.263 122.044C206.314 121.838 206.314 121.637 206.314 121.446C206.314 121.249 206.314 121.083 206.314 120.942L204.921 120.877C204.921 120.993 204.926 121.163 204.921 121.38C204.916 121.596 204.881 121.813 204.881 122.034H203.831V123.488H204.785C204.74 123.966 204.684 124.399 204.613 124.781C204.548 125.144 204.447 125.501 204.316 125.843C204.195 126.165 204.038 126.476 203.857 126.774C203.665 127.086 203.443 127.382 203.196 127.659C203.236 127.543 203.266 127.423 203.281 127.297C203.322 127.166 203.322 126.945 203.322 126.859C203.322 126.774 203.307 126.602 203.347 126.356C203.387 126.109 203.372 125.808 203.387 125.501C203.403 125.194 203.418 124.841 203.433 124.495C203.448 124.147 203.433 123.81 203.478 123.488C203.524 123.166 203.524 122.879 203.524 122.628C203.524 122.376 203.524 122.195 203.524 122.09H201.294L201.374 120.978L200.506 120.927C200.93 120.711 201.344 120.464 201.733 120.193C202.066 119.956 202.368 119.685 202.636 119.383C202.883 119.095 203.095 118.779 203.261 118.442C203.433 118.08 203.564 117.702 203.655 117.31H206.44L206.309 118.492C206.294 118.628 206.263 118.758 206.223 118.89C206.188 118.985 206.122 119.065 206.041 119.126C205.945 119.187 205.834 119.227 205.718 119.242C205.552 119.267 205.38 119.282 205.214 119.292L203.756 119.387L204.361 120.897L205.819 120.801C206.132 120.786 206.445 120.741 206.753 120.675C206.985 120.625 207.197 120.525 207.378 120.374C207.55 120.223 207.676 120.027 207.747 119.81C207.843 119.519 207.898 119.212 207.918 118.905C207.928 118.773 207.948 118.573 207.969 118.306C207.989 118.039 208.014 117.748 208.034 117.445C208.054 117.144 208.064 116.852 208.09 116.565C208.115 116.278 208.115 116.057 208.115 115.891H203.852C203.872 115.644 203.902 115.383 203.902 115.106C203.902 114.834 203.902 114.633 203.902 114.502L202.388 114.422C202.388 114.613 202.404 114.844 202.388 115.116C202.373 115.388 202.333 115.644 202.333 115.891H199.513V117.33H202.035C201.939 117.652 201.793 117.954 201.601 118.226C201.415 118.492 201.188 118.724 200.93 118.92C200.638 119.141 200.32 119.337 199.987 119.493C199.583 119.685 199.164 119.85 198.741 119.997L199.593 121.37L199.79 121.28C199.851 121.254 199.911 121.224 199.972 121.194V121.627C199.972 121.792 199.972 121.964 199.972 122.13H198.458V123.583H199.835C199.78 124.056 199.699 124.52 199.588 124.983C199.497 125.375 199.361 125.757 199.19 126.124C199.013 126.482 198.801 126.819 198.554 127.13C198.271 127.503 197.964 127.855 197.636 128.187V119.831H199.079V118.276H197.636V114.497L196.122 114.432V118.316H194.563V119.871H196.122V128.977H197.636V128.373L198.736 129.209C199.114 128.786 199.467 128.333 199.785 127.86C200.057 127.448 200.295 127.01 200.491 126.557C200.678 126.115 200.824 125.657 200.925 125.184C201.036 124.661 201.117 124.132 201.162 123.599H202.05C202.05 123.684 202.04 123.866 202.025 124.137C202.01 124.409 201.99 124.706 201.975 125.008C201.96 125.31 201.939 125.596 201.924 125.878C201.909 126.16 201.884 126.351 201.884 126.461C201.864 126.789 201.798 126.99 201.687 127.075C201.495 127.176 201.283 127.231 201.067 127.231L200.506 127.262L200.9 128.686L201.657 128.635C201.995 128.64 202.328 128.569 202.641 128.439L203.786 129.259C204.149 128.857 204.487 128.429 204.795 127.981C205.057 127.584 205.284 127.166 205.466 126.728C205.653 126.281 205.799 125.813 205.895 125.335C206.006 124.761 206.087 124.182 206.132 123.599H207.232C207.232 123.644 207.242 123.82 207.232 124.102C207.222 124.384 207.207 124.696 207.192 125.028C207.177 125.36 207.156 125.682 207.136 125.949C207.116 126.215 207.086 126.386 207.086 126.452C207.071 126.587 207.045 126.723 207.015 126.854C206.995 126.945 206.949 127.025 206.884 127.09C206.818 127.146 206.738 127.191 206.652 127.211C206.526 127.247 206.4 127.267 206.268 127.272L205.562 127.302L206.006 128.74L206.889 128.695C207.126 128.686 207.363 128.655 207.595 128.605C207.787 128.569 207.959 128.479 208.1 128.343C208.231 128.203 208.327 128.027 208.377 127.84C208.448 127.563 208.488 127.282 208.498 127C208.514 126.673 208.524 126.291 208.549 125.868C208.574 125.445 208.594 125.008 208.609 124.555C208.625 124.102 208.645 123.664 208.665 123.237C208.685 122.809 208.73 122.436 208.73 122.11L206.263 122.044Z" fill="white"/>
<path fill-rule="evenodd" clip-rule="evenodd" d="M237.464 119.521C237.101 119.39 236.738 119.244 236.379 119.078V123.068H224.523V119.179L224.018 119.4C223.852 119.471 223.68 119.536 223.514 119.602L223.009 118.132C224.341 117.639 225.633 117.046 226.874 116.356C227.933 115.778 228.922 115.078 229.815 114.273H231.157C232.03 115.083 233.009 115.778 234.059 116.341C235.315 117.026 236.617 117.614 237.964 118.097L237.464 119.521ZM233.261 117.559V118.243H227.671V117.624C227.278 117.841 226.869 118.062 226.44 118.278C226.011 118.495 225.572 118.711 225.113 118.917H235.986C235.022 118.49 234.114 118.037 233.261 117.559ZM225.426 123.773H235.491V129.156H234.003V128.653H226.914V129.156H225.426V123.773ZM227.383 121.287C227.126 121.025 226.909 120.784 226.738 120.618L227.459 119.979H226.046V121.991H228.014C227.817 121.745 227.605 121.508 227.383 121.287ZM226.914 125.639H234.003V124.839H226.914V125.639ZM234.003 126.671H226.914V127.566H234.003V126.671ZM227.626 119.964L228.277 120.618C228.534 120.88 228.781 121.121 228.937 121.322L228.216 121.976H229.694L229.704 119.964H227.626ZM229.588 116.371C229.225 116.643 228.847 116.9 228.458 117.136H232.56C232.141 116.885 231.758 116.633 231.4 116.382C231.077 116.155 230.769 115.914 230.476 115.647V115.632C230.194 115.894 229.896 116.14 229.588 116.371ZM232.298 121.035C232.429 120.91 232.55 120.784 232.671 120.653L233.019 120.276L233.297 119.964H231.213V121.976H232.54L231.934 121.373L232.298 121.035ZM233.393 119.964L234.134 120.603L233.887 120.89C233.786 121 233.68 121.121 233.564 121.242L233.206 121.614L232.868 121.976H234.856V119.964H233.393Z" fill="white"/>
<path fill-rule="evenodd" clip-rule="evenodd" d="M48.4328 139.891H50.1281V137.004H52.4489V139.891H54.124V132.848H52.4489V135.519H50.1281V132.848H48.4328V139.891Z" fill="white"/>
<path fill-rule="evenodd" clip-rule="evenodd" d="M55.441 136.314C55.441 134.01 56.7478 132.707 58.6701 132.707C60.5924 132.707 61.8992 134.02 61.8992 136.314C61.8992 138.609 60.5924 139.997 58.6701 139.997C56.7478 139.997 55.441 138.619 55.441 136.314ZM58.66 134.156C57.7216 134.156 57.1464 134.956 57.1464 136.314C57.1464 137.673 57.7165 138.543 58.66 138.543C59.6035 138.543 60.1736 137.688 60.1736 136.314C60.1736 134.956 59.5985 134.156 58.66 134.156Z" fill="white"/>
<path fill-rule="evenodd" clip-rule="evenodd" d="M63.2056 139.891H64.8151V137.557C64.8151 136.712 64.6738 135.746 64.5982 134.961H64.6436L65.3348 136.5L67.0805 139.891H68.801V132.848H67.1915V135.167C67.2167 136.038 67.2924 136.908 67.4185 137.768H67.3731L66.6819 136.209L64.9312 132.848H63.2056V139.891Z" fill="white"/>
<path fill-rule="evenodd" clip-rule="evenodd" d="M73.6143 139.998C74.4771 140.008 75.3147 139.706 75.9655 139.142V135.852H73.3419V137.23H74.4569V138.367C74.2551 138.488 74.023 138.554 73.7859 138.544C72.4791 138.544 71.8535 137.703 71.8535 136.335C71.8535 134.966 72.6002 134.156 73.6446 134.156C74.134 134.156 74.6032 134.352 74.9413 134.7L75.8394 133.623C75.244 133.029 74.4267 132.697 73.5841 132.707C71.7021 132.707 70.1229 134.051 70.1229 136.39C70.1229 138.77 71.6567 139.998 73.6143 139.998Z" fill="white"/>
<path fill-rule="evenodd" clip-rule="evenodd" d="M79.5633 139.871H81.2585V138.03L82.0254 136.993L83.6854 139.871H85.5421L83.0194 135.66L85.1536 132.848H83.2969L81.2787 135.62H81.2484V132.848H79.5532L79.5633 139.871Z" fill="white"/>
<path fill-rule="evenodd" clip-rule="evenodd" d="M85.6227 136.314C85.6227 134.01 86.9345 132.707 88.8568 132.707C90.7791 132.707 92.0858 134.02 92.0858 136.314C92.0858 138.609 90.7791 139.997 88.8568 139.997C86.9345 139.997 85.6227 138.619 85.6227 136.314ZM88.8467 134.156C87.9133 134.156 87.3331 134.956 87.3331 136.314C87.3331 137.673 87.9032 138.543 88.8467 138.543C89.7902 138.543 90.3603 137.688 90.3603 136.314C90.3603 134.956 89.7801 134.156 88.8467 134.156Z" fill="white"/>
<path fill-rule="evenodd" clip-rule="evenodd" d="M93.4176 139.891H94.9817V137.557C94.9817 136.712 94.8404 135.746 94.7647 134.961H94.8101L95.5014 136.5L97.2471 139.891H98.9676V132.848H97.4035V135.167C97.4287 136.038 97.5044 136.908 97.6305 137.768H97.5851L96.8939 136.209L95.1381 132.848H93.4176V139.891Z" fill="white"/>
<path fill-rule="evenodd" clip-rule="evenodd" d="M103.786 139.998C104.649 140.013 105.481 139.706 106.132 139.142V135.852H103.508V137.23H104.644V138.367C104.442 138.488 104.21 138.549 103.973 138.544C102.666 138.544 102.04 137.703 102.04 136.335C102.04 134.966 102.787 134.156 103.826 134.156C104.316 134.151 104.785 134.347 105.128 134.7L106.026 133.623C105.431 133.029 104.613 132.697 103.771 132.707C101.889 132.707 100.305 134.051 100.305 136.39C100.305 138.77 101.838 139.998 103.786 139.998Z" fill="white"/>
<path fill-rule="evenodd" clip-rule="evenodd" d="M109.74 132.848H112.202C113.66 132.848 114.825 133.235 114.825 134.583C114.84 135.222 114.482 135.811 113.907 136.093V136.133C114.674 136.299 115.204 137.004 115.153 137.783C115.153 139.217 113.932 139.861 112.398 139.861H109.74V132.848ZM113.175 134.84C113.175 134.362 112.848 134.131 112.136 134.131H111.435V135.64L112.136 135.63C112.853 135.63 113.175 135.318 113.175 134.84ZM113.508 137.683C113.508 137.079 113.1 136.878 112.277 136.878H111.435V138.583L112.277 138.578C113.09 138.578 113.508 138.286 113.508 137.683Z" fill="white"/>
<path fill-rule="evenodd" clip-rule="evenodd" d="M116.324 139.871H120.754V138.458H118.019V132.848H116.324V139.871Z" fill="white"/>
<path fill-rule="evenodd" clip-rule="evenodd" d="M121.248 136.314C121.248 134.01 122.555 132.707 124.477 132.707C126.399 132.707 127.706 134.02 127.706 136.314C127.706 138.609 126.399 139.997 124.477 139.997C122.555 139.997 121.248 138.619 121.248 136.314ZM124.467 134.156C123.529 134.156 122.953 134.956 122.953 136.314C122.953 137.673 123.524 138.543 124.467 138.543C125.411 138.543 125.981 137.688 125.981 136.314C125.981 134.956 125.405 134.156 124.467 134.156Z" fill="white"/>
<path fill-rule="evenodd" clip-rule="evenodd" d="M131.995 139.997C132.878 140.017 133.725 139.635 134.295 138.961L133.407 137.904C133.069 138.297 132.58 138.528 132.06 138.543C131.066 138.543 130.426 137.703 130.426 136.335C130.426 134.966 131.172 134.156 132.081 134.156C132.545 134.171 132.984 134.362 133.302 134.699L134.195 133.623C133.635 133.044 132.863 132.717 132.055 132.707C130.264 132.707 128.69 134.05 128.69 136.39C128.69 138.77 130.209 139.997 131.995 139.997Z" fill="white"/>
<path fill-rule="evenodd" clip-rule="evenodd" d="M135.345 139.871H137.04V138.03L137.807 136.993L139.467 139.871H141.319L138.796 135.66L140.93 132.848H139.074L137.056 135.62H137.025V132.848H135.33L135.345 139.871Z" fill="white"/>
<path fill-rule="evenodd" clip-rule="evenodd" d="M144.709 139.997C145.592 140.017 146.44 139.635 147.01 138.961L146.117 137.904C145.779 138.297 145.295 138.528 144.775 138.543C143.781 138.543 143.135 137.703 143.135 136.335C143.135 134.966 143.882 134.156 144.79 134.156C145.254 134.171 145.693 134.367 146.016 134.699L146.904 133.623C146.344 133.044 145.572 132.717 144.765 132.707C142.974 132.707 141.4 134.05 141.4 136.39C141.4 138.77 142.918 139.997 144.709 139.997Z" fill="white"/>
<path fill-rule="evenodd" clip-rule="evenodd" d="M148.039 139.891H149.734V137.004H152.055V139.891H153.73V132.848H152.055V135.519H149.734V132.848H148.039V139.891Z" fill="white"/>
<path fill-rule="evenodd" clip-rule="evenodd" d="M158.695 138.249H156.612L156.203 139.864H154.467L156.652 132.82H158.67L160.86 139.864H159.079L158.695 138.249ZM158.221 136.352C158.034 135.653 157.853 134.813 157.666 134.093H157.626C157.454 134.833 157.268 135.653 157.086 136.352L156.935 136.946H158.372L158.221 136.352Z" fill="white"/>
<path fill-rule="evenodd" clip-rule="evenodd" d="M161.621 139.891H163.317V132.848H161.621V139.891Z" fill="white"/>
<path fill-rule="evenodd" clip-rule="evenodd" d="M164.936 139.891H166.546V137.557C166.546 136.712 166.405 135.746 166.329 134.961H166.379L167.071 136.5L168.811 139.891H170.537V132.848H168.927V135.167C168.953 136.038 169.028 136.908 169.154 137.768H169.104L168.413 136.209L166.662 132.848H164.936V139.891Z" fill="white"/>
<path fill-rule="evenodd" clip-rule="evenodd" d="M177.676 138.249H175.592L175.189 139.864H173.463L175.653 132.82H177.671L179.861 139.864H178.08L177.676 138.249ZM177.202 136.352C177.015 135.653 176.833 134.813 176.647 134.093H176.606C176.435 134.833 176.248 135.653 176.066 136.352L175.915 136.946H177.353L177.202 136.352Z" fill="white"/>
<path fill-rule="evenodd" clip-rule="evenodd" d="M182.767 139.997C184.447 139.997 185.456 138.971 185.456 137.799C185.486 136.913 184.911 136.123 184.064 135.872L183.181 135.525C182.56 135.278 182.111 135.117 182.111 134.74C182.111 134.362 182.449 134.156 182.954 134.156C183.488 134.161 183.998 134.352 184.407 134.694L185.249 133.633C184.634 133.039 183.811 132.707 182.954 132.707C181.46 132.707 180.401 133.653 180.401 134.835C180.416 135.716 180.991 136.491 181.828 136.762L182.727 137.14C183.352 137.391 183.736 137.552 183.736 137.93C183.736 138.307 183.443 138.543 182.817 138.543C182.182 138.503 181.581 138.252 181.107 137.829L180.148 138.991C180.87 139.635 181.798 139.992 182.767 139.997Z" fill="white"/>
<path fill-rule="evenodd" clip-rule="evenodd" d="M188.609 139.997C190.289 139.997 191.298 138.971 191.298 137.799C191.329 136.913 190.753 136.123 189.906 135.872L189.028 135.525C188.402 135.278 187.958 135.117 187.958 134.74C187.958 134.362 188.296 134.156 188.801 134.156C189.331 134.161 189.845 134.352 190.249 134.694L191.092 133.633C190.476 133.039 189.659 132.707 188.801 132.707C187.302 132.707 186.243 133.653 186.243 134.835C186.258 135.716 186.833 136.491 187.671 136.762L188.574 137.14C189.194 137.391 189.583 137.552 189.583 137.93C189.583 138.307 189.29 138.543 188.665 138.543C188.029 138.503 187.424 138.252 186.949 137.829L185.991 138.991C186.712 139.635 187.64 139.992 188.609 139.997Z" fill="white"/>
<path fill-rule="evenodd" clip-rule="evenodd" d="M192.167 136.314C192.167 134.01 193.473 132.707 195.396 132.707C197.318 132.707 198.625 134.02 198.625 136.314C198.625 138.609 197.318 139.997 195.396 139.997C193.473 139.997 192.167 138.619 192.167 136.314ZM195.391 134.156C194.457 134.156 193.877 134.956 193.877 136.314C193.877 137.673 194.442 138.543 195.391 138.543C196.339 138.543 196.904 137.688 196.904 136.314C196.904 134.956 196.324 134.156 195.391 134.156Z" fill="white"/>
<path fill-rule="evenodd" clip-rule="evenodd" d="M202.918 139.997C203.801 140.017 204.649 139.635 205.219 138.961L204.331 137.904C203.993 138.297 203.503 138.528 202.984 138.543C201.99 138.543 201.344 137.703 201.344 136.335C201.344 134.966 202.096 134.156 203.004 134.156C203.468 134.171 203.907 134.367 204.225 134.699L205.113 133.623C204.553 133.044 203.781 132.717 202.974 132.707C201.183 132.707 199.613 134.05 199.613 136.39C199.613 138.77 201.127 139.997 202.918 139.997Z" fill="white"/>
<path fill-rule="evenodd" clip-rule="evenodd" d="M206.253 139.891H207.949V132.848H206.253V139.891Z" fill="white"/>
<path fill-rule="evenodd" clip-rule="evenodd" d="M212.893 138.249H210.809L210.4 139.864H208.675L210.865 132.82H212.883L215.067 139.864H213.286L212.893 138.249ZM212.419 136.352C212.227 135.653 212.05 134.813 211.859 134.093H211.818C211.652 134.833 211.46 135.653 211.283 136.352L211.127 136.946H212.57L212.419 136.352Z" fill="white"/>
<path fill-rule="evenodd" clip-rule="evenodd" d="M216.369 139.871H218.065V134.241H219.977V132.848H214.462V134.241H216.369V139.871Z" fill="white"/>
<path fill-rule="evenodd" clip-rule="evenodd" d="M221.067 139.891H222.762V132.848H221.067V139.891Z" fill="white"/>
<path fill-rule="evenodd" clip-rule="evenodd" d="M224.059 136.314C224.059 134.01 225.365 132.707 227.288 132.707C229.21 132.707 230.517 134.02 230.517 136.314C230.517 138.609 229.21 139.997 227.288 139.997C225.365 139.997 224.059 138.619 224.059 136.314ZM227.278 134.156C226.339 134.156 225.764 134.956 225.764 136.314C225.764 137.673 226.334 138.543 227.278 138.543C228.221 138.543 228.791 137.688 228.791 136.314C228.791 134.956 228.216 134.156 227.278 134.156Z" fill="white"/>
<path fill-rule="evenodd" clip-rule="evenodd" d="M231.823 139.891H233.433V137.557C233.433 136.712 233.291 135.746 233.216 134.961H233.266L233.957 136.5L235.698 139.891H237.424V132.848H235.809V135.167C235.834 136.038 235.91 136.908 236.041 137.768H235.991L235.299 136.209L233.549 132.848H231.823V139.891Z" fill="white"/>
<path fill-rule="evenodd" clip-rule="evenodd" d="M181.364 72.552C186.758 73.9809 190.824 77.9808 190.809 85.0146C190.809 95.8771 181.561 100.737 169.957 100.737H165.991V97.2155H162.459V100.737H155.35V90.1012H158.882V86.5793H155.35V68.8591H158.882V65.3372H155.35V47.6172H168.468C179.503 47.6172 188.317 50.5452 188.317 60.7637C188.317 65.478 185.663 70.6251 181.364 72.2653V72.552ZM173.135 54.6809H176.667V51.159H173.135V54.6809ZM162.691 68.693H167.994C173.438 68.693 175.875 66.3384 175.875 62.6907C175.875 58.9072 173.367 57.3324 167.994 57.3324H162.691V68.693ZM169.043 90.9867C175.204 90.9867 178.357 88.7679 178.382 84.1995C178.382 79.8424 175.3 78.1267 169.069 78.1267H162.691V90.9867H169.069H169.043ZM180.199 72.4464H176.667V75.9683H180.199V72.4464Z" fill="white"/>
<path fill-rule="evenodd" clip-rule="evenodd" d="M148.256 51.159H151.808V47.6172H148.256V51.159Z" fill="white"/>
<path fill-rule="evenodd" clip-rule="evenodd" d="M151.788 54.6983H155.34V51.1562H151.788V54.6983Z" fill="white"/>
<path fill-rule="evenodd" clip-rule="evenodd" d="M151.788 58.2491H155.34V54.707H151.788V58.2491Z" fill="white"/>
<path fill-rule="evenodd" clip-rule="evenodd" d="M148.256 58.2491H151.808V54.707H148.256V58.2491Z" fill="white"/>
<path fill-rule="evenodd" clip-rule="evenodd" d="M141.147 58.2491H144.699V54.707H141.147V58.2491Z" fill="white"/>
<path fill-rule="evenodd" clip-rule="evenodd" d="M134.038 75.9678H137.59V72.4258H134.038V75.9678Z" fill="white"/>
<path fill-rule="evenodd" clip-rule="evenodd" d="M137.595 86.6006H141.147V83.0586H137.595V86.6006Z" fill="white"/>
<path fill-rule="evenodd" clip-rule="evenodd" d="M148.256 61.7959H151.808V58.2539H148.256V61.7959Z" fill="white"/>
<path fill-rule="evenodd" clip-rule="evenodd" d="M151.788 65.3272H155.34V61.7852H151.788V65.3272Z" fill="white"/>
<path fill-rule="evenodd" clip-rule="evenodd" d="M151.788 68.8819H155.34V65.3398H151.788V68.8819Z" fill="white"/>
<path fill-rule="evenodd" clip-rule="evenodd" d="M151.788 72.4248H155.34V68.8828H151.788V72.4248Z" fill="white"/>
<path fill-rule="evenodd" clip-rule="evenodd" d="M148.256 72.4248H151.808V68.8828H148.256V72.4248Z" fill="white"/>
<path fill-rule="evenodd" clip-rule="evenodd" d="M144.704 72.4248H148.256V68.8828H144.704V72.4248Z" fill="white"/>
<path fill-rule="evenodd" clip-rule="evenodd" d="M148.256 75.9678H151.808V72.4258H148.256V75.9678Z" fill="white"/>
<path fill-rule="evenodd" clip-rule="evenodd" d="M141.147 68.8819H144.699V65.3398H141.147V68.8819Z" fill="white"/>
<path fill-rule="evenodd" clip-rule="evenodd" d="M137.595 65.3272H141.147V61.7852H137.595V65.3272Z" fill="white"/>
<path fill-rule="evenodd" clip-rule="evenodd" d="M137.595 72.4248H141.147V68.8828H137.595V72.4248Z" fill="white"/>
<path fill-rule="evenodd" clip-rule="evenodd" d="M141.147 79.5147H144.699V75.9727H141.147V79.5147Z" fill="white"/>
<path fill-rule="evenodd" clip-rule="evenodd" d="M141.147 94.8584H144.699V91.3164H141.147V94.8584Z" fill="white"/>
<path fill-rule="evenodd" clip-rule="evenodd" d="M151.788 79.5147H155.34V75.9727H151.788V79.5147Z" fill="white"/>
<path fill-rule="evenodd" clip-rule="evenodd" d="M151.788 83.0537H155.34V79.5117H151.788V83.0537Z" fill="white"/>
<path fill-rule="evenodd" clip-rule="evenodd" d="M148.256 83.0537H151.808V79.5117H148.256V83.0537Z" fill="white"/>
<path fill-rule="evenodd" clip-rule="evenodd" d="M148.256 86.6006H151.808V83.0586H148.256V86.6006Z" fill="white"/>
<path fill-rule="evenodd" clip-rule="evenodd" d="M144.704 86.6006H148.256V83.0586H144.704V86.6006Z" fill="white"/>
<path fill-rule="evenodd" clip-rule="evenodd" d="M151.788 86.6006H155.34V83.0586H151.788V86.6006Z" fill="white"/>
<path fill-rule="evenodd" clip-rule="evenodd" d="M151.788 90.1436H155.34V86.6016H151.788V90.1436Z" fill="white"/>
<path fill-rule="evenodd" clip-rule="evenodd" d="M148.256 93.6821H151.808V90.1406H148.256V93.6821Z" fill="white"/>
<path fill-rule="evenodd" clip-rule="evenodd" d="M151.788 97.2334H155.34V93.6914H151.788V97.2334Z" fill="white"/>
<path fill-rule="evenodd" clip-rule="evenodd" d="M148.256 100.776H151.808V97.2344H148.256V100.776Z" fill="white"/>
<path fill-rule="evenodd" clip-rule="evenodd" d="M144.704 100.776H148.256V97.2344H144.704V100.776Z" fill="white"/>
<path fill-rule="evenodd" clip-rule="evenodd" d="M48.3016 110.23H49.7194V107.815H51.6567V110.23H53.0543V104.363H51.6315V106.597H49.6941V104.363H48.2764L48.3016 110.23Z" fill="white"/>
<path fill-rule="evenodd" clip-rule="evenodd" d="M54.3966 104.363H55.8093V106.683L57.4793 104.363H59.0282L57.2472 106.713L59.3612 110.235H57.8123L56.4248 107.83L55.784 108.695V110.235H54.3713L54.3966 104.363Z" fill="white"/>
<path fill-rule="evenodd" clip-rule="evenodd" d="M59.9918 104.363H62.0503C63.2662 104.363 64.24 104.685 64.24 105.812C64.2551 106.351 63.9575 106.849 63.4731 107.085V107.115C64.1139 107.256 64.5528 107.84 64.5124 108.494C64.5124 109.691 63.5034 110.23 62.2117 110.23H59.9918V104.363ZM62.8777 106.029C62.8777 105.626 62.6002 105.435 62.0099 105.435H61.4247V106.688H62.0099C62.6103 106.688 62.8777 106.431 62.8777 106.029ZM63.135 108.398C63.135 107.89 62.792 107.729 62.126 107.729H61.4247V109.148H62.126C62.8071 109.148 63.135 108.907 63.135 108.398Z" fill="white"/>
<path fill-rule="evenodd" clip-rule="evenodd" d="M68.2613 108.897H66.5206L66.1826 110.245H64.7446L66.5711 104.379H68.2613L70.0877 110.245H68.5741L68.2613 108.897ZM67.8677 107.307C67.7063 106.723 67.56 106.024 67.3985 105.425H67.3682C67.227 106.039 67.0655 106.723 66.9192 107.307L66.7931 107.81H67.9939L67.8677 107.307Z" fill="white"/>
<path fill-rule="evenodd" clip-rule="evenodd" d="M70.9961 110.188C71.2534 110.334 71.5763 110.334 71.8336 110.188C72.0909 110.037 72.2524 109.76 72.2524 109.463C72.2524 109.166 72.0909 108.89 71.8336 108.739C71.5763 108.592 71.2534 108.592 70.9961 108.739C70.7388 108.89 70.5773 109.166 70.5773 109.463C70.5773 109.76 70.7388 110.037 70.9961 110.188Z" fill="white"/>
<path fill-rule="evenodd" clip-rule="evenodd" d="M73.6075 109.664C74.0363 110.112 74.6317 110.358 75.2472 110.338C75.7871 110.353 76.3168 110.177 76.7306 109.835L76.1907 108.914C75.9737 109.106 75.7013 109.216 75.4087 109.226C74.8537 109.226 74.45 108.763 74.45 108.014C74.45 107.264 74.8436 106.791 75.4591 106.791C75.6811 106.796 75.888 106.887 76.0393 107.038L76.6952 106.137C76.337 105.815 75.8728 105.634 75.3834 105.634C74.7528 105.614 74.1372 105.85 73.6831 106.298C73.2341 106.746 72.997 107.365 73.0171 107.994C72.9667 108.613 73.1836 109.216 73.6075 109.664Z" fill="white"/>
<path fill-rule="evenodd" clip-rule="evenodd" d="M78.7959 110.329C79.0331 110.335 79.2702 110.294 79.4922 110.209L79.3257 109.202C79.2752 109.208 79.2198 109.208 79.1693 109.202C79.0583 109.202 78.917 109.117 78.917 108.825V103.93H77.5144V108.77C77.5144 109.711 77.8323 110.34 78.7959 110.329Z" fill="white"/>
<path fill-rule="evenodd" clip-rule="evenodd" d="M81.4753 110.345C82.0303 110.345 82.555 110.073 82.8779 109.62H82.9132L83.0141 110.234H84.1594V105.746H82.7518V108.689C82.6054 108.966 82.3179 109.147 82.005 109.147C81.667 109.147 81.5005 108.971 81.5005 108.347V105.746H80.0928V108.523C80.0928 109.64 80.5116 110.345 81.4753 110.345Z" fill="white"/>
<path fill-rule="evenodd" clip-rule="evenodd" d="M86.551 109.746H86.5207L86.4097 110.249H85.3098V103.93H86.7124V105.439L86.6771 106.108C86.9899 105.801 87.4037 105.625 87.8426 105.605C88.9173 105.605 89.6035 106.506 89.6035 107.879C89.6035 109.429 88.6801 110.314 87.7165 110.314C87.2624 110.299 86.8386 110.093 86.551 109.746ZM87.4289 106.777C87.1463 106.787 86.884 106.928 86.7124 107.155V108.926C86.8941 109.097 87.1363 109.192 87.3835 109.187C87.8073 109.187 88.1554 108.835 88.1554 107.935C88.1554 107.145 87.9284 106.777 87.4289 106.777Z" fill="white"/>
</g>
<defs>
<clipPath id="clip0_924_368">
<rect width="237.606" height="140" fill="white" transform="translate(0.806641)"/>
</clipPath>
</defs>
</svg>
