<svg width="241" height="142" viewBox="0 0 241 142" fill="none" xmlns="http://www.w3.org/2000/svg">
<g clip-path="url(#clip0_679_2502)">
<path fill-rule="evenodd" clip-rule="evenodd" d="M47.4619 102.217H60.4706V80.0383H78.2743V102.217H91.1397V48.2969H78.2743V68.8063H60.4706V48.2969H47.4619V102.217Z" fill="white"/>
<path fill-rule="evenodd" clip-rule="evenodd" d="M97.1169 102.237H110.126V88.1014L116.011 80.1302L128.733 102.237H142.949L123.544 69.9137L139.92 48.3173H125.672L110.32 69.6228H110.1V48.2969H97.0913L97.1169 102.237Z" fill="white"/>
<path fill-rule="evenodd" clip-rule="evenodd" d="M224.209 89.8211H208.222L205.096 102.217H191.872L208.657 48.2969H224.209L241 102.217H227.336L224.209 89.8211ZM220.576 75.2567C219.123 69.8932 217.741 63.4428 216.288 57.9365H215.996C214.691 63.5857 213.238 69.8932 211.856 75.2567L210.694 79.8189H221.738L220.576 75.2567Z" fill="white"/>
<path fill-rule="evenodd" clip-rule="evenodd" d="M98.8194 7.90325C99.2135 6.87241 100.14 6.13755 101.23 5.98445L101.204 6.03038C102.499 5.81605 103.788 6.44374 104.408 7.59706C105.032 8.74527 104.853 10.164 103.962 11.1285C103.072 12.0878 101.67 12.3787 100.467 11.8531L97.2842 16.1806C97.9853 16.9103 98.3179 17.9106 98.2002 18.9108C98.0774 19.911 97.5196 20.8092 96.6649 21.3552L98.3844 25.8154C100.124 25.5347 101.793 26.6115 102.248 28.3108C102.709 30.0051 101.808 31.7708 100.165 32.3985C98.5175 33.0313 96.6649 32.3219 95.8666 30.7604C95.0632 29.1937 95.58 27.28 97.0539 26.3257L95.3344 21.8604C93.7582 22.0952 92.2281 21.2021 91.6703 19.712C91.5884 19.4874 91.527 19.2578 91.4912 19.0282L84.5109 18.1045C84.0657 19.7426 82.6891 20.9623 81.0054 21.2123C79.9461 21.3705 78.8663 21.1205 77.9861 20.5132L68.8668 26.8054C69.0971 27.4994 69.2045 28.2241 69.1841 28.9589C69.1226 31.7504 67.2394 34.1795 64.5374 34.9399C61.8405 35.6951 58.9593 34.6132 57.4445 32.2607C55.9246 29.9132 56.1191 26.8462 57.9256 24.7131L50.8481 14.3179C48.3098 15.2467 45.4594 14.7058 43.438 12.9146L34.9174 18.7475C35.7413 20.6612 35.7157 22.8402 34.8457 24.7335C33.9757 26.6319 32.3433 28.0761 30.3526 28.714L31.6115 39.2673H31.7906C35.3575 39.8542 37.9111 43.0131 37.7371 46.6159C37.558 50.2136 34.7076 53.1071 31.1048 53.3521C27.5021 53.5919 24.2832 51.1016 23.6282 47.56C22.968 44.0184 25.0764 40.5482 28.5256 39.4868L27.2718 28.9998C27.1286 28.9845 26.9853 28.9487 26.8369 28.9487C24.8922 28.6221 23.1523 27.5403 22.006 25.9379C20.8596 24.3304 20.3991 22.3401 20.7266 20.4009C20.7675 20.1611 20.8238 19.9263 20.8801 19.6967L13.0299 16.1653C10.9829 19.1608 7.00149 20.1407 3.78771 18.4413C0.573928 16.7368 -0.838498 12.8941 0.507401 9.52606C1.85842 6.15286 5.53277 4.33613 9.03825 5.30063C12.5437 6.27023 14.7596 9.71487 14.1762 13.2973L22.2977 16.9461C23.5975 15.3488 25.5063 14.3639 27.5635 14.221C29.6208 14.0781 31.6422 14.7976 33.1467 16.201L41.5906 10.4191C40.5773 8.18902 40.7411 5.60682 42.0204 3.52472C43.2998 1.43753 45.5362 0.120909 47.9823 0.00863959C48.5094 -0.0168763 49.0314 0.0137428 49.5483 0.1056C52.368 0.575092 54.6606 2.62657 55.4385 5.37207C56.2112 8.11248 55.331 11.057 53.1766 12.9299L60.0596 23.0342C62.5927 21.8094 65.6274 22.3912 67.526 24.4579L76.3536 18.3341C76.2666 18.0841 76.2052 17.8289 76.1592 17.5738C75.934 16.0581 76.5379 14.5425 77.7354 13.5933C78.938 12.6441 80.5551 12.4042 81.9778 12.9656C83.4055 13.5269 84.4188 14.8027 84.644 16.3184L91.7112 17.2523C92.0336 16.4153 92.6784 15.7366 93.5023 15.3794C94.3211 15.0171 95.2576 14.9967 96.0918 15.3284L99.326 10.9396C98.6198 10.0925 98.4254 8.92898 98.8194 7.90325Z" fill="white"/>
<path fill-rule="evenodd" clip-rule="evenodd" d="M62.2051 125.159C61.8878 125.041 61.5705 124.914 61.2686 124.781C60.9667 124.648 60.6596 124.505 60.3628 124.347V130.951H58.6996V130.44H51.7449V130.951H50.0818V124.398L49.176 124.822C48.8689 124.96 48.5568 125.087 48.2344 125.21L47.7227 123.72C48.7103 123.383 49.6724 122.98 50.6089 122.515C51.484 122.081 52.313 121.566 53.096 120.984H48.4903V119.561H54.3958V118.285C53.4747 118.341 52.5945 118.382 51.7603 118.407L49.5701 118.484L49.437 116.953C50.2251 116.953 51.1053 116.917 52.0827 116.876C53.0601 116.835 54.0529 116.789 55.0713 116.728C56.0897 116.667 57.0723 116.601 58.0292 116.529C58.9862 116.458 59.8459 116.381 60.588 116.305L60.8234 117.8C60.1786 117.866 59.4468 117.927 58.628 117.989C57.8092 118.05 56.9443 118.106 56.0692 118.162V119.54H62.0055V120.964H57.4356C59.0578 122.143 60.8592 123.051 62.7731 123.653L62.2051 125.159ZM57.6659 122.796C57.1081 122.413 56.5707 121.995 56.0692 121.546V123.536H54.406V121.627C53.9199 122.056 53.4081 122.454 52.8708 122.821C52.2721 123.225 51.6528 123.597 51.0132 123.934H59.544C58.8992 123.587 58.2697 123.209 57.6659 122.796ZM51.7449 125.291V126.491H58.6996V125.291H51.7449ZM58.6996 127.863H51.7449V129.058H58.6996V127.863Z" fill="white"/>
<path fill-rule="evenodd" clip-rule="evenodd" d="M79.9372 123.633C79.7581 123.459 79.5585 123.265 79.3283 123.056C79.098 122.847 78.8677 122.633 78.6323 122.423C78.3969 122.214 78.1564 122.015 77.9261 121.826C77.6958 121.637 77.4809 121.479 77.2915 121.347L78.1922 120.101C78.3918 120.234 78.6067 120.387 78.8472 120.566C79.0877 120.744 79.3283 120.928 79.5688 121.122C79.8093 121.316 80.0498 121.51 80.2699 121.704C80.4899 121.898 80.6844 122.076 80.8533 122.24L79.9372 123.633ZM83.7651 127.715V128.379C83.7395 128.639 83.8061 128.899 83.9442 129.124C84.1438 129.297 84.3997 129.384 84.6607 129.374C85.894 129.461 87.1375 129.461 88.3709 129.374C88.5551 129.369 88.7393 129.348 88.9184 129.313C89.0464 129.292 89.1641 129.246 89.2715 129.175C89.3636 129.098 89.4353 128.996 89.4762 128.884C89.5376 128.721 89.5786 128.547 89.6042 128.374C89.6042 128.221 89.6451 128.067 89.6605 127.914C89.6758 127.761 89.6963 127.603 89.7168 127.404L91.1804 127.914C91.1804 128.093 91.1445 128.241 91.1343 128.369C91.1241 128.496 91.0985 128.665 91.0678 128.879C91.0268 129.195 90.9449 129.507 90.8324 129.803C90.6686 130.277 90.2592 130.629 89.7628 130.721C89.4251 130.798 89.0822 130.844 88.7393 130.854C87.2041 130.946 85.6688 130.946 84.1336 130.854C83.8521 130.849 83.5707 130.808 83.2943 130.736C83.0691 130.68 82.8593 130.563 82.6904 130.405C82.5113 130.231 82.3834 130.017 82.3118 129.782C82.2196 129.45 82.1787 129.103 82.1889 128.762V125.608C81.9791 125.797 81.7642 125.975 81.5492 126.149C81.3343 126.322 81.1143 126.48 80.8942 126.659L80.5258 126.011C80.4285 126.399 80.3159 126.802 80.2034 127.22C80.0908 127.639 79.9628 128.067 79.8349 128.501C79.707 128.935 79.579 129.359 79.4511 129.777C79.3231 130.196 79.1952 130.599 79.0621 130.987L77.5627 130.558C77.6855 130.201 77.8186 129.797 77.9568 129.343C78.0949 128.889 78.2331 128.425 78.3713 127.95C78.5095 127.476 78.6374 127.011 78.7551 126.552C78.8728 126.093 78.9752 125.674 79.0621 125.296L80.3927 125.761L80.0601 125.148C80.6997 124.781 81.2985 124.342 81.8307 123.832C82.3732 123.332 82.8542 122.77 83.2687 122.163H80.8942V120.719H83.2892V119.06H81.5902V117.647H83.2892V115.988L84.8654 116.055V117.647H87.4804V115.988L89.0617 116.055V117.647H91.4209V119.04H89.0617V120.699H91.9019V122.143H88.9287C89.3381 122.724 89.8345 123.24 90.3974 123.674C91.0217 124.153 91.687 124.572 92.3881 124.934L91.687 126.343C91.2776 126.113 90.8938 125.878 90.5407 125.649C90.1978 125.424 89.8703 125.179 89.5581 124.919V127.69L83.7651 127.715ZM80.6281 119.77C80.4746 119.606 80.2801 119.413 80.0447 119.198C79.8093 118.984 79.5739 118.764 79.3231 118.55C79.0724 118.336 78.8114 118.132 78.576 117.938C78.3406 117.744 78.1103 117.586 77.9312 117.463L78.8165 116.284C79.0161 116.417 79.231 116.575 79.4715 116.759L80.1982 117.32L80.9044 117.902L81.493 118.412L80.6281 119.77ZM83.7907 125.113V126.271H88.115V125.113H83.7907ZM84.021 123.72H88.3964C88.1969 123.48 88.0126 123.225 87.8386 122.964C87.6646 122.704 87.5009 122.454 87.3269 122.143H85.0445C84.7528 122.699 84.4099 123.225 84.021 123.72ZM87.5265 120.699V119.04H84.9114V120.699H87.5265Z" fill="white"/>
<path fill-rule="evenodd" clip-rule="evenodd" d="M110.361 118.139V128.922H122.024V130.417H108.815V116.68H121.737V118.139H110.361ZM115.867 123.615V127.912H111.333V123.615H115.867ZM120.294 118.956V122.768H112.275V118.956H120.294ZM114.552 126.61V124.886H112.771V126.61H114.552ZM118.677 121.507V120.262H113.892L113.887 121.507H118.677ZM121.225 123.646V127.942H116.717V123.615L121.225 123.646ZM119.859 126.631V124.906H118.027V126.631H119.859Z" fill="white"/>
<path fill-rule="evenodd" clip-rule="evenodd" d="M141.931 127.634L141.455 127.782L140.574 128.063L139.5 128.42L138.42 128.787C138.077 128.899 137.775 129.002 137.524 129.093L137.013 129.257L136.598 127.619L136.864 127.532L137.345 127.384L137.97 127.185L138.691 126.95V121.76H137.079V120.229H138.691V116.147L140.139 116.213V120.245H141.603V121.775H140.139V126.486L141.163 126.139L141.721 125.94L141.931 127.634ZM151.654 127.996C151.654 128.185 151.654 128.364 151.654 128.507C151.654 128.649 151.654 128.838 151.654 129.017C151.628 129.282 151.577 129.542 151.495 129.798C151.434 129.981 151.316 130.145 151.163 130.267C150.989 130.395 150.789 130.487 150.579 130.527C150.293 130.584 150.001 130.619 149.709 130.624C148.942 130.66 148.174 130.66 147.411 130.624C147.115 130.619 146.823 130.578 146.536 130.507C146.321 130.456 146.127 130.354 145.958 130.211C145.805 130.073 145.687 129.9 145.625 129.701C145.544 129.425 145.503 129.139 145.513 128.854V127.078C145.001 127.874 144.382 128.598 143.676 129.236C142.847 129.976 141.951 130.645 141.004 131.227L140.124 129.731C142.662 128.369 144.29 126.71 145.001 124.756H141.869V117.412H144.781C144.888 117.147 144.981 116.876 145.057 116.601L145.267 115.871L146.976 116.039C146.935 116.182 146.869 116.381 146.787 116.642C146.705 116.902 146.618 117.152 146.531 117.412H150.354V124.74H148.86L149.156 124.858C149.09 125.036 149.018 125.215 148.942 125.399C148.865 125.582 148.788 125.766 148.711 125.95L149.54 125.485C149.663 125.741 149.806 126.052 149.975 126.424C150.144 126.797 150.293 127.139 150.441 127.445L151.654 127.996ZM143.307 120.382H145.416V118.775H143.307V120.382ZM145.416 122.704C145.436 122.49 145.416 122.281 145.416 122.061V121.678H143.307V123.306L145.354 123.322C145.354 123.123 145.395 122.919 145.416 122.704ZM146.367 125.225L146.951 125.261V126.736C147.017 126.629 147.094 126.491 147.176 126.333C147.258 126.174 147.345 126.001 147.427 125.822L147.677 125.276C147.759 125.087 147.831 124.914 147.898 124.766L146.5 124.746C146.47 124.888 146.424 125.052 146.367 125.225ZM148.88 121.678H146.833V122.046C146.833 122.265 146.833 122.48 146.833 122.689C146.833 122.903 146.833 123.107 146.782 123.306L148.88 123.322V121.678ZM146.833 118.775V120.382H148.88V118.775H146.833ZM149.852 129.15C149.955 129.134 150.047 129.088 150.129 129.027C150.195 128.966 150.246 128.889 150.272 128.803C150.303 128.68 150.323 128.558 150.328 128.43C150.323 128.379 150.323 128.323 150.328 128.272C150.328 128.221 150.328 128.17 150.328 128.114L149.663 128.461L149.515 128.098L148.952 128.139L148.286 128.19C148.051 128.19 147.816 128.226 147.585 128.256L146.935 128.328V128.461C146.93 128.588 146.946 128.711 146.971 128.833C146.987 128.92 147.038 129.002 147.104 129.058C147.181 129.119 147.273 129.155 147.37 129.165C147.478 129.165 147.621 129.195 147.785 129.211C148.322 129.241 148.865 129.241 149.402 129.211H149.433C149.576 129.201 149.714 129.18 149.852 129.15ZM148.384 126.659C148.317 126.802 148.256 126.97 148.199 127.093L149.034 127.027L148.614 126.149C148.527 126.338 148.45 126.516 148.384 126.659Z" fill="white"/>
<path fill-rule="evenodd" clip-rule="evenodd" d="M176.642 129.255C177.42 129.255 178.178 129.286 178.955 129.255C179.733 129.225 180.491 129.215 181.269 129.169L180.951 130.613C180.199 130.659 179.452 130.684 178.71 130.694C177.968 130.705 177.215 130.694 176.463 130.694C176.1 130.689 175.737 130.659 175.378 130.603C175.076 130.562 174.785 130.47 174.508 130.337C174.242 130.205 173.997 130.036 173.782 129.827C173.531 129.572 173.316 129.286 173.137 128.975C172.814 129.541 172.436 130.077 172.006 130.567L170.941 129.638L171.341 129.128L170.215 129.408C169.764 129.516 169.309 129.633 168.843 129.755L167.502 130.102L166.479 130.368L166.213 128.944L167.201 128.704L168.572 128.362V124.065H166.694V122.698H168.572V121.524H167.625V121.167L167.226 121.677L166.315 120.616C166.586 120.289 166.837 119.947 167.073 119.595C167.318 119.217 167.554 118.819 167.779 118.406C168.004 117.993 168.204 117.574 168.393 117.161C168.567 116.778 168.726 116.39 168.859 115.992L170.307 116.227L170.107 116.773C170.44 117.105 170.793 117.467 171.162 117.865C171.53 118.263 171.857 118.61 172.134 118.886L171.223 119.906C170.988 119.641 170.711 119.345 170.414 119.013L169.539 118.064C169.35 118.421 169.166 118.773 168.976 119.12C168.792 119.473 168.582 119.814 168.357 120.141H171.269V121.539H169.99V122.698H171.719V124.076H169.974V128.025L170.849 127.786C171.11 127.714 171.32 127.648 171.489 127.592L171.571 128.291L171.637 128.74L172.047 128.158C172.185 127.959 172.318 127.755 172.451 127.541V122.483H171.489V121.075H173.715V127.546C173.864 127.826 174.038 128.092 174.227 128.347C174.386 128.551 174.575 128.725 174.795 128.857C175.035 129 175.296 129.097 175.568 129.148C175.921 129.215 176.284 129.25 176.642 129.255ZM167.625 124.596C167.702 124.805 167.784 125.04 167.866 125.29C167.948 125.54 168.03 125.8 168.117 126.066C168.204 126.331 168.27 126.576 168.337 126.826C168.403 127.076 168.465 127.301 168.521 127.5L167.497 127.913L167.313 127.219C167.247 126.964 167.175 126.709 167.093 126.438C167.011 126.168 166.924 125.928 166.842 125.658C166.76 125.387 166.679 125.173 166.602 124.958L167.625 124.596ZM170.036 127.148C170.205 126.739 170.358 126.301 170.512 125.831C170.665 125.362 170.783 124.933 170.885 124.545L171.883 124.877C171.791 125.285 171.673 125.739 171.515 126.229C171.356 126.719 171.208 127.163 171.049 127.546L170.036 127.148ZM172.948 120.299C172.891 120.08 172.82 119.814 172.733 119.513C172.646 119.212 172.543 118.896 172.431 118.585C172.318 118.273 172.211 117.962 172.098 117.661L171.801 116.88L173.029 116.467C173.116 116.676 173.219 116.926 173.331 117.212C173.444 117.498 173.546 117.799 173.654 118.11C173.761 118.421 173.858 118.722 173.956 119.013L174.196 119.769L172.948 120.299ZM176.821 118.804H174.36V117.513H176.837V116.064L178.07 116.13V117.523H180.629V118.814H178.07V119.835H180.265V125.224H178.07V126.244H180.864V127.541H178.07V129.072H176.837V127.541H174.191V126.219H176.837V125.198H174.59V119.82H176.837L176.821 118.804ZM175.798 121.927H176.821V120.993H175.798V121.927ZM176.821 123.111H175.798V124.055H176.821V123.111ZM178.055 121.927H179.078V120.993H178.055V121.927ZM179.078 123.111H178.055V124.055H179.078V123.111Z" fill="white"/>
<path fill-rule="evenodd" clip-rule="evenodd" d="M208.391 123.785C208.443 123.577 208.443 123.373 208.443 123.179C208.443 122.98 208.443 122.811 208.443 122.668L207.03 122.602C207.03 122.719 207.035 122.892 207.03 123.112C207.025 123.331 206.989 123.551 206.989 123.776H205.925V125.251H206.892C206.846 125.735 206.79 126.174 206.718 126.562C206.651 126.93 206.549 127.292 206.416 127.639C206.293 127.965 206.135 128.281 205.95 128.583C205.756 128.899 205.531 129.2 205.28 129.481C205.321 129.364 205.352 129.241 205.367 129.114C205.408 128.981 205.408 128.756 205.408 128.67C205.408 128.583 205.393 128.409 205.433 128.159C205.474 127.909 205.459 127.603 205.474 127.292C205.49 126.981 205.505 126.623 205.52 126.271C205.536 125.919 205.52 125.577 205.567 125.251C205.613 124.924 205.613 124.633 205.613 124.378C205.613 124.123 205.613 123.939 205.613 123.832H203.351L203.433 122.704L202.552 122.653C202.982 122.434 203.402 122.183 203.796 121.908C204.134 121.668 204.441 121.393 204.712 121.086C204.963 120.795 205.178 120.474 205.346 120.132C205.52 119.765 205.654 119.382 205.746 118.984H208.57L208.437 120.183C208.422 120.321 208.391 120.453 208.35 120.586C208.315 120.683 208.248 120.764 208.166 120.826C208.069 120.887 207.956 120.928 207.839 120.944C207.67 120.969 207.496 120.984 207.327 120.994L205.848 121.091L206.462 122.622L207.941 122.525C208.258 122.51 208.576 122.464 208.888 122.397C209.123 122.347 209.338 122.245 209.522 122.092C209.696 121.939 209.824 121.74 209.896 121.52C209.993 121.224 210.049 120.913 210.07 120.602C210.08 120.468 210.101 120.265 210.121 119.994C210.142 119.724 210.167 119.428 210.188 119.121C210.208 118.815 210.218 118.52 210.244 118.228C210.269 117.938 210.269 117.713 210.269 117.545H205.945C205.966 117.294 205.996 117.029 205.996 116.749C205.996 116.473 205.996 116.269 205.996 116.136L204.461 116.055C204.461 116.249 204.476 116.483 204.461 116.759C204.446 117.034 204.405 117.294 204.405 117.545H201.544V119.004H204.103C204.006 119.331 203.857 119.637 203.663 119.913C203.473 120.183 203.243 120.418 202.982 120.617C202.685 120.841 202.363 121.04 202.025 121.199C201.616 121.393 201.191 121.56 200.761 121.709L201.626 123.102L201.826 123.01C201.887 122.985 201.948 122.954 202.01 122.924V123.362C202.01 123.53 202.01 123.704 202.01 123.873H200.475V125.347H201.872C201.815 125.827 201.734 126.297 201.621 126.766C201.529 127.164 201.391 127.552 201.217 127.924C201.038 128.287 200.823 128.629 200.572 128.945C200.285 129.323 199.973 129.68 199.64 130.017V121.541H201.104V119.964H199.64V116.131L198.105 116.065V120.005H196.524V121.581H198.105V130.818H199.64V130.205L200.756 131.053C201.14 130.624 201.498 130.164 201.821 129.685C202.097 129.267 202.337 128.823 202.537 128.363C202.726 127.914 202.875 127.45 202.977 126.97C203.09 126.44 203.172 125.904 203.218 125.363H204.118C204.118 125.45 204.108 125.633 204.093 125.909C204.077 126.184 204.057 126.486 204.042 126.792C204.026 127.098 204.006 127.388 203.99 127.675C203.975 127.96 203.949 128.154 203.949 128.266C203.929 128.598 203.862 128.802 203.75 128.889C203.555 128.991 203.34 129.047 203.12 129.047L202.552 129.078L202.951 130.522L203.719 130.471C204.062 130.476 204.4 130.404 204.717 130.272L205.879 131.103C206.247 130.696 206.59 130.262 206.902 129.808C207.168 129.405 207.399 128.981 207.583 128.537C207.772 128.083 207.921 127.608 208.018 127.123C208.13 126.542 208.212 125.954 208.258 125.363H209.374C209.374 125.409 209.384 125.587 209.374 125.873C209.364 126.159 209.348 126.475 209.333 126.812C209.318 127.149 209.297 127.476 209.277 127.746C209.256 128.017 209.226 128.19 209.226 128.256C209.21 128.394 209.185 128.532 209.154 128.664C209.133 128.756 209.087 128.838 209.021 128.904C208.954 128.961 208.872 129.007 208.785 129.027C208.657 129.063 208.53 129.083 208.396 129.088L207.68 129.119L208.13 130.578L209.026 130.532C209.266 130.522 209.507 130.492 209.742 130.441C209.937 130.404 210.111 130.313 210.254 130.175C210.387 130.032 210.484 129.854 210.536 129.665C210.607 129.384 210.648 129.098 210.658 128.813C210.674 128.481 210.684 128.093 210.71 127.664C210.735 127.236 210.756 126.792 210.771 126.332C210.786 125.873 210.807 125.429 210.827 124.995C210.848 124.562 210.894 124.184 210.894 123.852L208.391 123.785Z" fill="white"/>
<path fill-rule="evenodd" clip-rule="evenodd" d="M240.038 121.229C239.67 121.096 239.301 120.948 238.938 120.78V124.827H226.912V120.882L226.4 121.106C226.231 121.178 226.057 121.244 225.888 121.311L225.376 119.82C226.727 119.32 228.038 118.718 229.296 118.019C230.371 117.432 231.374 116.723 232.28 115.906H233.641C234.527 116.728 235.519 117.432 236.584 118.004C237.858 118.698 239.178 119.295 240.545 119.785L240.038 121.229ZM235.775 119.239V119.933H230.105V119.305C229.706 119.524 229.291 119.749 228.856 119.968C228.421 120.188 227.976 120.407 227.51 120.616H238.539C237.561 120.183 236.64 119.723 235.775 119.239ZM227.828 125.541H238.037V131.001H236.527V130.491H229.337V131.001H227.828V125.541ZM229.813 123.02C229.552 122.755 229.332 122.51 229.158 122.341L229.89 121.693H228.457V123.735H230.453C230.253 123.484 230.038 123.245 229.813 123.02ZM229.337 127.434H236.527V126.623H229.337V127.434ZM236.527 128.48H229.337V129.389H236.527V128.48ZM230.059 121.678L230.719 122.341C230.98 122.607 231.231 122.852 231.39 123.056L230.658 123.719H232.157L232.167 121.678H230.059ZM232.05 118.034C231.681 118.31 231.297 118.57 230.903 118.81H235.064C234.639 118.555 234.25 118.3 233.887 118.044C233.559 117.815 233.247 117.57 232.95 117.299V117.284C232.664 117.549 232.362 117.8 232.05 118.034ZM234.798 122.765C234.931 122.637 235.054 122.51 235.176 122.377L235.53 121.994L235.811 121.678H233.697V123.719H235.043L234.429 123.107L234.798 122.765ZM235.908 121.678L236.661 122.326L236.41 122.617C236.307 122.729 236.2 122.852 236.082 122.974L235.719 123.352L235.376 123.719H237.392V121.678H235.908Z" fill="white"/>
<path fill-rule="evenodd" clip-rule="evenodd" d="M48.3062 141.887H50.0256V138.957H52.3796V141.887H54.0786V134.742H52.3796V137.452H50.0256V134.742H48.3062V141.887Z" fill="white"/>
<path fill-rule="evenodd" clip-rule="evenodd" d="M55.4146 138.261C55.4146 135.923 56.74 134.602 58.6897 134.602C60.6395 134.602 61.9649 135.933 61.9649 138.261C61.9649 140.588 60.6395 141.996 58.6897 141.996C56.74 141.996 55.4146 140.598 55.4146 138.261ZM58.6795 136.071C57.7277 136.071 57.1443 136.883 57.1443 138.261C57.1443 139.638 57.7225 140.521 58.6795 140.521C59.6365 140.521 60.2148 139.654 60.2148 138.261C60.2148 136.883 59.6314 136.071 58.6795 136.071Z" fill="white"/>
<path fill-rule="evenodd" clip-rule="evenodd" d="M63.29 141.887H64.9225V139.519C64.9225 138.661 64.7792 137.682 64.7025 136.886H64.7485L65.4496 138.447L67.2203 141.887H68.9653V134.742H67.3329V137.095C67.3584 137.978 67.4352 138.86 67.5631 139.733H67.5171L66.816 138.151L65.0402 134.742H63.29V141.887Z" fill="white"/>
<path fill-rule="evenodd" clip-rule="evenodd" d="M73.8475 141.996C74.7225 142.007 75.572 141.7 76.2322 141.129V137.791H73.5711V139.19H74.7021V140.343C74.4974 140.465 74.262 140.532 74.0215 140.521C72.696 140.521 72.0615 139.669 72.0615 138.281C72.0615 136.893 72.8188 136.072 73.8782 136.072C74.3746 136.072 74.8505 136.271 75.1934 136.623L76.1043 135.531C75.5004 134.928 74.6714 134.592 73.8167 134.602C71.9079 134.602 70.3062 135.964 70.3062 138.337C70.3062 140.751 71.8619 141.996 73.8475 141.996Z" fill="white"/>
<path fill-rule="evenodd" clip-rule="evenodd" d="M79.8813 141.866H81.6008V139.998L82.3787 138.947L84.0623 141.866H85.9455L83.3868 137.595L85.5515 134.742H83.6683L81.6213 137.554H81.5906V134.742H79.8711L79.8813 141.866Z" fill="white"/>
<path fill-rule="evenodd" clip-rule="evenodd" d="M86.0273 138.261C86.0273 135.923 87.3579 134.602 89.3077 134.602C91.2574 134.602 92.5828 135.933 92.5828 138.261C92.5828 140.588 91.2574 141.996 89.3077 141.996C87.3579 141.996 86.0273 140.598 86.0273 138.261ZM89.2974 136.071C88.3507 136.071 87.7622 136.883 87.7622 138.261C87.7622 139.638 88.3404 140.521 89.2974 140.521C90.2544 140.521 90.8327 139.654 90.8327 138.261C90.8327 136.883 90.2442 136.071 89.2974 136.071Z" fill="white"/>
<path fill-rule="evenodd" clip-rule="evenodd" d="M93.9336 141.887H95.52V139.519C95.52 138.661 95.3767 137.682 95.3 136.886H95.346L96.0471 138.447L97.8178 141.887H99.5628V134.742H97.9764V137.095C98.002 137.978 98.0788 138.86 98.2067 139.733H98.1606L97.4595 138.151L95.6787 134.742H93.9336V141.887Z" fill="white"/>
<path fill-rule="evenodd" clip-rule="evenodd" d="M104.45 141.996C105.325 142.012 106.169 141.7 106.83 141.129V137.791H104.169V139.19H105.32V140.343C105.115 140.465 104.88 140.527 104.639 140.521C103.314 140.521 102.679 139.669 102.679 138.281C102.679 136.893 103.437 136.072 104.491 136.072C104.987 136.066 105.463 136.265 105.811 136.623L106.722 135.531C106.118 134.928 105.289 134.592 104.435 134.602C102.526 134.602 100.919 135.964 100.919 138.337C100.919 140.751 102.475 141.996 104.45 141.996Z" fill="white"/>
<path fill-rule="evenodd" clip-rule="evenodd" d="M110.489 134.742H112.986C114.465 134.742 115.647 135.135 115.647 136.503C115.663 137.151 115.299 137.748 114.716 138.034V138.075C115.494 138.243 116.031 138.957 115.98 139.748C115.98 141.203 114.741 141.856 113.186 141.856H110.489V134.742ZM113.974 136.763C113.974 136.278 113.641 136.044 112.92 136.044H112.208V137.574L112.92 137.564C113.646 137.564 113.974 137.248 113.974 136.763ZM114.312 139.646C114.312 139.034 113.897 138.83 113.063 138.83H112.208V140.56L113.063 140.555C113.887 140.555 114.312 140.259 114.312 139.646Z" fill="white"/>
<path fill-rule="evenodd" clip-rule="evenodd" d="M117.167 141.866H121.66V140.432H118.886V134.742H117.167V141.866Z" fill="white"/>
<path fill-rule="evenodd" clip-rule="evenodd" d="M122.162 138.261C122.162 135.923 123.487 134.602 125.437 134.602C127.387 134.602 128.712 135.933 128.712 138.261C128.712 140.588 127.387 141.996 125.437 141.996C123.487 141.996 122.162 140.598 122.162 138.261ZM125.427 136.071C124.475 136.071 123.891 136.883 123.891 138.261C123.891 139.638 124.47 140.521 125.427 140.521C126.384 140.521 126.962 139.654 126.962 138.261C126.962 136.883 126.378 136.071 125.427 136.071Z" fill="white"/>
<path fill-rule="evenodd" clip-rule="evenodd" d="M133.062 141.996C133.957 142.016 134.817 141.629 135.395 140.945L134.495 139.873C134.152 140.271 133.656 140.506 133.128 140.521C132.12 140.521 131.47 139.669 131.47 138.281C131.47 136.893 132.228 136.071 133.149 136.071C133.62 136.087 134.065 136.281 134.387 136.622L135.293 135.53C134.725 134.943 133.942 134.612 133.123 134.602C131.307 134.602 129.71 135.964 129.71 138.337C129.71 140.751 131.25 141.996 133.062 141.996Z" fill="white"/>
<path fill-rule="evenodd" clip-rule="evenodd" d="M136.46 141.866H138.18V139.998L138.958 138.947L140.641 141.866H142.519L139.961 137.595L142.125 134.742H140.242L138.195 137.554H138.164V134.742H136.445L136.46 141.866Z" fill="white"/>
<path fill-rule="evenodd" clip-rule="evenodd" d="M145.958 141.996C146.854 142.016 147.713 141.629 148.292 140.945L147.386 139.873C147.043 140.271 146.552 140.506 146.025 140.521C145.017 140.521 144.361 139.669 144.361 138.281C144.361 136.893 145.119 136.071 146.04 136.071C146.511 136.087 146.956 136.286 147.284 136.622L148.184 135.53C147.616 134.943 146.833 134.612 146.014 134.602C144.198 134.602 142.601 135.964 142.601 138.337C142.601 140.751 144.141 141.996 145.958 141.996Z" fill="white"/>
<path fill-rule="evenodd" clip-rule="evenodd" d="M149.335 141.887H151.055V138.957H153.409V141.887H155.108V134.742H153.409V137.452H151.055V134.742H149.335V141.887Z" fill="white"/>
<path fill-rule="evenodd" clip-rule="evenodd" d="M160.144 140.225H158.03L157.616 141.863H155.855L158.071 134.719H160.118L162.339 141.863H160.533L160.144 140.225ZM159.663 138.301C159.474 137.592 159.289 136.74 159.1 136.01H159.059C158.885 136.76 158.696 137.592 158.511 138.301L158.358 138.903H159.816L159.663 138.301Z" fill="white"/>
<path fill-rule="evenodd" clip-rule="evenodd" d="M163.112 141.887H164.831V134.742H163.112V141.887Z" fill="white"/>
<path fill-rule="evenodd" clip-rule="evenodd" d="M166.474 141.887H168.107V139.519C168.107 138.661 167.963 137.682 167.887 136.886H167.938L168.639 138.447L170.404 141.887H172.155V134.742H170.522V137.095C170.548 137.978 170.624 138.86 170.752 139.733H170.701L170 138.151L168.224 134.742H166.474V141.887Z" fill="white"/>
<path fill-rule="evenodd" clip-rule="evenodd" d="M179.396 140.225H177.282L176.873 141.863H175.123L177.344 134.719H179.391L181.612 141.863H179.805L179.396 140.225ZM178.915 138.301C178.725 137.592 178.541 136.74 178.352 136.01H178.311C178.137 136.76 177.947 137.592 177.763 138.301L177.61 138.903H179.068L178.915 138.301Z" fill="white"/>
<path fill-rule="evenodd" clip-rule="evenodd" d="M184.559 141.996C186.263 141.996 187.287 140.955 187.287 139.766C187.318 138.868 186.734 138.067 185.874 137.811L184.979 137.459C184.349 137.209 183.894 137.046 183.894 136.663C183.894 136.281 184.237 136.071 184.749 136.071C185.291 136.076 185.808 136.27 186.222 136.617L187.077 135.541C186.453 134.938 185.619 134.602 184.749 134.602C183.234 134.602 182.159 135.561 182.159 136.76C182.175 137.653 182.758 138.439 183.607 138.715L184.518 139.097C185.153 139.353 185.542 139.516 185.542 139.899C185.542 140.281 185.245 140.521 184.61 140.521C183.966 140.48 183.357 140.225 182.876 139.797L181.903 140.975C182.635 141.629 183.577 141.991 184.559 141.996Z" fill="white"/>
<path fill-rule="evenodd" clip-rule="evenodd" d="M190.485 141.996C192.189 141.996 193.213 140.955 193.213 139.766C193.243 138.868 192.66 138.067 191.8 137.811L190.91 137.459C190.275 137.209 189.825 137.046 189.825 136.663C189.825 136.281 190.168 136.071 190.68 136.071C191.217 136.076 191.739 136.27 192.148 136.617L193.003 135.541C192.379 134.938 191.55 134.602 190.68 134.602C189.16 134.602 188.085 135.561 188.085 136.76C188.1 137.653 188.684 138.439 189.533 138.715L190.449 139.097C191.079 139.353 191.473 139.516 191.473 139.899C191.473 140.281 191.176 140.521 190.541 140.521C189.897 140.48 189.282 140.225 188.801 139.797L187.829 140.975C188.561 141.629 189.503 141.991 190.485 141.996Z" fill="white"/>
<path fill-rule="evenodd" clip-rule="evenodd" d="M194.093 138.261C194.093 135.923 195.419 134.602 197.368 134.602C199.318 134.602 200.644 135.933 200.644 138.261C200.644 140.588 199.318 141.996 197.368 141.996C195.419 141.996 194.093 140.598 194.093 138.261ZM197.363 136.071C196.417 136.071 195.828 136.883 195.828 138.261C195.828 139.638 196.401 140.521 197.363 140.521C198.325 140.521 198.899 139.654 198.899 138.261C198.899 136.883 198.31 136.071 197.363 136.071Z" fill="white"/>
<path fill-rule="evenodd" clip-rule="evenodd" d="M204.998 141.996C205.894 142.016 206.754 141.629 207.332 140.945L206.431 139.873C206.088 140.271 205.592 140.506 205.065 140.521C204.057 140.521 203.402 139.669 203.402 138.281C203.402 136.893 204.164 136.071 205.085 136.071C205.556 136.087 206.001 136.286 206.324 136.622L207.225 135.53C206.657 134.943 205.874 134.612 205.055 134.602C203.238 134.602 201.646 135.964 201.646 138.337C201.646 140.751 203.182 141.996 204.998 141.996Z" fill="white"/>
<path fill-rule="evenodd" clip-rule="evenodd" d="M208.381 141.887H210.101V134.742H208.381V141.887Z" fill="white"/>
<path fill-rule="evenodd" clip-rule="evenodd" d="M215.116 140.225H213.002L212.588 141.863H210.837L213.058 134.719H215.105L217.321 141.863H215.515L215.116 140.225ZM214.635 138.301C214.44 137.592 214.261 136.74 214.067 136.01H214.026C213.857 136.76 213.662 137.592 213.483 138.301L213.324 138.903H214.788L214.635 138.301Z" fill="white"/>
<path fill-rule="evenodd" clip-rule="evenodd" d="M218.642 141.866H220.361V136.156H222.301V134.742H216.708V136.156H218.642V141.866Z" fill="white"/>
<path fill-rule="evenodd" clip-rule="evenodd" d="M223.406 141.887H225.126V134.742H223.406V141.887Z" fill="white"/>
<path fill-rule="evenodd" clip-rule="evenodd" d="M226.441 138.261C226.441 135.923 227.766 134.602 229.716 134.602C231.666 134.602 232.991 135.933 232.991 138.261C232.991 140.588 231.666 141.996 229.716 141.996C227.766 141.996 226.441 140.598 226.441 138.261ZM229.706 136.071C228.754 136.071 228.171 136.883 228.171 138.261C228.171 139.638 228.749 140.521 229.706 140.521C230.663 140.521 231.241 139.654 231.241 138.261C231.241 136.883 230.658 136.071 229.706 136.071Z" fill="white"/>
<path fill-rule="evenodd" clip-rule="evenodd" d="M234.316 141.887H235.949V139.519C235.949 138.661 235.806 137.682 235.729 136.886H235.78L236.481 138.447L238.247 141.887H239.997V134.742H238.359V137.095C238.385 137.978 238.462 138.86 238.595 139.733H238.543L237.842 138.151L236.067 134.742H234.316V141.887Z" fill="white"/>
<path fill-rule="evenodd" clip-rule="evenodd" d="M183.137 73.5879C188.607 75.0372 192.732 79.0943 192.717 86.2285C192.717 97.2462 183.336 102.176 171.566 102.176H167.544V98.6037H163.962V102.176H156.751V91.3878H160.333V87.8156H156.751V69.8422H160.333V66.27H156.751V48.2969H170.056C181.248 48.2969 190.189 51.2667 190.189 61.6312C190.189 66.4129 187.497 71.6334 183.137 73.2971V73.5879ZM174.79 55.4615H178.372V51.8893H174.79V55.4615ZM164.197 69.6738H169.575C175.097 69.6738 177.569 67.2855 177.569 63.5857C177.569 59.7481 175.026 58.1508 169.575 58.1508H164.197V69.6738ZM170.64 92.286C176.888 92.286 180.087 90.0355 180.112 85.4018C180.112 80.9824 176.986 79.2423 170.665 79.2423H164.197V92.286H170.665H170.64ZM181.955 73.4808H178.372V77.053H181.955V73.4808Z" fill="white"/>
<path fill-rule="evenodd" clip-rule="evenodd" d="M149.556 51.8893H153.158V48.2969H149.556V51.8893Z" fill="white"/>
<path fill-rule="evenodd" clip-rule="evenodd" d="M153.138 55.4833H156.74V51.8906H153.138V55.4833Z" fill="white"/>
<path fill-rule="evenodd" clip-rule="evenodd" d="M153.138 59.0809H156.74V55.4883H153.138V59.0809Z" fill="white"/>
<path fill-rule="evenodd" clip-rule="evenodd" d="M149.556 59.0809H153.158V55.4883H149.556V59.0809Z" fill="white"/>
<path fill-rule="evenodd" clip-rule="evenodd" d="M142.345 59.0809H145.948V55.4883H142.345V59.0809Z" fill="white"/>
<path fill-rule="evenodd" clip-rule="evenodd" d="M135.135 77.0536H138.737V73.4609H135.135V77.0536Z" fill="white"/>
<path fill-rule="evenodd" clip-rule="evenodd" d="M138.742 87.8387H142.345V84.2461H138.742V87.8387Z" fill="white"/>
<path fill-rule="evenodd" clip-rule="evenodd" d="M149.556 62.6747H153.158V59.082H149.556V62.6747Z" fill="white"/>
<path fill-rule="evenodd" clip-rule="evenodd" d="M153.138 66.2645H156.74V62.6719H153.138V66.2645Z" fill="white"/>
<path fill-rule="evenodd" clip-rule="evenodd" d="M153.138 69.8661H156.74V66.2734H153.138V69.8661Z" fill="white"/>
<path fill-rule="evenodd" clip-rule="evenodd" d="M153.138 73.4559H156.74V69.8633H153.138V73.4559Z" fill="white"/>
<path fill-rule="evenodd" clip-rule="evenodd" d="M149.556 73.4559H153.158V69.8633H149.556V73.4559Z" fill="white"/>
<path fill-rule="evenodd" clip-rule="evenodd" d="M145.953 73.4559H149.556V69.8633H145.953V73.4559Z" fill="white"/>
<path fill-rule="evenodd" clip-rule="evenodd" d="M149.556 77.0536H153.158V73.4609H149.556V77.0536Z" fill="white"/>
<path fill-rule="evenodd" clip-rule="evenodd" d="M142.345 69.8661H145.948V66.2734H142.345V69.8661Z" fill="white"/>
<path fill-rule="evenodd" clip-rule="evenodd" d="M138.742 66.2645H142.345V62.6719H138.742V66.2645Z" fill="white"/>
<path fill-rule="evenodd" clip-rule="evenodd" d="M138.742 73.4559H142.345V69.8633H138.742V73.4559Z" fill="white"/>
<path fill-rule="evenodd" clip-rule="evenodd" d="M142.345 80.6473H145.948V77.0547H142.345V80.6473Z" fill="white"/>
<path fill-rule="evenodd" clip-rule="evenodd" d="M142.345 96.2137H145.948V92.6211H142.345V96.2137Z" fill="white"/>
<path fill-rule="evenodd" clip-rule="evenodd" d="M153.138 80.6473H156.74V77.0547H153.138V80.6473Z" fill="white"/>
<path fill-rule="evenodd" clip-rule="evenodd" d="M153.138 84.2411H156.74V80.6484H153.138V84.2411Z" fill="white"/>
<path fill-rule="evenodd" clip-rule="evenodd" d="M149.556 84.2411H153.158V80.6484H149.556V84.2411Z" fill="white"/>
<path fill-rule="evenodd" clip-rule="evenodd" d="M149.556 87.8387H153.158V84.2461H149.556V87.8387Z" fill="white"/>
<path fill-rule="evenodd" clip-rule="evenodd" d="M145.953 87.8387H149.556V84.2461H145.953V87.8387Z" fill="white"/>
<path fill-rule="evenodd" clip-rule="evenodd" d="M153.138 87.8387H156.74V84.2461H153.138V87.8387Z" fill="white"/>
<path fill-rule="evenodd" clip-rule="evenodd" d="M153.138 91.4286H156.74V87.8359H153.138V91.4286Z" fill="white"/>
<path fill-rule="evenodd" clip-rule="evenodd" d="M149.556 95.0218H153.158V91.4297H149.556V95.0218Z" fill="white"/>
<path fill-rule="evenodd" clip-rule="evenodd" d="M153.138 98.62H156.74V95.0273H153.138V98.62Z" fill="white"/>
<path fill-rule="evenodd" clip-rule="evenodd" d="M149.556 102.214H153.158V98.6211H149.556V102.214Z" fill="white"/>
<path fill-rule="evenodd" clip-rule="evenodd" d="M145.953 102.214H149.556V98.6211H145.953V102.214Z" fill="white"/>
<path fill-rule="evenodd" clip-rule="evenodd" d="M48.173 111.806H49.6111V109.356H51.5761V111.806H52.9937V105.855H51.5505V108.121H49.5855V105.855H48.1475L48.173 111.806Z" fill="white"/>
<path fill-rule="evenodd" clip-rule="evenodd" d="M54.3552 105.855H55.7881V108.208L57.482 105.855H59.053L57.2466 108.239L59.3908 111.811H57.8197L56.4124 109.372L55.7625 110.249V111.811H54.3296L54.3552 105.855Z" fill="white"/>
<path fill-rule="evenodd" clip-rule="evenodd" d="M60.0303 105.855H62.1182C63.3515 105.855 64.3392 106.182 64.3392 107.325C64.3545 107.871 64.0526 108.376 63.5613 108.616V108.647C64.2113 108.79 64.6565 109.382 64.6155 110.045C64.6155 111.26 63.592 111.806 62.282 111.806H60.0303V105.855ZM62.9575 107.545C62.9575 107.136 62.676 106.942 62.0773 106.942H61.4836V108.213H62.0773C62.6862 108.213 62.9575 107.953 62.9575 107.545ZM63.2185 109.948C63.2185 109.433 62.8705 109.269 62.195 109.269H61.4836V110.709H62.195C62.8858 110.709 63.2185 110.464 63.2185 109.948Z" fill="white"/>
<path fill-rule="evenodd" clip-rule="evenodd" d="M68.418 110.45H66.6524L66.3096 111.817H64.8511L66.7036 105.867H68.418L70.2705 111.817H68.7352L68.418 110.45ZM68.0188 108.837C67.855 108.245 67.7066 107.536 67.5429 106.929H67.5122C67.3689 107.551 67.2051 108.245 67.0567 108.837L66.9288 109.348H68.1467L68.0188 108.837Z" fill="white"/>
<path fill-rule="evenodd" clip-rule="evenodd" d="M71.1918 111.765C71.4528 111.913 71.7803 111.913 72.0413 111.765C72.3023 111.612 72.4661 111.331 72.4661 111.03C72.4661 110.729 72.3023 110.448 72.0413 110.295C71.7803 110.146 71.4528 110.146 71.1918 110.295C70.9309 110.448 70.7671 110.729 70.7671 111.03C70.7671 111.331 70.9309 111.612 71.1918 111.765Z" fill="white"/>
<path fill-rule="evenodd" clip-rule="evenodd" d="M73.8404 111.229C74.2754 111.684 74.8793 111.934 75.5036 111.913C76.0512 111.929 76.5885 111.75 77.0081 111.403L76.4606 110.469C76.2405 110.663 75.9642 110.775 75.6674 110.785C75.1044 110.785 74.695 110.316 74.695 109.556C74.695 108.795 75.0942 108.316 75.7185 108.316C75.9437 108.321 76.1535 108.413 76.307 108.566L76.9723 107.652C76.609 107.326 76.1382 107.142 75.6418 107.142C75.0021 107.121 74.3777 107.361 73.9172 107.815C73.4617 108.27 73.2212 108.897 73.2417 109.535C73.1905 110.163 73.4105 110.775 73.8404 111.229Z" fill="white"/>
<path fill-rule="evenodd" clip-rule="evenodd" d="M79.1031 111.909C79.3436 111.914 79.5841 111.873 79.8093 111.787L79.6404 110.766C79.5892 110.771 79.5329 110.771 79.4818 110.766C79.3692 110.766 79.2259 110.679 79.2259 110.383V105.418H77.8032V110.327C77.8032 111.282 78.1256 111.919 79.1031 111.909Z" fill="white"/>
<path fill-rule="evenodd" clip-rule="evenodd" d="M81.8206 111.918C82.3836 111.918 82.9158 111.643 83.2433 111.183H83.2791L83.3815 111.806H84.5431V107.254H83.1154V110.239C82.967 110.52 82.6753 110.704 82.358 110.704C82.0151 110.704 81.8462 110.525 81.8462 109.892V107.254H80.4185V110.071C80.4185 111.204 80.8432 111.918 81.8206 111.918Z" fill="white"/>
<path fill-rule="evenodd" clip-rule="evenodd" d="M86.9689 111.317H86.9382L86.8256 111.828H85.71V105.418H87.1326V106.949L87.0968 107.628C87.4141 107.316 87.8337 107.138 88.2789 107.117C89.369 107.117 90.0649 108.031 90.0649 109.424C90.0649 110.996 89.1284 111.894 88.151 111.894C87.6904 111.879 87.2606 111.669 86.9689 111.317ZM87.8593 108.306C87.5727 108.317 87.3066 108.459 87.1326 108.689V110.485C87.3169 110.659 87.5625 110.756 87.8132 110.751C88.2431 110.751 88.5962 110.394 88.5962 109.48C88.5962 108.679 88.3659 108.306 87.8593 108.306Z" fill="white"/>
</g>
<defs>
<clipPath id="clip0_679_2502">
<rect width="241" height="142" fill="white"/>
</clipPath>
</defs>
</svg>
