<svg width="292" height="98" viewBox="0 0 292 98" fill="none" xmlns="http://www.w3.org/2000/svg">
<mask id="mask0_679_2824" style="mask-type:luminance" maskUnits="userSpaceOnUse" x="2" y="0" width="289" height="98">
<path d="M290.191 0H2.0332V98H290.191V0Z" fill="white"/>
</mask>
<g mask="url(#mask0_679_2824)">
<path d="M176.709 60.0154C176.709 63.268 176.14 66.3609 175.002 69.294C173.919 72.2268 172.375 74.8134 170.371 77.0527C168.367 79.2391 165.984 80.9985 163.221 82.3316C160.459 83.6115 157.425 84.2511 154.121 84.2511C152.063 84.2511 150.14 83.9581 148.353 83.3714C146.566 82.838 144.887 81.9582 143.315 80.7319V83.132H131.534V16.7422H143.397V39.1385C144.751 38.0722 146.349 37.219 148.19 36.5787C150.086 35.9391 152.063 35.6193 154.121 35.6193C156.992 35.6193 159.782 36.2589 162.49 37.5388C165.198 38.7657 167.608 40.4716 169.721 42.658C171.834 44.8443 173.512 47.4306 174.759 50.4163C176.059 53.3491 176.709 56.5495 176.709 60.0154ZM164.846 60.0147C164.846 57.8816 164.521 55.9357 163.871 54.1759C163.221 52.4161 162.3 50.9233 161.108 49.6966C159.971 48.4168 158.59 47.4567 156.965 46.8168C155.394 46.1236 153.634 45.7773 151.684 45.7773C150.438 45.7773 149.002 46.0439 147.378 46.5767C145.753 47.0565 144.399 47.6968 143.316 48.4961V70.7327C145.862 73.0259 148.732 74.1725 151.928 74.1725C153.77 74.1725 155.476 73.8256 157.046 73.1327C158.672 72.4392 160.053 71.4798 161.19 70.2531C162.328 68.9732 163.221 67.4801 163.871 65.7735C164.521 64.0141 164.846 62.0946 164.846 60.0147Z" fill="white"/>
<path d="M231.121 45.6568C231.556 46.2686 231.962 46.9328 232.34 47.6491C232.761 48.3348 233.176 49.058 233.584 49.8175L202.836 71.0136C203.968 71.861 205.201 72.5728 206.537 73.1494C207.886 73.6515 209.291 73.953 210.751 74.0533C212.18 74.1098 213.626 73.9589 215.091 73.6005C216.568 73.168 218.017 72.4624 219.437 71.4834C221.167 70.2907 222.696 68.8139 224.022 67.0531C225.317 65.2486 226.185 63.4464 226.624 61.6465L236.921 63.434C235.657 67.2354 234.033 70.4371 232.05 73.0413C230.08 75.571 227.676 77.8145 224.836 79.7719C221.952 81.76 218.872 83.1016 215.598 83.7964C212.368 84.4609 209.183 84.5399 206.046 84.0336C202.954 83.4966 200.02 82.3937 197.247 80.7254C194.442 79.0131 192.061 76.7813 190.104 74.0291C188.146 71.2776 186.845 68.333 186.201 65.1967C185.526 62.0166 185.484 58.8884 186.074 55.8129C186.664 52.7373 187.828 49.8192 189.567 47.0575C191.306 44.2966 193.596 41.9374 196.436 39.9797C199.142 38.1137 202.095 36.8273 205.294 36.1185C208.462 35.3668 211.622 35.2067 214.772 35.6389C217.923 36.0708 220.923 37.1275 223.772 38.8095C226.59 40.4474 229.04 42.7299 231.121 45.6568ZM218.462 48.9146C215.999 47.0324 213.278 46.0432 210.301 45.9472C207.337 45.7773 204.635 46.5332 202.194 48.2156C199.798 49.8672 198.174 52.0931 197.323 54.8936C196.44 57.65 196.476 60.4894 197.43 63.4121L218.462 48.9146Z" fill="white"/>
<path d="M289.062 83.1322H277.363V55.5364C277.363 53.8834 277.092 52.4438 276.55 51.2169C276.063 49.937 275.385 48.8972 274.519 48.0972C273.652 47.2439 272.65 46.6308 271.513 46.2571C270.429 45.8305 269.292 45.6175 268.1 45.6175C266.313 45.6175 264.552 45.9373 262.819 46.5775C261.085 47.1642 259.515 48.1243 258.106 49.4574V83.1322H246.325V36.8991H258.106V40.3385C258.811 39.6454 259.678 39.0057 260.707 38.419C261.736 37.8324 262.792 37.3528 263.876 36.9791C265.014 36.5525 266.15 36.2327 267.288 36.019C268.48 35.806 269.618 35.6992 270.701 35.6992C273.084 35.6992 275.358 36.0729 277.525 36.8194C279.746 37.5658 281.696 38.7124 283.375 40.2588C285.108 41.8056 286.489 43.8055 287.518 46.2577C288.548 48.711 289.062 51.617 289.062 54.9765L289.062 83.1322Z" fill="white"/>
<mask id="mask1_679_2824" style="mask-type:luminance" maskUnits="userSpaceOnUse" x="2" y="0" width="100" height="98">
<path d="M101.596 0H2.05029V98H101.596V0Z" fill="white"/>
</mask>
<g mask="url(#mask1_679_2824)">
<path fill-rule="evenodd" clip-rule="evenodd" d="M24.2757 59.7109C21.0318 61.3537 18.2572 63.7714 16.2036 66.7124C18.5293 84.0666 33.5724 97.4746 51.8151 97.5602H51.8307C70.0734 97.4746 85.117 84.0666 87.4421 66.7124C85.3881 63.7721 82.6141 61.3537 79.3702 59.7109C79.435 60.4727 79.4655 61.2424 79.4655 62.0205C79.4655 77.0841 67.1092 89.306 51.8307 89.3991H51.8151C36.5365 89.306 24.1804 77.0844 24.1804 62.0205C24.1804 61.2424 24.211 60.4727 24.2757 59.7109Z" fill="#FF872A"/>
<path fill-rule="evenodd" clip-rule="evenodd" d="M51.7993 0.441406L2.25586 26.8215L16.8134 34.5752C15.713 36.5869 14.9721 40.3978 14.9721 44.7852V46.3212C14.9721 52.8163 16.5959 58.0456 18.6075 58.0456H18.6926C22.1116 52.1323 28.5671 48.1447 35.9733 48.1447C42.4397 48.1447 48.1848 51.1859 51.8153 55.8932V55.9138L51.8209 55.903L51.8315 55.9138V55.8932C55.4623 51.1859 61.2074 48.1447 67.6735 48.1447C75.0794 48.1447 81.5349 52.1329 84.9543 58.0456H85.0389C87.0504 58.0456 88.6743 52.8157 88.6743 46.3212V44.7852C88.6743 40.3984 87.9327 36.5875 86.8327 34.5752L101.391 26.8215L51.8464 0.441406L51.8202 0.452026L51.7993 0.441406Z" fill="white"/>
</g>
</g>
</svg>
