<svg width="215" height="72" viewBox="0 0 215 72" fill="none" xmlns="http://www.w3.org/2000/svg">
<g clip-path="url(#clip0_924_454)">
<mask id="mask0_924_454" style="mask-type:luminance" maskUnits="userSpaceOnUse" x="1" y="0" width="213" height="72">
<path d="M213.65 0H1.94214V72H213.65V0Z" fill="white"/>
</mask>
<g mask="url(#mask0_924_454)">
<path d="M130.275 44.1012C130.275 46.4908 129.857 48.7631 129.021 50.9181C128.226 53.0728 127.091 54.9732 125.619 56.6184C124.146 58.2247 122.396 59.5173 120.366 60.4967C118.337 61.4371 116.108 61.907 113.681 61.907C112.168 61.907 110.756 61.6917 109.442 61.2607C108.129 60.8688 106.896 60.2224 105.741 59.3215V61.0848H97.0859V12.3086H105.801V28.763C106.796 27.9796 107.97 27.3528 109.323 26.8824C110.716 26.4124 112.168 26.1775 113.681 26.1775C115.79 26.1775 117.839 26.6474 119.829 27.5877C121.819 28.4892 123.589 29.7424 125.142 31.3488C126.694 32.9551 127.927 34.8552 128.843 37.0488C129.798 39.2035 130.275 41.5548 130.275 44.1012ZM121.56 44.1007C121.56 42.5335 121.321 41.1038 120.844 39.8109C120.366 38.518 119.69 37.4212 118.814 36.52C117.978 35.5797 116.964 34.8744 115.77 34.4042C114.615 33.8949 113.323 33.6405 111.89 33.6405C110.975 33.6405 109.92 33.8364 108.726 34.2278C107.533 34.5804 106.538 35.0508 105.742 35.638V51.9751C107.612 53.6599 109.721 54.5023 112.069 54.5023C113.422 54.5023 114.676 54.2474 115.83 53.7383C117.024 53.2288 118.038 52.5239 118.874 51.6227C119.71 50.6824 120.366 49.5854 120.844 48.3316C121.321 47.039 121.56 45.6288 121.56 44.1007Z" fill="white"/>
<path d="M170.251 33.5495C170.571 33.999 170.869 34.4869 171.147 35.0133C171.456 35.517 171.761 36.0484 172.061 36.6064L149.471 52.179C150.302 52.8016 151.208 53.3245 152.19 53.7481C153.181 54.117 154.213 54.3385 155.286 54.4122C156.336 54.4537 157.398 54.3429 158.474 54.0796C159.56 53.7618 160.624 53.2434 161.667 52.5241C162.939 51.6479 164.062 50.5629 165.036 49.2693C165.988 47.9435 166.625 46.6194 166.948 45.297L174.513 46.6103C173.584 49.4032 172.391 51.7554 170.934 53.6687C169.487 55.5273 167.72 57.1756 165.634 58.6137C163.515 60.0743 161.252 61.06 158.847 61.5705C156.473 62.0586 154.134 62.1167 151.829 61.7447C149.557 61.3501 147.402 60.5399 145.364 59.3142C143.304 58.0561 141.554 56.4165 140.116 54.3945C138.678 52.3729 137.722 50.2096 137.249 47.9053C136.753 45.5689 136.722 43.2707 137.155 41.0111C137.589 38.7515 138.445 36.6076 139.722 34.5786C141 32.5501 142.682 30.8169 144.768 29.3785C146.757 28.0077 148.926 27.0625 151.277 26.5417C153.604 25.9895 155.926 25.8719 158.24 26.1894C160.555 26.5067 162.759 27.2831 164.852 28.5189C166.923 29.7222 168.722 31.3991 170.251 33.5495ZM160.951 35.943C159.141 34.5601 157.142 33.8334 154.955 33.7629C152.777 33.6381 150.792 34.1934 148.999 35.4294C147.239 36.6429 146.046 38.2782 145.42 40.3357C144.771 42.3609 144.798 44.4469 145.499 46.5942L160.951 35.943Z" fill="white"/>
<path d="M212.821 61.0831H204.225V40.8086C204.225 39.5942 204.026 38.5365 203.628 37.6351C203.27 36.6948 202.772 35.9309 202.136 35.3431C201.499 34.7162 200.763 34.2657 199.927 33.9912C199.131 33.6777 198.296 33.5213 197.42 33.5213C196.107 33.5213 194.813 33.7562 193.54 34.2266C192.266 34.6577 191.112 35.363 190.078 36.3425V61.0831H181.422V27.1159H190.078V29.6429C190.595 29.1336 191.232 28.6637 191.988 28.2326C192.744 27.8016 193.52 27.4493 194.316 27.1747C195.152 26.8613 195.987 26.6263 196.823 26.4693C197.699 26.3129 198.535 26.2344 199.33 26.2344C201.081 26.2344 202.752 26.5089 204.345 27.0573C205.976 27.6057 207.409 28.4481 208.642 29.5843C209.916 30.7207 210.93 32.19 211.686 33.9917C212.443 35.7941 212.82 37.9291 212.82 40.3973L212.821 61.0831Z" fill="white"/>
<mask id="mask1_924_454" style="mask-type:luminance" maskUnits="userSpaceOnUse" x="1" y="0" width="75" height="73">
<path d="M75.0896 0.0117188H1.95416V72.0117H75.0896V0.0117188Z" fill="white"/>
</mask>
<g mask="url(#mask1_924_454)">
<path fill-rule="evenodd" clip-rule="evenodd" d="M18.284 43.8789C15.9007 45.0859 13.8622 46.8621 12.3535 49.0228C14.0621 61.7728 25.1142 71.6236 38.517 71.6865H38.5284C51.9312 71.6236 62.9837 61.7728 64.6919 49.0228C63.1829 46.8626 61.1448 45.0859 58.7616 43.8789C58.8091 44.4386 58.8316 45.004 58.8316 45.5757C58.8316 56.6428 49.7535 65.6222 38.5284 65.6906H38.517C27.2919 65.6222 18.214 56.6431 18.214 45.5757C18.214 45.004 18.2364 44.4386 18.284 43.8789Z" fill="#FF872A"/>
<path fill-rule="evenodd" clip-rule="evenodd" d="M38.5051 0.332031L2.10583 19.7133L12.8012 25.41C11.9927 26.8879 11.4484 29.6877 11.4484 32.9112V34.0396C11.4484 38.8116 12.6414 42.6535 14.1192 42.6535H14.1818C16.6937 38.309 21.4365 35.3793 26.8778 35.3793C31.6287 35.3793 35.8496 37.6137 38.5168 41.0721V41.0872L38.521 41.0793L38.5288 41.0872V41.0721C41.1963 37.6137 45.4171 35.3793 50.1678 35.3793C55.6088 35.3793 60.3516 38.3095 62.8638 42.6535H62.926C64.4038 42.6535 65.5969 38.8111 65.5969 34.0396V32.9112C65.5969 29.6882 65.0521 26.8884 64.2439 25.41L74.9395 19.7133L38.5397 0.332031L38.5205 0.339834L38.5051 0.332031Z" fill="white"/>
</g>
</g>
</g>
<defs>
<clipPath id="clip0_924_454">
<rect width="214.531" height="72" fill="white" transform="translate(0.44873)"/>
</clipPath>
</defs>
</svg>
