<svg width="319" height="114" viewBox="0 0 319 114" fill="none" xmlns="http://www.w3.org/2000/svg">
<path d="M48.7094 54.2019L26.5835 41.2963L48.7094 28.3906L70.9428 41.2963L48.7094 54.2019Z" fill="#3056D3"/>
<path d="M48.6017 15.4318L82.8646 35.2742L95.2165 28.1223L48.6017 1.07422L2.30908 28.1223L14.6072 35.2742L48.6017 15.4318Z" fill="#3056D3"/>
<path d="M45.8627 59.3128L45.7553 84.909L23.5757 72.2185V46.4609L45.8627 59.3128Z" fill="#3056D3"/>
<path d="M12.4056 78.7791L12.4593 39.148L0.0537037 31.9961L0 85.9848L46.5074 112.603L46.5611 98.2989L12.4056 78.7791Z" fill="#3056D3"/>
<path d="M51.7168 59.2062L73.8964 46.5156L74.0038 72.1119L51.7705 84.9637L51.7168 59.2062Z" fill="#3056D3"/>
<path d="M85.2815 78.5112L51.0186 98.2461V112.604L97.6871 85.7168L97.4723 32.0508L85.1204 39.0951L85.2815 78.5112Z" fill="#3056D3"/>
<path d="M143.582 101.829C139.845 101.829 136.471 100.993 133.459 99.3218C130.484 97.6506 128.126 95.3437 126.385 92.4012C124.679 89.4582 123.827 86.1522 123.827 82.4832C123.827 78.8137 124.679 75.5077 126.385 72.5652C128.126 69.6222 130.484 67.3153 133.459 65.6445C136.471 63.9732 139.845 63.1376 143.582 63.1376C146.34 63.1376 148.879 63.5915 151.202 64.4997C153.524 65.3719 155.501 66.6797 157.134 68.4235L155.392 70.2217C152.344 67.2066 148.444 65.6988 143.691 65.6988C140.498 65.6988 137.596 66.4253 134.984 67.8788C132.371 69.3318 130.321 71.3483 128.833 73.9273C127.346 76.4708 126.602 79.3224 126.602 82.4832C126.602 85.644 127.346 88.5139 128.833 91.0934C130.321 93.6364 132.371 95.6346 134.984 97.0876C137.596 98.5411 140.498 99.2675 143.691 99.2675C148.408 99.2675 152.308 97.7414 155.392 94.6898L157.134 96.488C155.501 98.2319 153.505 99.5579 151.147 100.466C148.825 101.374 146.303 101.829 143.582 101.829ZM174.66 72.8921C178.179 72.8921 180.883 73.8004 182.769 75.6168C184.656 77.3967 185.599 80.0311 185.599 83.5183V101.556H182.987V96.488C182.08 98.1593 180.755 99.467 179.014 100.412C177.272 101.32 175.186 101.774 172.755 101.774C169.598 101.774 167.095 101.029 165.245 99.5402C163.43 98.0506 162.523 96.0884 162.523 93.6546C162.523 91.2929 163.358 89.3856 165.027 87.9326C166.732 86.4431 169.435 85.6983 173.136 85.6983H182.878V83.4097C182.878 80.7576 182.152 78.7411 180.701 77.3607C179.286 75.9803 177.2 75.2899 174.442 75.2899C172.556 75.2899 170.742 75.6168 169 76.2707C167.294 76.9246 165.843 77.7968 164.646 78.8863L163.285 76.9246C164.701 75.6534 166.406 74.672 168.401 73.9821C170.397 73.2556 172.483 72.8921 174.66 72.8921ZM173.136 99.5402C175.494 99.5402 177.49 98.9949 179.123 97.9049C180.792 96.8149 182.044 95.2351 182.878 93.1642V87.8234H173.191C170.397 87.8234 168.365 88.3321 167.095 89.3495C165.862 90.3664 165.245 91.7656 165.245 93.5455C165.245 95.3985 165.934 96.8698 167.313 97.9598C168.691 99.0132 170.633 99.5402 173.136 99.5402ZM211.07 72.8921C213.719 72.8921 216.113 73.5095 218.254 74.7452C220.395 75.9803 222.064 77.6877 223.261 79.8676C224.494 82.0471 225.111 84.5357 225.111 87.333C225.111 90.1303 224.494 92.6373 223.261 94.8533C222.064 97.0332 220.395 98.7406 218.254 99.9757C216.113 101.175 213.719 101.774 211.07 101.774C208.566 101.774 206.299 101.193 204.267 100.031C202.235 98.8314 200.657 97.1784 199.532 95.0716V112.128H196.811V73.1099H199.423V79.8128C200.548 77.6333 202.126 75.9438 204.158 74.7452C206.226 73.5095 208.53 72.8921 211.07 72.8921ZM210.907 99.3218C213.083 99.3218 215.043 98.8131 216.785 97.7963C218.526 96.7789 219.886 95.362 220.866 93.5455C221.882 91.729 222.39 89.6582 222.39 87.333C222.39 85.0079 221.882 82.937 220.866 81.1206C219.886 79.3041 218.526 77.8872 216.785 76.8703C215.043 75.8529 213.083 75.3442 210.907 75.3442C208.73 75.3442 206.77 75.8529 205.029 76.8703C203.324 77.8872 201.963 79.3041 200.947 81.1206C199.967 82.937 199.477 85.0079 199.477 87.333C199.477 89.6582 199.967 91.729 200.947 93.5455C201.963 95.362 203.324 96.7789 205.029 97.7963C206.77 98.8131 208.73 99.3218 210.907 99.3218ZM233.536 73.1099H236.258V101.556H233.536V73.1099ZM234.897 66.1893C234.28 66.1893 233.754 65.9892 233.318 65.5897C232.883 65.1541 232.665 64.6271 232.665 64.0093C232.665 63.3919 232.883 62.865 233.318 62.4294C233.754 61.9933 234.28 61.775 234.897 61.775C235.514 61.775 236.039 61.9933 236.475 62.4294C236.911 62.8289 237.128 63.3376 237.128 63.955C237.128 64.5728 236.911 65.0993 236.475 65.5354C236.039 65.9715 235.514 66.1893 234.897 66.1893ZM261.823 99.7579C261.133 100.412 260.263 100.921 259.21 101.284C258.194 101.61 257.124 101.774 255.999 101.774C253.532 101.774 251.627 101.102 250.285 99.7579C248.942 98.3776 248.271 96.4702 248.271 94.0359V75.4534H243.046V73.1099H248.271V66.8975H250.992V73.1099H260.026V75.4534H250.992V93.7633C250.992 95.6163 251.428 97.0332 252.298 98.0141C253.205 98.9589 254.53 99.431 256.271 99.431C258.049 99.431 259.519 98.904 260.68 97.8506L261.823 99.7579ZM278.99 72.8921C282.509 72.8921 285.212 73.8004 287.099 75.6168C288.985 77.3967 289.929 80.0311 289.929 83.5183V101.556H287.317V96.488C286.41 98.1593 285.085 99.467 283.344 100.412C281.602 101.32 279.516 101.774 277.085 101.774C273.929 101.774 271.425 101.029 269.574 99.5402C267.76 98.0506 266.853 96.0884 266.853 93.6546C266.853 91.2929 267.688 89.3856 269.357 87.9326C271.062 86.4431 273.765 85.6983 277.466 85.6983H287.208V83.4097C287.208 80.7576 286.482 78.7411 285.031 77.3607C283.616 75.9803 281.53 75.2899 278.772 75.2899C276.885 75.2899 275.071 75.6168 273.33 76.2707C271.625 76.9246 270.173 77.7968 268.976 78.8863L267.615 76.9246C269.03 75.6534 270.735 74.672 272.731 73.9821C274.727 73.2556 276.813 72.8921 278.99 72.8921ZM277.466 99.5402C279.824 99.5402 281.82 98.9949 283.452 97.9049C285.121 96.8149 286.373 95.2351 287.208 93.1642V87.8234H277.52C274.727 87.8234 272.695 88.3321 271.425 89.3495C270.191 90.3664 269.574 91.7656 269.574 93.5455C269.574 95.3985 270.264 96.8698 271.642 97.9598C273.021 99.0132 274.962 99.5402 277.466 99.5402ZM301.141 61.1211H303.862V101.556H301.141V61.1211Z" fill="white"/>
<path d="M151.093 33.026H159.148V48.5025C157.079 50.0647 154.685 51.2636 151.964 52.0991C149.242 52.9347 146.503 53.3525 143.745 53.3525C139.791 53.3525 136.235 52.5169 133.079 50.8457C129.922 49.1383 127.437 46.795 125.622 43.816C123.845 40.8006 122.956 37.4037 122.956 33.6255C122.956 29.8472 123.845 26.4686 125.622 23.4895C127.437 20.4741 129.94 18.1308 133.133 16.4597C136.326 14.7522 139.918 13.8984 143.909 13.8984C147.247 13.8984 150.276 14.4616 152.997 15.5878C155.719 16.714 158.005 18.3488 159.855 20.4923L154.195 25.7238C151.474 22.8537 148.19 21.4187 144.344 21.4187C141.914 21.4187 139.755 21.9273 137.868 22.9446C135.981 23.9618 134.512 25.3968 133.459 27.2496C132.407 29.1024 131.881 31.2277 131.881 33.6255C131.881 35.9869 132.407 38.094 133.459 39.9468C134.512 41.7997 135.963 43.2528 137.813 44.3064C139.7 45.3236 141.841 45.8323 144.235 45.8323C146.775 45.8323 149.061 45.2873 151.093 44.1974V33.026ZM167.337 14.5524H184.644C188.78 14.5524 192.427 15.3517 195.583 16.9501C198.776 18.5123 201.243 20.7284 202.985 23.5985C204.763 26.4686 205.652 29.8108 205.652 33.6255C205.652 37.4401 204.763 40.7824 202.985 43.6524C201.243 46.5225 198.776 48.7568 195.583 50.3553C192.427 51.9175 188.78 52.6986 184.644 52.6986H167.337V14.5524ZM184.209 45.4508C188.018 45.4508 191.048 44.3972 193.298 42.2901C195.583 40.1467 196.726 37.2584 196.726 33.6255C196.726 29.9925 195.583 27.1224 193.298 25.0153C191.048 22.8719 188.018 21.8001 184.209 21.8001H176.154V45.4508H184.209ZM236.858 44.5244H219.171L215.796 52.6986H206.762L223.742 14.5524H232.45L249.485 52.6986H240.233L236.858 44.5244ZM234.083 37.8216L228.042 23.217L222.001 37.8216H234.083Z" fill="white"/>
</svg>
