<svg width="320" height="114" viewBox="0 0 320 114" fill="none" xmlns="http://www.w3.org/2000/svg">
<g clip-path="url(#clip0_924_478)">
<path d="M48.939 54.202L26.813 41.2963L48.939 28.3906L71.1723 41.2963L48.939 54.202Z" fill="#3056D3"/>
<path d="M48.8316 15.4318L83.0946 35.2742L95.4464 28.1223L48.8316 1.07422L2.539 28.1223L14.8372 35.2742L48.8316 15.4318Z" fill="#3056D3"/>
<path d="M46.0927 59.3128L45.9853 84.909L23.8057 72.2185V46.4609L46.0927 59.3128Z" fill="#3056D3"/>
<path d="M12.6353 78.7791L12.689 39.148L0.28344 31.9961L0.229736 85.9848L46.7371 112.603L46.7908 98.2989L12.6353 78.7791Z" fill="#3056D3"/>
<path d="M51.9464 59.2062L74.126 46.5156L74.2334 72.1119L52.0001 84.9637L51.9464 59.2062Z" fill="#3056D3"/>
<path d="M85.5112 78.5112L51.2482 98.2461V112.604L97.9167 85.7168L97.7019 32.0508L85.3501 39.0951L85.5112 78.5112Z" fill="#3056D3"/>
<path d="M143.812 101.829C140.075 101.829 136.701 100.993 133.689 99.3218C130.714 97.6506 128.356 95.3437 126.614 92.4012C124.909 89.4582 124.057 86.1522 124.057 82.4832C124.057 78.8137 124.909 75.5077 126.614 72.5652C128.356 69.6222 130.714 67.3153 133.689 65.6445C136.701 63.9732 140.075 63.1376 143.812 63.1376C146.57 63.1376 149.109 63.5915 151.431 64.4997C153.754 65.3719 155.731 66.6797 157.364 68.4235L155.622 70.2217C152.574 67.2066 148.674 65.6988 143.921 65.6988C140.728 65.6988 137.826 66.4253 135.213 67.8788C132.601 69.3318 130.551 71.3483 129.063 73.9273C127.576 76.4708 126.832 79.3224 126.832 82.4832C126.832 85.644 127.576 88.5139 129.063 91.0934C130.551 93.6364 132.601 95.6346 135.213 97.0876C137.826 98.541 140.728 99.2675 143.921 99.2675C148.638 99.2675 152.538 97.7414 155.622 94.6898L157.364 96.488C155.731 98.2319 153.735 99.5579 151.377 100.466C149.055 101.374 146.533 101.829 143.812 101.829ZM174.89 72.8921C178.409 72.8921 181.112 73.8004 182.999 75.6168C184.886 77.3967 185.829 80.0311 185.829 83.5183V101.556H183.217V96.488C182.309 98.1593 180.985 99.467 179.244 100.412C177.502 101.32 175.416 101.774 172.985 101.774C169.828 101.774 167.325 101.029 165.474 99.5402C163.66 98.0506 162.753 96.0884 162.753 93.6546C162.753 91.2929 163.588 89.3856 165.257 87.9326C166.962 86.4431 169.665 85.6983 173.366 85.6983H183.108V83.4097C183.108 80.7576 182.382 78.7411 180.931 77.3607C179.516 75.9803 177.429 75.2899 174.672 75.2899C172.786 75.2899 170.972 75.6168 169.23 76.2707C167.524 76.9246 166.073 77.7968 164.876 78.8863L163.515 76.9246C164.93 75.6534 166.636 74.672 168.631 73.9821C170.627 73.2556 172.713 72.8921 174.89 72.8921ZM173.366 99.5402C175.724 99.5402 177.72 98.9949 179.353 97.9049C181.022 96.8149 182.273 95.2351 183.108 93.1642V87.8234H173.42C170.627 87.8234 168.595 88.3321 167.325 89.3495C166.091 90.3664 165.474 91.7656 165.474 93.5455C165.474 95.3985 166.164 96.8698 167.543 97.9598C168.921 99.0132 170.863 99.5402 173.366 99.5402ZM211.3 72.8921C213.948 72.8921 216.343 73.5095 218.484 74.7452C220.624 75.9803 222.293 77.6877 223.491 79.8676C224.724 82.0471 225.341 84.5357 225.341 87.333C225.341 90.1303 224.724 92.6373 223.491 94.8533C222.293 97.0332 220.624 98.7406 218.484 99.9757C216.343 101.175 213.948 101.774 211.3 101.774C208.796 101.774 206.529 101.193 204.497 100.031C202.465 98.8314 200.887 97.1784 199.762 95.0716V112.128H197.041V73.1099H199.653V79.8128C200.778 77.6333 202.356 75.9438 204.388 74.7452C206.456 73.5095 208.76 72.8921 211.3 72.8921ZM211.137 99.3218C213.313 99.3218 215.273 98.8131 217.014 97.7963C218.755 96.7789 220.116 95.362 221.096 93.5455C222.112 91.729 222.62 89.6582 222.62 87.333C222.62 85.0079 222.112 82.937 221.096 81.1206C220.116 79.3041 218.755 77.8872 217.014 76.8703C215.273 75.8529 213.313 75.3442 211.137 75.3442C208.959 75.3442 207 75.8529 205.259 76.8703C203.554 77.8872 202.193 79.3041 201.177 81.1206C200.197 82.937 199.707 85.0079 199.707 87.333C199.707 89.6582 200.197 91.729 201.177 93.5455C202.193 95.362 203.554 96.7789 205.259 97.7963C207 98.8131 208.959 99.3218 211.137 99.3218ZM233.766 73.1099H236.487V101.556H233.766V73.1099ZM235.127 66.1893C234.51 66.1893 233.984 65.9892 233.548 65.5897C233.113 65.1541 232.895 64.6271 232.895 64.0093C232.895 63.3919 233.113 62.865 233.548 62.4294C233.984 61.9933 234.51 61.775 235.127 61.775C235.744 61.775 236.269 61.9933 236.705 62.4294C237.14 62.8289 237.358 63.3376 237.358 63.955C237.358 64.5728 237.14 65.0993 236.705 65.5354C236.269 65.9715 235.744 66.1893 235.127 66.1893ZM262.052 99.7579C261.363 100.412 260.492 100.921 259.44 101.284C258.424 101.61 257.354 101.774 256.229 101.774C253.762 101.774 251.857 101.102 250.515 99.7579C249.172 98.3776 248.501 96.4702 248.501 94.0359V75.4534H243.276V73.1099H248.501V66.8974H251.222V73.1099H260.256V75.4534H251.222V93.7633C251.222 95.6163 251.658 97.0332 252.528 98.0141C253.435 98.9589 254.76 99.431 256.501 99.431C258.279 99.431 259.749 98.904 260.91 97.8506L262.052 99.7579ZM279.219 72.8921C282.739 72.8921 285.442 73.8004 287.329 75.6168C289.215 77.3967 290.159 80.0311 290.159 83.5183V101.556H287.547V96.488C286.64 98.1593 285.315 99.467 283.574 100.412C281.832 101.32 279.746 101.774 277.315 101.774C274.158 101.774 271.655 101.029 269.804 99.5402C267.99 98.0506 267.083 96.0884 267.083 93.6546C267.083 91.2929 267.917 89.3856 269.587 87.9326C271.292 86.4431 273.995 85.6983 277.696 85.6983H287.438V83.4097C287.438 80.7576 286.712 78.7411 285.261 77.3607C283.845 75.9803 281.76 75.2899 279.002 75.2899C277.115 75.2899 275.301 75.6168 273.56 76.2707C271.854 76.9246 270.403 77.7968 269.206 78.8863L267.845 76.9246C269.26 75.6534 270.965 74.672 272.961 73.9821C274.956 73.2556 277.043 72.8921 279.219 72.8921ZM277.696 99.5402C280.054 99.5402 282.05 98.9949 283.682 97.9049C285.351 96.8149 286.603 95.2351 287.438 93.1642V87.8234H277.75C274.956 87.8234 272.925 88.3321 271.655 89.3495C270.421 90.3664 269.804 91.7656 269.804 93.5455C269.804 95.3985 270.494 96.8698 271.872 97.9598C273.251 99.0132 275.192 99.5402 277.696 99.5402ZM301.371 61.1211H304.092V101.556H301.371V61.1211Z" fill="white"/>
<path d="M151.322 33.026H159.377V48.5025C157.309 50.0647 154.915 51.2636 152.193 52.0991C149.472 52.9347 146.733 53.3525 143.975 53.3525C140.02 53.3525 136.465 52.5169 133.309 50.8457C130.152 49.1383 127.666 46.795 125.852 43.816C124.075 40.8006 123.185 37.4037 123.185 33.6255C123.185 29.8472 124.075 26.4686 125.852 23.4895C127.666 20.4741 130.17 18.1308 133.363 16.4597C136.556 14.7522 140.148 13.8984 144.138 13.8984C147.477 13.8984 150.506 14.4616 153.227 15.5878C155.948 16.714 158.235 18.3488 160.085 20.4923L154.425 25.7238C151.704 22.8537 148.42 21.4187 144.574 21.4187C142.143 21.4187 139.984 21.9273 138.098 22.9446C136.211 23.9618 134.741 25.3968 133.689 27.2496C132.637 29.1024 132.111 31.2277 132.111 33.6255C132.111 35.9869 132.637 38.094 133.689 39.9468C134.741 41.7997 136.193 43.2528 138.043 44.3064C139.93 45.3236 142.071 45.8323 144.465 45.8323C147.005 45.8323 149.291 45.2873 151.322 44.1974V33.026ZM167.567 14.5524H184.874C189.01 14.5524 192.657 15.3517 195.813 16.9501C199.006 18.5123 201.473 20.7284 203.215 23.5985C204.993 26.4686 205.882 29.8109 205.882 33.6255C205.882 37.4401 204.993 40.7824 203.215 43.6524C201.473 46.5225 199.006 48.7568 195.813 50.3553C192.657 51.9175 189.01 52.6986 184.874 52.6986H167.567V14.5524ZM184.439 45.4508C188.248 45.4508 191.278 44.3972 193.528 42.2901C195.813 40.1467 196.956 37.2584 196.956 33.6255C196.956 29.9925 195.813 27.1224 193.528 25.0153C191.278 22.8719 188.248 21.8001 184.439 21.8001H176.384V45.4508H184.439ZM237.088 44.5244H219.401L216.026 52.6986H206.992L223.972 14.5524H232.68L249.715 52.6986H240.462L237.088 44.5244ZM234.313 37.8216L228.272 23.217L222.231 37.8216H234.313Z" fill="white"/>
</g>
<defs>
<clipPath id="clip0_924_478">
<rect x="0.229736" width="319" height="114" rx="32" fill="white"/>
</clipPath>
</defs>
</svg>
