<svg width="229" height="48" viewBox="0 0 229 48" fill="none" xmlns="http://www.w3.org/2000/svg">
<g clip-path="url(#clip0_924_487)">
<path d="M131.791 29.8914C131.406 29.5063 131.213 28.9566 131.213 28.2424V0.496094H133.568V28.3287H149.84V30.4698H133.397C132.712 30.4698 132.176 30.2766 131.791 29.8914Z" fill="white"/>
<path d="M171.472 21.7341H157.984L154.687 30.4698H152.246L163.678 0.496094H164.792C165.478 0.496094 165.991 0.938688 166.334 1.82388L177.167 30.4698H174.727L171.472 21.7341ZM158.711 19.7221H170.744L164.749 3.66475H164.705L158.711 19.7221Z" fill="white"/>
<path d="M181.071 29.8692C180.671 29.4697 180.471 28.9423 180.471 28.2856V0.496094H192.932C195.302 0.496094 197.207 1.081 198.648 2.25211C200.09 3.42322 200.81 4.96513 200.81 6.87651V9.31666C200.81 10.4878 200.553 11.5649 200.04 12.5493C199.526 13.5337 198.842 14.2988 197.985 14.8406V14.8837C199.412 15.2257 200.555 15.9334 201.411 17.0026C202.268 18.0732 202.695 19.3227 202.695 20.7496V23.0619C202.695 25.2879 201.966 27.0805 200.511 28.4356C199.055 29.7922 197.114 30.4698 194.688 30.4698H182.655C182 30.4698 181.47 30.2701 181.073 29.8705L181.071 29.8692ZM193.788 14.3262C195.186 14.3262 196.314 13.8706 197.171 12.9553C198.027 12.0427 198.456 10.8285 198.456 9.31536V6.8752C198.456 5.61922 197.949 4.59172 196.937 3.7927C195.923 2.99368 194.588 2.59417 192.932 2.59417H182.826V14.3262H193.788ZM194.474 28.3287C196.244 28.3287 197.664 27.8508 198.734 26.8938C199.805 25.9381 200.34 24.66 200.34 23.0619V20.7496C200.34 19.4376 199.875 18.3735 198.948 17.5602C198.02 16.7467 196.8 16.3395 195.287 16.3395H182.826V28.3287H194.474Z" fill="white"/>
<path d="M208.352 28.5371C206.852 27.0239 206.103 24.9689 206.103 22.3709H208.415C208.415 24.3122 208.956 25.8463 210.042 26.9744C211.127 28.1024 212.595 28.6651 214.452 28.6651H219.248C221.046 28.6651 222.495 28.2512 223.593 27.4235C224.691 26.5958 225.243 25.5121 225.243 24.1687V21.2572C225.243 20.1722 224.843 19.244 224.045 18.4736C223.245 17.7034 222.132 17.2033 220.704 16.9748L213.039 15.6902C210.984 15.3481 209.379 14.6052 208.221 13.4642C207.065 12.3231 206.489 10.8947 206.489 9.18182V6.69858C206.489 4.72845 207.23 3.14477 208.715 1.94624C210.198 0.747702 212.153 0.148438 214.58 0.148438H219.419C221.73 0.148438 223.593 0.848232 225.006 2.24652C226.419 3.64611 227.126 5.487 227.126 7.77047H224.813C224.813 6.11498 224.321 4.78067 223.335 3.76623C222.351 2.75309 221.045 2.24652 219.417 2.24652H214.578C212.837 2.24652 211.445 2.65386 210.404 3.46725C209.361 4.28063 208.841 5.35905 208.841 6.69989V9.18312C208.841 10.3255 209.226 11.2812 209.997 12.0515C210.77 12.8218 211.853 13.3218 213.252 13.5503L220.874 14.8781C222.987 15.2489 224.634 15.9917 225.819 17.1041C227.004 18.2177 227.597 19.603 227.597 21.2572V24.1687C227.597 26.1676 226.839 27.7733 225.327 28.9862C223.815 30.2005 221.801 30.8063 219.291 30.8063H214.409C211.868 30.8063 209.849 30.0503 208.35 28.5371H208.352Z" fill="white"/>
<path d="M31.6735 1.62677C29.1368 0.540515 26.2475 0 23.0018 0H0.229736V41.3193C0.229736 43.2294 0.844669 44.774 2.07192 45.9555C3.29917 47.1396 4.89069 47.7297 6.84385 47.7297H23.2772C29.1851 47.7297 33.6646 46.2165 36.7091 43.1942C37.7315 42.1811 38.5814 41.0073 39.2603 39.6729L31.6735 1.62677ZM31.8668 29.4554C31.8668 32.7285 31.1161 35.2065 29.6173 36.8882C28.1158 38.5698 25.9106 39.4106 23.0018 39.4106H9.63912V8.31921H22.7302C25.4576 8.31921 27.6614 9.10257 29.3431 10.6706C31.0247 12.2386 31.8655 14.3184 31.8655 16.91L31.8668 29.4554Z" fill="white"/>
<path d="M124.699 8.18082V0H96.7376L96.5875 0.750714L88.9706 38.6415V47.7297H98.3788V29.1839H122.176V21.0005H98.3788V8.18082H124.699Z" fill="white"/>
<path d="M92.8494 0L88.9705 19.3018L84.3277 42.4107C83.9635 44.2281 83.2911 45.5716 82.3146 46.4346C81.3379 47.2975 80.0089 47.731 78.3259 47.731H74.3713L64.2125 15.0026H64.0741L53.7104 47.731H49.7557C48.21 47.731 46.9135 47.3446 45.8704 46.5703C44.8219 45.7987 44.096 44.4123 43.6886 42.4107L41.2708 30.2871L36.1111 4.39852L35.2349 0.00130559H44.7814L50.6449 33.8906H50.7807L60.6666 2.5224H64.0754C65.2114 2.5224 66.2009 2.81746 67.0417 3.4089C67.8826 4.00032 68.5302 5.06961 68.9859 6.61281L77.305 33.8187H77.4408L83.3043 0H92.8494Z" fill="white"/>
<path d="M153.876 35.6068C156.083 35.6068 158.052 36.2244 159.726 37.4412C160.977 38.3512 161.913 39.4845 162.738 40.4859C163.404 41.2914 164.093 42.1257 164.787 42.6295C165.221 42.9442 165.65 43.1532 166.335 43.1532C167.022 43.1532 167.453 42.9429 167.885 42.6283C168.579 42.123 169.266 41.29 169.932 40.4845C170.757 39.4845 171.695 38.3512 172.946 37.4398C174.621 36.223 176.589 35.6055 178.796 35.6055C181.002 35.6055 182.97 36.223 184.644 37.4398C185.897 38.3499 186.833 39.4831 187.658 40.4845C188.324 41.29 189.011 42.123 189.705 42.6283C190.139 42.9429 190.568 43.1532 191.255 43.1532C191.942 43.1532 192.371 42.9429 192.803 42.6283C193.499 42.123 194.186 41.29 194.852 40.4845C195.678 39.4845 196.614 38.3499 197.865 37.4412C199.539 36.2244 201.507 35.6068 203.714 35.6068C205.92 35.6068 207.888 36.2244 209.562 37.4412C210.815 38.3512 211.751 39.4845 212.576 40.4859C213.24 41.2914 213.929 42.1243 214.625 42.6295C215.058 42.9442 215.487 43.1544 216.174 43.1544C216.861 43.1544 217.29 42.9442 217.724 42.6295C218.42 42.1243 219.107 41.2914 219.773 40.4859C220.599 39.4857 221.535 38.3512 222.786 37.4412C224.063 36.5142 225.509 35.9346 227.102 35.7112V40.8213C227.102 40.8213 227.091 40.8292 227.087 40.8331C226.391 41.3383 225.704 42.1713 225.038 42.9769C224.211 43.977 223.275 45.1116 222.024 46.0215C220.349 47.2383 218.382 47.8558 216.176 47.8558C213.969 47.8558 212 47.2383 210.326 46.0215C209.075 45.1116 208.14 43.9783 207.314 42.9781C206.648 42.1713 205.959 41.3383 205.265 40.8331C204.833 40.5184 204.402 40.3083 203.717 40.3083C203.03 40.3083 202.599 40.5184 202.167 40.8331C201.473 41.3383 200.786 42.1713 200.121 42.9769C199.295 43.9783 198.359 45.1116 197.106 46.0215C195.431 47.2383 193.463 47.8558 191.256 47.8558C189.051 47.8558 187.083 47.2383 185.408 46.0215C184.155 45.1116 183.219 43.9783 182.394 42.9769C181.73 42.1713 181.043 41.3383 180.347 40.8331C179.913 40.5184 179.484 40.3083 178.797 40.3083C178.11 40.3083 177.681 40.5184 177.249 40.8331C176.553 41.3383 175.866 42.1713 175.2 42.9769C174.374 43.977 173.438 45.1116 172.188 46.0201C170.513 47.2371 168.545 47.8546 166.338 47.8546C164.132 47.8546 162.165 47.2371 160.49 46.0201C159.237 45.1102 158.301 43.977 157.476 42.9756C156.812 42.1701 156.123 41.3371 155.427 40.8318C154.994 40.5171 154.566 40.3069 153.879 40.3069C153.192 40.3069 152.763 40.5171 152.331 40.8318C151.637 41.3371 150.95 42.1687 150.284 42.9742C149.456 43.977 148.52 45.1102 147.269 46.0201C145.594 47.2371 143.626 47.8546 141.42 47.8546C139.214 47.8546 137.246 47.2371 135.571 46.0201C134.319 45.1102 133.383 43.977 132.558 42.9769C131.892 42.1713 131.205 41.3383 130.509 40.8331C130.504 40.8292 130.499 40.8253 130.493 40.8213V35.7112C132.086 35.9346 133.533 36.5128 134.81 37.4412C136.062 38.3512 136.998 39.4845 137.823 40.4859C138.488 41.2914 139.176 42.1243 139.872 42.6295C140.305 42.9442 140.733 43.1532 141.42 43.1532C142.107 43.1532 142.536 42.9429 142.968 42.6295C143.663 42.1243 144.351 41.2914 145.016 40.4859C145.842 39.4845 146.778 38.3512 148.03 37.4412C149.705 36.2244 151.673 35.6068 153.879 35.6068H153.876Z" fill="white"/>
</g>
<defs>
<clipPath id="clip0_924_487">
<rect width="228" height="48" fill="white" transform="translate(0.229736)"/>
</clipPath>
</defs>
</svg>
