<svg width="323" height="68" viewBox="0 0 323 68" fill="none" xmlns="http://www.w3.org/2000/svg">
<g clip-path="url(#clip0_682_563)">
<path d="M186.379 42.3425C185.833 41.7971 185.56 41.0182 185.56 40.0065V0.699219H188.896V40.1287H211.948V43.1619H188.654C187.683 43.1619 186.925 42.8882 186.379 42.3425Z" fill="white"/>
<path d="M242.592 30.7864H223.484L218.813 43.1619H215.356L231.551 0.699219H233.129C234.101 0.699219 234.827 1.32623 235.314 2.58025L250.661 43.1619H247.203L242.592 30.7864ZM224.515 27.9361H241.561L233.068 5.18815H233.006L224.515 27.9361Z" fill="white"/>
<path d="M256.192 42.3111C255.625 41.7452 255.342 40.9981 255.342 40.0677V0.699219H272.995C276.352 0.699219 279.051 1.52783 281.093 3.18691C283.135 4.84599 284.155 7.03036 284.155 9.73814V13.195C284.155 14.8541 283.792 16.38 283.065 17.7746C282.336 19.1692 281.367 20.253 280.154 21.0206V21.0816C282.175 21.5662 283.794 22.5688 285.007 24.0835C286.221 25.6001 286.826 27.3702 286.826 29.3917V32.6674C286.826 35.8209 285.794 38.3605 283.732 40.2802C281.669 42.2021 278.919 43.1619 275.483 43.1619H258.436C257.508 43.1619 256.758 42.8791 256.194 42.313L256.192 42.3111ZM274.208 20.2919C276.189 20.2919 277.787 19.6464 279 18.3498C280.213 17.057 280.821 15.3368 280.821 13.1932V9.73629C280.821 7.95699 280.103 6.50136 278.668 5.36942C277.232 4.23747 275.341 3.6715 272.995 3.6715H258.679V20.2919H274.208ZM275.179 40.1287C277.687 40.1287 279.699 39.4517 281.214 38.0959C282.731 36.7421 283.49 34.9314 283.49 32.6674V29.3917C283.49 27.533 282.831 26.0255 281.518 24.8733C280.203 23.721 278.475 23.144 276.331 23.144H258.679V40.1287H275.179Z" fill="white"/>
<path d="M294.84 40.4283C292.715 38.2846 291.654 35.3733 291.654 31.6928H294.929C294.929 34.443 295.696 36.6162 297.235 38.2144C298.771 39.8124 300.851 40.6095 303.482 40.6095H310.276C312.824 40.6095 314.876 40.0232 316.432 38.8507C317.987 37.6781 318.769 36.1428 318.769 34.2396V30.115C318.769 28.578 318.202 27.263 317.071 26.1716C315.939 25.0805 314.362 24.372 312.339 24.0483L301.48 22.2285C298.569 21.7438 296.295 20.6914 294.655 19.0749C293.016 17.4583 292.2 15.4349 292.2 13.0082V9.49031C292.2 6.69929 293.25 4.45574 295.354 2.75782C297.456 1.0599 300.224 0.210938 303.663 0.210938H310.518C313.793 0.210938 316.432 1.20231 318.434 3.18322C320.435 5.16597 321.436 7.7739 321.436 11.0088H318.159C318.159 8.66353 317.462 6.77326 316.066 5.33614C314.672 3.90086 312.821 3.18322 310.516 3.18322H303.661C301.193 3.18322 299.221 3.76029 297.747 4.91259C296.27 6.06487 295.532 7.59264 295.532 9.49216V13.0101C295.532 14.6285 296.079 15.9824 297.171 17.0736C298.265 18.1649 299.799 18.8733 301.782 19.1969L312.579 21.078C315.573 21.6033 317.907 22.6556 319.585 24.2315C321.264 25.8091 322.103 27.7716 322.103 30.115V34.2396C322.103 37.0714 321.03 39.3462 318.888 41.0645C316.746 42.7847 313.892 43.643 310.337 43.643H303.42C299.821 43.643 296.96 42.572 294.838 40.4283H294.84Z" fill="white"/>
<path d="M44.5453 2.30458C40.9517 0.765729 36.8586 0 32.2605 0H0V58.5357C0 61.2416 0.871154 63.4298 2.60975 65.1036C4.34837 66.7811 6.60301 67.6171 9.37 67.6171H32.6506C41.0201 67.6171 47.366 65.4734 51.6791 61.1917C53.1275 59.7565 54.3316 58.0937 55.2933 56.2033L44.5453 2.30458ZM44.8192 41.7284C44.8192 46.3654 43.7557 49.8759 41.6324 52.2582C39.5052 54.6406 36.3813 55.8316 32.2605 55.8316H13.33V11.7855H31.8756C35.7395 11.7855 38.8616 12.8953 41.2439 15.1167C43.6262 17.338 44.8173 20.2844 44.8173 23.9558L44.8192 41.7284Z" fill="white"/>
<path d="M176.332 11.5895V0H136.72L136.507 1.06351L125.716 54.7421V67.6171H139.045V41.3438H172.757V29.7506H139.045V11.5895H176.332Z" fill="white"/>
<path d="M131.212 0L125.717 27.3443L119.139 60.0818C118.623 62.6565 117.671 64.5598 116.287 65.7823C114.904 67.0049 113.021 67.619 110.637 67.619H105.034L90.6429 21.2536H90.4468L75.7649 67.619H70.1624C67.9726 67.619 66.1359 67.0716 64.6582 65.9747C63.1728 64.8816 62.1445 62.9174 61.5674 60.0818L58.1421 42.9067L50.8325 6.23124L49.5913 0.00184959H63.1154L71.4221 48.0116H71.6144L85.6194 3.5734H90.4487C92.0579 3.5734 93.4598 3.99141 94.6509 4.82927C95.8421 5.66712 96.7595 7.18195 97.4051 9.36815L109.191 47.9098H109.383L117.689 0H131.212Z" fill="white"/>
<path d="M217.666 50.4394C220.792 50.4394 223.582 51.3143 225.954 53.0381C227.726 54.3273 229.052 55.9328 230.221 57.3514C231.164 58.4925 232.139 59.6745 233.123 60.3882C233.737 60.8341 234.345 61.1301 235.316 61.1301C236.29 61.1301 236.899 60.8322 237.511 60.3865C238.495 59.6706 239.469 58.4906 240.412 57.3495C241.581 55.9328 242.909 54.3273 244.681 53.0362C247.055 51.3124 249.843 50.4375 252.969 50.4375C256.095 50.4375 258.883 51.3124 261.254 53.0362C263.028 54.3254 264.354 55.9308 265.523 57.3495C266.467 58.4906 267.44 59.6706 268.424 60.3865C269.038 60.8322 269.646 61.1301 270.619 61.1301C271.592 61.1301 272.2 60.8322 272.812 60.3865C273.798 59.6706 274.771 58.4906 275.715 57.3495C276.886 55.9328 278.212 54.3254 279.984 53.0381C282.355 51.3143 285.143 50.4394 288.269 50.4394C291.395 50.4394 294.183 51.3143 296.555 53.0381C298.329 54.3273 299.655 55.9328 300.824 57.3514C301.765 58.4925 302.74 59.6725 303.726 60.3882C304.341 60.8341 304.948 61.1318 305.922 61.1318C306.895 61.1318 307.503 60.8341 308.117 60.3882C309.103 59.6725 310.076 58.4925 311.019 57.3514C312.19 55.9345 313.516 54.3273 315.289 53.0381C317.097 51.7248 319.145 50.9037 321.402 50.5873V57.8265C321.402 57.8265 321.387 57.8378 321.381 57.8433C320.395 58.559 319.422 59.7391 318.478 60.8804C317.307 62.2971 315.981 63.9045 314.209 65.1935C311.835 66.9173 309.05 67.7922 305.924 67.7922C302.798 67.7922 300.008 66.9173 297.636 65.1935C295.864 63.9045 294.54 62.299 293.369 60.8821C292.426 59.7391 291.45 58.559 290.466 57.8433C289.854 57.3975 289.245 57.0998 288.273 57.0998C287.3 57.0998 286.69 57.3975 286.078 57.8433C285.094 58.559 284.121 59.7391 283.18 60.8804C282.009 62.299 280.683 63.9045 278.909 65.1935C276.535 66.9173 273.747 67.7922 270.621 67.7922C267.497 67.7922 264.709 66.9173 262.336 65.1935C260.561 63.9045 259.235 62.299 258.067 60.8804C257.125 59.7391 256.152 58.559 255.166 57.8433C254.552 57.3975 253.944 57.0998 252.971 57.0998C251.998 57.0998 251.39 57.3975 250.778 57.8433C249.792 58.559 248.819 59.7391 247.875 60.8804C246.704 62.2971 245.378 63.9045 243.608 65.1916C241.234 66.9156 238.446 67.7905 235.321 67.7905C232.195 67.7905 229.409 66.9156 227.035 65.1916C225.261 63.9026 223.935 62.2971 222.766 60.8785C221.825 59.7374 220.849 58.5573 219.863 57.8414C219.249 57.3956 218.644 57.0979 217.67 57.0979C216.697 57.0979 216.089 57.3956 215.477 57.8414C214.493 58.5573 213.52 59.7354 212.577 60.8766C211.404 62.2971 210.078 63.9026 208.306 65.1916C205.933 66.9156 203.146 67.7905 200.02 67.7905C196.894 67.7905 194.107 66.9156 191.734 65.1916C189.96 63.9026 188.634 62.2971 187.465 60.8804C186.521 59.7391 185.549 58.559 184.563 57.8433C184.555 57.8378 184.548 57.8323 184.541 57.8265V50.5873C186.797 50.9037 188.846 51.7229 190.655 53.0381C192.429 54.3273 193.755 55.9328 194.924 57.3514C195.865 58.4925 196.84 59.6725 197.826 60.3882C198.44 60.8341 199.047 61.1301 200.02 61.1301C200.993 61.1301 201.601 60.8322 202.213 60.3882C203.197 59.6725 204.172 58.4925 205.114 57.3514C206.284 55.9328 207.61 54.3273 209.384 53.0381C211.757 51.3143 214.544 50.4394 217.67 50.4394H217.666Z" fill="white"/>
</g>
<defs>
<clipPath id="clip0_682_563">
<rect width="323" height="68" fill="white"/>
</clipPath>
</defs>
</svg>
