<svg width="526" height="54" viewBox="0 0 526 54" fill="none" xmlns="http://www.w3.org/2000/svg">
<g clip-path="url(#clip0_684_714)">
<path d="M43.2605 30.8571H39.1474C38.1926 30.8571 37.4582 30.0857 37.4582 29.0829V24.9171C37.4582 23.9143 38.1926 23.1429 39.1474 23.1429H43.2605C44.2153 23.1429 44.9498 22.3714 44.9498 21.3686V9.4886C44.9498 8.48574 44.2153 7.71426 43.2605 7.71426H39.1474C38.1926 7.71426 37.4582 6.94286 37.4582 5.94V1.77429C37.4582 0.771427 36.7237 0 35.7689 0H1.68929C0.734472 0 0 0.771427 0 1.77429V21.3686C0 22.3714 0.734472 23.1429 1.68929 23.1429H5.80235C6.75716 23.1429 7.49167 23.9143 7.49167 24.9171V29.0829C7.49167 30.0857 6.75716 30.8571 5.80235 30.8571H1.68929C0.734472 30.8571 0 31.6286 0 32.6314V52.2257C0 53.2285 0.734472 54 1.68929 54H35.7689C36.7237 54 37.4582 53.2285 37.4582 52.2257V48.06C37.4582 47.0571 38.1926 46.2857 39.1474 46.2857H43.2605C44.2153 46.2857 44.9498 45.5143 44.9498 44.5114V32.6314C44.9498 31.6286 44.2153 30.8571 43.2605 30.8571ZM7.49167 46.2857V32.6314C7.49167 31.6286 8.22609 30.8571 9.1809 30.8571H35.7689C36.7237 30.8571 37.4582 31.6286 37.4582 32.6314V44.5114C37.4582 45.5143 36.7237 46.2857 35.7689 46.2857H7.49167ZM7.49167 21.3686V7.71426H35.7689C36.7237 7.71426 37.4582 8.48574 37.4582 9.4886V21.3686C37.4582 22.3714 36.7237 23.1429 35.7689 23.1429H9.1809C8.22609 23.1429 7.49167 22.3714 7.49167 21.3686ZM59.9233 46.2857V7.71426H88.2007C89.1556 7.71426 89.89 8.48574 89.89 9.4886V44.5114C89.89 45.5143 89.1556 46.2857 88.2007 46.2857H59.9233ZM52.4317 52.2257C52.4317 53.2285 53.1662 54 54.121 54H88.2007C89.1556 54 89.89 53.2285 89.89 52.2257V48.06C89.89 47.0571 90.6244 46.2857 91.5793 46.2857H95.6923C96.6472 46.2857 97.3816 45.5143 97.3816 44.5114V9.4886C97.3816 8.48574 96.6472 7.71426 95.6923 7.71426H91.5793C90.6244 7.71426 89.89 6.94286 89.89 5.94V1.77429C89.89 0.771427 89.1556 0 88.2007 0H54.121C53.1662 0 52.4317 0.771427 52.4317 1.77429V52.2257ZM112.355 1.77429V5.94C112.355 6.94286 111.62 7.71426 110.666 7.71426H106.553C105.598 7.71426 104.863 8.48574 104.863 9.4886V21.3686C104.863 22.3714 105.598 23.1429 106.553 23.1429H110.666C111.62 23.1429 112.355 23.9143 112.355 24.9171V29.0829C112.355 30.0857 111.62 30.8571 110.666 30.8571H106.553C105.598 30.8571 104.863 31.6286 104.863 32.6314V44.5114C104.863 45.5143 105.598 46.2857 106.553 46.2857H110.666C111.62 46.2857 112.355 47.0571 112.355 48.06V52.2257C112.355 53.2285 113.089 54 114.044 54H140.632C141.587 54 142.321 53.2285 142.321 52.2257V48.06C142.321 47.0571 142.321 46.2857 142.321 46.2857H140.632H114.044C113.089 46.2857 112.355 45.5143 112.355 44.5114V32.6314C112.355 31.6286 113.089 30.8571 114.044 30.8571H134.83V23.1429H114.044C113.089 23.1429 112.355 22.3714 112.355 21.3686V9.4886C112.355 8.48574 113.089 7.71426 114.044 7.71426H140.632C141.587 7.71426 142.321 7.71426 142.321 7.71426V5.94V1.77429C142.321 0.771427 141.587 0 140.632 0H114.044C113.089 0 112.355 0.771427 112.355 1.77429ZM179.259 46.2857H183.373C184.327 46.2857 185.062 47.0571 185.062 48.06V52.2257C185.062 53.2285 185.796 54 186.751 54H198.356C199.311 54 200.045 53.2285 200.045 52.2257V48.06C200.045 47.0571 200.78 46.2857 201.734 46.2857H205.847C206.801 46.2857 207.537 45.5143 207.537 44.5114V40.3457C207.537 39.3429 208.271 38.5714 209.226 38.5714H213.339C214.294 38.5714 215.028 37.8 215.028 36.7971V0H207.537V36.7971C207.537 37.8 206.801 38.5714 205.847 38.5714H201.734C200.78 38.5714 200.045 39.3429 200.045 40.3457V44.5114C200.045 45.5143 199.311 46.2857 198.356 46.2857H186.751C185.796 46.2857 185.062 45.5143 185.062 44.5114V40.3457C185.062 39.3429 184.327 38.5714 183.373 38.5714H179.259C178.305 38.5714 177.57 37.8 177.57 36.7971V0H170.078V36.7971C170.078 37.8 170.813 38.5714 171.767 38.5714H175.88C176.835 38.5714 177.57 39.3429 177.57 40.3457V44.5114C177.57 45.5143 178.305 46.2857 179.259 46.2857ZM258.279 23.1429H254.165C253.211 23.1429 252.476 22.3714 252.476 21.3686V17.2029C252.476 16.2 251.741 15.4286 250.786 15.4286H231.69C230.735 15.4286 230.001 16.2 230.001 17.2029V21.3686C230.001 22.3714 229.267 23.1429 228.312 23.1429H224.199C223.244 23.1429 222.509 23.9143 222.509 24.9171V44.5114C222.509 45.5143 223.244 46.2857 224.199 46.2857H228.312C229.267 46.2857 230.001 47.0571 230.001 48.06V52.2257C230.001 53.2285 230.735 54 231.69 54H259.968V46.2857H231.69C230.735 46.2857 230.001 45.5143 230.001 44.5114V24.9171C230.001 23.9143 230.735 23.1429 231.69 23.1429H250.786C251.741 23.1429 252.476 23.9143 252.476 24.9171V29.0829C252.476 30.0857 251.741 30.8571 250.786 30.8571H233.747V38.5714H250.786C251.741 38.5714 252.476 37.8 252.476 36.7971V32.6314C252.476 31.6286 253.211 30.8571 254.165 30.8571H258.279C259.233 30.8571 259.968 30.0857 259.968 29.0829V24.9171C259.968 23.9143 259.233 23.1429 258.279 23.1429ZM274.974 17.2029V21.3686C274.974 22.3714 274.24 23.1429 273.285 23.1429H269.172C268.217 23.1429 267.482 23.9143 267.482 24.9171V54H274.974V24.9171C274.974 23.9143 275.708 23.1429 276.663 23.1429H295.759C296.714 23.1429 297.449 23.9143 297.449 24.9171V54H304.94V24.9171C304.94 23.9143 304.205 23.1429 303.251 23.1429H299.138C298.183 23.1429 297.449 22.3714 297.449 21.3686V17.2029C297.449 16.2 296.714 15.4286 295.759 15.4286H276.663C275.708 15.4286 274.974 16.2 274.974 17.2029ZM321.635 54H346.166V46.2857H321.635C320.68 46.2857 319.946 45.5143 319.946 44.5114V24.9171C319.946 23.9143 320.68 23.1429 321.635 23.1429H338.675V15.4286H321.635C320.68 15.4286 319.946 14.6571 319.946 13.6543V0H312.454V13.6543C312.454 14.6571 313.188 15.4286 314.143 15.4286H318.256C319.211 15.4286 319.946 16.2 319.946 17.2029V21.3686C319.946 22.3714 319.211 23.1429 318.256 23.1429H314.143C313.188 23.1429 312.454 23.9143 312.454 24.9171V44.5114C312.454 45.5143 313.188 46.2857 314.143 46.2857H318.256C319.211 46.2857 319.946 47.0571 319.946 48.06V52.2257C319.946 53.2285 320.68 54 321.635 54ZM383.592 52.2257V48.06C383.592 47.0571 384.326 46.2857 385.281 46.2857H389.394C390.348 46.2857 391.083 45.5143 391.083 44.5114V15.4286H383.592V44.5114C383.592 45.5143 382.856 46.2857 381.902 46.2857H362.805C361.85 46.2857 361.116 45.5143 361.116 44.5114V15.4286H353.624V44.5114C353.624 45.5143 354.359 46.2857 355.314 46.2857H359.427C360.382 46.2857 361.116 47.0571 361.116 48.06V52.2257C361.116 53.2285 361.85 54 362.805 54H381.902C382.856 54 383.592 53.2285 383.592 52.2257ZM406.089 17.2029V21.3686C406.089 22.3714 405.355 23.1429 404.4 23.1429H400.287C399.332 23.1429 398.597 23.9143 398.597 24.9171V54H406.089V24.9171C406.089 23.9143 406.823 23.1429 407.778 23.1429H426.875C427.829 23.1429 428.564 23.9143 428.564 24.9171V30.8571H436.055V24.9171C436.055 23.9143 435.32 23.1429 434.366 23.1429H430.253C429.298 23.1429 428.564 22.3714 428.564 21.3686V17.2029C428.564 16.2 427.829 15.4286 426.875 15.4286H407.778C406.823 15.4286 406.089 16.2 406.089 17.2029ZM479.338 23.1429H475.225C474.27 23.1429 473.535 22.3714 473.535 21.3686V17.2029C473.535 16.2 472.801 15.4286 471.846 15.4286H452.75C451.795 15.4286 451.061 16.2 451.061 17.2029V21.3686C451.061 22.3714 450.326 23.1429 449.371 23.1429H445.258C444.303 23.1429 443.569 23.9143 443.569 24.9171V44.5114C443.569 45.5143 444.303 46.2857 445.258 46.2857H449.371C450.326 46.2857 451.061 47.0571 451.061 48.06V52.2257C451.061 53.2285 451.795 54 452.75 54H481.027V46.2857H452.75C451.795 46.2857 451.061 45.5143 451.061 44.5114V24.9171C451.061 23.9143 451.795 23.1429 452.75 23.1429H471.846C472.801 23.1429 473.535 23.9143 473.535 24.9171V29.0829C473.535 30.0857 472.801 30.8571 471.846 30.8571H454.806V38.5714H471.846C472.801 38.5714 473.535 37.8 473.535 36.7971V32.6314C473.535 31.6286 474.27 30.8571 475.225 30.8571H479.338C480.293 30.8571 481.027 30.0857 481.027 29.0829V24.9171C481.027 23.9143 480.293 23.1429 479.338 23.1429ZM496.034 17.2029V21.3686C496.034 22.3714 495.299 23.1429 494.344 23.1429H490.231C489.276 23.1429 488.542 23.9143 488.542 24.9171V29.0829C488.542 30.0857 489.276 30.8571 490.231 30.8571H494.344C495.299 30.8571 496.034 31.6286 496.034 32.6314V36.7971C496.034 37.8 496.768 38.5714 497.723 38.5714H516.819C517.774 38.5714 518.508 39.3429 518.508 40.3457V44.5114C518.508 45.5143 517.774 46.2857 516.819 46.2857H488.542V54H516.819C517.774 54 518.508 53.2285 518.508 52.2257V48.06C518.508 47.0571 519.243 46.2857 520.198 46.2857H524.311C525.264 46.2857 526 45.5143 526 44.5114V40.3457C526 39.3429 525.264 38.5714 524.311 38.5714H520.198C519.243 38.5714 518.508 37.8 518.508 36.7971V32.6314C518.508 31.6286 517.774 30.8571 516.819 30.8571H497.723C496.768 30.8571 496.034 30.0857 496.034 29.0829V24.9171C496.034 23.9143 496.768 23.1429 497.723 23.1429H526V15.4286H497.723C496.768 15.4286 496.034 16.2 496.034 17.2029Z" fill="white"/>
</g>
<defs>
<clipPath id="clip0_684_714">
<rect width="526" height="54" fill="white"/>
</clipPath>
</defs>
</svg>
