<svg width="350" height="36" viewBox="0 0 350 36" fill="none" xmlns="http://www.w3.org/2000/svg">
<g clip-path="url(#clip0_924_499)">
<path d="M28.7855 20.5675H26.0487C25.4133 20.5675 24.9247 20.0542 24.9247 19.3869V16.615C24.9247 15.9477 25.4133 15.4344 26.0487 15.4344H28.7855C29.4208 15.4344 29.9096 14.9211 29.9096 14.2538V6.34887C29.9096 5.68156 29.4208 5.16822 28.7855 5.16822H26.0487C25.4133 5.16822 24.9247 4.65493 24.9247 3.98763V1.21577C24.9247 0.548463 24.4359 0.0351562 23.8006 0.0351562H1.12405C0.488717 0.0351562 0 0.548463 0 1.21577V14.2538C0 14.9211 0.488717 15.4344 1.12405 15.4344H3.86088C4.49621 15.4344 4.98495 15.9477 4.98495 16.615V19.3869C4.98495 20.0542 4.49621 20.5675 3.86088 20.5675H1.12405C0.488717 20.5675 0 21.0808 0 21.7481V34.7861C0 35.4534 0.488717 35.9667 1.12405 35.9667H23.8006C24.4359 35.9667 24.9247 35.4534 24.9247 34.7861V32.0142C24.9247 31.3469 25.4133 30.8337 26.0487 30.8337H28.7855C29.4208 30.8337 29.9096 30.3203 29.9096 29.653V21.7481C29.9096 21.0808 29.4208 20.5675 28.7855 20.5675ZM4.98495 30.8337V21.7481C4.98495 21.0808 5.47363 20.5675 6.10896 20.5675H23.8006C24.4359 20.5675 24.9247 21.0808 24.9247 21.7481V29.653C24.9247 30.3203 24.4359 30.8337 23.8006 30.8337H4.98495ZM4.98495 14.2538V5.16822H23.8006C24.4359 5.16822 24.9247 5.68156 24.9247 6.34887V14.2538C24.9247 14.9211 24.4359 15.4344 23.8006 15.4344H6.10896C5.47363 15.4344 4.98495 14.9211 4.98495 14.2538ZM39.8729 30.8337V5.16822H58.6887C59.3241 5.16822 59.8127 5.68156 59.8127 6.34887V29.653C59.8127 30.3203 59.3241 30.8337 58.6887 30.8337H39.8729ZM34.888 34.7861C34.888 35.4534 35.3767 35.9667 36.0121 35.9667H58.6887C59.3241 35.9667 59.8127 35.4534 59.8127 34.7861V32.0142C59.8127 31.3469 60.3014 30.8337 60.9368 30.8337H63.6736C64.309 30.8337 64.7976 30.3203 64.7976 29.653V6.34887C64.7976 5.68156 64.309 5.16822 63.6736 5.16822H60.9368C60.3014 5.16822 59.8127 4.65493 59.8127 3.98763V1.21577C59.8127 0.548463 59.3241 0.0351562 58.6887 0.0351562H36.0121C35.3767 0.0351562 34.888 0.548463 34.888 1.21577V34.7861ZM74.7608 1.21577V3.98763C74.7608 4.65493 74.2722 5.16822 73.6368 5.16822H70.9C70.2646 5.16822 69.7759 5.68156 69.7759 6.34887V14.2538C69.7759 14.9211 70.2646 15.4344 70.9 15.4344H73.6368C74.2722 15.4344 74.7608 15.9477 74.7608 16.615V19.3869C74.7608 20.0542 74.2722 20.5675 73.6368 20.5675H70.9C70.2646 20.5675 69.7759 21.0808 69.7759 21.7481V29.653C69.7759 30.3203 70.2646 30.8337 70.9 30.8337H73.6368C74.2722 30.8337 74.7608 31.3469 74.7608 32.0142V34.7861C74.7608 35.4534 75.2495 35.9667 75.8849 35.9667H93.5764C94.2118 35.9667 94.7005 35.4534 94.7005 34.7861V32.0142C94.7005 31.3469 94.7005 30.8337 94.7005 30.8337H93.5764H75.8849C75.2495 30.8337 74.7608 30.3203 74.7608 29.653V21.7481C74.7608 21.0808 75.2495 20.5675 75.8849 20.5675H89.7156V15.4344H75.8849C75.2495 15.4344 74.7608 14.9211 74.7608 14.2538V6.34887C74.7608 5.68156 75.2495 5.16822 75.8849 5.16822H93.5764C94.2118 5.16822 94.7005 5.16822 94.7005 5.16822V3.98763V1.21577C94.7005 0.548463 94.2118 0.0351562 93.5764 0.0351562H75.8849C75.2495 0.0351562 74.7608 0.548463 74.7608 1.21577ZM119.279 30.8337H122.016C122.651 30.8337 123.14 31.3469 123.14 32.0142V34.7861C123.14 35.4534 123.629 35.9667 124.264 35.9667H131.986C132.621 35.9667 133.11 35.4534 133.11 34.7861V32.0142C133.11 31.3469 133.599 30.8337 134.234 30.8337H136.971C137.605 30.8337 138.095 30.3203 138.095 29.653V26.8812C138.095 26.2139 138.583 25.7005 139.219 25.7005H141.956C142.591 25.7005 143.08 25.1873 143.08 24.5199V0.0351562H138.095V24.5199C138.095 25.1873 137.605 25.7005 136.971 25.7005H134.234C133.599 25.7005 133.11 26.2139 133.11 26.8812V29.653C133.11 30.3203 132.621 30.8337 131.986 30.8337H124.264C123.629 30.8337 123.14 30.3203 123.14 29.653V26.8812C123.14 26.2139 122.651 25.7005 122.016 25.7005H119.279C118.644 25.7005 118.155 25.1873 118.155 24.5199V0.0351562H113.17V24.5199C113.17 25.1873 113.659 25.7005 114.294 25.7005H117.031C117.666 25.7005 118.155 26.2139 118.155 26.8812V29.653C118.155 30.3203 118.644 30.8337 119.279 30.8337ZM171.858 15.4344H169.121C168.486 15.4344 167.997 14.9211 167.997 14.2538V11.4819C167.997 10.8146 167.508 10.3013 166.873 10.3013H154.167C153.531 10.3013 153.042 10.8146 153.042 11.4819V14.2538C153.042 14.9211 152.554 15.4344 151.918 15.4344H149.182C148.546 15.4344 148.058 15.9477 148.058 16.615V29.653C148.058 30.3203 148.546 30.8337 149.182 30.8337H151.918C152.554 30.8337 153.042 31.3469 153.042 32.0142V34.7861C153.042 35.4534 153.531 35.9667 154.167 35.9667H172.983V30.8337H154.167C153.531 30.8337 153.042 30.3203 153.042 29.653V16.615C153.042 15.9477 153.531 15.4344 154.167 15.4344H166.873C167.508 15.4344 167.997 15.9477 167.997 16.615V19.3869C167.997 20.0542 167.508 20.5675 166.873 20.5675H155.535V25.7005H166.873C167.508 25.7005 167.997 25.1873 167.997 24.5199V21.7481C167.997 21.0808 168.486 20.5675 169.121 20.5675H171.858C172.493 20.5675 172.983 20.0542 172.983 19.3869V16.615C172.983 15.9477 172.493 15.4344 171.858 15.4344ZM182.967 11.4819V14.2538C182.967 14.9211 182.479 15.4344 181.843 15.4344H179.107C178.471 15.4344 177.983 15.9477 177.983 16.615V35.9667H182.967V16.615C182.967 15.9477 183.456 15.4344 184.092 15.4344H196.798C197.433 15.4344 197.922 15.9477 197.922 16.615V35.9667H202.907V16.615C202.907 15.9477 202.417 15.4344 201.783 15.4344H199.046C198.411 15.4344 197.922 14.9211 197.922 14.2538V11.4819C197.922 10.8146 197.433 10.3013 196.798 10.3013H184.092C183.456 10.3013 182.967 10.8146 182.967 11.4819ZM214.016 35.9667H230.339V30.8337H214.016C213.38 30.8337 212.891 30.3203 212.891 29.653V16.615C212.891 15.9477 213.38 15.4344 214.016 15.4344H225.354V10.3013H214.016C213.38 10.3013 212.891 9.788 212.891 9.12069V0.0351562H207.907V9.12069C207.907 9.788 208.395 10.3013 209.031 10.3013H211.767C212.403 10.3013 212.891 10.8146 212.891 11.4819V14.2538C212.891 14.9211 212.403 15.4344 211.767 15.4344H209.031C208.395 15.4344 207.907 15.9477 207.907 16.615V29.653C207.907 30.3203 208.395 30.8337 209.031 30.8337H211.767C212.403 30.8337 212.891 31.3469 212.891 32.0142V34.7861C212.891 35.4534 213.38 35.9667 214.016 35.9667ZM255.242 34.7861V32.0142C255.242 31.3469 255.73 30.8337 256.366 30.8337H259.102C259.737 30.8337 260.226 30.3203 260.226 29.653V10.3013H255.242V29.653C255.242 30.3203 254.752 30.8337 254.117 30.8337H241.41C240.775 30.8337 240.286 30.3203 240.286 29.653V10.3013H235.301V29.653C235.301 30.3203 235.79 30.8337 236.425 30.8337H239.162C239.798 30.8337 240.286 31.3469 240.286 32.0142V34.7861C240.286 35.4534 240.775 35.9667 241.41 35.9667H254.117C254.752 35.9667 255.242 35.4534 255.242 34.7861ZM270.211 11.4819V14.2538C270.211 14.9211 269.723 15.4344 269.087 15.4344H266.35C265.715 15.4344 265.226 15.9477 265.226 16.615V35.9667H270.211V16.615C270.211 15.9477 270.7 15.4344 271.335 15.4344H284.042C284.677 15.4344 285.166 15.9477 285.166 16.615V20.5675H290.151V16.615C290.151 15.9477 289.662 15.4344 289.027 15.4344H286.29C285.655 15.4344 285.166 14.9211 285.166 14.2538V11.4819C285.166 10.8146 284.677 10.3013 284.042 10.3013H271.335C270.7 10.3013 270.211 10.8146 270.211 11.4819ZM318.951 15.4344H316.214C315.579 15.4344 315.09 14.9211 315.09 14.2538V11.4819C315.09 10.8146 314.601 10.3013 313.966 10.3013H301.259C300.624 10.3013 300.135 10.8146 300.135 11.4819V14.2538C300.135 14.9211 299.647 15.4344 299.011 15.4344H296.275C295.639 15.4344 295.15 15.9477 295.15 16.615V29.653C295.15 30.3203 295.639 30.8337 296.275 30.8337H299.011C299.647 30.8337 300.135 31.3469 300.135 32.0142V34.7861C300.135 35.4534 300.624 35.9667 301.259 35.9667H320.075V30.8337H301.259C300.624 30.8337 300.135 30.3203 300.135 29.653V16.615C300.135 15.9477 300.624 15.4344 301.259 15.4344H313.966C314.601 15.4344 315.09 15.9477 315.09 16.615V19.3869C315.09 20.0542 314.601 20.5675 313.966 20.5675H302.628V25.7005H313.966C314.601 25.7005 315.09 25.1873 315.09 24.5199V21.7481C315.09 21.0808 315.579 20.5675 316.214 20.5675H318.951C319.586 20.5675 320.075 20.0542 320.075 19.3869V16.615C320.075 15.9477 319.586 15.4344 318.951 15.4344ZM330.06 11.4819V14.2538C330.06 14.9211 329.572 15.4344 328.936 15.4344H326.2C325.564 15.4344 325.075 15.9477 325.075 16.615V19.3869C325.075 20.0542 325.564 20.5675 326.2 20.5675H328.936C329.572 20.5675 330.06 21.0808 330.06 21.7481V24.5199C330.06 25.1873 330.549 25.7005 331.184 25.7005H343.891C344.526 25.7005 345.015 26.2139 345.015 26.8812V29.653C345.015 30.3203 344.526 30.8337 343.891 30.8337H325.075V35.9667H343.891C344.526 35.9667 345.015 35.4534 345.015 34.7861V32.0142C345.015 31.3469 345.504 30.8337 346.139 30.8337H348.876C349.51 30.8337 350 30.3203 350 29.653V26.8812C350 26.2139 349.51 25.7005 348.876 25.7005H346.139C345.504 25.7005 345.015 25.1873 345.015 24.5199V21.7481C345.015 21.0808 344.526 20.5675 343.891 20.5675H331.184C330.549 20.5675 330.06 20.0542 330.06 19.3869V16.615C330.06 15.9477 330.549 15.4344 331.184 15.4344H350V10.3013H331.184C330.549 10.3013 330.06 10.8146 330.06 11.4819Z" fill="white"/>
</g>
<defs>
<clipPath id="clip0_924_499">
<rect width="350" height="35.9316" fill="white" transform="translate(0 0.0351562)"/>
</clipPath>
</defs>
</svg>
