<svg width="316" height="62" viewBox="0 0 316 62" fill="none" xmlns="http://www.w3.org/2000/svg">
<path d="M78.52 49.1153L75.4378 50.4561L80.9464 31.697H86.8579L77.3958 61.7189H71.6154L75.0817 50.7959L77.7611 52.9673H71.3343L64.9263 31.6875H70.8846L75.447 49.1153H78.5294H78.52Z" fill="white"/>
<path d="M101.192 53.9096L101.398 48.4717L101.239 47.9714V41.0135L101.22 40.0127C101.22 38.5588 100.827 37.5013 100.03 36.8217C99.2527 36.142 97.9693 35.802 96.1893 35.802C94.6716 35.802 93.2475 36.0097 91.9172 36.4158C90.5963 36.8122 89.3783 37.2654 88.2542 37.7941L88.7506 33.1681C89.4064 32.8188 90.1559 32.4978 90.9991 32.1957C91.8516 31.8747 92.8072 31.6197 93.8566 31.4215C94.9058 31.2233 96.0393 31.1289 97.2479 31.1289C99.0466 31.1289 100.564 31.3459 101.81 31.7896C103.056 32.2145 104.04 32.8281 104.78 33.6211C105.53 34.4236 106.073 35.3773 106.401 36.5006C106.729 37.6052 106.897 38.8231 106.897 40.1732V53.9002H101.211L101.192 53.9096ZM93.9783 54.4289C91.7861 54.4289 90.1184 53.8814 88.9661 52.7768C87.8231 51.6722 87.2611 50.105 87.2611 48.0658V47.4332C87.2611 45.2713 87.9169 43.6758 89.2378 42.6561C90.5588 41.6176 92.648 40.9001 95.5147 40.5037L101.763 39.6444L102.101 43.383L96.3485 44.2233C95.0932 44.3932 94.1938 44.6953 93.6505 45.1297C93.1258 45.5639 92.8633 46.2059 92.8633 47.0555V47.2822C92.8633 48.113 93.1163 48.7644 93.6316 49.2269C94.1563 49.6801 94.9713 49.9068 96.0863 49.9068C97.0793 49.9068 97.9224 49.7461 98.6251 49.4346C99.3277 49.1137 99.9085 48.6983 100.358 48.1884C100.827 47.6598 101.155 47.0745 101.351 46.4229L102.157 49.3025H101.164C100.92 50.2561 100.536 51.1247 99.9929 51.9082C99.4682 52.6824 98.7282 53.296 97.7632 53.768C96.8076 54.2212 95.5427 54.4479 93.9877 54.4479L93.9783 54.4289Z" fill="white"/>
<path d="M121.747 49.1153L118.665 50.4561L124.173 31.697H130.085L120.623 61.7189H114.842L118.309 50.7959L120.988 52.9673H114.561L108.153 31.6875H114.111L118.674 49.1153H121.756H121.747Z" fill="white"/>
<path d="M154.723 53.9094V40.5599C154.723 39.6252 154.592 38.8134 154.339 38.1337C154.096 37.4539 153.693 36.9251 153.121 36.5475C152.55 36.1699 151.772 35.9812 150.779 35.9812C149.908 35.9812 149.149 36.1416 148.484 36.4531C147.837 36.7742 147.304 37.1991 146.891 37.7466C146.488 38.2752 146.179 38.8795 145.973 39.5591L145.074 36.3871H146.151C146.395 35.4051 146.788 34.5178 147.341 33.7342C147.912 32.9505 148.671 32.3274 149.636 31.8742C150.611 31.4023 151.829 31.1758 153.281 31.1758C154.976 31.1758 156.344 31.4966 157.393 32.1482C158.443 32.7806 159.211 33.7343 159.707 34.9992C160.213 36.2644 160.476 37.841 160.476 39.7103V53.8904H154.723V53.9094ZM140.352 53.9094V31.6855H146.104L145.879 37.1045L146.104 37.5767V53.9094H140.352Z" fill="white"/>
<path d="M174.988 54.4576C171.212 54.4576 168.402 53.5797 166.556 51.833C164.711 50.0771 163.792 47.5469 163.792 44.2237V41.3254C163.792 38.0305 164.654 35.5003 166.378 33.7349C168.102 31.9694 170.603 31.082 173.892 31.082C176.112 31.082 177.958 31.4784 179.447 32.2622C180.937 33.0457 182.042 34.1692 182.773 35.6136C183.523 37.0486 183.897 38.7669 183.897 40.7779V41.5709C183.897 42.1184 183.869 42.6755 183.804 43.2513C183.757 43.8083 183.691 44.3371 183.598 44.8373H178.379C178.426 44.0065 178.445 43.223 178.445 42.477C178.463 41.7218 178.464 41.0421 178.464 40.4378C178.464 39.3993 178.295 38.512 177.967 37.785C177.639 37.0486 177.133 36.4822 176.459 36.1046C175.784 35.727 174.922 35.5381 173.873 35.5381C172.327 35.5381 171.194 35.9723 170.453 36.8316C169.723 37.6907 169.348 38.9179 169.348 40.5041V42.5621L169.367 43.223V44.9694C169.367 45.6681 169.47 46.3102 169.685 46.8955C169.91 47.4808 170.276 48.0001 170.791 48.4343C171.297 48.8592 171.971 49.1897 172.814 49.435C173.667 49.6805 174.735 49.7938 176.009 49.7938C177.386 49.7938 178.698 49.6427 179.944 49.3406C181.199 49.0196 182.398 48.6042 183.523 48.0757L183.026 52.6544C182.023 53.2114 180.834 53.6551 179.475 53.9666C178.126 54.2972 176.627 54.4671 174.979 54.4671L174.988 54.4576ZM166.846 44.828V40.9761H182.426V44.828H166.846Z" fill="white"/>
<path d="M195.945 54.3923C194.072 54.3923 192.572 54.109 191.448 53.552C190.343 52.9762 189.537 52.1171 189.04 50.9652C188.544 49.8134 188.3 48.4068 188.3 46.7264V33.7639H194.014V45.8671C194.014 47.0757 194.287 47.9631 194.822 48.5389C195.374 49.0959 196.339 49.3792 197.725 49.3792C198.531 49.3792 199.317 49.2941 200.067 49.1337C200.817 48.9543 201.511 48.7183 202.138 48.435L201.641 53.2877C200.892 53.637 200.03 53.9108 199.055 54.0997C198.1 54.2979 197.06 54.3923 195.954 54.3923H195.945ZM185.106 36.4452V31.8663H201.922L201.426 36.4452H185.106ZM188.366 32.3007L188.347 26.4095L194.082 25.8242L193.857 32.3007H188.366Z" fill="white"/>
<path d="M207.656 53.9114L202.887 31.6875H208.78L212.022 49.7952H212.424L215.704 32.254H223.123L226.43 49.7952H226.815L230.093 31.6875H235.92L231.152 53.9114H222.787L220.087 39.2025L219.591 36.4646H219.255L218.757 39.2025L216.04 53.9114H207.656Z" fill="white"/>
<path d="M247.668 54.5253C244.25 54.5253 241.654 53.638 239.893 51.8725C238.141 50.1071 237.261 47.5864 237.261 44.3292V41.3176C237.261 38.0417 238.141 35.5208 239.893 33.746C241.664 31.9616 244.259 31.0742 247.668 31.0742C251.079 31.0742 253.646 31.9616 255.407 33.746C257.158 35.5115 258.041 38.0322 258.041 41.3176V44.3292C258.041 47.5957 257.158 50.1071 255.407 51.8725C253.665 53.638 251.088 54.5253 247.668 54.5253ZM247.668 49.8804C249.168 49.8804 250.312 49.4274 251.088 48.521C251.884 47.6147 252.279 46.3119 252.279 44.6218V41.0155C252.279 39.2972 251.884 37.9756 251.088 37.0692C250.312 36.1439 249.168 35.6909 247.668 35.6909C246.17 35.6909 244.999 36.1534 244.203 37.0692C243.425 37.9756 243.031 39.2879 243.031 41.0155V44.6218C243.031 46.3119 243.425 47.6147 244.203 48.521C244.999 49.4274 246.151 49.8804 247.668 49.8804Z" fill="white"/>
<path d="M267.165 40.9962L265.702 37.1255H267.1C267.502 35.3317 268.242 33.9156 269.301 32.8866C270.368 31.8574 271.839 31.3477 273.731 31.3477C274.125 31.3477 274.471 31.3759 274.79 31.442C275.11 31.4893 275.39 31.5459 275.642 31.6214L275.961 37.4182C275.634 37.3144 275.25 37.2388 274.819 37.1915C274.387 37.135 273.929 37.0972 273.45 37.0972C271.924 37.0972 270.622 37.437 269.534 38.1167C268.467 38.7966 267.68 39.7595 267.173 40.9962H267.165ZM261.563 53.9114V31.6875H267.052L266.808 38.5038L267.323 38.7115V53.9114H261.572H261.563Z" fill="white"/>
<path d="M292.496 53.9075L285.256 44.1173H283.297V40.3315H285.275L292.245 31.6741H298.895L289.949 42.6162V41.436L299.233 53.898H292.489L292.496 53.9075ZM278.332 53.9075V23.9609H284.066V53.9168H278.332V53.9075Z" fill="white"/>
<path d="M307.418 13.0749V7.99725H309.971C310.177 7.99725 310.4 8.05689 310.64 8.17614C310.882 8.29082 311.086 8.46971 311.255 8.71281C311.428 8.95133 311.515 9.25407 311.515 9.62101C311.515 9.99254 311.427 10.3091 311.248 10.5705C311.071 10.8274 310.854 11.0223 310.6 11.1553C310.35 11.2883 310.113 11.3549 309.89 11.3549H308.047V10.5292H309.548C309.698 10.5292 309.86 10.4535 310.033 10.3022C310.21 10.1508 310.3 9.92374 310.3 9.62101C310.3 9.30911 310.21 9.09812 310.033 8.98803C309.86 8.87794 309.708 8.8229 309.575 8.8229H308.523V13.0749H307.418ZM310.463 10.6806L311.719 13.0749H310.504L309.275 10.6806H310.463ZM309.329 16.1023C308.573 16.1023 307.866 15.9601 307.206 15.6757C306.547 15.3913 305.966 14.9968 305.464 14.4923C304.965 13.9877 304.572 13.4029 304.292 12.7378C304.009 12.0727 303.867 11.3595 303.867 10.598C303.867 9.8366 304.009 9.12334 304.292 8.45824C304.572 7.79313 304.965 7.20832 305.464 6.70375C305.966 6.19919 306.547 5.80474 307.206 5.52035C307.866 5.23594 308.573 5.09375 309.329 5.09375C310.085 5.09375 310.792 5.23594 311.453 5.52035C312.113 5.80474 312.694 6.19919 313.193 6.70375C313.695 7.20832 314.086 7.79313 314.368 8.45824C314.651 9.12334 314.791 9.8366 314.791 10.598C314.791 11.3595 314.651 12.0727 314.368 12.7378C314.086 13.4029 313.695 13.9877 313.193 14.4923C312.694 14.9968 312.113 15.3913 311.453 15.6757C310.792 15.9601 310.085 16.1023 309.329 16.1023ZM309.329 14.7812C310.094 14.7812 310.79 14.5932 311.419 14.2171C312.048 13.8409 312.547 13.3364 312.92 12.7034C313.293 12.0704 313.48 11.3686 313.48 10.598C313.48 9.82743 313.293 9.12563 312.92 8.49265C312.547 7.85965 312.048 7.35508 311.419 6.97898C310.79 6.60285 310.094 6.41478 309.329 6.41478C308.566 6.41478 307.868 6.60285 307.241 6.97898C306.612 7.35508 306.112 7.85965 305.737 8.49265C305.364 9.12563 305.178 9.82743 305.178 10.598C305.178 11.3686 305.364 12.0704 305.737 12.7034C306.112 13.3364 306.612 13.8409 307.241 14.2171C307.868 14.5932 308.566 14.7812 309.329 14.7812Z" fill="white"/>
<path d="M65.2001 2.92188L48.8039 32.6279H32.8484L49.5936 2.92188H65.2001ZM32.7231 32.8503L40.7021 47.3064L32.5998 61.9856H16.2998L32.7231 32.8503ZM0 2.92218L16.3973 32.6302H32.3526L15.6065 2.92218H0Z" fill="white"/>
</svg>
