<svg width="356" height="70" viewBox="0 0 356 70" fill="none" xmlns="http://www.w3.org/2000/svg">
<path d="M88.6519 55.4539L85.172 56.9677L91.3914 35.7881H98.0657L87.3827 69.6838H80.8564L84.77 57.3513L87.7951 59.8029H80.539L73.3042 35.7773H80.0313L85.1824 55.4539H88.6626H88.6519Z" fill="white"/>
<path d="M114.249 60.8647L114.482 54.7251L114.302 54.1602V46.3045L114.281 45.1747C114.281 43.5332 113.837 42.3392 112.937 41.5718C112.059 40.8045 110.61 40.4206 108.601 40.4206C106.887 40.4206 105.279 40.6551 103.777 41.1136C102.286 41.5611 100.911 42.0728 99.6417 42.6697L100.202 37.4469C100.943 37.0525 101.789 36.69 102.741 36.349C103.703 35.9865 104.782 35.6986 105.967 35.4748C107.152 35.2511 108.431 35.1445 109.796 35.1445C111.827 35.1445 113.54 35.3895 114.947 35.8905C116.354 36.3702 117.464 37.063 118.3 37.9583C119.146 38.8644 119.76 39.9411 120.13 41.2094C120.5 42.4565 120.691 43.8315 120.691 45.3558V60.854H114.27L114.249 60.8647ZM106.104 61.451C103.629 61.451 101.746 60.8328 100.446 59.5857C99.155 58.3386 98.5205 56.5691 98.5205 54.2668V53.5526C98.5205 51.1118 99.261 49.3103 100.752 48.1591C102.244 46.9866 104.602 46.1765 107.839 45.729L114.894 44.7588L115.275 48.9798L108.78 49.9285C107.363 50.1204 106.348 50.4614 105.734 50.9518C105.142 51.4421 104.846 52.167 104.846 53.1262V53.3822C104.846 54.3202 105.131 55.0556 105.713 55.5778C106.305 56.0894 107.226 56.3453 108.484 56.3453C109.606 56.3453 110.557 56.164 111.351 55.8122C112.144 55.45 112.8 54.981 113.308 54.4052C113.837 53.8085 114.207 53.1477 114.429 52.412L115.338 55.6631H114.217C113.942 56.7397 113.509 57.7204 112.895 58.605C112.303 59.4792 111.467 60.1719 110.378 60.7048C109.299 61.2165 107.871 61.4724 106.115 61.4724L106.104 61.451Z" fill="white"/>
<path d="M137.456 55.4539L133.976 56.9677L140.195 35.7881H146.869L136.186 69.6838H129.66L133.574 57.3513L136.599 59.8029H129.343L122.108 35.7773H128.835L133.986 55.4539H137.466H137.456Z" fill="white"/>
<path d="M174.688 60.8662V45.7942C174.688 44.7389 174.54 43.8223 174.254 43.055C173.979 42.2874 173.525 41.6904 172.879 41.2641C172.234 40.8377 171.356 40.6247 170.235 40.6247C169.251 40.6247 168.395 40.8058 167.644 41.1575C166.914 41.52 166.311 41.9997 165.846 42.6179C165.391 43.2147 165.041 43.8969 164.809 44.6643L163.794 41.0829H165.01C165.285 39.9743 165.729 38.9724 166.353 38.0878C166.998 37.203 167.855 36.4995 168.945 35.9878C170.045 35.4549 171.42 35.1992 173.059 35.1992C174.974 35.1992 176.518 35.5615 177.703 36.2971C178.887 37.0111 179.755 38.0878 180.315 39.516C180.886 40.9445 181.183 42.7244 181.183 44.8349V60.8448H174.688V60.8662ZM158.462 60.8662V35.7747H164.957L164.703 41.893L164.957 42.4261V60.8662H158.462Z" fill="white"/>
<path d="M197.567 61.4855C193.304 61.4855 190.131 60.4943 188.047 58.5223C185.963 56.5398 184.927 53.6831 184.927 49.9311V46.6588C184.927 42.9388 185.9 40.0821 187.846 38.0889C189.792 36.0956 192.617 35.0938 196.329 35.0938C198.836 35.0938 200.92 35.5413 202.602 36.4262C204.283 37.3108 205.532 38.5793 206.357 40.2101C207.203 41.8302 207.626 43.7703 207.626 46.0407V46.936C207.626 47.5542 207.594 48.1831 207.52 48.8332C207.467 49.4621 207.393 50.0591 207.287 50.6239H201.396C201.449 49.6859 201.47 48.8013 201.47 47.9591C201.491 47.1064 201.491 46.339 201.491 45.6568C201.491 44.4843 201.301 43.4824 200.93 42.6616C200.56 41.8302 199.989 41.1908 199.228 40.7644C198.466 40.3381 197.493 40.1248 196.308 40.1248C194.563 40.1248 193.283 40.615 192.447 41.5852C191.622 42.5551 191.199 43.9407 191.199 45.7316V48.0551L191.22 48.8013V50.7731C191.22 51.5619 191.337 52.2868 191.58 52.9477C191.834 53.6085 192.246 54.1948 192.828 54.685C193.399 55.1647 194.161 55.5379 195.113 55.8148C196.075 56.092 197.281 56.22 198.72 56.22C200.275 56.22 201.755 56.0493 203.162 55.7083C204.579 55.3458 205.934 54.8768 207.203 54.2801L206.642 59.4496C205.51 60.0785 204.167 60.5794 202.633 60.9312C201.11 61.3044 199.418 61.4962 197.556 61.4962L197.567 61.4855ZM188.375 50.6134V46.2644H205.965V50.6134H188.375Z" fill="white"/>
<path d="M221.228 61.4105C219.113 61.4105 217.42 61.0907 216.151 60.4618C214.903 59.8117 213.993 58.8417 213.433 57.5412C212.872 56.2408 212.597 54.6527 212.597 52.7554V38.1204H219.048V51.7853C219.048 53.1498 219.357 54.1517 219.96 54.8018C220.583 55.4307 221.673 55.7506 223.238 55.7506C224.147 55.7506 225.035 55.6545 225.882 55.4734C226.728 55.2708 227.512 55.0044 228.22 54.6846L227.66 60.1634C226.813 60.5578 225.841 60.8669 224.74 61.0802C223.661 61.304 222.487 61.4105 221.239 61.4105H221.228ZM208.99 41.1477V35.978H227.977L227.416 41.1477H208.99ZM212.671 36.4684L212.65 29.8171L219.124 29.1562L218.87 36.4684H212.671Z" fill="white"/>
<path d="M234.45 60.8688L229.066 35.7773H235.72L239.38 56.2215H239.833L243.537 36.417H251.913L255.647 56.2215H256.081L259.782 35.7773H266.362L260.978 60.8688H251.533L248.486 44.262L247.926 41.1708H247.546L246.984 44.262L243.916 60.8688H234.45Z" fill="white"/>
<path d="M279.625 61.5591C275.766 61.5591 272.835 60.5572 270.847 58.564C268.869 56.5707 267.875 53.7248 267.875 50.0474V46.6471C267.875 42.9485 268.869 40.1023 270.847 38.0986C272.846 36.0839 275.776 35.082 279.625 35.082C283.476 35.082 286.374 36.0839 288.362 38.0986C290.34 40.0918 291.336 42.9378 291.336 46.6471V50.0474C291.336 53.7353 290.34 56.5707 288.362 58.564C286.396 60.5572 283.487 61.5591 279.625 61.5591ZM279.625 56.3148C281.318 56.3148 282.61 55.8033 283.487 54.78C284.386 53.7567 284.831 52.2858 284.831 50.3777V46.3061C284.831 44.366 284.386 42.8739 283.487 41.8506C282.61 40.8058 281.318 40.2944 279.625 40.2944C277.934 40.2944 276.612 40.8166 275.714 41.8506C274.834 42.8739 274.389 44.3555 274.389 46.3061V50.3777C274.389 52.2858 274.834 53.7567 275.714 54.78C276.612 55.8033 277.912 56.3148 279.625 56.3148Z" fill="white"/>
<path d="M301.639 46.2842L299.987 41.914H301.565C302.018 39.8888 302.854 38.2899 304.05 37.1282C305.255 35.9662 306.916 35.3906 309.052 35.3906C309.497 35.3906 309.887 35.4226 310.248 35.4972C310.608 35.5505 310.925 35.6144 311.209 35.6997L311.57 42.2445C311.201 42.1273 310.766 42.0419 310.28 41.9886C309.792 41.9247 309.275 41.882 308.735 41.882C307.011 41.882 305.541 42.2657 304.313 43.0331C303.108 43.8007 302.22 44.8879 301.647 46.2842H301.639ZM295.313 60.8658V35.7743H301.51L301.235 43.4702L301.817 43.7047V60.8658H295.324H295.313Z" fill="white"/>
<path d="M330.238 60.8653L322.063 49.8119H319.851V45.5375H322.085L329.954 35.7631H337.462L327.362 48.117V46.7846L337.844 60.8546H330.229L330.238 60.8653ZM314.246 60.8653V27.0547H320.719V60.8758H314.246V60.8653Z" fill="white"/>
<path d="M347.085 14.761V9.02814H349.968C350.2 9.02814 350.452 9.09547 350.723 9.23012C350.997 9.35959 351.227 9.56157 351.418 9.83603C351.613 10.1053 351.711 10.4471 351.711 10.8614C351.711 11.2809 351.611 11.6382 351.409 11.9334C351.209 12.2234 350.964 12.4435 350.678 12.5937C350.395 12.7439 350.128 12.819 349.877 12.819H347.795V11.8868H349.49C349.66 11.8868 349.842 11.8014 350.037 11.6305C350.237 11.4596 350.339 11.2032 350.339 10.8614C350.339 10.5093 350.237 10.2711 350.037 10.1468C349.842 10.0225 349.67 9.96033 349.521 9.96033H348.333V14.761H347.085ZM350.523 12.0577L351.941 14.761H350.569L349.182 12.0577H350.523ZM349.243 18.179C348.39 18.179 347.591 18.0184 346.846 17.6974C346.102 17.3763 345.446 16.9309 344.88 16.3613C344.315 15.7916 343.872 15.1313 343.555 14.3804C343.236 13.6295 343.076 12.8242 343.076 11.9645C343.076 11.1048 343.236 10.2995 343.555 9.54862C343.872 8.79769 344.315 8.13742 344.88 7.56775C345.446 6.99808 346.102 6.55273 346.846 6.23164C347.591 5.91054 348.39 5.75 349.243 5.75C350.096 5.75 350.895 5.91054 351.641 6.23164C352.386 6.55273 353.042 6.99808 353.606 7.56775C354.172 8.13742 354.613 8.79769 354.932 9.54862C355.251 10.2995 355.41 11.1048 355.41 11.9645C355.41 12.8242 355.251 13.6295 354.932 14.3804C354.613 15.1313 354.172 15.7916 353.606 16.3613C353.042 16.9309 352.386 17.3763 351.641 17.6974C350.895 18.0184 350.096 18.179 349.243 18.179ZM349.243 16.6875C350.107 16.6875 350.892 16.4752 351.602 16.0505C352.312 15.6259 352.877 15.0562 353.298 14.3415C353.719 13.6269 353.929 12.8345 353.929 11.9645C353.929 11.0945 353.719 10.3021 353.298 9.58747C352.877 8.87279 352.312 8.30312 351.602 7.87848C350.892 7.45382 350.107 7.24148 349.243 7.24148C348.381 7.24148 347.593 7.45382 346.885 7.87848C346.175 8.30312 345.611 8.87279 345.188 9.58747C344.767 10.3021 344.556 11.0945 344.556 11.9645C344.556 12.8345 344.767 13.6269 345.188 14.3415C345.611 15.0562 346.175 15.6259 346.885 16.0505C347.593 16.4752 348.381 16.6875 349.243 16.6875Z" fill="white"/>
<path d="M73.613 3.29688L55.1012 36.8359H37.087L55.9927 3.29688H73.613ZM36.9454 37.087L45.954 53.4084L36.8063 69.9818H18.403L36.9454 37.087ZM0 3.29722L18.5131 36.8385H36.5271L17.6202 3.29722H0Z" fill="white"/>
</svg>
