<svg width="310" height="86" viewBox="0 0 310 86" fill="none" xmlns="http://www.w3.org/2000/svg">
<g clip-path="url(#clip0_662_975)">
<path d="M92.7434 8.0625H116.608L121.818 13.5518V31.4056H109.513V19.9645H99.8383V66.5995H109.513V53.9784H105.544V42.025H121.818V72.4993L116.41 77.9375H92.7434L87.4844 72.4993V13.2953L92.7434 8.0625Z" fill="#0BFE3D"/>
<path d="M142.187 29.025V38.4788H152.967V19.8794H132.918L142.187 29.025ZM129.741 8.0625H159.789L165.153 13.3545V45.0035L159.789 50.3471L166.715 77.9375H154.061L147.343 50.3471H142.187V77.9375H129.741V8.0625Z" fill="white"/>
<path d="M171.997 8.0625H185.202V77.9375H171.997V29.6095L181.75 20.4775H171.997V8.0625Z" fill="white"/>
<path d="M195.743 8.0625H219.608L224.818 13.5518V31.4056H212.513V19.9645H202.839V66.5995H212.513V53.9784H208.544V42.025H224.818V72.4993L219.41 77.9375H195.743L190.484 72.4993V13.2953L195.743 8.0625Z" fill="white"/>
<path d="M245.277 28.9223V65.8123H254.743V19.7256H236.169L245.277 28.9223ZM238.165 8.0625H261.855L267.074 13.4572V72.4913L261.855 77.9375H237.96L232.741 72.4913V13.3545L238.165 8.0625Z" fill="white"/>
<path d="M280.197 8.0625H309.33V77.9375H297.068V19.9645H278.283L287.014 29.0968V77.9375H274.997V13.2953L280.197 8.0625Z" fill="white"/>
<path d="M2.97168 47.6846V38.3154L37.2781 2.6875L71.6383 38.3708V47.629L37.2781 83.3125L2.97168 47.6846Z" fill="black" stroke="white" stroke-width="0.3"/>
<path d="M24.0999 18.8125L18.8179 24.1875L24.0999 29.5625L29.382 24.1875L24.0999 18.8125Z" fill="#0BFE3D"/>
<path d="M63.7149 32.25L58.4331 37.6247L63.7149 43L68.9972 37.6247L63.7149 32.25Z" fill="#0BFE3D"/>
<path d="M55.7923 26.875L50.5103 32.25L55.7923 37.625L61.0744 32.25L55.7923 26.875Z" fill="#0BFE3D"/>
<path d="M42.587 26.875L37.3047 32.25L42.587 37.625L47.8688 32.25L42.587 26.875Z" fill="#0BFE3D"/>
<path d="M37.305 32.25L32.0229 37.6253L37.305 43L42.5871 37.6253L37.305 32.25Z" fill="#0BFE3D"/>
<path d="M50.5098 18.8125L45.228 24.1875L50.5098 29.5625L55.7921 24.1875L50.5098 18.8125Z" fill="#0BFE3D"/>
<path d="M29.3819 13.4375L24.0996 18.8125L29.3819 24.1875L34.6637 18.8125L29.3819 13.4375Z" fill="#0BFE3D"/>
<path d="M16.1766 26.875L10.8945 32.25L16.1766 37.625L21.4586 32.25L16.1766 26.875Z" fill="#0BFE3D"/>
<path d="M37.3047 5.375L32.0229 10.75L37.3047 16.125L42.5871 10.75L37.3047 5.375Z" fill="#0BFE3D"/>
<path d="M55.7923 40.3125L50.5103 45.6875L55.7923 51.0625L61.0744 45.6875L55.7923 40.3125Z" fill="#0BFE3D"/>
<path d="M39.3859 67.7468L42.5871 64.5271L37.305 59.125L32.0229 64.4729L37.305 69.875L39.3859 67.7468Z" fill="#0BFE3D"/>
<path d="M10.895 32.25L5.61279 37.6247L10.895 43L16.1769 37.6247L10.895 32.25Z" fill="#0BFE3D"/>
<path d="M29.3814 53.75L24.0996 59.1247L29.3814 64.5L34.6637 59.1247L29.3814 53.75Z" fill="#0BFE3D"/>
<path d="M16.1766 40.3125L10.8945 45.6875L16.1766 51.0625L21.4586 45.6875L16.1766 40.3125Z" fill="#0BFE3D"/>
<path d="M24.0998 45.6875L18.8179 51.0625L24.0998 56.4375L29.382 51.0625L24.0998 45.6875Z" fill="#0BFE3D"/>
<path d="M50.5101 45.6875L45.228 51.0622L50.5101 56.4375L55.7921 51.0622L50.5101 45.6875Z" fill="#0BFE3D"/>
<path d="M42.5865 53.75L37.3047 59.125L42.5865 64.5L47.8688 59.125L42.5865 53.75Z" fill="#0BFE3D"/>
<path d="M32.0229 47.6478L37.305 53.75V46.3529L32.0229 40.3125V47.6478Z" fill="#9593A0"/>
<path d="M42.5869 48.375L47.869 42.2728V34.9375L42.5869 41.0397V48.375Z" fill="#9593A0"/>
<path d="M37.4827 51.0625L42.5867 46.5526V40.3125L37.3047 44.9269L37.4827 51.0625Z" fill="#9593A0"/>
<path d="M53.7231 35.8134L51.8717 33.7598L50.5103 32.25V39.3764V41.9129L51.4359 43L55.7923 38.1687L53.7231 35.8134Z" fill="#9593A0"/>
<path d="M37.5688 24.1875L42.5867 19.4434V13.4375L37.3047 18.4845L37.5688 24.1875Z" fill="#9593A0"/>
<path d="M29.0769 26.875L24.0996 31.8681L24.3535 37.625L29.3817 32.6319L29.0769 26.875Z" fill="#9593A0"/>
<path d="M21.9032 40.3125L24.0999 38.2205L23.9429 32.25L18.8179 37.2509L21.9032 40.3125Z" fill="#9593A0"/>
<path d="M37.0002 18.8125L32.0229 23.7819L32.3277 29.5625L37.305 24.5932L37.0002 18.8125Z" fill="#9593A0"/>
</g>
<defs>
<clipPath id="clip0_662_975">
<rect width="309" height="86" fill="white" transform="translate(0.330566)"/>
</clipPath>
</defs>
</svg>
