<svg width="293" height="82" viewBox="0 0 293 82" fill="none" xmlns="http://www.w3.org/2000/svg">
<g clip-path="url(#clip0_924_76)">
<path d="M87.5691 7.94922H110.147L115.076 13.1425V30.0337H103.435V19.2095H94.2814V63.3299H103.435V51.3894H99.6796V40.0805H115.076V68.9117L109.959 74.0566H87.5691L82.5936 68.9117V12.8999L87.5691 7.94922Z" fill="#0BFE3D"/>
<path d="M134.347 27.7814V36.7255H144.545V19.1289H125.577L134.347 27.7814ZM122.572 7.94922H151L156.074 12.9559V42.8984L151 47.9538L157.552 74.0566H145.58L139.224 47.9538H134.347V74.0566H122.572V7.94922Z" fill="white"/>
<path d="M162.55 7.94922H175.043V74.0566H162.55V28.3344L171.777 19.6948H162.55V7.94922Z" fill="white"/>
<path d="M185.015 7.94922H207.594L212.522 13.1425V30.0337H200.881V19.2095H191.728V63.3299H200.881V51.3894H197.126V40.0805H212.522V68.9117L207.406 74.0566H185.015L180.04 68.9117V12.8999L185.015 7.94922Z" fill="white"/>
<path d="M231.878 27.6843V62.5852H240.833V18.9835H223.261L231.878 27.6843ZM225.149 7.94922H247.562L252.5 13.053V68.904L247.562 74.0566H224.955L220.018 68.904V12.9559L225.149 7.94922Z" fill="white"/>
<path d="M264.915 7.94922H292.478V74.0566H280.877V19.2095H263.104L271.364 27.8493V74.0566H259.996V12.8999L264.915 7.94922Z" fill="white"/>
<path d="M2.63799 45.438V36.5741L35.0946 2.86719L67.6022 36.6264V45.3854L35.0946 79.1449L2.63799 45.438Z" fill="black" stroke="white" stroke-width="0.283824"/>
<path d="M22.627 18.1172L17.6297 23.2023L22.627 28.2876L27.6242 23.2023L22.627 18.1172Z" fill="#0BFE3D"/>
<path d="M60.1059 30.832L55.1089 35.917L60.1059 41.0024L65.1034 35.917L60.1059 30.832Z" fill="#0BFE3D"/>
<path d="M52.6105 25.7461L47.6132 30.8313L52.6105 35.9165L57.6077 30.8313L52.6105 25.7461Z" fill="#0BFE3D"/>
<path d="M40.117 25.7461L35.1195 30.8313L40.117 35.9165L45.114 30.8313L40.117 25.7461Z" fill="#0BFE3D"/>
<path d="M35.1199 30.832L30.1227 35.9175L35.1199 41.0024L40.1171 35.9175L35.1199 30.832Z" fill="#0BFE3D"/>
<path d="M47.6126 18.1172L42.6156 23.2024L47.6126 28.2876L52.6101 23.2024L47.6126 18.1172Z" fill="#0BFE3D"/>
<path d="M27.6241 13.0352L22.6266 18.1203L27.6241 23.2055L32.6211 18.1203L27.6241 13.0352Z" fill="#0BFE3D"/>
<path d="M15.1309 25.7461L10.1337 30.8313L15.1309 35.9165L20.1282 30.8313L15.1309 25.7461Z" fill="#0BFE3D"/>
<path d="M35.1196 5.40625L30.1227 10.4914L35.1196 15.5766L40.1171 10.4914L35.1196 5.40625Z" fill="#0BFE3D"/>
<path d="M52.6105 38.4609L47.6132 43.5461L52.6105 48.6313L57.6077 43.5461L52.6105 38.4609Z" fill="#0BFE3D"/>
<path d="M37.0886 64.4186L40.1171 61.3726L35.1199 56.2617L30.1227 61.3212L35.1199 66.4321L37.0886 64.4186Z" fill="#0BFE3D"/>
<path d="M10.1338 30.832L5.13641 35.917L10.1338 41.0024L15.1309 35.917L10.1338 30.832Z" fill="#0BFE3D"/>
<path d="M27.6236 51.1719L22.6266 56.2568L27.6236 61.3422L32.6211 56.2568L27.6236 51.1719Z" fill="#0BFE3D"/>
<path d="M15.1309 38.4609L10.1337 43.5461L15.1309 48.6313L20.1282 43.5461L15.1309 38.4609Z" fill="#0BFE3D"/>
<path d="M22.6269 43.5469L17.6297 48.6321L22.6269 53.7172L27.6242 48.6321L22.6269 43.5469Z" fill="#0BFE3D"/>
<path d="M47.6128 43.5469L42.6156 48.6318L47.6128 53.7172L52.6101 48.6318L47.6128 43.5469Z" fill="#0BFE3D"/>
<path d="M40.1165 51.1719L35.1195 56.2571L40.1165 61.3422L45.114 56.2571L40.1165 51.1719Z" fill="#0BFE3D"/>
<path d="M30.1227 45.4007L35.1199 51.1739V44.1757L30.1227 38.4609V45.4007Z" fill="#9593A0"/>
<path d="M40.1172 46.088L45.1144 40.3147V33.375L40.1172 39.1482V46.088Z" fill="#9593A0"/>
<path d="M35.2879 48.6313L40.1167 44.3646V38.4609L35.1195 42.8266L35.2879 48.6313Z" fill="#9593A0"/>
<path d="M50.6528 34.2033L48.9013 32.2605L47.6132 30.832V37.5742V39.9739L48.489 41.0024L52.6105 36.4316L50.6528 34.2033Z" fill="#9593A0"/>
<path d="M35.3694 23.2055L40.1167 18.7172V13.0352L35.1195 17.81L35.3694 23.2055Z" fill="#9593A0"/>
<path d="M27.3355 25.7461L22.6266 30.47L22.8668 35.9165L27.6238 31.1926L27.3355 25.7461Z" fill="#9593A0"/>
<path d="M20.5487 38.4598L22.627 36.4807L22.4784 30.832L17.6297 35.5633L20.5487 38.4598Z" fill="#9593A0"/>
<path d="M34.8316 18.1172L30.1227 22.8186L30.411 28.2876L35.1199 23.5862L34.8316 18.1172Z" fill="#9593A0"/>
</g>
<defs>
<clipPath id="clip0_924_76">
<rect width="292.339" height="81.3629" fill="white" transform="translate(0.13916 0.320312)"/>
</clipPath>
</defs>
</svg>
