<svg width="355" height="136" viewBox="0 0 355 136" fill="none" xmlns="http://www.w3.org/2000/svg">
<g clip-path="url(#clip0_660_711)">
<path d="M50.0861 115.37C46.1386 111.262 42.4326 107.354 38.7266 103.446C38.9066 102.873 39.0867 102.3 39.2667 101.727C48.7184 104.469 58.1274 105.568 67.645 101.927C64.9648 109.202 59.0289 113.228 53.8838 118.432C52.5513 117.36 51.4394 116.464 50.0861 115.37Z" fill="#3A44B8"/>
<path d="M30.7011 85.973C26.8714 76.4008 30.9666 67.0382 39.4398 64.3199C49.4324 61.1141 61.3976 68.7843 59.5997 81.0939C59.3925 82.512 59.9011 84.0342 60.0778 85.5081C61.7868 85.0116 63.9385 85.01 65.1368 83.9426C78.3722 72.1519 75.7958 70.8136 63.2153 64.9351C52.6545 60.0004 41.4843 57.9214 29.8194 61.4148C27.1038 62.2281 24.1543 62.2639 20.7245 62.7388C20.3983 57.5741 19.9444 52.7781 19.9044 47.9786C19.895 46.8542 21.021 45.2509 22.0724 44.6565C43.026 32.8108 64.0884 32.8851 85.0972 44.5061C90.2291 47.3448 86.6114 51.743 86.822 55.9262C72.15 46.2626 56.6403 42.4992 39.6536 47.0134C38.2383 47.3895 36.9159 48.1141 35.5504 48.6768C35.6265 49.1965 35.7026 49.7163 35.7788 50.236C37.7082 50.236 39.6377 50.2329 41.5671 50.2365C57.2716 50.2655 70.9089 55.6826 82.5587 66.089C83.5823 67.0035 84.637 68.7469 84.4952 69.9687C81.9469 91.9282 57.1757 104.339 38.1403 93.1261C35.3373 91.475 33.2658 88.5874 30.7011 85.973ZM44.1829 84.9071C49.0964 84.0543 51.569 81.0857 50.3336 77.3977C49.2816 74.2574 46.8952 72.113 43.743 73.0691C41.6766 73.6958 39.2645 75.9504 38.6506 77.9726C37.5776 81.5074 39.6115 84.1018 44.1829 84.9071Z" fill="#3A44B8"/>
<path d="M237.141 92.9801C237.474 94.0604 238.024 95.2448 237.679 95.6285C236.093 97.3923 227.481 96.0041 226.133 93.8529C223.949 90.3673 221.728 86.8984 219.713 83.3159C217.391 79.1866 213.967 78.2646 209.215 79.3834C209.215 84.7701 209.215 90.1474 209.215 95.8415C205.767 95.8415 202.756 95.8415 199.454 95.8415C199.454 76.0799 199.454 56.3012 199.454 36.2773C202.549 36.2773 205.563 36.2773 209.088 36.2773C209.088 47.3563 209.088 58.2952 209.088 69.2136C214.158 70.5892 217.512 69.1102 219.964 65.0749C221.41 62.6956 223.143 60.4903 224.735 58.1989C227.972 53.5411 231.75 52.5638 237.944 55.1727C233.536 61.4725 229.199 67.6712 225.087 73.5483C228.946 79.7861 232.946 86.2507 237.141 92.9801Z" fill="white"/>
<path d="M153.298 58.0172C164.251 49.8582 179.057 51.2616 185.869 60.8474C191.588 68.8955 191.155 82.6529 184.945 90.2314C179.218 97.2203 167.612 99.4997 158.18 95.4879C148.543 91.3892 143.7 78.6418 147.819 67.2429C148.978 64.0324 151.297 61.2388 153.298 58.0172ZM179.78 75.3268C179.201 66.8972 176.793 63.0276 171.261 61.6357C164.828 60.0173 159.056 63.3212 157.235 69.6639C154.841 78.0001 157.958 86.0866 164.41 88.2774C172.481 91.018 178.402 86.3049 179.78 75.3268Z" fill="white"/>
<path d="M243.808 70.9325C246.406 58.1918 253.572 52.3535 265.66 52.7709C277.448 53.1778 286.184 65.3269 282.576 76.5428C282.296 77.4134 280.393 78.2432 279.225 78.2715C272.311 78.4389 265.391 78.3534 258.473 78.3788C257.049 78.384 255.626 78.4987 254.211 78.5625C254.738 88.0747 259.19 89.5552 279.851 87.4481C282.114 93.3065 281.424 95.3445 275.568 96.215C270.109 97.0263 264.383 97.4799 258.958 96.7434C250.315 95.5699 244.583 88.5852 243.813 79.6871C243.574 76.9191 243.77 74.1135 243.808 70.9325ZM263.006 61.0032C256.576 62.7105 254.422 65.1395 254.491 70.8997C260.533 70.8997 266.579 70.8997 272.607 70.8997C273.058 64.3805 270.685 61.8066 263.006 61.0032Z" fill="white"/>
<path d="M302.016 80.2596C302.016 85.6662 302.016 90.6319 302.016 95.8798C298.515 95.8798 295.514 95.8798 292.263 95.8798C292.263 81.9942 292.263 68.2397 292.263 53.5228C295.852 54.1363 298.982 54.671 303.63 55.4653C306.123 54.8628 310.439 53.1105 314.828 52.905C324.304 52.4613 329.602 56.3524 330.546 65.7611C331.534 75.6049 330.767 85.6241 330.767 95.8725C327.798 95.8725 324.779 95.8725 321.271 95.8725C321.271 90.5811 321.274 85.3133 321.27 80.0455C321.268 77.1043 321.391 74.1551 321.217 71.2238C320.975 67.1641 320.396 63.1275 315.625 61.7348C310.766 60.3162 306.589 61.9165 303.086 65.2267C302.304 65.9654 302.105 67.569 302.063 68.7892C301.935 72.4619 302.016 76.1418 302.016 80.2596Z" fill="white"/>
<path d="M106.145 88.1146C107.785 87.7619 109.373 87.6407 110.942 87.7651C115.744 88.1458 120.553 89.0182 125.329 88.8489C127.057 88.7877 129.518 86.6329 130.192 84.8778C131.25 82.1256 128.831 80.7505 126.334 80.1235C122.502 79.1611 118.602 78.4232 114.833 77.261C108.8 75.4008 106.159 71.8526 106.069 66.0741C105.98 60.4414 108.946 55.1643 114.679 54.2997C121.497 53.2716 128.683 53.3393 135.525 54.2745C140.141 54.9054 137.304 59.428 137.735 62.3961C132.913 61.8576 128.45 61.2927 123.971 60.8972C122.529 60.7699 120.807 60.6604 119.645 61.3108C118.17 62.136 116.238 63.6984 116.171 65.0272C116.108 66.2666 117.989 68.2302 119.436 68.7896C122.416 69.9416 125.674 70.3846 128.823 71.0922C136.97 72.9225 140.407 76.8638 140.289 84.2687C140.184 90.8577 135.991 95.8163 128.388 96.7643C123.065 97.4278 117.49 97.2175 112.167 96.4429C105.741 95.5078 105.804 95.0712 106.145 88.1146Z" fill="white"/>
</g>
<defs>
<clipPath id="clip0_660_711">
<rect width="354" height="136" fill="white" transform="translate(0.330078)"/>
</clipPath>
</defs>
</svg>
