<svg width="418" height="160" viewBox="0 0 418 160" fill="none" xmlns="http://www.w3.org/2000/svg">
<g clip-path="url(#clip0_924_113)">
<path d="M59.3009 135.73C54.6569 130.898 50.2968 126.301 45.9368 121.703C46.1486 121.029 46.3604 120.354 46.5722 119.68C57.6919 122.907 68.7613 124.199 79.9585 119.915C76.8053 128.475 69.8219 133.21 63.7688 139.334C62.2012 138.071 60.893 137.018 59.3009 135.73Z" fill="#3A44B8"/>
<path d="M36.4948 101.143C31.9893 89.8814 36.8071 78.8666 46.7756 75.6686C58.5317 71.8971 72.6084 80.9208 70.4932 95.4028C70.2495 97.0711 70.8478 98.8619 71.0557 100.596C73.0662 100.012 75.5977 100.01 77.0074 98.7541C92.5785 84.8827 89.5475 83.3083 74.7468 76.3924C62.3224 70.5868 49.181 68.1409 35.4575 72.2509C32.2627 73.2077 28.7927 73.2498 24.7576 73.8086C24.374 67.7324 23.84 62.09 23.7928 56.4436C23.7817 55.1208 25.1065 53.2345 26.3434 52.5352C50.9947 38.5991 75.7741 38.6865 100.49 52.3582C106.528 55.6979 102.272 60.8722 102.519 65.7937C85.2583 54.4248 67.0115 49.9972 47.0272 55.3081C45.3621 55.7506 43.8064 56.603 42.1999 57.2649C42.2894 57.8764 42.379 58.4879 42.4686 59.0993C44.7385 59.0993 47.0085 59.0957 49.2784 59.0999C67.7543 59.134 83.7981 65.5071 97.5038 77.75C98.7081 78.8258 99.9488 80.8769 99.782 82.3143C96.784 108.149 67.6414 122.75 45.2469 109.558C41.9493 107.616 39.5122 104.219 36.4948 101.143ZM52.3558 99.8889C58.1363 98.8855 61.0453 95.3931 59.5919 91.0543C58.3543 87.3598 55.5467 84.837 51.8383 85.9618C49.4072 86.6991 46.5695 89.3515 45.8473 91.7307C44.5849 95.8892 46.9777 98.9415 52.3558 99.8889Z" fill="#3A44B8"/>
<path d="M279.367 109.389C279.759 110.66 280.405 112.053 279.999 112.505C278.134 114.58 268.001 112.946 266.416 110.416C263.847 106.315 261.234 102.234 258.863 98.0191C256.131 93.1611 252.103 92.0764 246.512 93.3926C246.512 99.73 246.512 106.056 246.512 112.755C242.455 112.755 238.913 112.755 235.029 112.755C235.029 89.5062 235.029 66.2371 235.029 42.6797C238.669 42.6797 242.215 42.6797 246.363 42.6797C246.363 55.7137 246.363 68.583 246.363 81.4282C252.327 83.0466 256.273 81.3066 259.158 76.5592C260.859 73.76 262.898 71.1655 264.771 68.4697C268.58 62.99 273.024 61.8402 280.311 64.9095C275.126 72.321 270.023 79.6136 265.185 86.5279C269.725 93.8664 274.431 101.472 279.367 109.389Z" fill="white"/>
<path d="M180.727 68.2553C193.613 58.6564 211.032 60.3076 219.046 71.5849C225.774 81.0533 225.265 97.2384 217.959 106.154C211.221 114.377 197.567 117.058 186.47 112.338C175.133 107.517 169.435 92.5195 174.28 79.109C175.645 75.3321 178.373 72.0454 180.727 68.2553ZM211.883 88.6195C211.201 78.7023 208.368 74.1499 201.859 72.5123C194.292 70.6084 187.501 74.4953 185.358 81.9573C182.542 91.7646 186.209 101.278 193.8 103.856C203.295 107.08 210.261 101.535 211.883 88.6195Z" fill="white"/>
<path d="M287.209 83.4497C290.266 68.4607 298.697 61.5922 312.917 62.0831C326.785 62.5619 337.063 76.855 332.819 90.0502C332.49 91.0744 330.251 92.0506 328.876 92.0838C320.742 92.2808 312.601 92.1802 304.462 92.2101C302.787 92.2163 301.112 92.3512 299.448 92.4263C300.068 103.617 305.305 105.359 329.613 102.88C332.275 109.772 331.463 112.17 324.573 113.194C318.152 114.148 311.415 114.682 305.033 113.815C294.865 112.435 288.121 104.218 287.215 93.7493C286.934 90.4928 287.165 87.1921 287.209 83.4497ZM309.795 71.7682C302.231 73.7768 299.696 76.6345 299.777 83.4111C306.886 83.4111 313.999 83.4111 321.09 83.4111C321.622 75.7415 318.83 72.7135 309.795 71.7682Z" fill="white"/>
<path d="M355.689 94.4249C355.689 100.786 355.689 106.628 355.689 112.802C351.57 112.802 348.039 112.802 344.215 112.802C344.215 96.4656 344.215 80.2838 344.215 62.9699C348.438 63.6916 352.12 64.3207 357.588 65.2551C360.521 64.5463 365.599 62.4848 370.762 62.243C381.91 61.721 388.143 66.2988 389.254 77.3678C390.416 88.9488 389.514 100.736 389.514 112.793C386.021 112.793 382.47 112.793 378.343 112.793C378.343 106.568 378.345 100.37 378.341 94.173C378.339 90.7128 378.484 87.2431 378.278 83.7945C377.994 79.0184 377.313 74.2695 371.7 72.631C365.983 70.962 361.07 72.8448 356.948 76.7392C356.028 77.6082 355.794 79.4948 355.744 80.9303C355.593 85.2511 355.689 89.5804 355.689 94.4249Z" fill="white"/>
<path d="M125.253 103.663C127.182 103.248 129.051 103.106 130.897 103.252C136.546 103.7 142.204 104.726 147.822 104.527C149.855 104.455 152.75 101.92 153.544 99.8553C154.788 96.6175 151.942 94.9997 149.005 94.262C144.496 93.1298 139.909 92.2616 135.475 90.8944C128.377 88.7059 125.27 84.5316 125.163 77.7333C125.059 71.1066 128.548 64.8982 135.293 63.8811C143.314 62.6715 151.768 62.7512 159.818 63.8514C165.248 64.5936 161.91 69.9144 162.418 73.4063C156.745 72.7727 151.494 72.1082 146.225 71.6429C144.529 71.493 142.503 71.3643 141.135 72.1294C139.4 73.1003 137.127 74.9383 137.048 76.5017C136.974 77.9598 139.188 80.2699 140.89 80.9281C144.396 82.2833 148.228 82.8045 151.933 83.6369C161.518 85.7903 165.561 90.427 165.423 99.1387C165.299 106.89 160.366 112.724 151.421 113.839C145.159 114.62 138.6 114.373 132.338 113.461C124.777 112.361 124.852 111.847 125.253 103.663Z" fill="white"/>
</g>
<defs>
<clipPath id="clip0_924_113">
<rect width="416.471" height="160" fill="white" transform="translate(0.764648)"/>
</clipPath>
</defs>
</svg>
